<?xml version="1.0" encoding="utf-8"?>
<!-- Generator: Adobe Illustrator 21.1.0, SVG Export Plug-In . SVG Version: 6.00 Build 0)  -->
<svg version="1.1" id="Capa_1" xmlns="http://www.w3.org/2000/svg" xmlns:xlink="http://www.w3.org/1999/xlink" x="0px" y="0px"
	 viewBox="0 0 1190.6 646.5" style="enable-background:new 0 0 1190.6 646.5;" xml:space="preserve">
<style type="text/css">
	.st0{fill:#1E1E1C;}
	.st1{fill:#86CBC7;}
	.st2{fill:#FFFFFF;}
</style>
<g>
	<circle class="st0" cx="176.3" cy="232" r="82.9"/>
</g>
<g>
	<circle class="st0" cx="382.7" cy="229" r="82.9"/>
</g>
<g>
	<g>
		<path class="st1" d="M58.1,229.8v4.4l-12.6,4.6v-4.2L53,232l-7.5-2.6v-4.2L58.1,229.8z"/>
	</g>
	<g>
		<path class="st1" d="M73.5,229.8v4.4l-12.6,4.6v-4.2l7.5-2.6l-7.5-2.6v-4.2L73.5,229.8z"/>
	</g>
</g>
<g>
	<path class="st2" d="M176.5,202.4l-2.8,8.7h-3.1l-1.4-4.6l-1.5,4.6h-3.1l-2.8-8.7h3l1.5,4.9l1.6-4.9h2.7l1.5,5l1.6-5H176.5z"/>
	<path class="st2" d="M183.4,202.8c0.6,0.3,1.1,0.6,1.4,1.1c0.3,0.5,0.5,1.1,0.5,1.7s-0.2,1.2-0.5,1.7c-0.3,0.5-0.8,0.9-1.4,1.1
		c-0.6,0.3-1.3,0.4-2.1,0.4h-1.2v2.1h-2.9v-8.7h4.2C182.1,202.4,182.8,202.6,183.4,202.8z M182,206.5c0.2-0.2,0.3-0.4,0.3-0.8
		s-0.1-0.6-0.3-0.8s-0.5-0.3-0.9-0.3h-1.1v2h1.1C181.5,206.7,181.8,206.6,182,206.5z"/>
	<path class="st2" d="M190.1,202.4v8.7h-2.9v-6.5h-1.5v-2.2L190.1,202.4L190.1,202.4z"/>
	<path class="st2" d="M126.7,239.5v1.4h-6.5v-8.7h6.3v1.4h-4.7v2.2h4.2v1.3h-4.2v2.4L126.7,239.5L126.7,239.5z"/>
	<path class="st2" d="M136.2,232.2v8.7h-1.3l-4.8-5.9v5.9h-1.6v-8.7h1.3l4.8,5.9v-5.9H136.2z"/>
	<path class="st2" d="M146.4,232.2l-3.8,8.7H141l-3.8-8.7h1.8l2.9,6.7l2.9-6.7H146.4z"/>
	<path class="st2" d="M147.3,232.2h1.6v8.7h-1.6V232.2z"/>
	<path class="st2" d="M156.9,240.8l-1.8-2.5c-0.1,0-0.2,0-0.3,0h-2v2.5h-1.6v-8.7h3.6c0.8,0,1.4,0.1,2,0.4c0.6,0.2,1,0.6,1.3,1.1
		c0.3,0.5,0.4,1,0.4,1.6c0,0.6-0.2,1.2-0.5,1.7c-0.3,0.5-0.8,0.8-1.4,1l2,2.9L156.9,240.8L156.9,240.8z M156.4,234
		c-0.4-0.3-0.9-0.5-1.6-0.5h-1.9v3.5h1.9c0.7,0,1.2-0.1,1.6-0.5c0.4-0.3,0.6-0.7,0.6-1.3C156.9,234.7,156.7,234.3,156.4,234z"/>
	<path class="st2" d="M162,240.4c-0.7-0.4-1.3-0.9-1.7-1.6s-0.6-1.4-0.6-2.3s0.2-1.6,0.6-2.3s1-1.2,1.7-1.6c0.7-0.4,1.5-0.6,2.4-0.6
		s1.7,0.2,2.4,0.6c0.7,0.4,1.3,0.9,1.7,1.6s0.6,1.4,0.6,2.3s-0.2,1.6-0.6,2.3c-0.4,0.7-1,1.2-1.7,1.6c-0.7,0.4-1.5,0.6-2.4,0.6
		C163.5,241,162.7,240.8,162,240.4z M165.9,239.2c0.5-0.3,0.8-0.6,1.1-1.1s0.4-1,0.4-1.6s-0.1-1.1-0.4-1.6c-0.3-0.5-0.6-0.8-1.1-1.1
		c-0.5-0.3-1-0.4-1.6-0.4s-1.1,0.1-1.6,0.4c-0.5,0.3-0.8,0.6-1.1,1.1s-0.4,1-0.4,1.6s0.1,1.1,0.4,1.6c0.3,0.5,0.6,0.8,1.1,1.1
		c0.5,0.3,1,0.4,1.6,0.4S165.5,239.4,165.9,239.2z"/>
	<path class="st2" d="M178.4,232.2v8.7h-1.3l-4.8-5.9v5.9h-1.6v-8.7h1.3l4.8,5.9v-5.9H178.4z"/>
	<path class="st2" d="M188.7,240.8l0-5.8l-2.9,4.8h-0.7l-2.9-4.7v5.7h-1.5v-8.7h1.3l3.4,5.8l3.4-5.8h1.3l0,8.7L188.7,240.8
		L188.7,240.8z"/>
	<path class="st2" d="M199.1,239.5v1.4h-6.5v-8.7h6.3v1.4h-4.7v2.2h4.2v1.3h-4.2v2.4L199.1,239.5L199.1,239.5z"/>
	<path class="st2" d="M208.6,232.2v8.7h-1.3l-4.8-5.9v5.9h-1.6v-8.7h1.3l4.8,5.9v-5.9H208.6z"/>
	<path class="st2" d="M212.7,233.5h-2.9v-1.4h7.4v1.4h-2.9v7.3h-1.6L212.7,233.5L212.7,233.5z"/>
	<path class="st2" d="M223.6,238.8h-4.3l-0.9,2h-1.7l3.9-8.7h1.6l3.9,8.7h-1.7L223.6,238.8z M223,237.6l-1.6-3.8l-1.6,3.8H223z"/>
	<path class="st2" d="M227.2,232.2h1.6v7.3h4.5v1.4h-6.1V232.2z"/>
	<path class="st2" d="M142.1,255.7l0-5.8l-2.9,4.8h-0.7l-2.9-4.7v5.7h-1.5V247h1.3l3.4,5.8l3.4-5.8h1.3l0,8.7L142.1,255.7
		L142.1,255.7z"/>
	<path class="st2" d="M147.6,255.2c-0.7-0.4-1.3-0.9-1.7-1.6s-0.6-1.4-0.6-2.3s0.2-1.6,0.6-2.3s1-1.2,1.7-1.6
		c0.7-0.4,1.5-0.6,2.4-0.6s1.7,0.2,2.4,0.6c0.7,0.4,1.3,0.9,1.7,1.6s0.6,1.4,0.6,2.3s-0.2,1.6-0.6,2.3c-0.4,0.7-1,1.2-1.7,1.6
		c-0.7,0.4-1.5,0.6-2.4,0.6C149.1,255.8,148.3,255.6,147.6,255.2z M151.6,254c0.5-0.3,0.8-0.6,1.1-1.1s0.4-1,0.4-1.6
		s-0.1-1.1-0.4-1.6c-0.3-0.5-0.6-0.8-1.1-1.1c-0.5-0.3-1-0.4-1.6-0.4s-1.1,0.1-1.6,0.4c-0.5,0.3-0.8,0.6-1.1,1.1s-0.4,1-0.4,1.6
		s0.1,1.1,0.4,1.6c0.3,0.5,0.6,0.8,1.1,1.1c0.5,0.3,1,0.4,1.6,0.4S151.1,254.3,151.6,254z"/>
	<path class="st2" d="M164.1,247v8.7h-1.3l-4.8-5.9v5.9h-1.6V247h1.3l4.8,5.9V247H164.1z"/>
	<path class="st2" d="M166.4,247h1.6v8.7h-1.6V247z"/>
	<path class="st2" d="M172.1,248.4h-2.9V247h7.4v1.4h-2.9v7.3h-1.6L172.1,248.4L172.1,248.4z"/>
	<path class="st2" d="M179.4,255.2c-0.7-0.4-1.3-0.9-1.7-1.6s-0.6-1.4-0.6-2.3s0.2-1.6,0.6-2.3s1-1.2,1.7-1.6
		c0.7-0.4,1.5-0.6,2.4-0.6s1.7,0.2,2.4,0.6c0.7,0.4,1.3,0.9,1.7,1.6s0.6,1.4,0.6,2.3s-0.2,1.6-0.6,2.3c-0.4,0.7-1,1.2-1.7,1.6
		c-0.7,0.4-1.5,0.6-2.4,0.6C180.9,255.8,180.1,255.6,179.4,255.2z M183.3,254c0.5-0.3,0.8-0.6,1.1-1.1s0.4-1,0.4-1.6
		s-0.1-1.1-0.4-1.6c-0.3-0.5-0.6-0.8-1.1-1.1c-0.5-0.3-1-0.4-1.6-0.4s-1.1,0.1-1.6,0.4c-0.5,0.3-0.8,0.6-1.1,1.1s-0.4,1-0.4,1.6
		s0.1,1.1,0.4,1.6c0.3,0.5,0.6,0.8,1.1,1.1c0.5,0.3,1,0.4,1.6,0.4S182.9,254.3,183.3,254z"/>
	<path class="st2" d="M193.8,255.7l-1.8-2.5c-0.1,0-0.2,0-0.3,0h-2v2.5h-1.6V247h3.6c0.8,0,1.4,0.1,2,0.4c0.6,0.2,1,0.6,1.3,1.1
		c0.3,0.5,0.4,1,0.4,1.6c0,0.6-0.2,1.2-0.5,1.7c-0.3,0.5-0.8,0.8-1.4,1l2,2.9L193.8,255.7L193.8,255.7z M193.2,248.8
		c-0.4-0.3-0.9-0.5-1.6-0.5h-1.9v3.5h1.9c0.7,0,1.2-0.1,1.6-0.5c0.4-0.3,0.6-0.7,0.6-1.3C193.8,249.6,193.6,249.1,193.2,248.8z"/>
	<path class="st2" d="M197.2,247h1.6v8.7h-1.6V247z"/>
	<path class="st2" d="M208.8,247v8.7h-1.3l-4.8-5.9v5.9h-1.6V247h1.3l4.8,5.9V247H208.8z"/>
	<path class="st2" d="M217.1,251.3h1.5v3.5c-0.4,0.4-1,0.6-1.6,0.8s-1.2,0.3-1.8,0.3c-0.9,0-1.7-0.2-2.4-0.6
		c-0.7-0.4-1.3-0.9-1.7-1.6s-0.6-1.4-0.6-2.3s0.2-1.6,0.6-2.3c0.4-0.7,1-1.2,1.7-1.6c0.7-0.4,1.5-0.6,2.4-0.6c0.7,0,1.4,0.1,2,0.4
		s1.1,0.6,1.5,1l-1,1c-0.7-0.7-1.5-1-2.4-1c-0.6,0-1.1,0.1-1.6,0.4c-0.5,0.3-0.9,0.6-1.1,1.1c-0.3,0.5-0.4,1-0.4,1.6
		c0,0.6,0.1,1.1,0.4,1.6c0.3,0.5,0.6,0.8,1.1,1.1c0.5,0.3,1,0.4,1.6,0.4c0.7,0,1.3-0.1,1.8-0.5L217.1,251.3L217.1,251.3z"/>
</g>
<g>
	<circle class="st0" cx="826.9" cy="330.1" r="82.9"/>
</g>
<g>
	<path class="st2" d="M825.7,293.1l-2.8,8.7h-3.1l-1.4-4.6l-1.5,4.6h-3.1l-2.8-8.7h3l1.5,4.9l1.6-4.9h2.7l1.5,5l1.6-5H825.7z"/>
	<path class="st2" d="M832.6,293.5c0.6,0.3,1,0.6,1.4,1.1s0.5,1.1,0.5,1.7s-0.2,1.2-0.5,1.7s-0.8,0.9-1.4,1.1
		c-0.6,0.3-1.3,0.4-2.1,0.4h-1.2v2.1h-2.9v-8.7h4.2C831.3,293.1,832,293.3,832.6,293.5z M831.2,297.1c0.2-0.2,0.3-0.4,0.3-0.8
		s-0.1-0.6-0.3-0.8s-0.5-0.3-0.9-0.3h-1.1v2h1.1C830.7,297.4,831,297.3,831.2,297.1z"/>
	<path class="st2" d="M841.3,296.5c0.5,0.2,0.8,0.6,1.1,1s0.4,0.9,0.4,1.5c0,0.6-0.2,1.1-0.5,1.6s-0.7,0.8-1.3,1.1
		c-0.5,0.2-1.1,0.4-1.8,0.4c-0.8,0-1.6-0.2-2.2-0.5c-0.6-0.3-1.1-0.8-1.5-1.4c-0.3-0.6-0.5-1.4-0.5-2.3c0-1,0.2-1.9,0.6-2.6
		c0.4-0.7,1-1.3,1.7-1.7s1.6-0.6,2.5-0.6c0.5,0,1,0.1,1.5,0.2s0.9,0.3,1.2,0.5l-1,2c-0.4-0.3-1-0.5-1.6-0.5c-0.5,0-0.9,0.1-1.2,0.4
		c-0.3,0.2-0.5,0.6-0.6,1.1c0.5-0.3,1-0.5,1.7-0.5C840.4,296.2,840.9,296.3,841.3,296.5z M839.8,299.7c0.2-0.2,0.2-0.4,0.2-0.6
		c0-0.3-0.1-0.5-0.2-0.6c-0.2-0.2-0.4-0.2-0.6-0.2s-0.5,0.1-0.6,0.2c-0.2,0.2-0.2,0.4-0.2,0.6s0.1,0.5,0.2,0.6
		c0.2,0.2,0.4,0.2,0.6,0.2C839.4,300,839.6,299.9,839.8,299.7z"/>
	<path class="st2" d="M789,322.8h1.6v7.3h4.5v1.4H789V322.8z"/>
	<path class="st2" d="M797.9,331.1c-0.7-0.4-1.3-0.9-1.7-1.6c-0.4-0.7-0.6-1.4-0.6-2.3s0.2-1.6,0.6-2.3c0.4-0.7,1-1.2,1.7-1.6
		c0.7-0.4,1.5-0.6,2.4-0.6s1.7,0.2,2.4,0.6c0.7,0.4,1.3,0.9,1.7,1.6c0.4,0.7,0.6,1.4,0.6,2.3s-0.2,1.6-0.6,2.3
		c-0.4,0.7-1,1.2-1.7,1.6c-0.7,0.4-1.5,0.6-2.4,0.6C799.4,331.6,798.6,331.4,797.9,331.1z M801.8,329.8c0.5-0.3,0.8-0.6,1.1-1.1
		s0.4-1,0.4-1.6s-0.1-1.1-0.4-1.6c-0.3-0.5-0.6-0.8-1.1-1.1s-1-0.4-1.6-0.4s-1.1,0.1-1.6,0.4s-0.8,0.6-1.1,1.1s-0.4,1-0.4,1.6
		s0.1,1.1,0.4,1.6c0.3,0.5,0.6,0.8,1.1,1.1s1,0.4,1.6,0.4S801.4,330.1,801.8,329.8z"/>
	<path class="st2" d="M814.3,322.8v8.7H813l-4.8-5.9v5.9h-1.6v-8.7h1.3l4.8,5.9v-5.9H814.3z"/>
	<path class="st2" d="M822.6,327.1h1.5v3.5c-0.5,0.4-1,0.6-1.6,0.8s-1.2,0.3-1.8,0.3c-0.9,0-1.7-0.2-2.4-0.6
		c-0.7-0.4-1.3-0.9-1.7-1.6c-0.4-0.7-0.6-1.4-0.6-2.3s0.2-1.6,0.6-2.3c0.4-0.7,1-1.2,1.7-1.6c0.7-0.4,1.5-0.6,2.4-0.6
		c0.7,0,1.4,0.1,2,0.4c0.6,0.2,1.1,0.6,1.5,1l-1,1c-0.7-0.7-1.5-1-2.4-1c-0.6,0-1.2,0.1-1.6,0.4c-0.5,0.3-0.8,0.6-1.1,1.1
		s-0.4,1-0.4,1.6c0,0.6,0.1,1.1,0.4,1.6s0.6,0.8,1.1,1.1c0.5,0.3,1,0.4,1.6,0.4c0.7,0,1.3-0.1,1.8-0.5L822.6,327.1L822.6,327.1z"/>
	<path class="st2" d="M825.8,327.4h3.4v1.3h-3.4V327.4z"/>
	<path class="st2" d="M832.3,324.2h-2.9v-1.4h7.4v1.4H834v7.3h-1.6L832.3,324.2L832.3,324.2z"/>
	<path class="st2" d="M844.5,330.2v1.4H838v-8.7h6.3v1.4h-4.7v2.2h4.2v1.3h-4.2v2.4L844.5,330.2L844.5,330.2z"/>
	<path class="st2" d="M852,331.5l-1.8-2.5c-0.1,0-0.2,0-0.3,0h-2v2.5h-1.6v-8.7h3.6c0.8,0,1.4,0.1,2,0.4c0.6,0.2,1,0.6,1.3,1.1
		c0.3,0.5,0.5,1,0.5,1.6c0,0.6-0.2,1.2-0.5,1.7s-0.8,0.8-1.4,1l2,2.9L852,331.5L852,331.5z M851.4,324.6c-0.4-0.3-0.9-0.5-1.6-0.5
		h-1.9v3.5h1.9c0.7,0,1.2-0.1,1.6-0.5c0.4-0.3,0.5-0.7,0.5-1.3C852,325.4,851.8,324.9,851.4,324.6z"/>
	<path class="st2" d="M863.3,331.5l0-5.8l-2.8,4.8h-0.7l-2.8-4.7v5.7h-1.5v-8.7h1.3l3.4,5.7l3.4-5.7h1.3l0,8.7L863.3,331.5
		L863.3,331.5z"/>
	<path class="st2" d="M768.8,345v1.4h-6.5v-8.7h6.3v1.4h-4.7v2.2h4.2v1.3h-4.2v2.4L768.8,345L768.8,345z"/>
	<path class="st2" d="M775.9,346.4l-2.3-3.3l-2.3,3.3h-1.8l3.2-4.4l-3-4.2h1.8l2.2,3.1l2.2-3.1h1.8l-3,4.2l3.3,4.5H775.9z"/>
	<path class="st2" d="M784.3,338.1c0.6,0.2,1,0.6,1.3,1.1c0.3,0.5,0.4,1,0.4,1.6c0,0.6-0.2,1.2-0.4,1.6c-0.3,0.5-0.7,0.8-1.3,1.1
		c-0.6,0.2-1.2,0.4-2,0.4h-2v2.5h-1.6v-8.7h3.6C783.1,337.7,783.7,337.8,784.3,338.1z M783.8,342.1c0.4-0.3,0.5-0.7,0.5-1.3
		s-0.2-1-0.5-1.3c-0.4-0.3-0.9-0.5-1.6-0.5h-1.9v3.4h1.9C782.9,342.5,783.5,342.4,783.8,342.1z"/>
	<path class="st2" d="M789.4,345.9c-0.7-0.4-1.3-0.9-1.7-1.6c-0.4-0.7-0.6-1.4-0.6-2.3s0.2-1.6,0.6-2.3c0.4-0.7,1-1.2,1.7-1.6
		c0.7-0.4,1.5-0.6,2.4-0.6s1.7,0.2,2.4,0.6c0.7,0.4,1.3,0.9,1.7,1.6c0.4,0.7,0.6,1.4,0.6,2.3s-0.2,1.6-0.6,2.3
		c-0.4,0.7-1,1.2-1.7,1.6c-0.7,0.4-1.5,0.6-2.4,0.6C790.9,346.5,790.1,346.3,789.4,345.9z M793.3,344.7c0.5-0.3,0.8-0.6,1.1-1.1
		s0.4-1,0.4-1.6s-0.1-1.1-0.4-1.6c-0.3-0.5-0.6-0.8-1.1-1.1s-1-0.4-1.6-0.4s-1.1,0.1-1.6,0.4s-0.8,0.6-1.1,1.1s-0.4,1-0.4,1.6
		s0.1,1.1,0.4,1.6c0.3,0.5,0.6,0.8,1.1,1.1s1,0.4,1.6,0.4S792.9,344.9,793.3,344.7z"/>
	<path class="st2" d="M798.9,346.2c-0.6-0.2-1.1-0.4-1.5-0.8l0.6-1.2c0.4,0.3,0.8,0.5,1.3,0.7s1,0.3,1.5,0.3c0.6,0,1.1-0.1,1.4-0.3
		s0.5-0.5,0.5-0.8c0-0.2-0.1-0.5-0.3-0.6c-0.2-0.2-0.4-0.3-0.7-0.4c-0.3-0.1-0.6-0.2-1.1-0.3c-0.7-0.2-1.2-0.3-1.6-0.5
		s-0.8-0.4-1-0.7c-0.3-0.3-0.4-0.8-0.4-1.4c0-0.5,0.1-0.9,0.4-1.3c0.3-0.4,0.7-0.7,1.2-0.9c0.5-0.2,1.2-0.4,1.9-0.4
		c0.5,0,1,0.1,1.6,0.2s1,0.3,1.3,0.6l-0.5,1.2c-0.4-0.2-0.8-0.4-1.2-0.5s-0.8-0.2-1.2-0.2c-0.6,0-1.1,0.1-1.4,0.3
		c-0.3,0.2-0.5,0.5-0.5,0.9c0,0.2,0.1,0.5,0.3,0.6s0.4,0.3,0.7,0.4c0.3,0.1,0.6,0.2,1.1,0.3c0.6,0.1,1.2,0.3,1.6,0.5
		c0.4,0.2,0.8,0.4,1.1,0.7s0.4,0.8,0.4,1.3c0,0.5-0.1,0.9-0.4,1.3c-0.3,0.4-0.7,0.7-1.2,0.9s-1.2,0.4-1.9,0.4
		C800.2,346.5,799.5,346.4,798.9,346.2z"/>
	<path class="st2" d="M806.9,345.5c-0.7-0.7-1-1.6-1-2.9v-4.9h1.6v4.8c0,1.7,0.7,2.5,2.2,2.5s2.2-0.9,2.2-2.5v-4.8h1.6v4.9
		c0,1.2-0.3,2.2-1,2.9s-1.6,1-2.8,1S807.5,346.2,806.9,345.5z"/>
	<path class="st2" d="M821.4,346.4l-1.8-2.5c-0.1,0-0.2,0-0.3,0h-2v2.5h-1.6v-8.7h3.6c0.8,0,1.4,0.1,2,0.4c0.6,0.2,1,0.6,1.3,1.1
		c0.3,0.5,0.4,1,0.4,1.6c0,0.6-0.2,1.2-0.5,1.7s-0.8,0.8-1.4,1l2,2.9L821.4,346.4L821.4,346.4z M820.8,339.5
		c-0.4-0.3-0.9-0.5-1.6-0.5h-1.9v3.5h1.9c0.7,0,1.2-0.1,1.6-0.5c0.4-0.3,0.5-0.7,0.5-1.3S821.2,339.8,820.8,339.5z"/>
	<path class="st2" d="M831.3,345v1.4h-6.5v-8.7h6.3v1.4h-4.7v2.2h4.2v1.3h-4.2v2.4L831.3,345L831.3,345z"/>
	<path class="st2" d="M836.5,337.7h1.6v8.7h-1.6V337.7z"/>
	<path class="st2" d="M848.4,346.4l0-5.8l-2.8,4.8h-0.7l-2.8-4.7v5.7h-1.5v-8.7h1.3l3.4,5.7l3.4-5.7h1.3l0,8.7L848.4,346.4
		L848.4,346.4z"/>
	<path class="st2" d="M857.8,338.1c0.6,0.2,1,0.6,1.3,1.1c0.3,0.5,0.5,1,0.5,1.6c0,0.6-0.2,1.2-0.5,1.6s-0.7,0.8-1.3,1.1
		s-1.2,0.4-2,0.4h-2v2.5h-1.6v-8.7h3.6C856.6,337.7,857.2,337.8,857.8,338.1z M857.3,342.1c0.4-0.3,0.5-0.7,0.5-1.3s-0.2-1-0.5-1.3
		c-0.4-0.3-0.9-0.5-1.6-0.5h-1.9v3.4h1.9C856.5,342.5,857,342.4,857.3,342.1z"/>
	<path class="st2" d="M866.3,344.4H862l-0.8,2h-1.7l3.9-8.7h1.6l3.9,8.7h-1.7L866.3,344.4z M865.8,343.1l-1.6-3.8l-1.6,3.8H865.8z"
		/>
	<path class="st2" d="M871.5,345.9c-0.7-0.4-1.3-0.9-1.7-1.6s-0.6-1.4-0.6-2.3s0.2-1.6,0.6-2.3c0.4-0.7,1-1.2,1.7-1.6
		c0.7-0.4,1.5-0.6,2.4-0.6c0.7,0,1.4,0.1,1.9,0.4c0.6,0.2,1.1,0.6,1.5,1.1l-1,1c-0.6-0.7-1.4-1-2.3-1c-0.6,0-1.1,0.1-1.6,0.4
		s-0.8,0.6-1.1,1.1c-0.3,0.5-0.4,1-0.4,1.6c0,0.6,0.1,1.1,0.4,1.6c0.3,0.5,0.6,0.8,1.1,1.1c0.5,0.3,1,0.4,1.6,0.4
		c0.9,0,1.7-0.3,2.3-1l1,1c-0.4,0.5-0.9,0.8-1.5,1.1s-1.2,0.4-2,0.4C873,346.5,872.2,346.3,871.5,345.9z"/>
	<path class="st2" d="M880.5,339.1h-2.9v-1.4h7.4v1.4h-2.9v7.3h-1.6L880.5,339.1L880.5,339.1z"/>
	<path class="st2" d="M886.9,346.2c-0.6-0.2-1.1-0.4-1.5-0.8l0.6-1.2c0.4,0.3,0.8,0.5,1.3,0.7s1,0.3,1.5,0.3c0.6,0,1.1-0.1,1.4-0.3
		s0.5-0.5,0.5-0.8c0-0.2-0.1-0.5-0.3-0.6c-0.2-0.2-0.4-0.3-0.7-0.4c-0.3-0.1-0.6-0.2-1.1-0.3c-0.7-0.2-1.2-0.3-1.6-0.5
		s-0.8-0.4-1-0.7c-0.3-0.3-0.4-0.8-0.4-1.4c0-0.5,0.1-0.9,0.4-1.3c0.3-0.4,0.7-0.7,1.2-0.9c0.5-0.2,1.2-0.4,1.9-0.4
		c0.5,0,1,0.1,1.6,0.2s1,0.3,1.3,0.6l-0.5,1.2c-0.4-0.2-0.8-0.4-1.2-0.5s-0.8-0.2-1.2-0.2c-0.6,0-1.1,0.1-1.4,0.3
		c-0.3,0.2-0.5,0.5-0.5,0.9c0,0.2,0.1,0.5,0.3,0.6c0.2,0.2,0.4,0.3,0.7,0.4c0.3,0.1,0.6,0.2,1.1,0.3c0.6,0.1,1.2,0.3,1.6,0.5
		c0.4,0.2,0.8,0.4,1.1,0.7s0.4,0.8,0.4,1.3c0,0.5-0.1,0.9-0.4,1.3c-0.3,0.4-0.7,0.7-1.2,0.9c-0.5,0.2-1.2,0.4-1.9,0.4
		C888.1,346.5,887.5,346.4,886.9,346.2z"/>
</g>
<g>
	<path class="st2" d="M381.8,199.4l-2.8,8.7h-3.1l-1.4-4.6l-1.5,4.6h-3.1l-2.8-8.7h3l1.5,4.9l1.6-4.9h2.7l1.5,5l1.6-5H381.8z"/>
	<path class="st2" d="M388.7,199.8c0.6,0.3,1,0.6,1.4,1.1s0.5,1.1,0.5,1.7s-0.2,1.2-0.5,1.7s-0.8,0.9-1.4,1.1
		c-0.6,0.3-1.3,0.4-2.1,0.4h-1.2v2.1h-2.9v-8.7h4.2C387.4,199.4,388.1,199.6,388.7,199.8z M387.3,203.5c0.2-0.2,0.3-0.4,0.3-0.8
		s-0.1-0.6-0.3-0.8c-0.2-0.2-0.5-0.3-0.9-0.3h-1.1v2h1.1C386.8,203.7,387.1,203.6,387.3,203.5z"/>
	<path class="st2" d="M398.2,205.8v2.3h-7v-1.8l3.1-2.9c0.3-0.3,0.5-0.5,0.5-0.7c0.1-0.2,0.1-0.4,0.1-0.5c0-0.2-0.1-0.4-0.2-0.5
		c-0.1-0.1-0.4-0.2-0.6-0.2c-0.3,0-0.5,0.1-0.7,0.2s-0.4,0.3-0.5,0.6l-2.2-1.1c0.3-0.6,0.8-1.1,1.5-1.5s1.4-0.5,2.3-0.5
		c0.7,0,1.3,0.1,1.8,0.3s0.9,0.5,1.2,1s0.5,0.9,0.5,1.4c0,0.5-0.1,0.9-0.3,1.3c-0.2,0.4-0.6,0.9-1.2,1.4l-1.2,1.1L398.2,205.8
		L398.2,205.8z"/>
	<path class="st2" d="M366.1,229.2v8.7h-1.6v-3.7H360v3.7h-1.6v-8.7h1.6v3.6h4.5v-3.6H366.1z"/>
	<path class="st2" d="M369.4,236.9c-0.7-0.7-1-1.6-1-2.9v-4.9h1.6v4.8c0,1.7,0.7,2.5,2.2,2.5c1.5,0,2.2-0.9,2.2-2.5v-4.8h1.6v4.9
		c0,1.2-0.3,2.2-1,2.9s-1.6,1-2.8,1S370,237.6,369.4,236.9z"/>
	<path class="st2" d="M386.1,237.8l0-5.8l-2.9,4.8h-0.7l-2.9-4.7v5.7h-1.5v-8.7h1.3l3.4,5.8l3.4-5.8h1.3l0,8.7L386.1,237.8
		L386.1,237.8z"/>
	<path class="st2" d="M395.6,235.8h-4.3l-0.9,2h-1.7l3.9-8.7h1.6l3.9,8.7h-1.7L395.6,235.8z M395.1,234.5l-1.6-3.8l-1.6,3.8H395.1z"
		/>
	<path class="st2" d="M407,229.2v8.7h-1.3l-4.8-5.9v5.9h-1.6v-8.7h1.3l4.8,5.9v-5.9H407z"/>
	<path class="st2" d="M336,249c0.3,0.4,0.4,0.8,0.4,1.4c0,0.8-0.3,1.3-0.9,1.7s-1.4,0.6-2.5,0.6h-4.3V244h4.1c1,0,1.8,0.2,2.4,0.6
		c0.5,0.4,0.8,1,0.8,1.6c0,0.4-0.1,0.8-0.3,1.1c-0.2,0.3-0.5,0.6-0.8,0.8C335.3,248.3,335.7,248.6,336,249z M330.3,245.3v2.4h2.3
		c0.6,0,1-0.1,1.3-0.3s0.5-0.5,0.5-0.9c0-0.4-0.1-0.7-0.5-0.9c-0.3-0.2-0.7-0.3-1.3-0.3L330.3,245.3L330.3,245.3z M334.7,250.2
		c0-0.8-0.6-1.2-1.9-1.2h-2.6v2.5h2.6C334.1,251.4,334.7,251,334.7,250.2z"/>
	<path class="st2" d="M338.1,244h1.6v8.7h-1.6V244z"/>
	<path class="st2" d="M343.7,252.2c-0.7-0.4-1.3-0.9-1.7-1.6c-0.4-0.7-0.6-1.4-0.6-2.3s0.2-1.6,0.6-2.3c0.4-0.7,1-1.2,1.7-1.6
		c0.7-0.4,1.5-0.6,2.4-0.6s1.7,0.2,2.4,0.6c0.7,0.4,1.3,0.9,1.7,1.6c0.4,0.7,0.6,1.4,0.6,2.3s-0.2,1.6-0.6,2.3
		c-0.4,0.7-1,1.2-1.7,1.6c-0.7,0.4-1.5,0.6-2.4,0.6C345.2,252.8,344.4,252.6,343.7,252.2z M347.6,251c0.5-0.3,0.8-0.6,1.1-1.1
		s0.4-1,0.4-1.6s-0.1-1.1-0.4-1.6c-0.3-0.5-0.6-0.8-1.1-1.1s-1-0.4-1.6-0.4s-1.1,0.1-1.6,0.4s-0.8,0.6-1.1,1.1s-0.4,1-0.4,1.6
		s0.1,1.1,0.4,1.6c0.3,0.5,0.6,0.8,1.1,1.1s1,0.4,1.6,0.4S347.2,251.3,347.6,251z"/>
	<path class="st2" d="M360.4,252.7l0-5.8l-2.9,4.8h-0.7L354,247v5.7h-1.5V244h1.3l3.4,5.8l3.4-5.8h1.3l0,8.7L360.4,252.7
		L360.4,252.7z"/>
	<path class="st2" d="M366,252.2c-0.7-0.4-1.3-0.9-1.7-1.6c-0.4-0.7-0.6-1.4-0.6-2.3s0.2-1.6,0.6-2.3c0.4-0.7,1-1.2,1.7-1.6
		c0.7-0.4,1.5-0.6,2.4-0.6s1.7,0.2,2.4,0.6c0.7,0.4,1.3,0.9,1.7,1.6c0.4,0.7,0.6,1.4,0.6,2.3s-0.2,1.6-0.6,2.3
		c-0.4,0.7-1,1.2-1.7,1.6c-0.7,0.4-1.5,0.6-2.4,0.6C367.5,252.8,366.7,252.6,366,252.2z M369.9,251c0.5-0.3,0.8-0.6,1.1-1.1
		s0.4-1,0.4-1.6s-0.1-1.1-0.4-1.6c-0.3-0.5-0.6-0.8-1.1-1.1s-1-0.4-1.6-0.4s-1.1,0.1-1.6,0.4s-0.8,0.6-1.1,1.1s-0.4,1-0.4,1.6
		s0.1,1.1,0.4,1.6c0.3,0.5,0.6,0.8,1.1,1.1s1,0.4,1.6,0.4S369.4,251.3,369.9,251z"/>
	<path class="st2" d="M382.4,244v8.7h-1.3l-4.8-5.9v5.9h-1.6V244h1.3l4.8,5.9V244H382.4z"/>
	<path class="st2" d="M384.7,244h1.6v8.7h-1.6V244z"/>
	<path class="st2" d="M390.5,245.4h-2.9V244h7.4v1.4h-2.9v7.3h-1.6L390.5,245.4L390.5,245.4z"/>
	<path class="st2" d="M397.7,252.2c-0.7-0.4-1.3-0.9-1.7-1.6c-0.4-0.7-0.6-1.4-0.6-2.3s0.2-1.6,0.6-2.3c0.4-0.7,1-1.2,1.7-1.6
		c0.7-0.4,1.5-0.6,2.4-0.6s1.7,0.2,2.4,0.6c0.7,0.4,1.3,0.9,1.7,1.6c0.4,0.7,0.6,1.4,0.6,2.3s-0.2,1.6-0.6,2.3
		c-0.4,0.7-1,1.2-1.7,1.6c-0.7,0.4-1.5,0.6-2.4,0.6C399.2,252.8,398.4,252.6,397.7,252.2z M401.6,251c0.5-0.3,0.8-0.6,1.1-1.1
		s0.4-1,0.4-1.6s-0.1-1.1-0.4-1.6c-0.3-0.5-0.6-0.8-1.1-1.1s-1-0.4-1.6-0.4s-1.1,0.1-1.6,0.4s-0.8,0.6-1.1,1.1s-0.4,1-0.4,1.6
		s0.1,1.1,0.4,1.6c0.3,0.5,0.6,0.8,1.1,1.1s1,0.4,1.6,0.4S401.2,251.3,401.6,251z"/>
	<path class="st2" d="M412.1,252.7l-1.8-2.5c-0.1,0-0.2,0-0.3,0h-2v2.5h-1.6V244h3.6c0.8,0,1.4,0.1,2,0.4c0.6,0.2,1,0.6,1.3,1.1
		c0.3,0.5,0.4,1,0.4,1.6c0,0.6-0.2,1.2-0.5,1.7s-0.8,0.8-1.4,1l2,2.9L412.1,252.7L412.1,252.7z M411.5,245.8
		c-0.4-0.3-0.9-0.5-1.6-0.5h-1.9v3.5h1.9c0.7,0,1.2-0.1,1.6-0.5c0.4-0.3,0.5-0.7,0.5-1.3C412.1,246.5,411.9,246.1,411.5,245.8z"/>
	<path class="st2" d="M415.5,244h1.6v8.7h-1.6V244z"/>
	<path class="st2" d="M427.1,244v8.7h-1.3l-4.8-5.9v5.9h-1.6V244h1.3l4.8,5.9V244H427.1z"/>
	<path class="st2" d="M435.4,248.2h1.5v3.5c-0.5,0.4-1,0.6-1.6,0.8s-1.2,0.3-1.8,0.3c-0.9,0-1.7-0.2-2.4-0.6
		c-0.7-0.4-1.3-0.9-1.7-1.6c-0.4-0.7-0.6-1.4-0.6-2.3s0.2-1.6,0.6-2.3c0.4-0.7,1-1.2,1.7-1.6c0.7-0.4,1.5-0.6,2.4-0.6
		c0.7,0,1.4,0.1,2,0.4s1.1,0.6,1.5,1l-1,1c-0.7-0.7-1.5-1-2.4-1c-0.6,0-1.1,0.1-1.6,0.4c-0.5,0.3-0.9,0.6-1.1,1.1
		c-0.3,0.5-0.4,1-0.4,1.6c0,0.6,0.1,1.1,0.4,1.6s0.6,0.8,1.1,1.1c0.5,0.3,1,0.4,1.6,0.4c0.7,0,1.3-0.1,1.8-0.5L435.4,248.2
		L435.4,248.2z"/>
</g>
<g>
	<circle class="st0" cx="826.9" cy="127.9" r="82.9"/>
</g>
<g>
	<path class="st2" d="M825.5,98.3l-2.8,8.7h-3.1l-1.4-4.6l-1.5,4.6h-3.1l-2.8-8.7h3l1.5,4.9l1.6-4.9h2.7l1.5,5l1.6-5H825.5z"/>
	<path class="st2" d="M832.4,98.7c0.6,0.3,1,0.6,1.4,1.1s0.5,1.1,0.5,1.7s-0.2,1.2-0.5,1.7c-0.3,0.5-0.8,0.9-1.4,1.1
		c-0.6,0.3-1.3,0.4-2.1,0.4h-1.2v2.1h-2.9v-8.7h4.2C831.1,98.3,831.8,98.5,832.4,98.7z M831,102.4c0.2-0.2,0.3-0.4,0.3-0.8
		s-0.1-0.6-0.3-0.8s-0.5-0.3-0.9-0.3h-1.1v2h1.1C830.5,102.6,830.8,102.5,831,102.4z"/>
	<path class="st2" d="M843.1,105.5h-1.2v1.5h-2.8v-1.5h-4.5v-1.9l3.7-5.3h3l-3.3,4.9h1.2v-1.3h2.8v1.3h1.2L843.1,105.5L843.1,105.5z
		"/>
	<path class="st2" d="M797.2,129.4v2.6h4.2v1.4h-4.2v3.3h-1.6v-8.7h6.3v1.4L797.2,129.4L797.2,129.4z"/>
	<path class="st2" d="M808.7,134.7h-4.3l-0.8,2h-1.7l3.9-8.7h1.6l3.9,8.7h-1.7L808.7,134.7z M808.2,133.5l-1.6-3.8l-1.6,3.8H808.2z"
		/>
	<path class="st2" d="M813.7,129.4h-2.9v-1.4h7.4v1.4h-2.9v7.3h-1.6L813.7,129.4L813.7,129.4z"/>
	<path class="st2" d="M825.9,135.4v1.4h-6.5v-8.7h6.3v1.4H821v2.2h4.2v1.3H821v2.4L825.9,135.4L825.9,135.4z"/>
	<path class="st2" d="M836.7,134.7h-4.3l-0.8,2h-1.7l3.9-8.7h1.6l3.9,8.7h-1.7L836.7,134.7z M836.2,133.5l-1.6-3.8l-1.6,3.8H836.2z"
		/>
	<path class="st2" d="M848,128.1v8.7h-1.3l-4.8-5.9v5.9h-1.6v-8.7h1.3l4.8,5.9v-5.9H848z"/>
	<path class="st2" d="M850.4,128.1h3.8c0.9,0,1.8,0.2,2.5,0.5c0.7,0.4,1.3,0.9,1.7,1.5c0.4,0.7,0.6,1.4,0.6,2.3s-0.2,1.6-0.6,2.3
		c-0.4,0.7-1,1.2-1.7,1.5s-1.5,0.5-2.5,0.5h-3.8V128.1z M854.1,135.4c0.6,0,1.2-0.1,1.7-0.4c0.5-0.2,0.8-0.6,1.1-1s0.4-1,0.4-1.6
		s-0.1-1.1-0.4-1.6c-0.3-0.4-0.6-0.8-1.1-1c-0.5-0.2-1-0.4-1.7-0.4H852v5.9L854.1,135.4L854.1,135.4z"/>
	<path class="st2" d="M772,147.9c0.3,0.4,0.4,0.8,0.4,1.4c0,0.8-0.3,1.3-0.9,1.7s-1.4,0.6-2.5,0.6h-4.3v-8.7h4.1
		c1,0,1.8,0.2,2.4,0.6c0.5,0.4,0.8,1,0.8,1.6c0,0.4-0.1,0.8-0.3,1.1c-0.2,0.3-0.5,0.6-0.8,0.8C771.3,147.2,771.7,147.5,772,147.9z
		 M766.3,144.2v2.4h2.3c0.6,0,1-0.1,1.3-0.3c0.3-0.2,0.5-0.5,0.5-0.9c0-0.4-0.2-0.7-0.5-0.9c-0.3-0.2-0.7-0.3-1.3-0.3L766.3,144.2
		L766.3,144.2z M770.8,149.1c0-0.8-0.6-1.2-1.9-1.2h-2.6v2.5h2.6C770.2,150.3,770.8,149.9,770.8,149.1z"/>
	<path class="st2" d="M774.2,142.9h1.6v8.7h-1.6V142.9z"/>
	<path class="st2" d="M779.8,151.1c-0.7-0.4-1.3-0.9-1.7-1.6c-0.4-0.7-0.6-1.4-0.6-2.3s0.2-1.6,0.6-2.3s1-1.2,1.7-1.6
		c0.7-0.4,1.5-0.6,2.4-0.6s1.7,0.2,2.4,0.6c0.7,0.4,1.3,0.9,1.7,1.6c0.4,0.7,0.6,1.4,0.6,2.3s-0.2,1.6-0.6,2.3
		c-0.4,0.7-1,1.2-1.7,1.6c-0.7,0.4-1.5,0.6-2.4,0.6C781.3,151.7,780.5,151.5,779.8,151.1z M783.7,149.9c0.5-0.3,0.8-0.6,1.1-1.1
		s0.4-1,0.4-1.6s-0.1-1.1-0.4-1.6c-0.3-0.5-0.6-0.8-1.1-1.1s-1-0.4-1.6-0.4s-1.1,0.1-1.6,0.4s-0.8,0.6-1.1,1.1s-0.4,1-0.4,1.6
		s0.1,1.1,0.4,1.6c0.3,0.5,0.6,0.8,1.1,1.1s1,0.4,1.6,0.4S783.2,150.2,783.7,149.9z"/>
	<path class="st2" d="M794,149.6h-4.3l-0.8,2h-1.7l3.9-8.7h1.6l3.9,8.7h-1.7L794,149.6z M793.5,148.3l-1.6-3.8l-1.6,3.8H793.5z"/>
	<path class="st2" d="M799.2,151.1c-0.7-0.4-1.3-0.9-1.7-1.6c-0.4-0.7-0.6-1.4-0.6-2.3s0.2-1.6,0.6-2.3c0.4-0.7,1-1.2,1.7-1.6
		c0.7-0.4,1.5-0.6,2.4-0.6c0.7,0,1.4,0.1,1.9,0.4c0.6,0.2,1.1,0.6,1.5,1.1l-1,1c-0.6-0.7-1.4-1-2.3-1c-0.6,0-1.1,0.1-1.6,0.4
		s-0.8,0.6-1.1,1.1c-0.3,0.5-0.4,1-0.4,1.6c0,0.6,0.1,1.1,0.4,1.6c0.3,0.5,0.6,0.8,1.1,1.1c0.5,0.3,1,0.4,1.6,0.4
		c0.9,0,1.7-0.3,2.3-1l1,1c-0.4,0.5-0.9,0.8-1.5,1.1c-0.6,0.2-1.2,0.4-2,0.4C800.7,151.7,799.9,151.5,799.2,151.1z"/>
	<path class="st2" d="M808,151.1c-0.7-0.4-1.3-0.9-1.7-1.6c-0.4-0.7-0.6-1.4-0.6-2.3s0.2-1.6,0.6-2.3c0.4-0.7,1-1.2,1.7-1.6
		c0.7-0.4,1.5-0.6,2.4-0.6c0.7,0,1.4,0.1,1.9,0.4c0.6,0.2,1.1,0.6,1.5,1.1l-1,1c-0.6-0.7-1.4-1-2.3-1c-0.6,0-1.1,0.1-1.6,0.4
		s-0.8,0.6-1.1,1.1c-0.3,0.5-0.4,1-0.4,1.6c0,0.6,0.1,1.1,0.4,1.6c0.3,0.5,0.6,0.8,1.1,1.1c0.5,0.3,1,0.4,1.6,0.4
		c0.9,0,1.7-0.3,2.3-1l1,1c-0.4,0.5-0.9,0.8-1.5,1.1c-0.6,0.2-1.2,0.4-2,0.4C809.5,151.7,808.7,151.5,808,151.1z"/>
	<path class="st2" d="M816.2,150.7c-0.7-0.7-1-1.6-1-2.9v-4.9h1.6v4.8c0,1.7,0.7,2.5,2.2,2.5s2.2-0.9,2.2-2.5v-4.8h1.6v4.9
		c0,1.2-0.3,2.2-1,2.9s-1.6,1-2.8,1S816.9,151.4,816.2,150.7z"/>
	<path class="st2" d="M833,151.6l0-5.8l-2.8,4.8h-0.7l-2.8-4.7v5.7h-1.5v-8.7h1.3l3.4,5.8l3.4-5.8h1.3l0,8.7L833,151.6L833,151.6z"
		/>
	<path class="st2" d="M837.8,150.7c-0.7-0.7-1-1.6-1-2.9v-4.9h1.6v4.8c0,1.7,0.7,2.5,2.2,2.5s2.2-0.9,2.2-2.5v-4.8h1.6v4.9
		c0,1.2-0.3,2.2-1,2.9s-1.6,1-2.8,1C839.4,151.7,838.5,151.4,837.8,150.7z"/>
	<path class="st2" d="M846.7,142.9h1.6v7.3h4.5v1.4h-6.1V142.9z"/>
	<path class="st2" d="M859.8,149.6h-4.3l-0.8,2h-1.7l3.9-8.7h1.6l3.9,8.7h-1.7L859.8,149.6z M859.2,148.3l-1.6-3.8l-1.6,3.8H859.2z"
		/>
	<path class="st2" d="M864.8,144.3h-2.9v-1.4h7.4v1.4h-2.9v7.3h-1.6L864.8,144.3L864.8,144.3z"/>
	<path class="st2" d="M870.4,142.9h1.6v8.7h-1.6V142.9z"/>
	<path class="st2" d="M876,151.1c-0.7-0.4-1.3-0.9-1.7-1.6c-0.4-0.7-0.6-1.4-0.6-2.3s0.2-1.6,0.6-2.3s1-1.2,1.7-1.6
		c0.7-0.4,1.5-0.6,2.4-0.6s1.7,0.2,2.4,0.6c0.7,0.4,1.3,0.9,1.7,1.6c0.4,0.7,0.6,1.4,0.6,2.3s-0.2,1.6-0.6,2.3
		c-0.4,0.7-1,1.2-1.7,1.6c-0.7,0.4-1.5,0.6-2.4,0.6C877.6,151.7,876.8,151.5,876,151.1z M880,149.9c0.5-0.3,0.8-0.6,1.1-1.1
		s0.4-1,0.4-1.6s-0.1-1.1-0.4-1.6c-0.3-0.5-0.6-0.8-1.1-1.1s-1-0.4-1.6-0.4s-1.1,0.1-1.6,0.4s-0.8,0.6-1.1,1.1s-0.4,1-0.4,1.6
		s0.1,1.1,0.4,1.6c0.3,0.5,0.6,0.8,1.1,1.1s1,0.4,1.6,0.4S879.5,150.2,880,149.9z"/>
	<path class="st2" d="M892.5,142.9v8.7h-1.3l-4.8-5.9v5.9h-1.6v-8.7h1.3l4.8,5.9v-5.9H892.5z"/>
</g>
<g>
	<circle class="st0" cx="621.3" cy="330.1" r="82.9"/>
</g>
<g>
	<path class="st2" d="M620.4,300.5l-2.8,8.7h-3.1l-1.4-4.6l-1.5,4.6h-3.1l-2.8-8.7h3l1.5,4.9l1.6-4.9h2.7l1.5,5l1.6-5H620.4z"/>
	<path class="st2" d="M627.3,300.9c0.6,0.3,1,0.6,1.4,1.1s0.5,1.1,0.5,1.7s-0.2,1.2-0.5,1.7c-0.3,0.5-0.8,0.9-1.4,1.1
		c-0.6,0.3-1.3,0.4-2.1,0.4h-1.2v2.1H621v-8.7h4.2C626,300.5,626.7,300.7,627.3,300.9z M625.9,304.5c0.2-0.2,0.3-0.4,0.3-0.8
		s-0.1-0.6-0.3-0.8s-0.5-0.3-0.9-0.3h-1.1v2h1.1C625.4,304.8,625.7,304.7,625.9,304.5z"/>
	<path class="st2" d="M636,304.3c0.6,0.5,0.9,1.2,0.9,2c0,0.5-0.1,1-0.4,1.5c-0.3,0.5-0.7,0.8-1.3,1.1c-0.6,0.3-1.3,0.4-2.2,0.4
		c-0.6,0-1.2-0.1-1.8-0.2c-0.6-0.1-1.1-0.3-1.6-0.6l1-2.1c0.4,0.2,0.7,0.4,1.2,0.5c0.4,0.1,0.8,0.2,1.2,0.2c0.3,0,0.6-0.1,0.8-0.2
		s0.3-0.3,0.3-0.5s-0.1-0.4-0.3-0.5s-0.5-0.1-1-0.1h-2.5l0.4-5.3h5.8v2.2h-3.4l-0.1,0.9h0.5C634.5,303.6,635.4,303.8,636,304.3z"/>
	<path class="st2" d="M585.7,330.2h1.6v8.7h-1.6V330.2z"/>
	<path class="st2" d="M597.6,338.9l0-5.8l-2.8,4.8H594l-2.8-4.7v5.7h-1.5v-8.7h1.3l3.4,5.7l3.4-5.7h1.3l0,8.7L597.6,338.9
		L597.6,338.9z"/>
	<path class="st2" d="M607,330.6c0.6,0.2,1,0.6,1.3,1.1c0.3,0.5,0.5,1,0.5,1.6c0,0.6-0.2,1.2-0.5,1.6s-0.7,0.8-1.3,1.1
		c-0.6,0.2-1.2,0.4-2,0.4h-2v2.5h-1.6v-8.7h3.6C605.8,330.2,606.4,330.4,607,330.6z M606.5,334.6c0.4-0.3,0.5-0.7,0.5-1.3
		s-0.2-1-0.5-1.3c-0.4-0.3-0.9-0.5-1.6-0.5h-1.9v3.4h1.9C605.7,335,606.2,334.9,606.5,334.6z"/>
	<path class="st2" d="M615.5,336.9h-4.3l-0.8,2h-1.7l3.9-8.7h1.6l3.9,8.7h-1.7L615.5,336.9z M615,335.6l-1.6-3.8l-1.6,3.8H615z"/>
	<path class="st2" d="M620.7,338.5c-0.7-0.4-1.3-0.9-1.7-1.6c-0.4-0.7-0.6-1.4-0.6-2.3s0.2-1.6,0.6-2.3c0.4-0.7,1-1.2,1.7-1.6
		c0.7-0.4,1.5-0.6,2.4-0.6c0.7,0,1.4,0.1,1.9,0.4c0.6,0.2,1.1,0.6,1.5,1.1l-1,1c-0.6-0.7-1.4-1-2.3-1c-0.6,0-1.1,0.1-1.6,0.4
		s-0.8,0.6-1.1,1.1c-0.3,0.5-0.4,1-0.4,1.6c0,0.6,0.1,1.1,0.4,1.6c0.3,0.5,0.6,0.8,1.1,1.1s1,0.4,1.6,0.4c0.9,0,1.7-0.3,2.3-1l1,1
		c-0.4,0.5-0.9,0.8-1.5,1.1s-1.2,0.4-2,0.4C622.2,339,621.4,338.8,620.7,338.5z"/>
	<path class="st2" d="M629.7,331.6h-2.9v-1.4h7.4v1.4h-2.9v7.3h-1.6L629.7,331.6L629.7,331.6z"/>
	<path class="st2" d="M640.5,338.5c-0.7-0.4-1.3-0.9-1.7-1.6c-0.4-0.7-0.6-1.4-0.6-2.3s0.2-1.6,0.6-2.3c0.4-0.7,1-1.2,1.7-1.6
		c0.7-0.4,1.5-0.6,2.4-0.6s1.7,0.2,2.4,0.6c0.7,0.4,1.3,0.9,1.7,1.6c0.4,0.7,0.6,1.4,0.6,2.3s-0.2,1.6-0.6,2.3
		c-0.4,0.7-1,1.2-1.7,1.6c-0.7,0.4-1.5,0.6-2.4,0.6C642,339,641.2,338.8,640.5,338.5z M644.4,337.2c0.5-0.3,0.8-0.6,1.1-1.1
		s0.4-1,0.4-1.6s-0.1-1.1-0.4-1.6c-0.3-0.5-0.6-0.8-1.1-1.1s-1-0.4-1.6-0.4s-1.1,0.1-1.6,0.4s-0.8,0.6-1.1,1.1s-0.4,1-0.4,1.6
		s0.1,1.1,0.4,1.6c0.3,0.5,0.6,0.8,1.1,1.1s1,0.4,1.6,0.4S644,337.5,644.4,337.2z"/>
	<path class="st2" d="M657,330.2v8.7h-1.3l-4.8-5.9v5.9h-1.6v-8.7h1.3l4.8,5.9v-5.9H657z"/>
	<path class="st2" d="M567.5,345.1h1.6v8.7h-1.6V345.1z"/>
	<path class="st2" d="M579.4,353.8l0-5.8l-2.8,4.8h-0.7l-2.8-4.7v5.7h-1.5v-8.7h1.3l3.4,5.7l3.4-5.7h1.3l0,8.7L579.4,353.8
		L579.4,353.8z"/>
	<path class="st2" d="M591.2,353.8l0-5.8l-2.8,4.8h-0.7l-2.8-4.7v5.7h-1.5v-8.7h1.3l3.4,5.7l3.4-5.7h1.3l0,8.7L591.2,353.8
		L591.2,353.8z"/>
	<path class="st2" d="M596,352.9c-0.7-0.7-1-1.6-1-2.9v-4.9h1.6v4.8c0,1.7,0.7,2.5,2.2,2.5s2.2-0.9,2.2-2.5v-4.8h1.6v4.9
		c0,1.2-0.3,2.2-1,2.9s-1.6,1-2.8,1S596.7,353.6,596,352.9z"/>
	<path class="st2" d="M612.6,345.1v8.7h-1.3l-4.8-5.9v5.9h-1.6v-8.7h1.3l4.8,5.9v-5.9H612.6z"/>
	<path class="st2" d="M621.4,352.4v1.4h-6.5v-8.7h6.3v1.4h-4.7v2.2h4.2v1.3h-4.2v2.4L621.4,352.4L621.4,352.4z"/>
	<path class="st2" d="M627.4,353.6c-0.6-0.2-1.1-0.4-1.5-0.8l0.6-1.2c0.4,0.3,0.8,0.5,1.3,0.7s1,0.3,1.5,0.3c0.6,0,1.1-0.1,1.4-0.3
		s0.5-0.5,0.5-0.8c0-0.2-0.1-0.5-0.3-0.6c-0.2-0.2-0.4-0.3-0.7-0.4c-0.3-0.1-0.6-0.2-1.1-0.3c-0.7-0.2-1.2-0.3-1.6-0.5
		s-0.8-0.4-1-0.7c-0.3-0.3-0.4-0.8-0.4-1.4c0-0.5,0.1-0.9,0.4-1.3c0.3-0.4,0.7-0.7,1.2-0.9c0.5-0.2,1.2-0.4,1.9-0.4
		c0.5,0,1,0.1,1.6,0.2s1,0.3,1.3,0.6L632,347c-0.4-0.2-0.8-0.4-1.2-0.5s-0.8-0.2-1.2-0.2c-0.6,0-1.1,0.1-1.4,0.3
		c-0.3,0.2-0.5,0.5-0.5,0.9c0,0.2,0.1,0.5,0.3,0.6c0.2,0.2,0.4,0.3,0.7,0.4c0.3,0.1,0.6,0.2,1.1,0.3c0.6,0.1,1.2,0.3,1.6,0.5
		c0.4,0.2,0.8,0.4,1.1,0.7s0.4,0.8,0.4,1.3c0,0.5-0.1,0.9-0.4,1.3c-0.3,0.4-0.7,0.7-1.2,0.9c-0.5,0.2-1.2,0.4-1.9,0.4
		C628.6,353.9,628,353.8,627.4,353.6z"/>
	<path class="st2" d="M638,350.7v3.1h-1.6v-3l-3.4-5.6h1.7l2.5,4.2l2.6-4.2h1.6L638,350.7z"/>
	<path class="st2" d="M643,353.6c-0.6-0.2-1.1-0.4-1.5-0.8l0.6-1.2c0.4,0.3,0.8,0.5,1.3,0.7s1,0.3,1.5,0.3c0.6,0,1.1-0.1,1.4-0.3
		s0.5-0.5,0.5-0.8c0-0.2-0.1-0.5-0.3-0.6c-0.2-0.2-0.4-0.3-0.7-0.4c-0.3-0.1-0.6-0.2-1.1-0.3c-0.7-0.2-1.2-0.3-1.6-0.5
		s-0.8-0.4-1-0.7c-0.3-0.3-0.4-0.8-0.4-1.4c0-0.5,0.1-0.9,0.4-1.3c0.3-0.4,0.7-0.7,1.2-0.9c0.5-0.2,1.2-0.4,1.9-0.4
		c0.5,0,1,0.1,1.6,0.2s1,0.3,1.3,0.6l-0.5,1.2c-0.4-0.2-0.8-0.4-1.2-0.5s-0.8-0.2-1.2-0.2c-0.6,0-1.1,0.1-1.4,0.3
		c-0.3,0.2-0.5,0.5-0.5,0.9c0,0.2,0.1,0.5,0.3,0.6c0.2,0.2,0.4,0.3,0.7,0.4s0.6,0.2,1.1,0.3c0.6,0.1,1.2,0.3,1.6,0.5
		c0.4,0.2,0.8,0.4,1.1,0.7s0.4,0.8,0.4,1.3c0,0.5-0.1,0.9-0.4,1.3c-0.3,0.4-0.7,0.7-1.2,0.9s-1.2,0.4-1.9,0.4
		C644.2,353.9,643.6,353.8,643,353.6z"/>
	<path class="st2" d="M651.6,346.5h-2.9v-1.4h7.4v1.4h-2.9v7.3h-1.6L651.6,346.5L651.6,346.5z"/>
	<path class="st2" d="M663.8,352.4v1.4h-6.5v-8.7h6.3v1.4H659v2.2h4.2v1.3H659v2.4L663.8,352.4L663.8,352.4z"/>
	<path class="st2" d="M673.6,353.8l0-5.8l-2.8,4.8H670l-2.8-4.7v5.7h-1.5v-8.7h1.3l3.4,5.7l3.4-5.7h1.3l0,8.7L673.6,353.8
		L673.6,353.8z"/>
</g>
<g>
	<circle class="st0" cx="621.3" cy="127.9" r="82.9"/>
</g>
<g>
	<path class="st2" d="M620.5,98.3l-2.8,8.7h-3.1l-1.4-4.6l-1.5,4.6h-3.1l-2.8-8.7h3l1.5,4.9l1.6-4.9h2.7l1.5,5l1.6-5H620.5z"/>
	<path class="st2" d="M627.3,98.7c0.6,0.3,1,0.6,1.4,1.1s0.5,1.1,0.5,1.7c0,0.7-0.2,1.2-0.5,1.7c-0.3,0.5-0.8,0.9-1.4,1.1
		c-0.6,0.3-1.3,0.4-2.1,0.4H624v2.1h-2.9v-8.7h4.2C626.1,98.3,626.8,98.5,627.3,98.7z M626,102.4c0.2-0.2,0.3-0.4,0.3-0.8
		s-0.1-0.6-0.3-0.8s-0.5-0.3-0.9-0.3H624v2h1.1C625.5,102.6,625.8,102.5,626,102.4z"/>
	<path class="st2" d="M636.2,102.7c0.4,0.4,0.5,1,0.5,1.6c0,0.5-0.1,1-0.4,1.5c-0.3,0.4-0.7,0.8-1.3,1.1c-0.6,0.3-1.3,0.4-2.2,0.4
		c-0.6,0-1.2-0.1-1.8-0.2c-0.6-0.1-1.1-0.3-1.6-0.6l1-2.1c0.3,0.2,0.7,0.4,1.2,0.5c0.4,0.1,0.8,0.2,1.2,0.2c0.3,0,0.6-0.1,0.8-0.2
		c0.2-0.1,0.3-0.3,0.3-0.5c0-0.4-0.3-0.6-1-0.6h-1.2v-1.8l1.3-1.3h-3.1v-2.2h6.5v1.8l-1.6,1.6C635.3,101.9,635.8,102.2,636.2,102.7z
		"/>
	<path class="st2" d="M557,128.1h1.6v8.7H557V128.1z"/>
	<path class="st2" d="M568.9,136.7l0-5.8l-2.8,4.8h-0.7l-2.8-4.7v5.7H561v-8.7h1.3l3.4,5.8l3.4-5.8h1.3l0,8.7H568.9z"/>
	<path class="st2" d="M578.3,128.4c0.6,0.2,1,0.6,1.3,1.1c0.3,0.5,0.5,1,0.5,1.6c0,0.6-0.2,1.2-0.5,1.6s-0.7,0.8-1.3,1.1
		c-0.6,0.2-1.2,0.4-2,0.4h-2v2.5h-1.6v-8.7h3.6C577.1,128.1,577.8,128.2,578.3,128.4z M577.9,132.4c0.4-0.3,0.5-0.7,0.5-1.3
		c0-0.6-0.2-1-0.5-1.3c-0.4-0.3-0.9-0.4-1.6-0.4h-1.9v3.4h1.9C577,132.9,577.5,132.7,577.9,132.4z"/>
	<path class="st2" d="M586.8,134.7h-4.3l-0.8,2H580l3.9-8.7h1.6l3.9,8.7h-1.7L586.8,134.7z M586.3,133.5l-1.6-3.8l-1.6,3.8H586.3z"
		/>
	<path class="st2" d="M592,136.3c-0.7-0.4-1.3-0.9-1.7-1.6c-0.4-0.7-0.6-1.4-0.6-2.3c0-0.9,0.2-1.6,0.6-2.3s1-1.2,1.7-1.6
		c0.7-0.4,1.5-0.6,2.4-0.6c0.7,0,1.4,0.1,1.9,0.4c0.6,0.2,1.1,0.6,1.5,1.1l-1,1c-0.6-0.7-1.4-1-2.3-1c-0.6,0-1.1,0.1-1.6,0.4
		s-0.8,0.6-1.1,1.1c-0.3,0.5-0.4,1-0.4,1.6c0,0.6,0.1,1.1,0.4,1.6c0.3,0.5,0.6,0.8,1.1,1.1s1,0.4,1.6,0.4c0.9,0,1.7-0.3,2.3-1l1,1
		c-0.4,0.5-0.9,0.8-1.5,1.1c-0.6,0.2-1.2,0.4-2,0.4C593.5,136.8,592.7,136.7,592,136.3z"/>
	<path class="st2" d="M601,129.4h-2.9v-1.4h7.4v1.4h-2.9v7.3H601L601,129.4L601,129.4z"/>
	<path class="st2" d="M611.8,136.3c-0.7-0.4-1.3-0.9-1.7-1.6c-0.4-0.7-0.6-1.4-0.6-2.3s0.2-1.6,0.6-2.3s1-1.2,1.7-1.6
		c0.7-0.4,1.5-0.6,2.4-0.6s1.7,0.2,2.4,0.6c0.7,0.4,1.3,0.9,1.7,1.6c0.4,0.7,0.6,1.4,0.6,2.3c0,0.9-0.2,1.6-0.6,2.3s-1,1.2-1.7,1.6
		c-0.7,0.4-1.5,0.6-2.4,0.6C613.3,136.8,612.5,136.7,611.8,136.3z M615.8,135c0.5-0.3,0.8-0.6,1.1-1.1s0.4-1,0.4-1.6
		s-0.1-1.1-0.4-1.6c-0.3-0.5-0.6-0.8-1.1-1.1s-1-0.4-1.6-0.4s-1.1,0.1-1.6,0.4s-0.8,0.6-1.1,1.1s-0.4,1-0.4,1.6s0.1,1.1,0.4,1.6
		c0.3,0.5,0.6,0.8,1.1,1.1s1,0.4,1.6,0.4S615.3,135.3,615.8,135z"/>
	<path class="st2" d="M628.3,128.1v8.7H627l-4.8-5.9v5.9h-1.6v-8.7h1.3l4.8,5.9v-5.9H628.3z"/>
	<path class="st2" d="M640,132.3h1.5v3.4c-0.5,0.4-1,0.6-1.6,0.8s-1.2,0.3-1.8,0.3c-0.9,0-1.7-0.2-2.4-0.6c-0.7-0.4-1.3-0.9-1.7-1.6
		c-0.4-0.7-0.6-1.4-0.6-2.3c0-0.9,0.2-1.6,0.6-2.3s1-1.2,1.7-1.6c0.7-0.4,1.5-0.6,2.4-0.6c0.7,0,1.4,0.1,2,0.4
		c0.6,0.2,1.1,0.6,1.5,1.1l-1,1c-0.7-0.7-1.5-1-2.4-1c-0.6,0-1.2,0.1-1.6,0.4c-0.5,0.3-0.8,0.6-1.1,1.1c-0.3,0.5-0.4,1-0.4,1.6
		c0,0.6,0.1,1.1,0.4,1.6c0.3,0.5,0.6,0.8,1.1,1.1c0.5,0.3,1,0.4,1.6,0.4c0.7,0,1.3-0.1,1.8-0.4L640,132.3L640,132.3z"/>
	<path class="st2" d="M643.6,128.1h1.6v8.7h-1.6V128.1z"/>
	<path class="st2" d="M649.3,129.4h-2.9v-1.4h7.4v1.4h-2.9v7.3h-1.6L649.3,129.4L649.3,129.4z"/>
	<path class="st2" d="M664,134.7h-4.3l-0.8,2h-1.7l3.9-8.7h1.6l3.9,8.7h-1.7L664,134.7z M663.5,133.5l-1.6-3.8l-1.6,3.8H663.5z"/>
	<path class="st2" d="M675.4,128.1v8.7H674l-4.8-5.9v5.9h-1.6v-8.7h1.3l4.8,5.9v-5.9H675.4z"/>
	<path class="st2" d="M677.7,128.1h3.8c0.9,0,1.8,0.2,2.5,0.5c0.7,0.4,1.3,0.9,1.7,1.5c0.4,0.7,0.6,1.4,0.6,2.3s-0.2,1.6-0.6,2.3
		c-0.4,0.7-1,1.2-1.7,1.5s-1.5,0.5-2.5,0.5h-3.8V128.1z M681.4,135.4c0.6,0,1.2-0.1,1.7-0.4c0.5-0.2,0.8-0.6,1.1-1s0.4-1,0.4-1.6
		s-0.1-1.1-0.4-1.6c-0.3-0.4-0.6-0.8-1.1-1c-0.5-0.2-1-0.4-1.7-0.4h-2.1v5.9L681.4,135.4L681.4,135.4z"/>
	<path class="st2" d="M585.3,151.6l-1.8-2.5c-0.1,0-0.2,0-0.3,0h-2v2.5h-1.6v-8.7h3.6c0.8,0,1.4,0.1,2,0.4c0.6,0.2,1,0.6,1.3,1.1
		c0.3,0.5,0.5,1,0.5,1.6c0,0.6-0.2,1.2-0.5,1.7s-0.8,0.8-1.4,1l2,2.9L585.3,151.6L585.3,151.6z M584.7,144.7
		c-0.4-0.3-0.9-0.5-1.6-0.5h-1.9v3.5h1.9c0.7,0,1.2-0.1,1.6-0.5c0.4-0.3,0.5-0.7,0.5-1.3C585.3,145.4,585.1,145,584.7,144.7z"/>
	<path class="st2" d="M590.3,144.3h-2.9v-1.4h7.4v1.4H592v7.3h-1.6L590.3,144.3L590.3,144.3z"/>
	<path class="st2" d="M606.7,147.9c0.3,0.4,0.4,0.8,0.4,1.4c0,0.8-0.3,1.3-0.9,1.7s-1.4,0.6-2.5,0.6h-4.3v-8.7h4.1
		c1,0,1.8,0.2,2.4,0.6c0.5,0.4,0.8,1,0.8,1.6c0,0.4-0.1,0.8-0.3,1.1c-0.2,0.3-0.5,0.6-0.8,0.8C606.1,147.2,606.4,147.5,606.7,147.9z
		 M601,144.2v2.4h2.3c0.6,0,1-0.1,1.3-0.3s0.5-0.5,0.5-0.9c0-0.4-0.2-0.7-0.5-0.9c-0.3-0.2-0.7-0.3-1.3-0.3L601,144.2L601,144.2z
		 M605.5,149.1c0-0.8-0.6-1.2-1.9-1.2h-2.6v2.5h2.6C604.9,150.3,605.5,149.9,605.5,149.1z"/>
	<path class="st2" d="M614.5,149.6h-4.3l-0.8,2h-1.7l3.9-8.7h1.6l3.9,8.7h-1.7L614.5,149.6z M614,148.3l-1.6-3.8l-1.6,3.8H614z"/>
	<path class="st2" d="M623.8,151.6L622,149c-0.1,0-0.2,0-0.3,0h-2v2.5h-1.6v-8.7h3.6c0.8,0,1.4,0.1,2,0.4c0.6,0.2,1,0.6,1.3,1.1
		c0.3,0.5,0.5,1,0.5,1.6c0,0.6-0.2,1.2-0.5,1.7s-0.8,0.8-1.4,1l2,2.9L623.8,151.6L623.8,151.6z M623.2,144.7
		c-0.4-0.3-0.9-0.5-1.6-0.5h-1.9v3.5h1.9c0.7,0,1.2-0.1,1.6-0.5c0.4-0.3,0.5-0.7,0.5-1.3C623.8,145.4,623.6,145,623.2,144.7z"/>
	<path class="st2" d="M632.9,151.6l-1.8-2.5c-0.1,0-0.2,0-0.3,0h-2v2.5h-1.6v-8.7h3.6c0.8,0,1.4,0.1,2,0.4c0.6,0.2,1,0.6,1.3,1.1
		c0.3,0.5,0.4,1,0.4,1.6c0,0.6-0.2,1.2-0.5,1.7s-0.8,0.8-1.4,1l2,2.9L632.9,151.6L632.9,151.6z M632.3,144.7
		c-0.4-0.3-0.9-0.5-1.6-0.5h-1.9v3.5h1.9c0.7,0,1.2-0.1,1.6-0.5c0.4-0.3,0.5-0.7,0.5-1.3C632.8,145.4,632.6,145,632.3,144.7z"/>
	<path class="st2" d="M636.2,142.9h1.6v8.7h-1.6V142.9z"/>
	<path class="st2" d="M646.7,150.2v1.4h-6.5v-8.7h6.3v1.4h-4.7v2.2h4.2v1.3h-4.2v2.4L646.7,150.2L646.7,150.2z"/>
	<path class="st2" d="M654.2,151.6l-1.8-2.5c-0.1,0-0.2,0-0.3,0h-2v2.5h-1.6v-8.7h3.6c0.8,0,1.4,0.1,2,0.4c0.6,0.2,1,0.6,1.3,1.1
		c0.3,0.5,0.5,1,0.5,1.6c0,0.6-0.2,1.2-0.5,1.7s-0.8,0.8-1.4,1l2,2.9L654.2,151.6L654.2,151.6z M653.6,144.7
		c-0.4-0.3-0.9-0.5-1.6-0.5h-1.9v3.5h1.9c0.7,0,1.2-0.1,1.6-0.5c0.4-0.3,0.5-0.7,0.5-1.3S653.9,145,653.6,144.7z"/>
	<path class="st2" d="M658.3,151.4c-0.6-0.2-1.1-0.4-1.5-0.8l0.6-1.2c0.4,0.3,0.8,0.5,1.3,0.7s1,0.3,1.5,0.3c0.6,0,1.1-0.1,1.4-0.3
		s0.5-0.5,0.5-0.8c0-0.2-0.1-0.5-0.3-0.6c-0.2-0.2-0.4-0.3-0.7-0.4c-0.3-0.1-0.6-0.2-1.1-0.3c-0.7-0.2-1.2-0.3-1.6-0.5
		s-0.8-0.4-1-0.7c-0.3-0.3-0.4-0.8-0.4-1.4c0-0.5,0.1-0.9,0.4-1.3c0.3-0.4,0.7-0.7,1.2-0.9c0.5-0.2,1.2-0.4,1.9-0.4
		c0.5,0,1,0.1,1.6,0.2s1,0.3,1.3,0.6l-0.5,1.2c-0.4-0.2-0.8-0.4-1.2-0.5s-0.8-0.2-1.2-0.2c-0.6,0-1.1,0.1-1.4,0.3
		c-0.3,0.2-0.5,0.5-0.5,0.9c0,0.2,0.1,0.5,0.3,0.6c0.2,0.2,0.4,0.3,0.7,0.4c0.3,0.1,0.6,0.2,1.1,0.3c0.6,0.1,1.2,0.3,1.6,0.5
		c0.4,0.2,0.8,0.4,1.1,0.7s0.4,0.8,0.4,1.3c0,0.5-0.1,0.9-0.4,1.3c-0.3,0.4-0.7,0.7-1.2,0.9c-0.5,0.2-1.2,0.4-1.9,0.4
		C659.5,151.7,658.9,151.6,658.3,151.4z"/>
</g>
<g>
	<circle class="st2" cx="450.8" cy="540.6" r="66.1"/>
	<path class="st0" d="M450.8,607.6c-37,0-67-30.1-67-67.1s30.1-67.1,67-67.1s67.1,30.1,67.1,67.1S487.7,607.6,450.8,607.6z
		 M450.8,475.4c-36,0-65.2,29.2-65.2,65.2s29.2,65.2,65.2,65.2s65.2-29.2,65.2-65.2S486.7,475.4,450.8,475.4z"/>
</g>
<g>
	<circle class="st2" cx="783.2" cy="540.6" r="66.1"/>
	<path class="st0" d="M783.2,607.6c-37,0-67.1-30.1-67.1-67.1s30.1-67.1,67.1-67.1s67.1,30.1,67.1,67.1S820.2,607.6,783.2,607.6z
		 M783.2,475.4c-36,0-65.2,29.2-65.2,65.2s29.2,65.2,65.2,65.2s65.2-29.2,65.2-65.2S819.2,475.4,783.2,475.4z"/>
</g>
<g>
	<path class="st0" d="M449.5,504.9l-2.8,8.7h-3.1l-1.4-4.6l-1.5,4.6h-3.1l-2.8-8.7h3l1.5,4.9l1.6-4.9h2.7l1.5,5l1.6-5H449.5z"/>
	<path class="st0" d="M456.4,505.3c0.6,0.3,1,0.6,1.4,1.1c0.3,0.5,0.5,1.1,0.5,1.7s-0.2,1.2-0.5,1.7s-0.8,0.9-1.4,1.1
		c-0.6,0.3-1.3,0.4-2.1,0.4H453v2.1h-2.9v-8.7h4.2C455.1,504.9,455.8,505,456.4,505.3z M455,508.9c0.2-0.2,0.3-0.4,0.3-0.8
		s-0.1-0.6-0.3-0.8c-0.2-0.2-0.5-0.3-0.9-0.3H453v2h1.1C454.5,509.2,454.8,509.1,455,508.9z"/>
	<path class="st0" d="M466.2,509.8c0.2,0.3,0.3,0.7,0.3,1.2c0,0.5-0.2,1-0.5,1.5c-0.3,0.4-0.8,0.7-1.4,1s-1.3,0.3-2,0.3
		s-1.4-0.1-2-0.3c-0.6-0.2-1-0.5-1.4-1c-0.3-0.4-0.5-0.9-0.5-1.5c0-0.4,0.1-0.8,0.3-1.2c0.2-0.3,0.5-0.6,0.9-0.8
		c-0.6-0.5-0.9-1-0.9-1.7c0-0.5,0.1-1,0.5-1.4c0.3-0.4,0.7-0.7,1.3-0.9s1.2-0.3,1.9-0.3c0.7,0,1.3,0.1,1.9,0.3
		c0.5,0.2,1,0.5,1.3,0.9c0.3,0.4,0.5,0.8,0.5,1.4c0,0.7-0.3,1.3-0.9,1.7C465.8,509.2,466,509.5,466.2,509.8z M463.4,511.5
		c0.2-0.2,0.3-0.4,0.3-0.7c0-0.3-0.1-0.5-0.3-0.7c-0.2-0.2-0.4-0.2-0.7-0.2s-0.5,0.1-0.7,0.2s-0.3,0.4-0.3,0.7
		c0,0.3,0.1,0.5,0.3,0.7c0.2,0.2,0.4,0.2,0.7,0.2S463.2,511.7,463.4,511.5z M462.2,506.9c-0.1,0.1-0.2,0.3-0.2,0.5s0.1,0.4,0.2,0.5
		c0.1,0.1,0.3,0.2,0.5,0.2c0.2,0,0.4-0.1,0.5-0.2s0.2-0.3,0.2-0.5c0-0.2-0.1-0.4-0.2-0.5s-0.3-0.2-0.5-0.2
		C462.5,506.7,462.3,506.7,462.2,506.9z"/>
	<path class="st0" d="M406.6,534.6h3.6c0.9,0,1.7,0.2,2.4,0.5s1.3,0.9,1.6,1.5c0.4,0.7,0.6,1.4,0.6,2.3c0,0.8-0.2,1.6-0.6,2.3
		c-0.4,0.7-0.9,1.2-1.6,1.5c-0.7,0.4-1.5,0.5-2.4,0.5h-3.6V534.6z M410.2,542.2c0.7,0,1.3-0.1,1.9-0.4c0.5-0.3,0.9-0.7,1.2-1.2
		c0.3-0.5,0.4-1.1,0.4-1.7s-0.1-1.2-0.4-1.7c-0.3-0.5-0.7-0.9-1.2-1.2c-0.5-0.3-1.1-0.4-1.9-0.4h-2.3v6.5L410.2,542.2L410.2,542.2z"
		/>
	<path class="st0" d="M416.7,535.2c-0.1-0.2-0.2-0.3-0.2-0.5c0-0.2,0.1-0.4,0.2-0.5c0.1-0.2,0.3-0.2,0.6-0.2c0.2,0,0.4,0.1,0.6,0.2
		c0.1,0.2,0.2,0.3,0.2,0.5s-0.1,0.4-0.2,0.6c-0.1,0.2-0.4,0.2-0.6,0.2C417,535.4,416.8,535.4,416.7,535.2z M416.6,536.7h1.2v6.6
		h-1.2V536.7z"/>
	<path class="st0" d="M420.4,543.1c-0.5-0.1-0.9-0.3-1.2-0.5l0.5-0.9c0.3,0.2,0.6,0.4,1,0.5c0.4,0.1,0.8,0.2,1.2,0.2
		c1,0,1.6-0.3,1.6-0.9c0-0.2-0.1-0.3-0.2-0.5c-0.1-0.1-0.3-0.2-0.5-0.2s-0.5-0.1-0.9-0.2c-0.5-0.1-1-0.2-1.3-0.3
		c-0.3-0.1-0.6-0.3-0.9-0.5s-0.4-0.6-0.4-1.1c0-0.6,0.2-1.1,0.7-1.4c0.5-0.4,1.2-0.5,2-0.5c0.4,0,0.9,0,1.3,0.2s0.8,0.2,1.1,0.4
		l-0.5,0.9c-0.5-0.3-1.2-0.5-1.9-0.5c-0.5,0-0.9,0.1-1.1,0.2c-0.3,0.2-0.4,0.4-0.4,0.7c0,0.2,0.1,0.4,0.2,0.5
		c0.1,0.1,0.3,0.2,0.5,0.3c0.2,0.1,0.5,0.1,0.9,0.2c0.5,0.1,1,0.2,1.3,0.3c0.3,0.1,0.6,0.3,0.8,0.5c0.2,0.2,0.4,0.6,0.4,1
		c0,0.6-0.2,1.1-0.8,1.4s-1.2,0.5-2.1,0.5C421.5,543.3,420.9,543.3,420.4,543.1z"/>
	<path class="st0" d="M426.6,543.1c-0.5-0.1-0.9-0.3-1.2-0.5l0.5-0.9c0.3,0.2,0.6,0.4,1,0.5c0.4,0.1,0.8,0.2,1.2,0.2
		c1,0,1.6-0.3,1.6-0.9c0-0.2-0.1-0.3-0.2-0.5c-0.1-0.1-0.3-0.2-0.5-0.2s-0.5-0.1-0.9-0.2c-0.5-0.1-1-0.2-1.3-0.3
		c-0.3-0.1-0.6-0.3-0.9-0.5s-0.4-0.6-0.4-1.1c0-0.6,0.2-1.1,0.7-1.4c0.5-0.4,1.2-0.5,2-0.5c0.4,0,0.9,0,1.3,0.2s0.8,0.2,1.1,0.4
		l-0.5,0.9c-0.5-0.3-1.2-0.5-1.9-0.5c-0.5,0-0.9,0.1-1.1,0.2c-0.3,0.2-0.4,0.4-0.4,0.7c0,0.2,0.1,0.4,0.2,0.5
		c0.1,0.1,0.3,0.2,0.5,0.3c0.2,0.1,0.5,0.1,0.9,0.2c0.5,0.1,1,0.2,1.3,0.3c0.3,0.1,0.6,0.3,0.8,0.5c0.2,0.2,0.4,0.6,0.4,1
		c0,0.6-0.2,1.1-0.8,1.4s-1.2,0.5-2.1,0.5C427.6,543.3,427.1,543.3,426.6,543.1z"/>
	<path class="st0" d="M438.4,540.4h-5.3c0.1,0.6,0.3,1,0.8,1.4c0.4,0.3,1,0.5,1.6,0.5c0.8,0,1.4-0.3,1.9-0.8l0.7,0.8
		c-0.3,0.3-0.7,0.6-1.1,0.8c-0.4,0.2-0.9,0.3-1.5,0.3c-0.7,0-1.3-0.1-1.8-0.4c-0.5-0.3-1-0.7-1.2-1.2c-0.3-0.5-0.4-1.1-0.4-1.7
		c0-0.6,0.1-1.2,0.4-1.7c0.3-0.5,0.7-0.9,1.2-1.2c0.5-0.3,1.1-0.4,1.7-0.4s1.2,0.1,1.7,0.4c0.5,0.3,0.9,0.7,1.1,1.2
		c0.3,0.5,0.4,1.1,0.4,1.8C438.4,540.1,438.4,540.2,438.4,540.4z M433.8,538.2c-0.4,0.3-0.6,0.8-0.7,1.4h4.2c-0.1-0.5-0.3-1-0.7-1.4
		c-0.4-0.3-0.9-0.5-1.4-0.5C434.6,537.7,434.1,537.8,433.8,538.2z"/>
	<path class="st0" d="M450.3,537.4c0.5,0.5,0.7,1.2,0.7,2.1v3.8h-1.2v-3.6c0-0.6-0.1-1.1-0.4-1.4c-0.3-0.3-0.7-0.5-1.3-0.5
		c-0.6,0-1.1,0.2-1.4,0.6c-0.4,0.4-0.5,0.9-0.5,1.6v3.4h-1.2v-3.6c0-0.6-0.1-1.1-0.4-1.4c-0.3-0.3-0.7-0.5-1.3-0.5
		c-0.6,0-1.1,0.2-1.4,0.6c-0.4,0.4-0.5,0.9-0.5,1.6v3.4h-1.2v-6.6h1.1v1c0.2-0.3,0.5-0.6,0.9-0.8c0.4-0.2,0.8-0.3,1.3-0.3
		c0.5,0,1,0.1,1.4,0.3c0.4,0.2,0.7,0.5,0.9,0.9c0.2-0.4,0.6-0.7,1-0.9c0.4-0.2,0.9-0.3,1.5-0.3C449.1,536.6,449.8,536.9,450.3,537.4
		z"/>
	<path class="st0" d="M453.2,535.2c-0.1-0.2-0.2-0.3-0.2-0.5c0-0.2,0.1-0.4,0.2-0.5c0.1-0.2,0.3-0.2,0.6-0.2s0.4,0.1,0.6,0.2
		c0.1,0.2,0.2,0.3,0.2,0.5s-0.1,0.4-0.2,0.6c-0.1,0.2-0.4,0.2-0.6,0.2S453.4,535.4,453.2,535.2z M453.2,536.7h1.2v6.6h-1.2V536.7z"
		/>
	<path class="st0" d="M462.1,537.4c0.5,0.5,0.7,1.2,0.7,2.1v3.8h-1.2v-3.6c0-0.6-0.1-1.1-0.5-1.4c-0.3-0.3-0.7-0.5-1.3-0.5
		c-0.6,0-1.1,0.2-1.5,0.6c-0.4,0.4-0.6,0.9-0.6,1.6v3.4h-1.2v-6.6h1.1v1c0.2-0.3,0.6-0.6,1-0.8c0.4-0.2,0.9-0.3,1.4-0.3
		C461,536.6,461.6,536.9,462.1,537.4z"/>
	<path class="st0" d="M469.5,537.3c0.5,0.5,0.7,1.1,0.7,2v4h-1.1v-0.9c-0.2,0.3-0.5,0.5-0.9,0.7c-0.4,0.2-0.8,0.2-1.3,0.2
		c-0.7,0-1.3-0.2-1.8-0.5c-0.4-0.4-0.7-0.8-0.7-1.4s0.2-1,0.6-1.4s1.1-0.5,2-0.5h1.9v-0.2c0-0.5-0.1-0.9-0.5-1.2
		c-0.3-0.3-0.7-0.4-1.3-0.4c-0.4,0-0.8,0.1-1.1,0.2c-0.4,0.1-0.7,0.3-0.9,0.5l-0.5-0.9c0.3-0.3,0.7-0.5,1.2-0.6s1-0.2,1.5-0.2
		C468.4,536.6,469,536.9,469.5,537.3z M468.4,542.1c0.3-0.2,0.6-0.5,0.7-0.9v-0.9h-1.8c-1,0-1.5,0.3-1.5,1c0,0.3,0.1,0.6,0.4,0.8
		c0.3,0.2,0.6,0.3,1.1,0.3C467.6,542.4,468,542.3,468.4,542.1z"/>
	<path class="st0" d="M476.2,542.9c-0.2,0.2-0.4,0.3-0.6,0.3c-0.3,0.1-0.5,0.1-0.8,0.1c-0.7,0-1.2-0.2-1.5-0.5
		c-0.4-0.4-0.5-0.9-0.5-1.5v-3.6h-1.1v-1h1.1v-1.4h1.2v1.4h1.9v1h-1.9v3.5c0,0.4,0.1,0.6,0.3,0.8s0.4,0.3,0.8,0.3
		c0.4,0,0.7-0.1,0.9-0.3L476.2,542.9z"/>
	<path class="st0" d="M477.6,535.2c-0.1-0.2-0.2-0.3-0.2-0.5c0-0.2,0.1-0.4,0.2-0.5c0.1-0.2,0.3-0.2,0.6-0.2c0.2,0,0.4,0.1,0.6,0.2
		c0.1,0.2,0.2,0.3,0.2,0.5s-0.1,0.4-0.2,0.6c-0.1,0.2-0.4,0.2-0.6,0.2C478,535.4,477.8,535.4,477.6,535.2z M477.6,536.7h1.2v6.6
		h-1.2V536.7z"/>
	<path class="st0" d="M482.1,542.9c-0.5-0.3-0.9-0.7-1.2-1.2c-0.3-0.5-0.4-1.1-0.4-1.7c0-0.6,0.1-1.2,0.4-1.7s0.7-0.9,1.2-1.2
		s1.1-0.4,1.8-0.4c0.6,0,1.2,0.1,1.8,0.4c0.5,0.3,0.9,0.7,1.2,1.2c0.3,0.5,0.4,1.1,0.4,1.7c0,0.6-0.1,1.2-0.4,1.7s-0.7,0.9-1.2,1.2
		c-0.5,0.3-1.1,0.4-1.8,0.4C483.2,543.3,482.6,543.2,482.1,542.9z M485,542c0.3-0.2,0.6-0.5,0.8-0.8c0.2-0.3,0.3-0.8,0.3-1.2
		c0-0.5-0.1-0.9-0.3-1.2c-0.2-0.3-0.5-0.6-0.8-0.8c-0.3-0.2-0.7-0.3-1.1-0.3s-0.8,0.1-1.1,0.3c-0.3,0.2-0.6,0.5-0.8,0.8
		s-0.3,0.8-0.3,1.2c0,0.5,0.1,0.9,0.3,1.2c0.2,0.3,0.5,0.6,0.8,0.8c0.3,0.2,0.7,0.3,1.1,0.3S484.7,542.2,485,542z"/>
	<path class="st0" d="M494.4,537.4c0.5,0.5,0.7,1.2,0.7,2.1v3.8h-1.2v-3.6c0-0.6-0.1-1.1-0.5-1.4c-0.3-0.3-0.7-0.5-1.3-0.5
		c-0.6,0-1.1,0.2-1.5,0.6c-0.4,0.4-0.6,0.9-0.6,1.6v3.4h-1.2v-6.6h1.1v1c0.2-0.3,0.6-0.6,1-0.8c0.4-0.2,0.9-0.3,1.4-0.3
		C493.2,536.6,493.9,536.9,494.4,537.4z"/>
	<path class="st0" d="M402.4,557.7c-0.7-0.4-1.2-0.9-1.6-1.6c-0.4-0.7-0.6-1.4-0.6-2.3s0.2-1.6,0.6-2.3c0.4-0.7,1-1.2,1.6-1.6
		c0.7-0.4,1.5-0.6,2.4-0.6c0.7,0,1.3,0.1,1.9,0.3c0.6,0.2,1,0.6,1.4,1l-0.8,0.8c-0.6-0.7-1.5-1-2.4-1c-0.6,0-1.2,0.2-1.8,0.4
		s-0.9,0.7-1.2,1.2c-0.3,0.5-0.4,1.1-0.4,1.7s0.1,1.2,0.4,1.7s0.7,0.9,1.2,1.2s1.1,0.4,1.8,0.4c1,0,1.8-0.3,2.4-1l0.8,0.8
		c-0.4,0.5-0.9,0.8-1.4,1c-0.6,0.2-1.2,0.3-1.9,0.3C403.9,558.2,403.1,558,402.4,557.7z"/>
	<path class="st0" d="M410.4,557.8c-0.5-0.3-0.9-0.7-1.2-1.2c-0.3-0.5-0.4-1.1-0.4-1.7c0-0.6,0.1-1.2,0.4-1.7s0.7-0.9,1.2-1.2
		s1.1-0.4,1.8-0.4c0.6,0,1.2,0.1,1.8,0.4c0.5,0.3,0.9,0.7,1.2,1.2c0.3,0.5,0.4,1.1,0.4,1.7c0,0.6-0.1,1.2-0.4,1.7s-0.7,0.9-1.2,1.2
		c-0.5,0.3-1.1,0.4-1.8,0.4C411.5,558.2,411,558.1,410.4,557.8z M413.3,556.9c0.3-0.2,0.6-0.5,0.8-0.8c0.2-0.3,0.3-0.8,0.3-1.2
		c0-0.5-0.1-0.9-0.3-1.2c-0.2-0.3-0.5-0.6-0.8-0.8c-0.3-0.2-0.7-0.3-1.1-0.3s-0.8,0.1-1.1,0.3c-0.3,0.2-0.6,0.5-0.8,0.8
		s-0.3,0.8-0.3,1.2c0,0.5,0.1,0.9,0.3,1.2c0.2,0.3,0.5,0.6,0.8,0.8c0.3,0.2,0.7,0.3,1.1,0.3S413,557.1,413.3,556.9z"/>
	<path class="st0" d="M427.4,552.2c0.5,0.5,0.7,1.2,0.7,2.1v3.8H427v-3.6c0-0.6-0.1-1.1-0.4-1.4c-0.3-0.3-0.7-0.5-1.3-0.5
		c-0.6,0-1.1,0.2-1.4,0.6c-0.4,0.4-0.5,0.9-0.5,1.6v3.4h-1.2v-3.6c0-0.6-0.1-1.1-0.4-1.4c-0.3-0.3-0.7-0.5-1.3-0.5
		c-0.6,0-1.1,0.2-1.4,0.6c-0.4,0.4-0.5,0.9-0.5,1.6v3.4h-1.2v-6.6h1.1v1c0.2-0.3,0.5-0.6,0.9-0.8c0.4-0.2,0.8-0.3,1.3-0.3
		c0.5,0,1,0.1,1.4,0.3c0.4,0.2,0.7,0.5,0.9,0.9c0.2-0.4,0.6-0.7,1-0.9c0.4-0.2,0.9-0.3,1.5-0.3C426.3,551.5,426.9,551.7,427.4,552.2
		z"/>
	<path class="st0" d="M440.5,552.2c0.5,0.5,0.7,1.2,0.7,2.1v3.8H440v-3.6c0-0.6-0.1-1.1-0.4-1.4c-0.3-0.3-0.7-0.5-1.3-0.5
		c-0.6,0-1.1,0.2-1.4,0.6c-0.4,0.4-0.5,0.9-0.5,1.6v3.4h-1.2v-3.6c0-0.6-0.1-1.1-0.4-1.4c-0.3-0.3-0.7-0.5-1.3-0.5
		c-0.6,0-1.1,0.2-1.4,0.6c-0.4,0.4-0.5,0.9-0.5,1.6v3.4h-1.2v-6.6h1.1v1c0.2-0.3,0.5-0.6,0.9-0.8c0.4-0.2,0.8-0.3,1.3-0.3
		c0.5,0,1,0.1,1.4,0.3c0.4,0.2,0.7,0.5,0.9,0.9c0.2-0.4,0.6-0.7,1-0.9c0.4-0.2,0.9-0.3,1.5-0.3C439.4,551.5,440,551.7,440.5,552.2z"
		/>
	<path class="st0" d="M449.5,551.6v6.6h-1.1v-1c-0.2,0.3-0.6,0.6-1,0.8c-0.4,0.2-0.8,0.3-1.3,0.3c-0.9,0-1.6-0.2-2.1-0.7
		c-0.5-0.5-0.8-1.2-0.8-2.1v-3.8h1.2v3.6c0,0.6,0.1,1.1,0.5,1.4c0.3,0.3,0.7,0.5,1.3,0.5c0.6,0,1.1-0.2,1.5-0.6
		c0.4-0.4,0.5-0.9,0.5-1.6v-3.4H449.5z"/>
	<path class="st0" d="M457.3,552.2c0.5,0.5,0.7,1.2,0.7,2.1v3.8h-1.2v-3.6c0-0.6-0.1-1.1-0.5-1.4c-0.3-0.3-0.7-0.5-1.3-0.5
		c-0.6,0-1.1,0.2-1.5,0.6c-0.4,0.4-0.6,0.9-0.6,1.6v3.4h-1.2v-6.6h1.1v1c0.2-0.3,0.6-0.6,1-0.8c0.4-0.2,0.9-0.3,1.4-0.3
		C456.1,551.5,456.8,551.8,457.3,552.2z"/>
	<path class="st0" d="M460.3,550.1c-0.1-0.2-0.2-0.3-0.2-0.5c0-0.2,0.1-0.4,0.2-0.5c0.1-0.2,0.3-0.2,0.6-0.2s0.4,0.1,0.6,0.2
		c0.1,0.2,0.2,0.3,0.2,0.5s-0.1,0.4-0.2,0.6c-0.1,0.2-0.4,0.2-0.6,0.2S460.4,550.2,460.3,550.1z M460.2,551.6h1.2v6.6h-1.2V551.6z"
		/>
	<path class="st0" d="M464.8,557.8c-0.5-0.3-0.9-0.7-1.2-1.2c-0.3-0.5-0.5-1.1-0.5-1.7c0-0.6,0.1-1.2,0.5-1.7
		c0.3-0.5,0.7-0.9,1.2-1.2c0.5-0.3,1.1-0.4,1.8-0.4c0.6,0,1.1,0.1,1.6,0.4s0.8,0.6,1.1,1l-0.9,0.6c-0.2-0.3-0.5-0.5-0.8-0.7
		c-0.3-0.2-0.6-0.2-1-0.2c-0.4,0-0.8,0.1-1.2,0.3s-0.6,0.5-0.8,0.8c-0.2,0.3-0.3,0.8-0.3,1.2s0.1,0.9,0.3,1.2s0.5,0.6,0.8,0.8
		c0.3,0.2,0.7,0.3,1.2,0.3c0.4,0,0.7-0.1,1-0.2c0.3-0.2,0.6-0.4,0.8-0.7l0.9,0.6c-0.3,0.5-0.6,0.8-1.1,1c-0.5,0.2-1,0.4-1.6,0.4
		C465.9,558.2,465.3,558.1,464.8,557.8z"/>
	<path class="st0" d="M475.2,552.2c0.5,0.5,0.7,1.1,0.7,2v4h-1.1v-0.9c-0.2,0.3-0.5,0.5-0.9,0.7c-0.4,0.2-0.8,0.2-1.3,0.2
		c-0.7,0-1.3-0.2-1.8-0.5c-0.4-0.4-0.7-0.8-0.7-1.4s0.2-1,0.6-1.4c0.4-0.3,1.1-0.5,2-0.5h1.9v-0.2c0-0.5-0.1-0.9-0.5-1.2
		c-0.3-0.3-0.7-0.4-1.3-0.4c-0.4,0-0.8,0.1-1.1,0.2c-0.4,0.1-0.7,0.3-0.9,0.5l-0.5-0.9c0.3-0.3,0.7-0.5,1.2-0.6s1-0.2,1.5-0.2
		C474.1,551.5,474.8,551.7,475.2,552.2z M474.1,557c0.3-0.2,0.6-0.5,0.7-0.9v-0.9H473c-1,0-1.5,0.3-1.5,1c0,0.3,0.1,0.6,0.4,0.8
		c0.3,0.2,0.6,0.3,1.1,0.3C473.3,557.3,473.7,557.2,474.1,557z"/>
	<path class="st0" d="M481.9,557.7c-0.2,0.2-0.4,0.3-0.6,0.3c-0.3,0.1-0.5,0.1-0.8,0.1c-0.7,0-1.2-0.2-1.5-0.5
		c-0.4-0.4-0.5-0.9-0.5-1.5v-3.6h-1.1v-1h1.1v-1.4h1.2v1.4h1.9v1h-1.9v3.5c0,0.4,0.1,0.6,0.3,0.8s0.4,0.3,0.8,0.3
		c0.4,0,0.7-0.1,0.9-0.3L481.9,557.7z"/>
	<path class="st0" d="M483.3,550.1c-0.1-0.2-0.2-0.3-0.2-0.5c0-0.2,0.1-0.4,0.2-0.5c0.1-0.2,0.3-0.2,0.6-0.2s0.4,0.1,0.6,0.2
		c0.1,0.2,0.2,0.3,0.2,0.5s-0.1,0.4-0.2,0.6c-0.1,0.2-0.4,0.2-0.6,0.2S483.5,550.2,483.3,550.1z M483.3,551.6h1.2v6.6h-1.2V551.6z"
		/>
	<path class="st0" d="M487.8,557.8c-0.5-0.3-0.9-0.7-1.2-1.2c-0.3-0.5-0.4-1.1-0.4-1.7c0-0.6,0.1-1.2,0.4-1.7s0.7-0.9,1.2-1.2
		s1.1-0.4,1.8-0.4c0.6,0,1.2,0.1,1.8,0.4c0.5,0.3,0.9,0.7,1.2,1.2c0.3,0.5,0.4,1.1,0.4,1.7c0,0.6-0.1,1.2-0.4,1.7s-0.7,0.9-1.2,1.2
		c-0.5,0.3-1.1,0.4-1.8,0.4C488.9,558.2,488.3,558.1,487.8,557.8z M490.7,556.9c0.3-0.2,0.6-0.5,0.8-0.8c0.2-0.3,0.3-0.8,0.3-1.2
		c0-0.5-0.1-0.9-0.3-1.2c-0.2-0.3-0.5-0.6-0.8-0.8c-0.3-0.2-0.7-0.3-1.1-0.3s-0.8,0.1-1.1,0.3c-0.3,0.2-0.6,0.5-0.8,0.8
		s-0.3,0.8-0.3,1.2c0,0.5,0.1,0.9,0.3,1.2c0.2,0.3,0.5,0.6,0.8,0.8c0.3,0.2,0.7,0.3,1.1,0.3S490.4,557.1,490.7,556.9z"/>
	<path class="st0" d="M500.1,552.2c0.5,0.5,0.7,1.2,0.7,2.1v3.8h-1.2v-3.6c0-0.6-0.1-1.1-0.5-1.4c-0.3-0.3-0.7-0.5-1.3-0.5
		c-0.6,0-1.1,0.2-1.5,0.6c-0.4,0.4-0.6,0.9-0.6,1.6v3.4h-1.2v-6.6h1.1v1c0.2-0.3,0.6-0.6,1-0.8c0.4-0.2,0.9-0.3,1.4-0.3
		C499,551.5,499.6,551.8,500.1,552.2z"/>
	<path class="st0" d="M420.5,571.9v1.1h-6.3v-8.7h6.1v1.1h-4.9v2.7h4.4v1h-4.4v2.8H420.5z"/>
	<path class="st0" d="M426.4,573l-1.9-2.5l-1.9,2.5h-1.3l2.6-3.4l-2.5-3.2h1.3l1.8,2.4l1.8-2.4h1.3l-2.5,3.2l2.6,3.4H426.4z"/>
	<path class="st0" d="M434.2,566.8c0.5,0.3,0.9,0.7,1.2,1.2c0.3,0.5,0.4,1.1,0.4,1.8s-0.1,1.2-0.4,1.8c-0.3,0.5-0.7,0.9-1.2,1.2
		c-0.5,0.3-1.1,0.4-1.7,0.4c-0.5,0-0.9-0.1-1.3-0.3s-0.7-0.5-1-0.8v3.4h-1.2v-9h1.1v1c0.3-0.4,0.6-0.6,1-0.8
		c0.4-0.2,0.9-0.3,1.3-0.3C433.2,566.4,433.7,566.5,434.2,566.8z M433.6,571.7c0.3-0.2,0.6-0.5,0.8-0.8c0.2-0.3,0.3-0.8,0.3-1.2
		c0-0.5-0.1-0.9-0.3-1.2c-0.2-0.3-0.5-0.6-0.8-0.8c-0.3-0.2-0.7-0.3-1.1-0.3c-0.4,0-0.8,0.1-1.1,0.3s-0.6,0.5-0.8,0.8
		s-0.3,0.8-0.3,1.2s0.1,0.9,0.3,1.2c0.2,0.3,0.5,0.6,0.8,0.8c0.3,0.2,0.7,0.3,1.1,0.3C432.9,572,433.2,571.9,433.6,571.7z"/>
	<path class="st0" d="M437.5,563.8h1.2v9.2h-1.2V563.8z"/>
	<path class="st0" d="M442,572.6c-0.5-0.3-0.9-0.7-1.2-1.2c-0.3-0.5-0.4-1.1-0.4-1.7c0-0.6,0.1-1.2,0.4-1.7s0.7-0.9,1.2-1.2
		s1.1-0.4,1.8-0.4c0.6,0,1.2,0.1,1.8,0.4c0.5,0.3,0.9,0.7,1.2,1.2c0.3,0.5,0.4,1.1,0.4,1.7c0,0.6-0.1,1.2-0.4,1.7s-0.7,0.9-1.2,1.2
		c-0.5,0.3-1.1,0.4-1.8,0.4C443.1,573.1,442.5,572.9,442,572.6z M444.9,571.7c0.3-0.2,0.6-0.5,0.8-0.8c0.2-0.3,0.3-0.8,0.3-1.2
		c0-0.5-0.1-0.9-0.3-1.2c-0.2-0.3-0.5-0.6-0.8-0.8c-0.3-0.2-0.7-0.3-1.1-0.3s-0.8,0.1-1.1,0.3c-0.3,0.2-0.6,0.5-0.8,0.8
		s-0.3,0.8-0.3,1.2c0,0.5,0.1,0.9,0.3,1.2c0.2,0.3,0.5,0.6,0.8,0.8c0.3,0.2,0.7,0.3,1.1,0.3S444.6,571.9,444.9,571.7z"/>
	<path class="st0" d="M448.8,564.9c-0.1-0.2-0.2-0.3-0.2-0.5c0-0.2,0.1-0.4,0.2-0.5c0.1-0.2,0.3-0.2,0.6-0.2s0.4,0.1,0.6,0.2
		c0.1,0.2,0.2,0.3,0.2,0.5s-0.1,0.4-0.2,0.6c-0.1,0.2-0.4,0.2-0.6,0.2S449,565.1,448.8,564.9z M448.8,566.4h1.2v6.6h-1.2V566.4z"/>
	<path class="st0" d="M456,572.6c-0.2,0.2-0.4,0.3-0.6,0.3c-0.3,0.1-0.5,0.1-0.8,0.1c-0.7,0-1.2-0.2-1.5-0.5
		c-0.4-0.4-0.5-0.9-0.5-1.5v-3.6h-1.1v-1h1.1V565h1.2v1.4h1.9v1h-1.9v3.5c0,0.4,0.1,0.6,0.3,0.8s0.4,0.3,0.8,0.3
		c0.4,0,0.7-0.1,0.9-0.3L456,572.6z"/>
	<path class="st0" d="M461.9,567c0.5,0.5,0.7,1.1,0.7,2v4h-1.1v-0.9c-0.2,0.3-0.5,0.5-0.9,0.7c-0.4,0.2-0.8,0.2-1.3,0.2
		c-0.7,0-1.3-0.2-1.8-0.5c-0.4-0.4-0.7-0.8-0.7-1.4s0.2-1,0.6-1.4c0.4-0.3,1.1-0.5,2-0.5h1.9V569c0-0.5-0.1-0.9-0.5-1.2
		c-0.3-0.3-0.7-0.4-1.3-0.4c-0.4,0-0.8,0.1-1.1,0.2c-0.4,0.1-0.7,0.3-0.9,0.5l-0.5-0.9c0.3-0.3,0.7-0.5,1.2-0.6s1-0.2,1.5-0.2
		C460.7,566.4,461.4,566.6,461.9,567z M460.7,571.8c0.3-0.2,0.6-0.5,0.7-0.9v-0.9h-1.8c-1,0-1.5,0.3-1.5,1c0,0.3,0.1,0.6,0.4,0.8
		c0.3,0.2,0.6,0.3,1.1,0.3C460,572.1,460.4,572,460.7,571.8z"/>
	<path class="st0" d="M468.5,572.6c-0.2,0.2-0.4,0.3-0.6,0.3c-0.3,0.1-0.5,0.1-0.8,0.1c-0.7,0-1.2-0.2-1.5-0.5
		c-0.4-0.4-0.5-0.9-0.5-1.5v-3.6h-1.1v-1h1.1V565h1.2v1.4h1.9v1h-1.9v3.5c0,0.4,0.1,0.6,0.3,0.8s0.4,0.3,0.8,0.3
		c0.4,0,0.7-0.1,0.9-0.3L468.5,572.6z"/>
	<path class="st0" d="M470,564.9c-0.1-0.2-0.2-0.3-0.2-0.5c0-0.2,0.1-0.4,0.2-0.5c0.1-0.2,0.3-0.2,0.6-0.2s0.4,0.1,0.6,0.2
		c0.1,0.2,0.2,0.3,0.2,0.5s-0.1,0.4-0.2,0.6c-0.1,0.2-0.4,0.2-0.6,0.2S470.1,565.1,470,564.9z M469.9,566.4h1.2v6.6h-1.2V566.4z"/>
	<path class="st0" d="M474.4,572.6c-0.5-0.3-0.9-0.7-1.2-1.2c-0.3-0.5-0.4-1.1-0.4-1.7c0-0.6,0.1-1.2,0.4-1.7s0.7-0.9,1.2-1.2
		s1.1-0.4,1.8-0.4c0.6,0,1.2,0.1,1.8,0.4c0.5,0.3,0.9,0.7,1.2,1.2c0.3,0.5,0.4,1.1,0.4,1.7c0,0.6-0.1,1.2-0.4,1.7s-0.7,0.9-1.2,1.2
		c-0.5,0.3-1.1,0.4-1.8,0.4C475.5,573.1,475,572.9,474.4,572.6z M477.3,571.7c0.3-0.2,0.6-0.5,0.8-0.8c0.2-0.3,0.3-0.8,0.3-1.2
		c0-0.5-0.1-0.9-0.3-1.2c-0.2-0.3-0.5-0.6-0.8-0.8c-0.3-0.2-0.7-0.3-1.1-0.3s-0.8,0.1-1.1,0.3c-0.3,0.2-0.6,0.5-0.8,0.8
		s-0.3,0.8-0.3,1.2c0,0.5,0.1,0.9,0.3,1.2c0.2,0.3,0.5,0.6,0.8,0.8c0.3,0.2,0.7,0.3,1.1,0.3S477,571.9,477.3,571.7z"/>
	<path class="st0" d="M486.7,567.1c0.5,0.5,0.7,1.2,0.7,2.1v3.8h-1.2v-3.6c0-0.6-0.1-1.1-0.5-1.4c-0.3-0.3-0.7-0.5-1.3-0.5
		c-0.6,0-1.1,0.2-1.5,0.6c-0.4,0.4-0.6,0.9-0.6,1.6v3.4h-1.2v-6.6h1.1v1c0.2-0.3,0.6-0.6,1-0.8c0.4-0.2,0.9-0.3,1.4-0.3
		C485.6,566.4,486.2,566.6,486.7,567.1z"/>
</g>
<g>
	<circle class="st2" cx="618.1" cy="540.6" r="66.1"/>
	<path class="st0" d="M618.1,607.6c-37,0-67.1-30.1-67.1-67.1s30.1-67.1,67.1-67.1s67,30.1,67,67.1S655.1,607.6,618.1,607.6z
		 M618.1,475.4c-36,0-65.2,29.2-65.2,65.2s29.2,65.2,65.2,65.2s65.2-29.2,65.2-65.2S654.1,475.4,618.1,475.4z"/>
</g>
<g>
	<path class="st0" d="M616.4,519.4l-2.8,8.7h-3.1l-1.4-4.6l-1.5,4.6h-3.1l-2.8-8.7h3l1.5,4.9l1.6-4.9h2.7l1.5,5l1.6-5H616.4z"/>
	<path class="st0" d="M623.3,519.8c0.6,0.3,1,0.6,1.4,1.1c0.3,0.5,0.5,1.1,0.5,1.7s-0.2,1.2-0.5,1.7s-0.8,0.9-1.4,1.1
		c-0.6,0.3-1.3,0.4-2.1,0.4h-1.2v2.1H617v-8.7h4.2C622,519.4,622.7,519.6,623.3,519.8z M621.9,523.4c0.2-0.2,0.3-0.4,0.3-0.8
		s-0.1-0.6-0.3-0.8s-0.5-0.3-0.9-0.3h-1.1v2h1.1C621.4,523.7,621.7,523.6,621.9,523.4z"/>
	<path class="st0" d="M631.4,519.7c0.6,0.3,1.1,0.8,1.5,1.4c0.3,0.6,0.5,1.4,0.5,2.3c0,1-0.2,1.8-0.6,2.6c-0.4,0.7-1,1.3-1.7,1.7
		c-0.7,0.4-1.6,0.6-2.5,0.6c-0.5,0-1-0.1-1.5-0.2s-0.9-0.3-1.2-0.5l1-2c0.4,0.3,1,0.5,1.6,0.5c0.5,0,0.9-0.1,1.2-0.4
		c0.3-0.2,0.5-0.6,0.6-1.1c-0.5,0.3-1,0.5-1.7,0.5c-0.5,0-1-0.1-1.5-0.3c-0.5-0.2-0.8-0.6-1.1-1s-0.4-0.9-0.4-1.5
		c0-0.6,0.2-1.1,0.5-1.6c0.3-0.5,0.7-0.8,1.3-1.1c0.5-0.2,1.1-0.4,1.8-0.4C630,519.2,630.7,519.4,631.4,519.7z M630,522.8
		c0.2-0.2,0.2-0.4,0.2-0.7s-0.1-0.5-0.2-0.6c-0.2-0.2-0.4-0.2-0.6-0.2s-0.5,0.1-0.6,0.2c-0.2,0.2-0.2,0.4-0.2,0.6s0.1,0.5,0.2,0.7
		c0.2,0.2,0.4,0.2,0.6,0.2S629.8,522.9,630,522.8z"/>
	<path class="st0" d="M584.2,557.8l0-6.3l-3.1,5.3h-0.6l-3.1-5.2v6.3h-1.2v-8.7h1l3.6,6.1l3.6-6.1h1l0,8.7L584.2,557.8L584.2,557.8z
		"/>
	<path class="st0" d="M592.3,551.8c0.5,0.5,0.7,1.1,0.7,2v4h-1.1v-0.9c-0.2,0.3-0.5,0.5-0.8,0.7c-0.4,0.2-0.8,0.2-1.3,0.2
		c-0.7,0-1.3-0.2-1.8-0.5c-0.4-0.4-0.7-0.8-0.7-1.4s0.2-1,0.6-1.4c0.4-0.3,1.1-0.5,2-0.5h1.9v-0.2c0-0.5-0.2-0.9-0.5-1.2
		c-0.3-0.3-0.7-0.4-1.3-0.4c-0.4,0-0.8,0.1-1.1,0.2s-0.7,0.3-0.9,0.5l-0.5-0.9c0.3-0.3,0.7-0.5,1.2-0.6c0.5-0.2,1-0.2,1.5-0.2
		C591.1,551.2,591.8,551.4,592.3,551.8z M591.1,556.7c0.3-0.2,0.6-0.5,0.7-0.9v-0.9H590c-1,0-1.5,0.3-1.5,1c0,0.3,0.1,0.6,0.4,0.8
		c0.3,0.2,0.6,0.3,1.1,0.3C590.4,557,590.8,556.9,591.1,556.7z"/>
	<path class="st0" d="M600.7,551.9c0.5,0.5,0.7,1.2,0.7,2.1v3.8h-1.2v-3.6c0-0.6-0.2-1.1-0.5-1.4c-0.3-0.3-0.7-0.5-1.3-0.5
		c-0.6,0-1.2,0.2-1.5,0.6c-0.4,0.4-0.6,0.9-0.6,1.6v3.4h-1.2v-6.6h1.1v1c0.2-0.3,0.6-0.6,1-0.8c0.4-0.2,0.9-0.3,1.4-0.3
		C599.6,551.2,600.2,551.4,600.7,551.9z"/>
	<path class="st0" d="M608.2,551.8c0.5,0.5,0.7,1.1,0.7,2v4h-1.1v-0.9c-0.2,0.3-0.5,0.5-0.8,0.7c-0.4,0.2-0.8,0.2-1.3,0.2
		c-0.7,0-1.3-0.2-1.8-0.5c-0.4-0.4-0.7-0.8-0.7-1.4s0.2-1,0.6-1.4c0.4-0.3,1.1-0.5,2-0.5h1.9v-0.2c0-0.5-0.2-0.9-0.5-1.2
		c-0.3-0.3-0.7-0.4-1.3-0.4c-0.4,0-0.8,0.1-1.1,0.2s-0.7,0.3-0.9,0.5l-0.5-0.9c0.3-0.3,0.7-0.5,1.2-0.6c0.5-0.2,1-0.2,1.5-0.2
		C607,551.2,607.7,551.4,608.2,551.8z M607,556.7c0.3-0.2,0.6-0.5,0.7-0.9v-0.9h-1.8c-1,0-1.5,0.3-1.5,1c0,0.3,0.1,0.6,0.4,0.8
		c0.3,0.2,0.6,0.3,1.1,0.3C606.2,557,606.6,556.9,607,556.7z"/>
	<path class="st0" d="M617.4,551.2v5.7c0,1.2-0.3,2-0.8,2.5c-0.6,0.5-1.4,0.8-2.5,0.8c-0.6,0-1.2-0.1-1.8-0.2s-1-0.4-1.4-0.7
		l0.6-0.9c0.3,0.3,0.7,0.5,1.1,0.6c0.5,0.2,0.9,0.2,1.4,0.2c0.8,0,1.3-0.2,1.7-0.5c0.4-0.4,0.5-0.9,0.5-1.7v-0.5
		c-0.3,0.3-0.6,0.6-1,0.8c-0.4,0.2-0.8,0.2-1.3,0.2c-0.6,0-1.2-0.1-1.7-0.4c-0.5-0.3-0.9-0.6-1.2-1.1c-0.3-0.5-0.4-1-0.4-1.7
		s0.1-1.2,0.4-1.7c0.3-0.5,0.7-0.9,1.2-1.1s1.1-0.4,1.7-0.4c0.5,0,1,0.1,1.4,0.3c0.4,0.2,0.8,0.5,1,0.8v-1L617.4,551.2L617.4,551.2z
		 M615.1,556.2c0.3-0.2,0.6-0.4,0.8-0.8c0.2-0.3,0.3-0.7,0.3-1.1c0-0.6-0.2-1.2-0.6-1.5c-0.4-0.4-1-0.6-1.6-0.6
		c-0.7,0-1.2,0.2-1.6,0.6s-0.6,0.9-0.6,1.5c0,0.4,0.1,0.8,0.3,1.1c0.2,0.3,0.5,0.6,0.8,0.8c0.3,0.2,0.7,0.3,1.2,0.3
		C614.4,556.5,614.8,556.4,615.1,556.2z"/>
	<path class="st0" d="M625.6,554.9h-5.3c0.1,0.6,0.3,1,0.8,1.4c0.4,0.3,1,0.5,1.6,0.5c0.8,0,1.4-0.3,1.9-0.8l0.7,0.8
		c-0.3,0.3-0.7,0.6-1.1,0.8s-0.9,0.3-1.5,0.3c-0.7,0-1.3-0.1-1.8-0.4c-0.5-0.3-1-0.7-1.2-1.2s-0.4-1.1-0.4-1.7
		c0-0.6,0.1-1.2,0.4-1.7c0.3-0.5,0.7-0.9,1.2-1.2c0.5-0.3,1.1-0.4,1.7-0.4s1.2,0.1,1.7,0.4c0.5,0.3,0.9,0.7,1.2,1.2
		c0.3,0.5,0.4,1.1,0.4,1.8C625.6,554.7,625.6,554.8,625.6,554.9z M620.9,552.7c-0.4,0.3-0.6,0.8-0.7,1.4h4.2c-0.1-0.5-0.3-1-0.7-1.4
		c-0.4-0.3-0.9-0.5-1.4-0.5S621.3,552.4,620.9,552.7z"/>
	<path class="st0" d="M637.4,551.9c0.5,0.5,0.7,1.2,0.7,2.1v3.8h-1.2v-3.6c0-0.6-0.2-1.1-0.4-1.4c-0.3-0.3-0.7-0.5-1.3-0.5
		c-0.6,0-1.1,0.2-1.4,0.6c-0.3,0.4-0.5,0.9-0.5,1.6v3.4h-1.2v-3.6c0-0.6-0.2-1.1-0.4-1.4c-0.3-0.3-0.7-0.5-1.3-0.5
		c-0.6,0-1.1,0.2-1.4,0.6c-0.3,0.4-0.5,0.9-0.5,1.6v3.4h-1.2v-6.6h1.1v1c0.2-0.3,0.5-0.6,0.9-0.8c0.4-0.2,0.8-0.3,1.3-0.3
		c0.5,0,1,0.1,1.4,0.3c0.4,0.2,0.7,0.5,0.9,0.9c0.2-0.4,0.6-0.7,1-0.9c0.4-0.2,0.9-0.3,1.5-0.3C636.3,551.2,636.9,551.4,637.4,551.9
		z"/>
	<path class="st0" d="M646.3,554.9H641c0.1,0.6,0.3,1,0.8,1.4c0.4,0.3,1,0.5,1.6,0.5c0.8,0,1.4-0.3,1.9-0.8l0.7,0.8
		c-0.3,0.3-0.7,0.6-1.1,0.8s-0.9,0.3-1.5,0.3c-0.7,0-1.3-0.1-1.8-0.4c-0.5-0.3-1-0.7-1.2-1.2s-0.4-1.1-0.4-1.7
		c0-0.6,0.1-1.2,0.4-1.7c0.3-0.5,0.7-0.9,1.2-1.2c0.5-0.3,1.1-0.4,1.7-0.4s1.2,0.1,1.7,0.4c0.5,0.3,0.9,0.7,1.2,1.2
		c0.3,0.5,0.4,1.1,0.4,1.8C646.3,554.7,646.3,554.8,646.3,554.9z M641.6,552.7c-0.4,0.3-0.6,0.8-0.7,1.4h4.2c-0.1-0.5-0.3-1-0.7-1.4
		c-0.4-0.3-0.9-0.5-1.4-0.5C642.5,552.2,642,552.4,641.6,552.7z"/>
	<path class="st0" d="M653.4,551.9c0.5,0.5,0.7,1.2,0.7,2.1v3.8H653v-3.6c0-0.6-0.2-1.1-0.5-1.4c-0.3-0.3-0.7-0.5-1.3-0.5
		c-0.6,0-1.2,0.2-1.5,0.6c-0.4,0.4-0.6,0.9-0.6,1.6v3.4h-1.2v-6.6h1.1v1c0.2-0.3,0.6-0.6,1-0.8c0.4-0.2,0.9-0.3,1.4-0.3
		C652.3,551.2,652.9,551.4,653.4,551.9z"/>
	<path class="st0" d="M660.1,557.4c-0.2,0.2-0.4,0.3-0.6,0.3c-0.3,0.1-0.5,0.1-0.8,0.1c-0.7,0-1.2-0.2-1.5-0.5
		c-0.4-0.4-0.5-0.9-0.5-1.5v-3.6h-1.1v-1h1.1v-1.4h1.2v1.4h1.9v1h-1.9v3.5c0,0.4,0.1,0.6,0.3,0.8s0.4,0.3,0.8,0.3
		c0.4,0,0.7-0.1,0.9-0.3L660.1,557.4z"/>
</g>
<g>
	<path class="st0" d="M779.2,519.4l-2.8,8.7h-3.1l-1.4-4.6l-1.5,4.6h-3.1l-2.8-8.7h3l1.5,4.9l1.6-4.9h2.7l1.5,5l1.6-5H779.2z"/>
	<path class="st0" d="M786.1,519.8c0.6,0.3,1,0.6,1.4,1.1c0.3,0.5,0.5,1.1,0.5,1.7s-0.2,1.2-0.5,1.7s-0.8,0.9-1.4,1.1
		c-0.6,0.3-1.3,0.4-2.1,0.4h-1.2v2.1h-2.9v-8.7h4.2C784.8,519.4,785.5,519.6,786.1,519.8z M784.7,523.4c0.2-0.2,0.3-0.4,0.3-0.8
		s-0.1-0.6-0.3-0.8s-0.5-0.3-0.9-0.3h-1.1v2h1.1C784.2,523.7,784.5,523.6,784.7,523.4z"/>
	<path class="st0" d="M792.8,519.4v8.7h-2.9v-6.5h-1.5v-2.2L792.8,519.4L792.8,519.4z"/>
	<path class="st0" d="M795.7,527.7c-0.6-0.4-1-0.9-1.4-1.6c-0.3-0.7-0.5-1.5-0.5-2.4s0.2-1.8,0.5-2.4s0.8-1.2,1.4-1.6s1.3-0.5,2-0.5
		c0.8,0,1.5,0.2,2,0.5c0.6,0.4,1,0.9,1.4,1.6c0.3,0.7,0.5,1.5,0.5,2.4s-0.2,1.8-0.5,2.4s-0.8,1.2-1.4,1.6s-1.3,0.5-2,0.5
		C797,528.3,796.3,528.1,795.7,527.7z M798.8,523.8c0-1.5-0.3-2.2-1-2.2s-1,0.7-1,2.2s0.3,2.2,1,2.2S798.8,525.2,798.8,523.8z"/>
	<path class="st0" d="M771.6,556.7v1.1h-6.3v-8.7h6.1v1.1h-4.9v2.7h4.3v1h-4.3v2.8H771.6z"/>
	<path class="st0" d="M777,557.4c-0.2,0.2-0.4,0.3-0.6,0.3c-0.3,0.1-0.5,0.1-0.8,0.1c-0.7,0-1.2-0.2-1.5-0.5
		c-0.4-0.4-0.5-0.9-0.5-1.5v-3.6h-1.1v-1h1.1v-1.4h1.2v1.4h1.9v1h-1.9v3.5c0,0.4,0.1,0.6,0.3,0.8s0.4,0.3,0.8,0.3
		c0.4,0,0.7-0.1,0.9-0.3L777,557.4z"/>
	<path class="st0" d="M783.9,551.9c0.5,0.5,0.7,1.2,0.7,2.1v3.8h-1.2v-3.6c0-0.6-0.2-1.1-0.5-1.4c-0.3-0.3-0.7-0.5-1.3-0.5
		c-0.6,0-1.2,0.2-1.5,0.6c-0.4,0.4-0.6,0.9-0.6,1.6v3.4h-1.2v-9.2h1.2v3.5c0.2-0.3,0.6-0.6,1-0.7c0.4-0.2,0.8-0.3,1.3-0.3
		C782.7,551.2,783.4,551.4,783.9,551.9z"/>
	<path class="st0" d="M786.8,549.8c-0.2-0.2-0.2-0.3-0.2-0.5c0-0.2,0.1-0.4,0.2-0.5c0.2-0.2,0.3-0.2,0.6-0.2s0.4,0.1,0.6,0.2
		c0.2,0.2,0.2,0.3,0.2,0.5s-0.1,0.4-0.2,0.6c-0.2,0.2-0.3,0.2-0.6,0.2S787,549.9,786.8,549.8z M786.8,551.2h1.2v6.6h-1.2V551.2z"/>
	<path class="st0" d="M791.4,557.4c-0.5-0.3-0.9-0.7-1.2-1.2c-0.3-0.5-0.5-1.1-0.5-1.7c0-0.6,0.2-1.2,0.5-1.7s0.7-0.9,1.2-1.2
		c0.5-0.3,1.1-0.4,1.8-0.4c0.6,0,1.1,0.1,1.6,0.4s0.8,0.6,1.1,1l-0.9,0.6c-0.2-0.3-0.5-0.5-0.8-0.7c-0.3-0.2-0.6-0.2-1-0.2
		c-0.4,0-0.8,0.1-1.2,0.3c-0.3,0.2-0.6,0.5-0.8,0.8c-0.2,0.3-0.3,0.8-0.3,1.2s0.1,0.9,0.3,1.2s0.5,0.6,0.8,0.8
		c0.3,0.2,0.7,0.3,1.2,0.3c0.4,0,0.7-0.1,1-0.2c0.3-0.2,0.6-0.4,0.8-0.7l0.9,0.6c-0.3,0.5-0.6,0.8-1.1,1c-0.5,0.2-1,0.4-1.6,0.4
		C792.5,557.9,791.9,557.7,791.4,557.4z"/>
	<path class="st0" d="M797.7,557.7c-0.5-0.1-0.9-0.3-1.2-0.5l0.5-0.9c0.3,0.2,0.6,0.4,1,0.5c0.4,0.1,0.8,0.2,1.2,0.2
		c1,0,1.6-0.3,1.6-0.9c0-0.2-0.1-0.3-0.2-0.5s-0.3-0.2-0.5-0.2s-0.5-0.1-0.9-0.2c-0.5-0.1-1-0.2-1.3-0.3c-0.3-0.1-0.6-0.3-0.9-0.5
		s-0.4-0.6-0.4-1.1c0-0.6,0.2-1.1,0.7-1.4c0.5-0.4,1.2-0.5,2-0.5c0.4,0,0.9,0,1.3,0.2s0.8,0.2,1.1,0.4l-0.5,0.9
		c-0.5-0.3-1.2-0.5-1.9-0.5c-0.5,0-0.9,0.1-1.2,0.2c-0.3,0.2-0.4,0.4-0.4,0.7c0,0.2,0.1,0.4,0.2,0.5c0.2,0.1,0.3,0.2,0.5,0.3
		c0.2,0.1,0.5,0.1,0.9,0.2c0.5,0.1,1,0.2,1.3,0.3c0.3,0.1,0.6,0.3,0.8,0.5c0.2,0.2,0.3,0.6,0.3,1c0,0.6-0.2,1.1-0.8,1.4
		s-1.2,0.5-2.1,0.5C798.7,557.9,798.2,557.8,797.7,557.7z"/>
</g>
<g>
	<g>
		<circle class="st2" cx="1059" cy="229" r="82.9"/>
		<path class="st0" d="M1059,312.8c-46.2,0-83.8-37.6-83.8-83.8s37.6-83.8,83.8-83.8s83.8,37.6,83.8,83.8S1105.2,312.8,1059,312.8z
			 M1059,147.1c-45.2,0-81.9,36.8-81.9,81.9s36.8,81.9,81.9,81.9c45.2,0,81.9-36.8,81.9-81.9S1104.2,147.1,1059,147.1z"/>
	</g>
	<g>
		<path class="st0" d="M1057.9,199.4l-2.8,8.7h-3.1l-1.4-4.6l-1.5,4.6h-3.1l-2.8-8.7h3l1.5,4.9l1.6-4.9h2.7l1.5,5l1.6-5H1057.9z"/>
		<path class="st0" d="M1064.8,199.8c0.6,0.3,1.1,0.6,1.4,1.1s0.5,1.1,0.5,1.7s-0.2,1.2-0.5,1.7s-0.8,0.9-1.4,1.1
			c-0.6,0.3-1.3,0.4-2.1,0.4h-1.2v2.1h-2.9v-8.7h4.2C1063.5,199.4,1064.2,199.6,1064.8,199.8z M1063.4,203.5
			c0.2-0.2,0.3-0.4,0.3-0.8s-0.1-0.6-0.3-0.8c-0.2-0.2-0.5-0.3-0.9-0.3h-1.1v2h1.1C1062.9,203.7,1063.2,203.6,1063.4,203.5z"/>
		<path class="st0" d="M1074.7,199.4v1.8l-2.9,6.9h-3.2l2.8-6.4h-1.7v1.3h-2.4v-3.5H1074.7z"/>
		<path class="st0" d="M1002.3,230.2v3h4.3v1.1h-4.3v3.5h-1.2v-8.7h6.1v1.1L1002.3,230.2L1002.3,230.2z"/>
		<path class="st0" d="M1014.8,237.8l-1.9-2.7c-0.2,0-0.4,0-0.5,0h-2.1v2.6h-1.2v-8.7h3.4c1.1,0,2,0.3,2.7,0.8c0.6,0.5,1,1.3,1,2.2
			c0,0.7-0.2,1.2-0.5,1.7s-0.8,0.8-1.4,1l2.1,2.9L1014.8,237.8L1014.8,237.8z M1014.1,233.6c0.4-0.3,0.6-0.8,0.6-1.5
			s-0.2-1.1-0.6-1.4c-0.4-0.3-1-0.5-1.8-0.5h-2.1v3.9h2.1C1013.1,234.1,1013.7,234,1014.1,233.6z"/>
		<path class="st0" d="M1023.5,235.7h-4.6l-1,2.2h-1.3l3.9-8.7h1.2l3.9,8.7h-1.3L1023.5,235.7z M1023.1,234.7l-1.9-4.2l-1.9,4.2
			H1023.1z"/>
		<path class="st0" d="M1035.1,237.8l0-6.3l-3.1,5.3h-0.6l-3.1-5.2v6.3h-1.2v-8.7h1l3.6,6.1l3.6-6.1h1l0,8.7L1035.1,237.8
			L1035.1,237.8z"/>
		<path class="st0" d="M1045.2,236.7v1.1h-6.3v-8.7h6.1v1.1h-4.9v2.7h4.3v1h-4.3v2.8L1045.2,236.7L1045.2,236.7z"/>
		<path class="st0" d="M1059.3,229.2l-2.9,8.7h-1.3l-2.4-6.9l-2.4,6.9h-1.3l-2.9-8.7h1.3l2.3,7l2.4-7h1.1l2.4,7.1l2.4-7.1H1059.3z"
			/>
		<path class="st0" d="M1062.3,237.3c-0.7-0.4-1.2-0.9-1.7-1.6s-0.6-1.4-0.6-2.3c0-0.8,0.2-1.6,0.6-2.3s0.9-1.2,1.7-1.6
			c0.7-0.4,1.5-0.6,2.4-0.6c0.9,0,1.7,0.2,2.3,0.6c0.7,0.4,1.2,0.9,1.7,1.6c0.4,0.7,0.6,1.4,0.6,2.3s-0.2,1.6-0.6,2.3
			c-0.4,0.7-0.9,1.2-1.7,1.6c-0.7,0.4-1.5,0.6-2.3,0.6C1063.8,237.9,1063,237.7,1062.3,237.3z M1066.3,236.4
			c0.5-0.3,0.9-0.7,1.2-1.2c0.3-0.5,0.4-1.1,0.4-1.7s-0.2-1.2-0.4-1.7c-0.3-0.5-0.7-0.9-1.2-1.2c-0.5-0.3-1.1-0.4-1.7-0.4
			c-0.6,0-1.2,0.1-1.7,0.4c-0.5,0.3-0.9,0.7-1.2,1.2s-0.4,1.1-0.4,1.7c0,0.6,0.2,1.2,0.4,1.7c0.3,0.5,0.7,0.9,1.2,1.2
			c0.5,0.3,1.1,0.4,1.7,0.4C1065.3,236.8,1065.8,236.7,1066.3,236.4z"/>
		<path class="st0" d="M1076.9,237.8l-1.9-2.7c-0.2,0-0.4,0-0.5,0h-2.1v2.6h-1.2v-8.7h3.4c1.1,0,2,0.3,2.7,0.8c0.6,0.5,1,1.3,1,2.2
			c0,0.7-0.2,1.2-0.5,1.7s-0.8,0.8-1.4,1l2.1,2.9L1076.9,237.8L1076.9,237.8z M1076.2,233.6c0.4-0.3,0.6-0.8,0.6-1.5
			s-0.2-1.1-0.6-1.4c-0.4-0.3-1-0.5-1.8-0.5h-2.1v3.9h2.1C1075.2,234.1,1075.8,234,1076.2,233.6z"/>
		<path class="st0" d="M1082.9,234l-1.6,1.6v2.2h-1.2v-8.7h1.2v4.8l4.7-4.8h1.4l-3.7,3.9l3.9,4.8h-1.4L1082.9,234z"/>
		<path class="st0" d="M1093.6,230.2v3h4.3v1.1h-4.3v3.5h-1.2v-8.7h6.1v1.1L1093.6,230.2L1093.6,230.2z"/>
		<path class="st0" d="M1101.7,237.3c-0.7-0.4-1.2-0.9-1.7-1.6s-0.6-1.4-0.6-2.3c0-0.8,0.2-1.6,0.6-2.3s0.9-1.2,1.7-1.6
			c0.7-0.4,1.5-0.6,2.4-0.6c0.9,0,1.7,0.2,2.3,0.6c0.7,0.4,1.2,0.9,1.7,1.6c0.4,0.7,0.6,1.4,0.6,2.3s-0.2,1.6-0.6,2.3
			c-0.4,0.7-0.9,1.2-1.7,1.6c-0.7,0.4-1.5,0.6-2.3,0.6C1103.2,237.9,1102.4,237.7,1101.7,237.3z M1105.7,236.4
			c0.5-0.3,0.9-0.7,1.2-1.2c0.3-0.5,0.4-1.1,0.4-1.7s-0.2-1.2-0.4-1.7c-0.3-0.5-0.7-0.9-1.2-1.2c-0.5-0.3-1.1-0.4-1.7-0.4
			c-0.6,0-1.2,0.1-1.7,0.4c-0.5,0.3-0.9,0.7-1.2,1.2c-0.3,0.5-0.4,1.1-0.4,1.7c0,0.6,0.2,1.2,0.4,1.7c0.3,0.5,0.7,0.9,1.2,1.2
			c0.5,0.3,1.1,0.4,1.7,0.4C1104.7,236.8,1105.2,236.7,1105.7,236.4z"/>
		<path class="st0" d="M1116.3,237.8l-1.9-2.7c-0.2,0-0.4,0-0.5,0h-2.1v2.6h-1.2v-8.7h3.4c1.1,0,2,0.3,2.7,0.8c0.6,0.5,1,1.3,1,2.2
			c0,0.7-0.2,1.2-0.5,1.7s-0.8,0.8-1.4,1l2.1,2.9L1116.3,237.8L1116.3,237.8z M1115.7,233.6c0.4-0.3,0.6-0.8,0.6-1.5
			s-0.2-1.1-0.6-1.4c-0.4-0.3-1-0.5-1.8-0.5h-2.1v3.9h2.1C1114.6,234.1,1115.2,234,1115.7,233.6z"/>
		<path class="st0" d="M1008.4,252.7l-1.9-2.7c-0.2,0-0.4,0-0.5,0h-2.1v2.6h-1.2V244h3.4c1.1,0,2,0.3,2.7,0.8c0.6,0.5,1,1.3,1,2.2
			c0,0.7-0.2,1.2-0.5,1.7s-0.8,0.8-1.4,1l2.1,2.9L1008.4,252.7L1008.4,252.7z M1007.8,248.5c0.4-0.3,0.6-0.8,0.6-1.5
			s-0.2-1.1-0.6-1.4c-0.4-0.3-1-0.5-1.8-0.5h-2.1v3.9h2.1C1006.8,249,1007.4,248.8,1007.8,248.5z"/>
		<path class="st0" d="M1011.6,244h1.2v8.7h-1.2V244z"/>
		<path class="st0" d="M1016.1,252.5c-0.6-0.2-1.1-0.5-1.4-0.8l0.5-1c0.3,0.3,0.8,0.5,1.3,0.7c0.5,0.2,1,0.3,1.6,0.3
			c0.7,0,1.3-0.1,1.6-0.4c0.4-0.2,0.5-0.6,0.5-1c0-0.3-0.1-0.5-0.3-0.7c-0.2-0.2-0.4-0.3-0.7-0.4c-0.3-0.1-0.7-0.2-1.2-0.3
			c-0.7-0.2-1.2-0.3-1.6-0.5s-0.7-0.4-1-0.7c-0.3-0.3-0.4-0.8-0.4-1.3c0-0.5,0.1-0.9,0.4-1.2c0.2-0.4,0.6-0.7,1.1-0.9
			s1.1-0.3,1.8-0.3c0.5,0,1,0.1,1.5,0.2s0.9,0.3,1.3,0.6l-0.4,1c-0.4-0.2-0.8-0.4-1.2-0.5s-0.8-0.2-1.2-0.2c-0.7,0-1.2,0.1-1.6,0.4
			c-0.3,0.3-0.5,0.6-0.5,1c0,0.3,0.1,0.5,0.3,0.7c0.2,0.2,0.4,0.3,0.7,0.4c0.3,0.1,0.7,0.2,1.2,0.3c0.7,0.2,1.2,0.3,1.6,0.5
			c0.4,0.2,0.7,0.4,1,0.7s0.4,0.8,0.4,1.3c0,0.5-0.1,0.9-0.4,1.2c-0.2,0.4-0.6,0.7-1.1,0.9c-0.5,0.2-1.1,0.3-1.9,0.3
			C1017.3,252.8,1016.7,252.7,1016.1,252.5z"/>
		<path class="st0" d="M1026,248.8l-1.6,1.6v2.2h-1.2V244h1.2v4.8l4.7-4.8h1.4l-3.7,3.9l3.9,4.8h-1.4L1026,248.8z"/>
		<path class="st0" d="M1041.7,251.6v1.1h-6.3V244h6.1v1.1h-4.9v2.7h4.3v1h-4.3v2.8L1041.7,251.6L1041.7,251.6z"/>
		<path class="st0" d="M1051.1,244l-3.8,8.7h-1.2l-3.8-8.7h1.3l3.1,7.1l3.2-7.1H1051.1z"/>
		<path class="st0" d="M1057.4,250.5h-4.6l-0.9,2.2h-1.3l3.9-8.7h1.2l3.9,8.7h-1.3L1057.4,250.5z M1057,249.5l-1.9-4.2l-1.9,4.2
			H1057z"/>
		<path class="st0" d="M1061,244h1.2v7.6h4.7v1.1h-5.9L1061,244L1061,244z"/>
		<path class="st0" d="M1069.1,251.8c-0.6-0.7-1-1.6-1-2.9V244h1.2v4.9c0,1.9,0.8,2.8,2.4,2.8c0.8,0,1.4-0.2,1.8-0.7
			c0.4-0.5,0.6-1.2,0.6-2.1V244h1.2v4.9c0,1.2-0.3,2.2-1,2.9c-0.6,0.7-1.5,1-2.7,1C1070.6,252.8,1069.7,252.4,1069.1,251.8z"/>
		<path class="st0" d="M1083.3,250.5h-4.6l-0.9,2.2h-1.3l3.9-8.7h1.2l3.9,8.7h-1.3L1083.3,250.5z M1082.9,249.5l-1.9-4.2l-1.9,4.2
			H1082.9z"/>
		<path class="st0" d="M1088.2,245.1h-3V244h7.2v1.1h-3v7.6h-1.2L1088.2,245.1L1088.2,245.1z"/>
		<path class="st0" d="M1093.7,244h1.2v8.7h-1.2V244z"/>
		<path class="st0" d="M1099.1,252.2c-0.7-0.4-1.2-0.9-1.7-1.6s-0.6-1.4-0.6-2.3c0-0.8,0.2-1.6,0.6-2.3s0.9-1.2,1.7-1.6
			c0.7-0.4,1.5-0.6,2.4-0.6c0.9,0,1.7,0.2,2.3,0.6c0.7,0.4,1.2,0.9,1.7,1.6c0.4,0.7,0.6,1.4,0.6,2.3s-0.2,1.6-0.6,2.3
			c-0.4,0.7-0.9,1.2-1.7,1.6c-0.7,0.4-1.5,0.6-2.3,0.6C1100.6,252.8,1099.8,252.6,1099.1,252.2z M1103.2,251.2
			c0.5-0.3,0.9-0.7,1.2-1.2c0.3-0.5,0.4-1.1,0.4-1.7s-0.2-1.2-0.4-1.7c-0.3-0.5-0.7-0.9-1.2-1.2c-0.5-0.3-1.1-0.4-1.7-0.4
			c-0.6,0-1.2,0.1-1.7,0.4c-0.5,0.3-0.9,0.7-1.2,1.2c-0.3,0.5-0.4,1.1-0.4,1.7c0,0.6,0.2,1.2,0.4,1.7c0.3,0.5,0.7,0.9,1.2,1.2
			c0.5,0.3,1.1,0.4,1.7,0.4C1102.1,251.7,1102.7,251.5,1103.2,251.2z"/>
		<path class="st0" d="M1115.4,244v8.7h-1l-5.2-6.5v6.5h-1.2V244h1l5.2,6.5V244H1115.4z"/>
	</g>
</g>
<g>
	<path class="st0" d="M311.8,229.7h-2.5v-1.2h2.5V229.7z M306.8,229.7h-2.5v-1.2h2.5V229.7z M301.9,229.7h-2.5v-1.2h2.5V229.7z
		 M296.9,229.7h-2.5v-1.2h2.5V229.7z M291.9,229.7h-2.5v-1.2h2.5V229.7z M287,229.7h-2.5v-1.2h2.5V229.7z M282,229.7h-2.5v-1.2h2.5
		V229.7z M277.1,229.7h-2.5v-1.2h2.5V229.7z M272.1,229.7h-2.5v-1.2h2.5V229.7z M267.2,229.7h-2.5v-1.2h2.5V229.7z M262.2,229.7
		h-2.5v-1.2h2.5V229.7z M257.3,229.7h-1.9v-1.2h1.9V229.7z"/>
</g>
<g>
	<g>
		<rect x="537.2" y="124.9" class="st0" width="1.2" height="1.2"/>
	</g>
	<g>
		<path class="st0" d="M534.7,339.2h-2.5v-1.2h2.5V339.2z M529.8,339.2h-2.5v-1.2h2.5V339.2z M524.8,339.1c-0.8,0-1.7-0.1-2.5-0.2
			l0.2-1.2c0.8,0.1,1.6,0.2,2.4,0.2L524.8,339.1z M519.8,338.4c-0.8-0.2-1.6-0.5-2.4-0.8l0.5-1.1c0.7,0.3,1.5,0.5,2.3,0.8
			L519.8,338.4z M515.1,336.5c-0.7-0.4-1.5-0.9-2.1-1.4l0.7-1c0.6,0.5,1.3,0.9,2,1.3L515.1,336.5z M511,333.5
			c-0.6-0.6-1.2-1.2-1.7-1.9l1-0.8c0.5,0.6,1,1.2,1.6,1.8L511,333.5z M507.8,329.5c-0.4-0.7-0.8-1.5-1.1-2.3l1.1-0.5
			c0.3,0.7,0.6,1.4,1.1,2.1L507.8,329.5z M505.9,324.8c-0.2-0.8-0.3-1.7-0.4-2.5l1.2-0.1c0.1,0.8,0.2,1.6,0.4,2.4L505.9,324.8z
			 M506.7,319.7h-1.2v-2.5h1.2V319.7z M506.7,314.8h-1.2v-2.5h1.2V314.8z M506.7,309.9h-1.2v-2.5h1.2V309.9z M506.7,304.9h-1.2v-2.5
			h1.2V304.9z M506.7,300h-1.2v-2.5h1.2V300z M506.7,295h-1.2v-2.5h1.2V295z M506.7,290.1h-1.2v-2.5h1.2V290.1z M506.7,285.1h-1.2
			v-2.5h1.2V285.1z M506.7,280.2h-1.2v-2.5h1.2V280.2z M506.7,275.3h-1.2v-2.5h1.2V275.3z M506.7,270.3h-1.2v-2.5h1.2V270.3z
			 M506.7,265.4h-1.2v-2.5h1.2V265.4z M506.7,260.4h-1.2V258h1.2V260.4z M506.7,255.5h-1.2V253h1.2V255.5z M506.7,250.6h-1.2v-2.5
			h1.2V250.6z M506.7,245.6h-1.2v-2.5h1.2V245.6z M506.7,240.7h-1.2v-2.5h1.2V240.7z M506.7,235.7h-1.2v-2.5h1.2V235.7z
			 M506.7,230.8h-1.2v-2.5h1.2V230.8z M506.7,225.9h-1.2v-2.5h1.2V225.9z M506.7,220.9h-1.2v-2.5h1.2V220.9z M506.7,216h-1.2v-2.5
			h1.2V216z M506.7,211h-1.2v-2.5h1.2V211z M506.7,206.1h-1.2v-2.5h1.2V206.1z M506.7,201.2h-1.2v-2.5h1.2V201.2z M506.7,196.2h-1.2
			v-2.5h1.2V196.2z M506.7,191.3h-1.2v-2.5h1.2V191.3z M506.7,186.3h-1.2v-2.5h1.2V186.3z M506.7,181.4h-1.2v-2.5h1.2V181.4z
			 M506.7,176.4h-1.2V174h1.2V176.4z M506.7,171.5h-1.2V169h1.2V171.5z M506.7,166.6h-1.2v-2.5h1.2V166.6z M506.7,161.6h-1.2v-2.5
			h1.2V161.6z M506.7,156.7h-1.2v-2.5h1.2V156.7z M506.7,151.7h-1.2v-2.5h1.2V151.7z M506.7,146.8h-1.2v-2.5h1.2V146.8z
			 M506.7,141.9l-1.2-0.1c0.1-0.9,0.2-1.7,0.4-2.5l1.2,0.3C506.9,140.3,506.8,141.1,506.7,141.9z M507.8,137.3l-1.1-0.5
			c0.3-0.8,0.7-1.6,1.1-2.3l1.1,0.6C508.5,135.9,508.1,136.6,507.8,137.3z M510.2,133.2l-1-0.8c0.5-0.7,1.1-1.3,1.7-1.9l0.9,0.9
			C511.3,132,510.7,132.6,510.2,133.2z M513.7,129.9l-0.7-1c0.7-0.5,1.4-1,2.2-1.4l0.6,1.1C515,129,514.3,129.5,513.7,129.9z
			 M517.9,127.6l-0.5-1.1c0.8-0.3,1.6-0.6,2.4-0.8l0.3,1.2C519.4,127.1,518.6,127.3,517.9,127.6z M522.5,126.4l-0.2-1.2
			c0.8-0.1,1.7-0.2,2.5-0.2l0,1.2C524.1,126.2,523.3,126.3,522.5,126.4z M534.8,126.2h-2.5v-1.2h2.5V126.2z M529.8,126.2h-2.5v-1.2
			h2.5V126.2z"/>
	</g>
	<g>
		<rect x="537.2" y="337.9" class="st0" width="1.2" height="1.2"/>
	</g>
</g>
<g>
	<g>
		<path class="st0" d="M788.4,447.7H786v-1.2h2.5V447.7z M783.5,447.7H781v-1.2h2.5V447.7z M778.5,447.7h-2.5v-1.2h2.5V447.7z
			 M773.6,447.7h-2.5v-1.2h2.5V447.7z M768.7,447.7h-2.5v-1.2h2.5V447.7z M763.7,447.7h-2.5v-1.2h2.5V447.7z M758.8,447.7h-2.5v-1.2
			h2.5V447.7z M753.8,447.7h-2.5v-1.2h2.5V447.7z M748.9,447.7h-2.5v-1.2h2.5V447.7z M744,447.7h-2.5v-1.2h2.5V447.7z M739,447.7
			h-2.5v-1.2h2.5V447.7z M734.1,447.7h-2.5v-1.2h2.5V447.7z M729.1,447.7h-2.5v-1.2h2.5V447.7z M724.2,447.7h-2.5v-1.2h2.5V447.7z
			 M719.2,447.7h-2.5v-1.2h2.5V447.7z M714.3,447.7h-2.5v-1.2h2.5V447.7z M709.4,447.7h-2.5v-1.2h2.5V447.7z M704.4,447.7H702v-1.2
			h2.5V447.7z M699.5,447.7H697v-1.2h2.5V447.7z M694.5,447.7h-2.5v-1.2h2.5V447.7z M689.6,447.7h-2.5v-1.2h2.5V447.7z M684.7,447.7
			h-2.5v-1.2h2.5V447.7z M679.7,447.7h-2.5v-1.2h2.5V447.7z M674.8,447.7h-2.5v-1.2h2.5V447.7z M669.8,447.7h-2.5v-1.2h2.5V447.7z
			 M664.9,447.7h-2.5v-1.2h2.5V447.7z M660,447.7h-2.5v-1.2h2.5V447.7z M655,447.7h-2.5v-1.2h2.5V447.7z M650.1,447.7h-2.5v-1.2h2.5
			V447.7z M645.1,447.7h-2.5v-1.2h2.5V447.7z M640.2,447.7h-2.5v-1.2h2.5V447.7z M635.2,447.7h-2.5v-1.2h2.5V447.7z M630.3,447.7
			h-2.5v-1.2h2.5V447.7z M625.4,447.7h-2.5v-1.2h2.5V447.7z M620.4,447.7H618v-1.2h2.5V447.7z M615.5,447.7H613v-1.2h2.5V447.7z
			 M610.5,447.7h-2.5v-1.2h2.5V447.7z M605.6,447.7h-2.5v-1.2h2.5V447.7z M600.7,447.7h-2.5v-1.2h2.5V447.7z M595.7,447.7h-2.5v-1.2
			h2.5V447.7z M590.8,447.7h-2.5v-1.2h2.5V447.7z M585.8,447.7h-2.5v-1.2h2.5V447.7z M580.9,447.7h-2.5v-1.2h2.5V447.7z M576,447.7
			h-2.5v-1.2h2.5V447.7z M571,447.7h-2.5v-1.2h2.5V447.7z M566.1,447.7h-2.5v-1.2h2.5V447.7z M561.1,447.7h-2.5v-1.2h2.5V447.7z
			 M556.2,447.7h-2.5v-1.2h2.5V447.7z M551.2,447.7h-2.5v-1.2h2.5V447.7z M546.3,447.7h-2.5v-1.2h2.5V447.7z M541.4,447.7h-2.5v-1.2
			h2.5V447.7z M536.4,447.7H534v-1.2h2.5V447.7z M531.5,447.7H529v-1.2h2.5V447.7z M526.5,447.7h-2.5v-1.2h2.5V447.7z M521.6,447.7
			h-2.5v-1.2h2.5V447.7z M516.7,447.7h-2.5v-1.2h2.5V447.7z M511.7,447.7h-2.5v-1.2h2.5V447.7z M506.8,447.7h-2.5v-1.2h2.5V447.7z
			 M501.8,447.7h-2.5v-1.2h2.5V447.7z M496.9,447.7h-2.5v-1.2h2.5V447.7z M492,447.7h-2.5v-1.2h2.5V447.7z M487,447.7h-2.5v-1.2h2.5
			V447.7z M482.1,447.7h-2.5v-1.2h2.5V447.7z M477.1,447.7h-2.5v-1.2h2.5V447.7z M472.2,447.7h-2.5v-1.2h2.5V447.7z M467.2,447.7
			h-2.5v-1.2h2.5V447.7z M462.3,447.7h-2.5v-1.2h2.5V447.7z M457.4,447.7h-2.5v-1.2h2.5V447.7z M452.4,447.7H450v-1.2h2.5V447.7z
			 M447.5,447.7H445v-1.2h2.5V447.7z M442.5,447.7h-2.5v-1.2h2.5V447.7z M437.6,447.7h-2.5v-1.2h2.5V447.7z M432.7,447.7h-2.5v-1.2
			h2.5V447.7z M427.7,447.7h-2.5v-1.2h2.5V447.7z M422.8,447.7h-2.5v-1.2h2.5V447.7z M790.9,447.6l0-1.2c0.8,0,1.7,0,2.5,0l0,1.2
			C792.6,447.6,791.7,447.6,790.9,447.6z M417.8,447.6c-0.8,0-1.7,0-2.5,0l0-1.2c0.8,0,1.6,0,2.5,0L417.8,447.6z M795.9,447.5l0-1.2
			c0.8,0,1.7-0.1,2.5-0.1l0.1,1.2C797.5,447.4,796.7,447.5,795.9,447.5z M412.9,447.5c-0.8,0-1.7-0.1-2.5-0.2l0.1-1.2
			c0.8,0.1,1.6,0.1,2.5,0.2L412.9,447.5z M800.8,447.2l-0.1-1.2c0.8-0.1,1.6-0.2,2.5-0.2l0.1,1.2
			C802.5,447.1,801.7,447.1,800.8,447.2z M407.9,447.1c-0.8-0.1-1.7-0.2-2.5-0.3l0.1-1.2c0.8,0.1,1.6,0.2,2.5,0.2L407.9,447.1z
			 M805.8,446.7l-0.2-1.2c0.8-0.1,1.6-0.2,2.4-0.3l0.2,1.2C807.4,446.5,806.6,446.6,805.8,446.7z M403,446.6
			c-0.8-0.1-1.7-0.2-2.5-0.4l0.2-1.2c0.8,0.1,1.6,0.3,2.4,0.4L403,446.6z M810.7,445.9l-0.2-1.2c0.8-0.2,1.6-0.3,2.4-0.5l0.3,1.2
			C812.3,445.6,811.5,445.7,810.7,445.9z M398.1,445.7c-0.8-0.2-1.6-0.3-2.4-0.5l0.3-1.2c0.8,0.2,1.6,0.3,2.4,0.5L398.1,445.7z
			 M815.5,444.8l-0.3-1.2c0.8-0.2,1.6-0.4,2.3-0.7l0.4,1.2C817.2,444.4,816.4,444.6,815.5,444.8z M393.2,444.6
			c-0.8-0.2-1.6-0.5-2.4-0.7l0.4-1.2c0.7,0.2,1.5,0.5,2.3,0.7L393.2,444.6z M820.3,443.3l-0.5-1.2c0.8-0.3,1.5-0.6,2.2-1l0.6,1.1
			C821.9,442.6,821.2,443,820.3,443.3z M388.5,443c-0.8-0.3-1.6-0.7-2.3-1.1l0.6-1.1c0.6,0.4,1.4,0.7,2.2,1L388.5,443z M824.8,441
			l-0.7-1c0.7-0.5,1.3-1,1.6-1.5l1,0.7C826.3,439.8,825.7,440.4,824.8,441z M384,440.4c-0.8-0.7-1.4-1.4-1.7-2.2l1.1-0.5
			c0.2,0.6,0.7,1.1,1.3,1.7L384,440.4z M827.5,436.5h-1.2V434h1.2V436.5z M383.3,435.6h-1.2v-2.5h1.2V435.6z M827.5,431.5h-1.2V429
			h1.2V431.5z M383.3,430.6h-1.2v-2.5h1.2V430.6z M827.5,426.6h-1.2v-2.5h1.2V426.6z M383.3,425.7h-1.2v-2.5h1.2V425.7z
			 M827.5,421.6h-1.2v-2.5h1.2V421.6z M383.3,420.8h-1.2v-2.5h1.2V420.8z M827.5,416.7h-1.2v-2.5h1.2V416.7z M383.3,415.8h-1.2v-2.5
			h1.2V415.8z M827.5,411.8h-1.2v-2.5h1.2V411.8z M383.3,410.9h-1.2v-2.5h1.2V410.9z M383.3,405.9h-1.2v-2.5h1.2V405.9z M383.3,401
			h-1.2v-2.5h1.2V401z M383.3,396h-1.2v-2.5h1.2V396z M383.3,391.1h-1.2v-2.5h1.2V391.1z M383.3,386.2h-1.2v-2.5h1.2V386.2z
			 M383.3,381.2h-1.2v-2.5h1.2V381.2z M383.3,376.3h-1.2v-2.5h1.2V376.3z M383.3,371.3h-1.2v-2.5h1.2V371.3z M383.3,366.4h-1.2v-2.5
			h1.2V366.4z M383.3,361.5h-1.2V359h1.2V361.5z M383.3,356.5h-1.2V354h1.2V356.5z M383.3,351.6h-1.2v-2.5h1.2V351.6z M383.3,346.6
			h-1.2v-2.5h1.2V346.6z M383.3,341.7h-1.2v-2.5h1.2V341.7z M383.3,336.8h-1.2v-2.5h1.2V336.8z M383.3,331.8h-1.2v-2.5h1.2V331.8z
			 M383.3,326.9h-1.2v-2.5h1.2V326.9z M383.3,321.9h-1.2v-2.5h1.2V321.9z M383.3,317h-1.2v-2.5h1.2V317z M383.3,312h-1.2v-0.1h1.2
			V312z"/>
	</g>
</g>
<g>
	<g>
		<rect x="463.4" y="228.4" class="st0" width="1.2" height="1.2"/>
	</g>
	<g>
		<path class="st0" d="M502.9,229.7h-2.4v-1.2h2.4V229.7z M498.1,229.7h-2.4v-1.2h2.4V229.7z M493.4,229.7H491v-1.2h2.4V229.7z
			 M488.6,229.7h-2.4v-1.2h2.4V229.7z M483.8,229.7h-2.4v-1.2h2.4V229.7z M479,229.7h-2.4v-1.2h2.4V229.7z M474.2,229.7h-2.4v-1.2
			h2.4V229.7z M469.4,229.7H467v-1.2h2.4V229.7z"/>
	</g>
	<g>
		<rect x="505.3" y="228.4" class="st0" width="1.2" height="1.2"/>
	</g>
	<g>
		<g>
			<path class="st0" d="M506.3,233.7c2.6,0,4.7-2.1,4.7-4.7s-2.1-4.7-4.7-4.7c-2.6,0-4.7,2.1-4.7,4.7S503.8,233.7,506.3,233.7z"/>
		</g>
	</g>
</g>
<g>
	<path class="st0" d="M511,227.8v-1.2l0,0V227.8z M508.5,227.7l-2.5-0.1l0-1.2l2.5,0.1L508.5,227.7z"/>
</g>
<g>
	<g>
		<rect x="901" y="337.9" class="st0" width="1.2" height="1.2"/>
	</g>
	<g>
		<path class="st0" d="M912.2,339.2h-2.5v-1.2h2.5V339.2z M907.2,339.2h-2.5v-1.2h2.5V339.2z M914.7,339.1l0-1.2
			c0.8,0,1.6-0.1,2.4-0.2l0.2,1.2C916.4,339.1,915.5,339.1,914.7,339.1z M919.7,338.4l-0.3-1.2c0.8-0.2,1.5-0.5,2.3-0.8l0.5,1.1
			C921.3,337.9,920.5,338.2,919.7,338.4z M924.4,336.5l-0.6-1.1c0.7-0.4,1.4-0.8,2-1.3l0.7,1C925.9,335.7,925.1,336.1,924.4,336.5z
			 M928.5,333.5l-0.8-0.9c0.6-0.5,1.1-1.1,1.6-1.8l1,0.8C929.7,332.3,929.1,332.9,928.5,333.5z M931.7,329.5l-1.1-0.6
			c0.4-0.7,0.8-1.4,1.1-2.1l1.2,0.5C932.5,328,932.1,328.8,931.7,329.5z M933.6,324.8l-1.2-0.3c0.2-0.8,0.3-1.6,0.4-2.3l1.2,0.1
			C934,323.1,933.8,324,933.6,324.8z M934.1,319.8h-1.2v-2.5h1.2V319.8z M934.1,314.8h-1.2v-2.5h1.2V314.8z M934.1,309.9h-1.2v-2.5
			h1.2V309.9z M934.1,304.9h-1.2v-2.5h1.2V304.9z M934.1,300h-1.2v-2.5h1.2V300z M934.1,295.1h-1.2v-2.5h1.2V295.1z M934.1,290.1
			h-1.2v-2.5h1.2V290.1z M934.1,285.2h-1.2v-2.5h1.2V285.2z M934.1,280.2h-1.2v-2.5h1.2V280.2z M934.1,275.3h-1.2v-2.5h1.2V275.3z
			 M934.1,270.4h-1.2v-2.5h1.2V270.4z M934.1,265.4h-1.2v-2.5h1.2V265.4z M934.1,260.5h-1.2V258h1.2V260.5z M934.1,255.5h-1.2v-2.5
			h1.2V255.5z M934.1,250.6h-1.2v-2.5h1.2V250.6z M934.1,245.7h-1.2v-2.5h1.2V245.7z M934.1,240.7h-1.2v-2.5h1.2V240.7z
			 M934.1,235.8h-1.2v-2.5h1.2V235.8z M934.1,230.8h-1.2v-2.5h1.2V230.8z M934.1,225.9h-1.2v-2.5h1.2V225.9z M934.1,220.9h-1.2v-2.5
			h1.2V220.9z M934.1,216h-1.2v-2.5h1.2V216z M934.1,211.1h-1.2v-2.5h1.2V211.1z M934.1,206.1h-1.2v-2.5h1.2V206.1z M934.1,201.2
			h-1.2v-2.5h1.2V201.2z M934.1,196.2h-1.2v-2.5h1.2V196.2z M934.1,191.3h-1.2v-2.5h1.2V191.3z M934.1,186.4h-1.2v-2.5h1.2V186.4z
			 M934.1,181.4h-1.2v-2.5h1.2V181.4z M934.1,176.5h-1.2V174h1.2V176.5z M934.1,171.5h-1.2v-2.5h1.2V171.5z M934.1,166.6h-1.2v-2.5
			h1.2V166.6z M934.1,161.7h-1.2v-2.5h1.2V161.7z M934.1,156.7h-1.2v-2.5h1.2V156.7z M934.1,151.8h-1.2v-2.5h1.2V151.8z
			 M934.1,146.8h-1.2v-2.5h1.2V146.8z M932.8,141.9c-0.1-0.8-0.2-1.6-0.4-2.3l1.2-0.3c0.2,0.8,0.3,1.7,0.4,2.5L932.8,141.9z
			 M931.7,137.3c-0.3-0.7-0.7-1.4-1.1-2.1l1.1-0.6c0.4,0.7,0.8,1.5,1.1,2.3L931.7,137.3z M929.3,133.3c-0.5-0.6-1-1.2-1.6-1.8
			l0.9-0.9c0.6,0.6,1.2,1.2,1.7,1.9L929.3,133.3z M925.8,130c-0.6-0.5-1.3-0.9-2-1.3l0.6-1.1c0.7,0.4,1.5,0.9,2.2,1.4L925.8,130z
			 M921.7,127.6c-0.7-0.3-1.5-0.6-2.3-0.8l0.3-1.2c0.8,0.2,1.6,0.5,2.4,0.8L921.7,127.6z M917,126.4c-0.8-0.1-1.6-0.2-2.4-0.2l0-1.2
			c0.8,0,1.7,0.1,2.5,0.2L917,126.4z M912.2,126.2h-2.5v-1.2h2.5V126.2z M907.3,126.2h-2.5v-1.2h2.5V126.2z"/>
	</g>
	<g>
		<rect x="901" y="124.9" class="st0" width="1.2" height="1.2"/>
	</g>
</g>
<g>
	<g>
		<rect x="974.9" y="228.4" class="st0" width="1.2" height="1.2"/>
	</g>
	<g>
		<path class="st0" d="M972.5,229.7h-2.4v-1.2h2.4V229.7z M967.7,229.7h-2.4v-1.2h2.4V229.7z M962.9,229.7h-2.4v-1.2h2.4V229.7z
			 M958.1,229.7h-2.4v-1.2h2.4V229.7z M953.3,229.7h-2.4v-1.2h2.4V229.7z M948.5,229.7h-2.4v-1.2h2.4V229.7z M943.8,229.7h-2.4v-1.2
			h2.4V229.7z M939,229.7h-2.4v-1.2h2.4V229.7z"/>
	</g>
	<g>
		<rect x="932.9" y="228.4" class="st0" width="1.2" height="1.2"/>
	</g>
	<g>
		<g>
			<path class="st0" d="M933.2,224.4c-2.6,0-4.7,2.1-4.7,4.7s2.1,4.7,4.7,4.7c2.6,0,4.7-2.1,4.7-4.7S935.7,224.4,933.2,224.4z"/>
		</g>
	</g>
</g>
<g>
	<path class="st0" d="M757,339.2h-2.5v-1.2h2.5V339.2z M752,339.2h-2.5v-1.2h2.5V339.2z M747.1,339.2h-2.5v-1.2h2.5V339.2z
		 M742.1,339.2h-2.5v-1.2h2.5V339.2z M737.2,339.2h-2.5v-1.2h2.5V339.2z M732.2,339.2h-2.5v-1.2h2.5V339.2z M727.3,339.2h-2.5v-1.2
		h2.5V339.2z M722.3,339.2h-2.5v-1.2h2.5V339.2z M717.3,339.2h-2.5v-1.2h2.5V339.2z M712.4,339.2h-2.5v-1.2h2.5V339.2z M707.5,339.2
		H705v-1.2h2.5V339.2z M702.5,339.2H700v-1.2h2.5V339.2z"/>
</g>
<g>
	<path class="st0" d="M757,126.2h-2.5v-1.2h2.5V126.2z M752,126.2h-2.5v-1.2h2.5V126.2z M747.1,126.2h-2.5v-1.2h2.5V126.2z
		 M742.1,126.2h-2.5v-1.2h2.5V126.2z M737.2,126.2h-2.5v-1.2h2.5V126.2z M732.2,126.2h-2.5v-1.2h2.5V126.2z M727.3,126.2h-2.5v-1.2
		h2.5V126.2z M722.3,126.2h-2.5v-1.2h2.5V126.2z M717.3,126.2h-2.5v-1.2h2.5V126.2z M712.4,126.2h-2.5v-1.2h2.5V126.2z M707.5,126.2
		H705v-1.2h2.5V126.2z M702.5,126.2H700v-1.2h2.5V126.2z"/>
</g>
</svg>
