<?xml version="1.0" encoding="utf-8"?>
<!-- Generator: Adobe Illustrator 21.1.0, SVG Export Plug-In . SVG Version: 6.00 Build 0)  -->
<svg version="1.1" id="Capa_1" xmlns="http://www.w3.org/2000/svg" xmlns:xlink="http://www.w3.org/1999/xlink" x="0px" y="0px"
	 viewBox="0 0 1190.6 585" style="enable-background:new 0 0 1190.6 585;" xml:space="preserve">
<style type="text/css">
	.st0{fill:#1E1E1C;}
	.st1{fill:#86CBC7;}
	.st2{fill:#FFFFFF;}
</style>
<g>
	<circle class="st0" cx="176.3" cy="196" r="82.9"/>
</g>
<g>
	<circle class="st0" cx="382.7" cy="193" r="82.9"/>
</g>
<g>
	<g>
		<path class="st1" d="M58.1,193.8v4.4l-12.6,4.6v-4.2L53,196l-7.5-2.6v-4.2L58.1,193.8z"/>
	</g>
	<g>
		<path class="st1" d="M73.5,193.8v4.4l-12.6,4.6v-4.2l7.5-2.6l-7.5-2.6v-4.2L73.5,193.8z"/>
	</g>
</g>
<g>
	<path class="st2" d="M176.5,166.4l-2.8,8.7h-3.1l-1.4-4.6l-1.5,4.6h-3.1l-2.8-8.7h3l1.5,4.9l1.6-4.9h2.7l1.5,5l1.6-5H176.5z"/>
	<path class="st2" d="M183.4,166.8c0.6,0.3,1.1,0.6,1.4,1.1c0.3,0.5,0.5,1.1,0.5,1.7s-0.2,1.2-0.5,1.7c-0.3,0.5-0.8,0.9-1.4,1.1
		c-0.6,0.3-1.3,0.4-2.1,0.4h-1.2v2.1h-2.9v-8.7h4.2C182.1,166.4,182.8,166.6,183.4,166.8z M182,170.5c0.2-0.2,0.3-0.4,0.3-0.8
		s-0.1-0.6-0.3-0.8s-0.5-0.3-0.9-0.3h-1.1v2h1.1C181.5,170.7,181.8,170.6,182,170.5z"/>
	<path class="st2" d="M190.1,166.4v8.7h-2.9v-6.5h-1.5v-2.2L190.1,166.4L190.1,166.4z"/>
	<path class="st2" d="M126.7,203.5v1.4h-6.5v-8.7h6.3v1.4h-4.7v2.2h4.2v1.3h-4.2v2.4L126.7,203.5L126.7,203.5z"/>
	<path class="st2" d="M136.2,196.2v8.7h-1.3l-4.8-5.9v5.9h-1.6v-8.7h1.3l4.8,5.9v-5.9H136.2z"/>
	<path class="st2" d="M146.4,196.2l-3.8,8.7H141l-3.8-8.7h1.8l2.9,6.7l2.9-6.7H146.4z"/>
	<path class="st2" d="M147.3,196.2h1.6v8.7h-1.6V196.2z"/>
	<path class="st2" d="M156.9,204.8l-1.8-2.5c-0.1,0-0.2,0-0.3,0h-2v2.5h-1.6v-8.7h3.6c0.8,0,1.4,0.1,2,0.4c0.6,0.2,1,0.6,1.3,1.1
		c0.3,0.5,0.4,1,0.4,1.6c0,0.6-0.2,1.2-0.5,1.7c-0.3,0.5-0.8,0.8-1.4,1l2,2.9L156.9,204.8L156.9,204.8z M156.4,198
		c-0.4-0.3-0.9-0.5-1.6-0.5h-1.9v3.5h1.9c0.7,0,1.2-0.1,1.6-0.5c0.4-0.3,0.6-0.7,0.6-1.3C156.9,198.7,156.7,198.3,156.4,198z"/>
	<path class="st2" d="M162,204.4c-0.7-0.4-1.3-0.9-1.7-1.6s-0.6-1.4-0.6-2.3s0.2-1.6,0.6-2.3s1-1.2,1.7-1.6c0.7-0.4,1.5-0.6,2.4-0.6
		s1.7,0.2,2.4,0.6c0.7,0.4,1.3,0.9,1.7,1.6s0.6,1.4,0.6,2.3s-0.2,1.6-0.6,2.3c-0.4,0.7-1,1.2-1.7,1.6c-0.7,0.4-1.5,0.6-2.4,0.6
		C163.5,205,162.7,204.8,162,204.4z M165.9,203.2c0.5-0.3,0.8-0.6,1.1-1.1s0.4-1,0.4-1.6s-0.1-1.1-0.4-1.6c-0.3-0.5-0.6-0.8-1.1-1.1
		c-0.5-0.3-1-0.4-1.6-0.4s-1.1,0.1-1.6,0.4c-0.5,0.3-0.8,0.6-1.1,1.1s-0.4,1-0.4,1.6s0.1,1.1,0.4,1.6c0.3,0.5,0.6,0.8,1.1,1.1
		c0.5,0.3,1,0.4,1.6,0.4S165.5,203.4,165.9,203.2z"/>
	<path class="st2" d="M178.4,196.2v8.7h-1.3l-4.8-5.9v5.9h-1.6v-8.7h1.3l4.8,5.9v-5.9H178.4z"/>
	<path class="st2" d="M188.7,204.8l0-5.8l-2.9,4.8h-0.7l-2.9-4.7v5.7h-1.5v-8.7h1.3l3.4,5.8l3.4-5.8h1.3l0,8.7L188.7,204.8
		L188.7,204.8z"/>
	<path class="st2" d="M199.1,203.5v1.4h-6.5v-8.7h6.3v1.4h-4.7v2.2h4.2v1.3h-4.2v2.4L199.1,203.5L199.1,203.5z"/>
	<path class="st2" d="M208.6,196.2v8.7h-1.3l-4.8-5.9v5.9h-1.6v-8.7h1.3l4.8,5.9v-5.9H208.6z"/>
	<path class="st2" d="M212.7,197.5h-2.9v-1.4h7.4v1.4h-2.9v7.3h-1.6L212.7,197.5L212.7,197.5z"/>
	<path class="st2" d="M223.6,202.8h-4.3l-0.9,2h-1.7l3.9-8.7h1.6l3.9,8.7h-1.7L223.6,202.8z M223,201.6l-1.6-3.8l-1.6,3.8H223z"/>
	<path class="st2" d="M227.2,196.2h1.6v7.3h4.5v1.4h-6.1V196.2z"/>
	<path class="st2" d="M142.1,219.7l0-5.8l-2.9,4.8h-0.7l-2.9-4.7v5.7h-1.5V211h1.3l3.4,5.8l3.4-5.8h1.3l0,8.7L142.1,219.7
		L142.1,219.7z"/>
	<path class="st2" d="M147.6,219.2c-0.7-0.4-1.3-0.9-1.7-1.6s-0.6-1.4-0.6-2.3s0.2-1.6,0.6-2.3s1-1.2,1.7-1.6
		c0.7-0.4,1.5-0.6,2.4-0.6s1.7,0.2,2.4,0.6c0.7,0.4,1.3,0.9,1.7,1.6s0.6,1.4,0.6,2.3s-0.2,1.6-0.6,2.3c-0.4,0.7-1,1.2-1.7,1.6
		c-0.7,0.4-1.5,0.6-2.4,0.6C149.1,219.8,148.3,219.6,147.6,219.2z M151.6,218c0.5-0.3,0.8-0.6,1.1-1.1s0.4-1,0.4-1.6
		s-0.1-1.1-0.4-1.6c-0.3-0.5-0.6-0.8-1.1-1.1c-0.5-0.3-1-0.4-1.6-0.4s-1.1,0.1-1.6,0.4c-0.5,0.3-0.8,0.6-1.1,1.1s-0.4,1-0.4,1.6
		s0.1,1.1,0.4,1.6c0.3,0.5,0.6,0.8,1.1,1.1c0.5,0.3,1,0.4,1.6,0.4S151.1,218.3,151.6,218z"/>
	<path class="st2" d="M164.1,211v8.7h-1.3l-4.8-5.9v5.9h-1.6V211h1.3l4.8,5.9V211H164.1z"/>
	<path class="st2" d="M166.4,211h1.6v8.7h-1.6V211z"/>
	<path class="st2" d="M172.1,212.4h-2.9V211h7.4v1.4h-2.9v7.3h-1.6L172.1,212.4L172.1,212.4z"/>
	<path class="st2" d="M179.4,219.2c-0.7-0.4-1.3-0.9-1.7-1.6s-0.6-1.4-0.6-2.3s0.2-1.6,0.6-2.3s1-1.2,1.7-1.6
		c0.7-0.4,1.5-0.6,2.4-0.6s1.7,0.2,2.4,0.6c0.7,0.4,1.3,0.9,1.7,1.6s0.6,1.4,0.6,2.3s-0.2,1.6-0.6,2.3c-0.4,0.7-1,1.2-1.7,1.6
		c-0.7,0.4-1.5,0.6-2.4,0.6C180.9,219.8,180.1,219.6,179.4,219.2z M183.3,218c0.5-0.3,0.8-0.6,1.1-1.1s0.4-1,0.4-1.6
		s-0.1-1.1-0.4-1.6c-0.3-0.5-0.6-0.8-1.1-1.1c-0.5-0.3-1-0.4-1.6-0.4s-1.1,0.1-1.6,0.4c-0.5,0.3-0.8,0.6-1.1,1.1s-0.4,1-0.4,1.6
		s0.1,1.1,0.4,1.6c0.3,0.5,0.6,0.8,1.1,1.1c0.5,0.3,1,0.4,1.6,0.4S182.9,218.3,183.3,218z"/>
	<path class="st2" d="M193.8,219.7l-1.8-2.5c-0.1,0-0.2,0-0.3,0h-2v2.5h-1.6V211h3.6c0.8,0,1.4,0.1,2,0.4c0.6,0.2,1,0.6,1.3,1.1
		c0.3,0.5,0.4,1,0.4,1.6c0,0.6-0.2,1.2-0.5,1.7c-0.3,0.5-0.8,0.8-1.4,1l2,2.9L193.8,219.7L193.8,219.7z M193.2,212.8
		c-0.4-0.3-0.9-0.5-1.6-0.5h-1.9v3.5h1.9c0.7,0,1.2-0.1,1.6-0.5c0.4-0.3,0.6-0.7,0.6-1.3C193.8,213.6,193.6,213.1,193.2,212.8z"/>
	<path class="st2" d="M197.2,211h1.6v8.7h-1.6V211z"/>
	<path class="st2" d="M208.8,211v8.7h-1.3l-4.8-5.9v5.9h-1.6V211h1.3l4.8,5.9V211H208.8z"/>
	<path class="st2" d="M217.1,215.3h1.5v3.5c-0.4,0.4-1,0.6-1.6,0.8s-1.2,0.3-1.8,0.3c-0.9,0-1.7-0.2-2.4-0.6
		c-0.7-0.4-1.3-0.9-1.7-1.6s-0.6-1.4-0.6-2.3s0.2-1.6,0.6-2.3c0.4-0.7,1-1.2,1.7-1.6c0.7-0.4,1.5-0.6,2.4-0.6c0.7,0,1.4,0.1,2,0.4
		s1.1,0.6,1.5,1l-1,1c-0.7-0.7-1.5-1-2.4-1c-0.6,0-1.1,0.1-1.6,0.4c-0.5,0.3-0.9,0.6-1.1,1.1c-0.3,0.5-0.4,1-0.4,1.6
		c0,0.6,0.1,1.1,0.4,1.6c0.3,0.5,0.6,0.8,1.1,1.1c0.5,0.3,1,0.4,1.6,0.4c0.7,0,1.3-0.1,1.8-0.5L217.1,215.3L217.1,215.3z"/>
</g>
<g>
	<circle class="st0" cx="826.9" cy="294.1" r="82.9"/>
</g>
<g>
	<path class="st2" d="M825.7,257.1l-2.8,8.7h-3.1l-1.4-4.6l-1.5,4.6h-3.1l-2.8-8.7h3l1.5,4.9l1.6-4.9h2.7l1.5,5l1.6-5H825.7z"/>
	<path class="st2" d="M832.6,257.5c0.6,0.3,1,0.6,1.4,1.1s0.5,1.1,0.5,1.7s-0.2,1.2-0.5,1.7s-0.8,0.9-1.4,1.1
		c-0.6,0.3-1.3,0.4-2.1,0.4h-1.2v2.1h-2.9v-8.7h4.2C831.3,257.1,832,257.3,832.6,257.5z M831.2,261.1c0.2-0.2,0.3-0.4,0.3-0.8
		s-0.1-0.6-0.3-0.8s-0.5-0.3-0.9-0.3h-1.1v2h1.1C830.7,261.4,831,261.3,831.2,261.1z"/>
	<path class="st2" d="M841.3,260.5c0.5,0.2,0.8,0.6,1.1,1s0.4,0.9,0.4,1.5c0,0.6-0.2,1.1-0.5,1.6s-0.7,0.8-1.3,1.1
		c-0.5,0.2-1.1,0.4-1.8,0.4c-0.8,0-1.6-0.2-2.2-0.5c-0.6-0.3-1.1-0.8-1.5-1.4c-0.3-0.6-0.5-1.4-0.5-2.3c0-1,0.2-1.9,0.6-2.6
		c0.4-0.7,1-1.3,1.7-1.7s1.6-0.6,2.5-0.6c0.5,0,1,0.1,1.5,0.2s0.9,0.3,1.2,0.5l-1,2c-0.4-0.3-1-0.5-1.6-0.5c-0.5,0-0.9,0.1-1.2,0.4
		c-0.3,0.2-0.5,0.6-0.6,1.1c0.5-0.3,1-0.5,1.7-0.5C840.4,260.2,840.9,260.3,841.3,260.5z M839.8,263.7c0.2-0.2,0.2-0.4,0.2-0.6
		c0-0.3-0.1-0.5-0.2-0.6c-0.2-0.2-0.4-0.2-0.6-0.2s-0.5,0.1-0.6,0.2c-0.2,0.2-0.2,0.4-0.2,0.6s0.1,0.5,0.2,0.6
		c0.2,0.2,0.4,0.2,0.6,0.2C839.4,264,839.6,263.9,839.8,263.7z"/>
	<path class="st2" d="M789,286.8h1.6v7.3h4.5v1.4H789V286.8z"/>
	<path class="st2" d="M797.9,295.1c-0.7-0.4-1.3-0.9-1.7-1.6c-0.4-0.7-0.6-1.4-0.6-2.3s0.2-1.6,0.6-2.3c0.4-0.7,1-1.2,1.7-1.6
		c0.7-0.4,1.5-0.6,2.4-0.6s1.7,0.2,2.4,0.6c0.7,0.4,1.3,0.9,1.7,1.6c0.4,0.7,0.6,1.4,0.6,2.3s-0.2,1.6-0.6,2.3
		c-0.4,0.7-1,1.2-1.7,1.6c-0.7,0.4-1.5,0.6-2.4,0.6C799.4,295.6,798.6,295.4,797.9,295.1z M801.8,293.8c0.5-0.3,0.8-0.6,1.1-1.1
		s0.4-1,0.4-1.6s-0.1-1.1-0.4-1.6c-0.3-0.5-0.6-0.8-1.1-1.1s-1-0.4-1.6-0.4s-1.1,0.1-1.6,0.4s-0.8,0.6-1.1,1.1s-0.4,1-0.4,1.6
		s0.1,1.1,0.4,1.6c0.3,0.5,0.6,0.8,1.1,1.1s1,0.4,1.6,0.4S801.4,294.1,801.8,293.8z"/>
	<path class="st2" d="M814.3,286.8v8.7H813l-4.8-5.9v5.9h-1.6v-8.7h1.3l4.8,5.9v-5.9H814.3z"/>
	<path class="st2" d="M822.6,291.1h1.5v3.5c-0.5,0.4-1,0.6-1.6,0.8s-1.2,0.3-1.8,0.3c-0.9,0-1.7-0.2-2.4-0.6
		c-0.7-0.4-1.3-0.9-1.7-1.6c-0.4-0.7-0.6-1.4-0.6-2.3s0.2-1.6,0.6-2.3c0.4-0.7,1-1.2,1.7-1.6c0.7-0.4,1.5-0.6,2.4-0.6
		c0.7,0,1.4,0.1,2,0.4c0.6,0.2,1.1,0.6,1.5,1l-1,1c-0.7-0.7-1.5-1-2.4-1c-0.6,0-1.2,0.1-1.6,0.4c-0.5,0.3-0.8,0.6-1.1,1.1
		s-0.4,1-0.4,1.6c0,0.6,0.1,1.1,0.4,1.6s0.6,0.8,1.1,1.1c0.5,0.3,1,0.4,1.6,0.4c0.7,0,1.3-0.1,1.8-0.5L822.6,291.1L822.6,291.1z"/>
	<path class="st2" d="M825.8,291.4h3.4v1.3h-3.4V291.4z"/>
	<path class="st2" d="M832.3,288.2h-2.9v-1.4h7.4v1.4H834v7.3h-1.6L832.3,288.2L832.3,288.2z"/>
	<path class="st2" d="M844.5,294.2v1.4H838v-8.7h6.3v1.4h-4.7v2.2h4.2v1.3h-4.2v2.4L844.5,294.2L844.5,294.2z"/>
	<path class="st2" d="M852,295.5l-1.8-2.5c-0.1,0-0.2,0-0.3,0h-2v2.5h-1.6v-8.7h3.6c0.8,0,1.4,0.1,2,0.4c0.6,0.2,1,0.6,1.3,1.1
		c0.3,0.5,0.5,1,0.5,1.6c0,0.6-0.2,1.2-0.5,1.7s-0.8,0.8-1.4,1l2,2.9L852,295.5L852,295.5z M851.4,288.6c-0.4-0.3-0.9-0.5-1.6-0.5
		h-1.9v3.5h1.9c0.7,0,1.2-0.1,1.6-0.5c0.4-0.3,0.5-0.7,0.5-1.3C852,289.4,851.8,288.9,851.4,288.6z"/>
	<path class="st2" d="M863.3,295.5l0-5.8l-2.8,4.8h-0.7l-2.8-4.7v5.7h-1.5v-8.7h1.3l3.4,5.7l3.4-5.7h1.3l0,8.7L863.3,295.5
		L863.3,295.5z"/>
	<path class="st2" d="M768.8,309v1.4h-6.5v-8.7h6.3v1.4h-4.7v2.2h4.2v1.3h-4.2v2.4L768.8,309L768.8,309z"/>
	<path class="st2" d="M775.9,310.4l-2.3-3.3l-2.3,3.3h-1.8l3.2-4.4l-3-4.2h1.8l2.2,3.1l2.2-3.1h1.8l-3,4.2l3.3,4.5H775.9z"/>
	<path class="st2" d="M784.3,302.1c0.6,0.2,1,0.6,1.3,1.1c0.3,0.5,0.4,1,0.4,1.6c0,0.6-0.2,1.2-0.4,1.6c-0.3,0.5-0.7,0.8-1.3,1.1
		c-0.6,0.2-1.2,0.4-2,0.4h-2v2.5h-1.6v-8.7h3.6C783.1,301.7,783.7,301.8,784.3,302.1z M783.8,306.1c0.4-0.3,0.5-0.7,0.5-1.3
		s-0.2-1-0.5-1.3c-0.4-0.3-0.9-0.5-1.6-0.5h-1.9v3.4h1.9C782.9,306.5,783.5,306.4,783.8,306.1z"/>
	<path class="st2" d="M789.4,309.9c-0.7-0.4-1.3-0.9-1.7-1.6c-0.4-0.7-0.6-1.4-0.6-2.3s0.2-1.6,0.6-2.3c0.4-0.7,1-1.2,1.7-1.6
		c0.7-0.4,1.5-0.6,2.4-0.6s1.7,0.2,2.4,0.6c0.7,0.4,1.3,0.9,1.7,1.6c0.4,0.7,0.6,1.4,0.6,2.3s-0.2,1.6-0.6,2.3
		c-0.4,0.7-1,1.2-1.7,1.6c-0.7,0.4-1.5,0.6-2.4,0.6C790.9,310.5,790.1,310.3,789.4,309.9z M793.3,308.7c0.5-0.3,0.8-0.6,1.1-1.1
		s0.4-1,0.4-1.6s-0.1-1.1-0.4-1.6c-0.3-0.5-0.6-0.8-1.1-1.1s-1-0.4-1.6-0.4s-1.1,0.1-1.6,0.4s-0.8,0.6-1.1,1.1s-0.4,1-0.4,1.6
		s0.1,1.1,0.4,1.6c0.3,0.5,0.6,0.8,1.1,1.1s1,0.4,1.6,0.4S792.9,308.9,793.3,308.7z"/>
	<path class="st2" d="M798.9,310.2c-0.6-0.2-1.1-0.4-1.5-0.8l0.6-1.2c0.4,0.3,0.8,0.5,1.3,0.7s1,0.3,1.5,0.3c0.6,0,1.1-0.1,1.4-0.3
		s0.5-0.5,0.5-0.8c0-0.2-0.1-0.5-0.3-0.6c-0.2-0.2-0.4-0.3-0.7-0.4c-0.3-0.1-0.6-0.2-1.1-0.3c-0.7-0.2-1.2-0.3-1.6-0.5
		s-0.8-0.4-1-0.7c-0.3-0.3-0.4-0.8-0.4-1.4c0-0.5,0.1-0.9,0.4-1.3c0.3-0.4,0.7-0.7,1.2-0.9c0.5-0.2,1.2-0.4,1.9-0.4
		c0.5,0,1,0.1,1.6,0.2s1,0.3,1.3,0.6l-0.5,1.2c-0.4-0.2-0.8-0.4-1.2-0.5s-0.8-0.2-1.2-0.2c-0.6,0-1.1,0.1-1.4,0.3
		c-0.3,0.2-0.5,0.5-0.5,0.9c0,0.2,0.1,0.5,0.3,0.6s0.4,0.3,0.7,0.4c0.3,0.1,0.6,0.2,1.1,0.3c0.6,0.1,1.2,0.3,1.6,0.5
		c0.4,0.2,0.8,0.4,1.1,0.7s0.4,0.8,0.4,1.3c0,0.5-0.1,0.9-0.4,1.3c-0.3,0.4-0.7,0.7-1.2,0.9s-1.2,0.4-1.9,0.4
		C800.2,310.5,799.5,310.4,798.9,310.2z"/>
	<path class="st2" d="M806.9,309.5c-0.7-0.7-1-1.6-1-2.9v-4.9h1.6v4.8c0,1.7,0.7,2.5,2.2,2.5s2.2-0.9,2.2-2.5v-4.8h1.6v4.9
		c0,1.2-0.3,2.2-1,2.9s-1.6,1-2.8,1S807.5,310.2,806.9,309.5z"/>
	<path class="st2" d="M821.4,310.4l-1.8-2.5c-0.1,0-0.2,0-0.3,0h-2v2.5h-1.6v-8.7h3.6c0.8,0,1.4,0.1,2,0.4c0.6,0.2,1,0.6,1.3,1.1
		c0.3,0.5,0.4,1,0.4,1.6c0,0.6-0.2,1.2-0.5,1.7s-0.8,0.8-1.4,1l2,2.9L821.4,310.4L821.4,310.4z M820.8,303.5
		c-0.4-0.3-0.9-0.5-1.6-0.5h-1.9v3.5h1.9c0.7,0,1.2-0.1,1.6-0.5c0.4-0.3,0.5-0.7,0.5-1.3S821.2,303.8,820.8,303.5z"/>
	<path class="st2" d="M831.3,309v1.4h-6.5v-8.7h6.3v1.4h-4.7v2.2h4.2v1.3h-4.2v2.4L831.3,309L831.3,309z"/>
	<path class="st2" d="M836.5,301.7h1.6v8.7h-1.6V301.7z"/>
	<path class="st2" d="M848.4,310.4l0-5.8l-2.8,4.8h-0.7l-2.8-4.7v5.7h-1.5v-8.7h1.3l3.4,5.7l3.4-5.7h1.3l0,8.7L848.4,310.4
		L848.4,310.4z"/>
	<path class="st2" d="M857.8,302.1c0.6,0.2,1,0.6,1.3,1.1c0.3,0.5,0.5,1,0.5,1.6c0,0.6-0.2,1.2-0.5,1.6s-0.7,0.8-1.3,1.1
		s-1.2,0.4-2,0.4h-2v2.5h-1.6v-8.7h3.6C856.6,301.7,857.2,301.8,857.8,302.1z M857.3,306.1c0.4-0.3,0.5-0.7,0.5-1.3s-0.2-1-0.5-1.3
		c-0.4-0.3-0.9-0.5-1.6-0.5h-1.9v3.4h1.9C856.5,306.5,857,306.4,857.3,306.1z"/>
	<path class="st2" d="M866.3,308.4H862l-0.8,2h-1.7l3.9-8.7h1.6l3.9,8.7h-1.7L866.3,308.4z M865.8,307.1l-1.6-3.8l-1.6,3.8H865.8z"
		/>
	<path class="st2" d="M871.5,309.9c-0.7-0.4-1.3-0.9-1.7-1.6s-0.6-1.4-0.6-2.3s0.2-1.6,0.6-2.3c0.4-0.7,1-1.2,1.7-1.6
		c0.7-0.4,1.5-0.6,2.4-0.6c0.7,0,1.4,0.1,1.9,0.4c0.6,0.2,1.1,0.6,1.5,1.1l-1,1c-0.6-0.7-1.4-1-2.3-1c-0.6,0-1.1,0.1-1.6,0.4
		s-0.8,0.6-1.1,1.1c-0.3,0.5-0.4,1-0.4,1.6c0,0.6,0.1,1.1,0.4,1.6c0.3,0.5,0.6,0.8,1.1,1.1c0.5,0.3,1,0.4,1.6,0.4
		c0.9,0,1.7-0.3,2.3-1l1,1c-0.4,0.5-0.9,0.8-1.5,1.1s-1.2,0.4-2,0.4C873,310.5,872.2,310.3,871.5,309.9z"/>
	<path class="st2" d="M880.5,303.1h-2.9v-1.4h7.4v1.4h-2.9v7.3h-1.6L880.5,303.1L880.5,303.1z"/>
	<path class="st2" d="M886.9,310.2c-0.6-0.2-1.1-0.4-1.5-0.8l0.6-1.2c0.4,0.3,0.8,0.5,1.3,0.7s1,0.3,1.5,0.3c0.6,0,1.1-0.1,1.4-0.3
		s0.5-0.5,0.5-0.8c0-0.2-0.1-0.5-0.3-0.6c-0.2-0.2-0.4-0.3-0.7-0.4c-0.3-0.1-0.6-0.2-1.1-0.3c-0.7-0.2-1.2-0.3-1.6-0.5
		s-0.8-0.4-1-0.7c-0.3-0.3-0.4-0.8-0.4-1.4c0-0.5,0.1-0.9,0.4-1.3c0.3-0.4,0.7-0.7,1.2-0.9c0.5-0.2,1.2-0.4,1.9-0.4
		c0.5,0,1,0.1,1.6,0.2s1,0.3,1.3,0.6l-0.5,1.2c-0.4-0.2-0.8-0.4-1.2-0.5s-0.8-0.2-1.2-0.2c-0.6,0-1.1,0.1-1.4,0.3
		c-0.3,0.2-0.5,0.5-0.5,0.9c0,0.2,0.1,0.5,0.3,0.6c0.2,0.2,0.4,0.3,0.7,0.4c0.3,0.1,0.6,0.2,1.1,0.3c0.6,0.1,1.2,0.3,1.6,0.5
		c0.4,0.2,0.8,0.4,1.1,0.7s0.4,0.8,0.4,1.3c0,0.5-0.1,0.9-0.4,1.3c-0.3,0.4-0.7,0.7-1.2,0.9c-0.5,0.2-1.2,0.4-1.9,0.4
		C888.1,310.5,887.5,310.4,886.9,310.2z"/>
</g>
<g>
	<path class="st2" d="M381.8,163.4l-2.8,8.7h-3.1l-1.4-4.6l-1.5,4.6h-3.1l-2.8-8.7h3l1.5,4.9l1.6-4.9h2.7l1.5,5l1.6-5H381.8z"/>
	<path class="st2" d="M388.7,163.8c0.6,0.3,1,0.6,1.4,1.1s0.5,1.1,0.5,1.7s-0.2,1.2-0.5,1.7s-0.8,0.9-1.4,1.1
		c-0.6,0.3-1.3,0.4-2.1,0.4h-1.2v2.1h-2.9v-8.7h4.2C387.4,163.4,388.1,163.6,388.7,163.8z M387.3,167.5c0.2-0.2,0.3-0.4,0.3-0.8
		s-0.1-0.6-0.3-0.8c-0.2-0.2-0.5-0.3-0.9-0.3h-1.1v2h1.1C386.8,167.7,387.1,167.6,387.3,167.5z"/>
	<path class="st2" d="M398.2,169.8v2.3h-7v-1.8l3.1-2.9c0.3-0.3,0.5-0.5,0.5-0.7c0.1-0.2,0.1-0.4,0.1-0.5c0-0.2-0.1-0.4-0.2-0.5
		c-0.1-0.1-0.4-0.2-0.6-0.2c-0.3,0-0.5,0.1-0.7,0.2s-0.4,0.3-0.5,0.6l-2.2-1.1c0.3-0.6,0.8-1.1,1.5-1.5s1.4-0.5,2.3-0.5
		c0.7,0,1.3,0.1,1.8,0.3s0.9,0.5,1.2,1s0.5,0.9,0.5,1.4c0,0.5-0.1,0.9-0.3,1.3c-0.2,0.4-0.6,0.9-1.2,1.4l-1.2,1.1L398.2,169.8
		L398.2,169.8z"/>
	<path class="st2" d="M366.1,193.2v8.7h-1.6v-3.7H360v3.7h-1.6v-8.7h1.6v3.6h4.5v-3.6H366.1z"/>
	<path class="st2" d="M369.4,200.9c-0.7-0.7-1-1.6-1-2.9v-4.9h1.6v4.8c0,1.7,0.7,2.5,2.2,2.5c1.5,0,2.2-0.9,2.2-2.5v-4.8h1.6v4.9
		c0,1.2-0.3,2.2-1,2.9s-1.6,1-2.8,1S370,201.6,369.4,200.9z"/>
	<path class="st2" d="M386.1,201.8l0-5.8l-2.9,4.8h-0.7l-2.9-4.7v5.7h-1.5v-8.7h1.3l3.4,5.8l3.4-5.8h1.3l0,8.7L386.1,201.8
		L386.1,201.8z"/>
	<path class="st2" d="M395.6,199.8h-4.3l-0.9,2h-1.7l3.9-8.7h1.6l3.9,8.7h-1.7L395.6,199.8z M395.1,198.5l-1.6-3.8l-1.6,3.8H395.1z"
		/>
	<path class="st2" d="M407,193.2v8.7h-1.3l-4.8-5.9v5.9h-1.6v-8.7h1.3l4.8,5.9v-5.9H407z"/>
	<path class="st2" d="M336,213c0.3,0.4,0.4,0.8,0.4,1.4c0,0.8-0.3,1.3-0.9,1.7s-1.4,0.6-2.5,0.6h-4.3V208h4.1c1,0,1.8,0.2,2.4,0.6
		c0.5,0.4,0.8,1,0.8,1.6c0,0.4-0.1,0.8-0.3,1.1c-0.2,0.3-0.5,0.6-0.8,0.8C335.3,212.3,335.7,212.6,336,213z M330.3,209.3v2.4h2.3
		c0.6,0,1-0.1,1.3-0.3s0.5-0.5,0.5-0.9c0-0.4-0.1-0.7-0.5-0.9c-0.3-0.2-0.7-0.3-1.3-0.3L330.3,209.3L330.3,209.3z M334.7,214.2
		c0-0.8-0.6-1.2-1.9-1.2h-2.6v2.5h2.6C334.1,215.4,334.7,215,334.7,214.2z"/>
	<path class="st2" d="M338.1,208h1.6v8.7h-1.6V208z"/>
	<path class="st2" d="M343.7,216.2c-0.7-0.4-1.3-0.9-1.7-1.6c-0.4-0.7-0.6-1.4-0.6-2.3s0.2-1.6,0.6-2.3c0.4-0.7,1-1.2,1.7-1.6
		c0.7-0.4,1.5-0.6,2.4-0.6s1.7,0.2,2.4,0.6c0.7,0.4,1.3,0.9,1.7,1.6c0.4,0.7,0.6,1.4,0.6,2.3s-0.2,1.6-0.6,2.3
		c-0.4,0.7-1,1.2-1.7,1.6c-0.7,0.4-1.5,0.6-2.4,0.6C345.2,216.8,344.4,216.6,343.7,216.2z M347.6,215c0.5-0.3,0.8-0.6,1.1-1.1
		s0.4-1,0.4-1.6s-0.1-1.1-0.4-1.6c-0.3-0.5-0.6-0.8-1.1-1.1s-1-0.4-1.6-0.4s-1.1,0.1-1.6,0.4s-0.8,0.6-1.1,1.1s-0.4,1-0.4,1.6
		s0.1,1.1,0.4,1.6c0.3,0.5,0.6,0.8,1.1,1.1s1,0.4,1.6,0.4S347.2,215.3,347.6,215z"/>
	<path class="st2" d="M360.4,216.7l0-5.8l-2.9,4.8h-0.7L354,211v5.7h-1.5V208h1.3l3.4,5.8l3.4-5.8h1.3l0,8.7L360.4,216.7
		L360.4,216.7z"/>
	<path class="st2" d="M366,216.2c-0.7-0.4-1.3-0.9-1.7-1.6c-0.4-0.7-0.6-1.4-0.6-2.3s0.2-1.6,0.6-2.3c0.4-0.7,1-1.2,1.7-1.6
		c0.7-0.4,1.5-0.6,2.4-0.6s1.7,0.2,2.4,0.6c0.7,0.4,1.3,0.9,1.7,1.6c0.4,0.7,0.6,1.4,0.6,2.3s-0.2,1.6-0.6,2.3
		c-0.4,0.7-1,1.2-1.7,1.6c-0.7,0.4-1.5,0.6-2.4,0.6C367.5,216.8,366.7,216.6,366,216.2z M369.9,215c0.5-0.3,0.8-0.6,1.1-1.1
		s0.4-1,0.4-1.6s-0.1-1.1-0.4-1.6c-0.3-0.5-0.6-0.8-1.1-1.1s-1-0.4-1.6-0.4s-1.1,0.1-1.6,0.4s-0.8,0.6-1.1,1.1s-0.4,1-0.4,1.6
		s0.1,1.1,0.4,1.6c0.3,0.5,0.6,0.8,1.1,1.1s1,0.4,1.6,0.4S369.4,215.3,369.9,215z"/>
	<path class="st2" d="M382.4,208v8.7h-1.3l-4.8-5.9v5.9h-1.6V208h1.3l4.8,5.9V208H382.4z"/>
	<path class="st2" d="M384.7,208h1.6v8.7h-1.6V208z"/>
	<path class="st2" d="M390.5,209.4h-2.9V208h7.4v1.4h-2.9v7.3h-1.6L390.5,209.4L390.5,209.4z"/>
	<path class="st2" d="M397.7,216.2c-0.7-0.4-1.3-0.9-1.7-1.6c-0.4-0.7-0.6-1.4-0.6-2.3s0.2-1.6,0.6-2.3c0.4-0.7,1-1.2,1.7-1.6
		c0.7-0.4,1.5-0.6,2.4-0.6s1.7,0.2,2.4,0.6c0.7,0.4,1.3,0.9,1.7,1.6c0.4,0.7,0.6,1.4,0.6,2.3s-0.2,1.6-0.6,2.3
		c-0.4,0.7-1,1.2-1.7,1.6c-0.7,0.4-1.5,0.6-2.4,0.6C399.2,216.8,398.4,216.6,397.7,216.2z M401.6,215c0.5-0.3,0.8-0.6,1.1-1.1
		s0.4-1,0.4-1.6s-0.1-1.1-0.4-1.6c-0.3-0.5-0.6-0.8-1.1-1.1s-1-0.4-1.6-0.4s-1.1,0.1-1.6,0.4s-0.8,0.6-1.1,1.1s-0.4,1-0.4,1.6
		s0.1,1.1,0.4,1.6c0.3,0.5,0.6,0.8,1.1,1.1s1,0.4,1.6,0.4S401.2,215.3,401.6,215z"/>
	<path class="st2" d="M412.1,216.7l-1.8-2.5c-0.1,0-0.2,0-0.3,0h-2v2.5h-1.6V208h3.6c0.8,0,1.4,0.1,2,0.4c0.6,0.2,1,0.6,1.3,1.1
		c0.3,0.5,0.4,1,0.4,1.6c0,0.6-0.2,1.2-0.5,1.7s-0.8,0.8-1.4,1l2,2.9L412.1,216.7L412.1,216.7z M411.5,209.8
		c-0.4-0.3-0.9-0.5-1.6-0.5h-1.9v3.5h1.9c0.7,0,1.2-0.1,1.6-0.5c0.4-0.3,0.5-0.7,0.5-1.3C412.1,210.5,411.9,210.1,411.5,209.8z"/>
	<path class="st2" d="M415.5,208h1.6v8.7h-1.6V208z"/>
	<path class="st2" d="M427.1,208v8.7h-1.3l-4.8-5.9v5.9h-1.6V208h1.3l4.8,5.9V208H427.1z"/>
	<path class="st2" d="M435.4,212.2h1.5v3.5c-0.5,0.4-1,0.6-1.6,0.8s-1.2,0.3-1.8,0.3c-0.9,0-1.7-0.2-2.4-0.6
		c-0.7-0.4-1.3-0.9-1.7-1.6c-0.4-0.7-0.6-1.4-0.6-2.3s0.2-1.6,0.6-2.3c0.4-0.7,1-1.2,1.7-1.6c0.7-0.4,1.5-0.6,2.4-0.6
		c0.7,0,1.4,0.1,2,0.4s1.1,0.6,1.5,1l-1,1c-0.7-0.7-1.5-1-2.4-1c-0.6,0-1.1,0.1-1.6,0.4c-0.5,0.3-0.9,0.6-1.1,1.1
		c-0.3,0.5-0.4,1-0.4,1.6c0,0.6,0.1,1.1,0.4,1.6s0.6,0.8,1.1,1.1c0.5,0.3,1,0.4,1.6,0.4c0.7,0,1.3-0.1,1.8-0.5L435.4,212.2
		L435.4,212.2z"/>
</g>
<g>
	<circle class="st0" cx="826.9" cy="91.9" r="82.9"/>
</g>
<g>
	<path class="st2" d="M825.5,62.3l-2.8,8.7h-3.1l-1.4-4.6l-1.5,4.6h-3.1l-2.8-8.7h3l1.5,4.9l1.6-4.9h2.7l1.5,5l1.6-5H825.5z"/>
	<path class="st2" d="M832.4,62.7c0.6,0.3,1,0.6,1.4,1.1s0.5,1.1,0.5,1.7s-0.2,1.2-0.5,1.7c-0.3,0.5-0.8,0.9-1.4,1.1
		c-0.6,0.3-1.3,0.4-2.1,0.4h-1.2V71h-2.9v-8.7h4.2C831.1,62.3,831.8,62.5,832.4,62.7z M831,66.4c0.2-0.2,0.3-0.4,0.3-0.8
		s-0.1-0.6-0.3-0.8s-0.5-0.3-0.9-0.3h-1.1v2h1.1C830.5,66.6,830.8,66.5,831,66.4z"/>
	<path class="st2" d="M843.1,69.5h-1.2V71h-2.8v-1.5h-4.5v-1.9l3.7-5.3h3l-3.3,4.9h1.2v-1.3h2.8v1.3h1.2L843.1,69.5L843.1,69.5z"/>
	<path class="st2" d="M797.2,93.4V96h4.2v1.4h-4.2v3.3h-1.6v-8.7h6.3v1.4L797.2,93.4L797.2,93.4z"/>
	<path class="st2" d="M808.7,98.7h-4.3l-0.8,2h-1.7l3.9-8.7h1.6l3.9,8.7h-1.7L808.7,98.7z M808.2,97.5l-1.6-3.8l-1.6,3.8H808.2z"/>
	<path class="st2" d="M813.7,93.4h-2.9v-1.4h7.4v1.4h-2.9v7.3h-1.6L813.7,93.4L813.7,93.4z"/>
	<path class="st2" d="M825.9,99.4v1.4h-6.5v-8.7h6.3v1.4H821v2.2h4.2V97H821v2.4L825.9,99.4L825.9,99.4z"/>
	<path class="st2" d="M836.7,98.7h-4.3l-0.8,2h-1.7l3.9-8.7h1.6l3.9,8.7h-1.7L836.7,98.7z M836.2,97.5l-1.6-3.8l-1.6,3.8H836.2z"/>
	<path class="st2" d="M848,92.1v8.7h-1.3l-4.8-5.9v5.9h-1.6v-8.7h1.3l4.8,5.9v-5.9H848z"/>
	<path class="st2" d="M850.4,92.1h3.8c0.9,0,1.8,0.2,2.5,0.5c0.7,0.4,1.3,0.9,1.7,1.5c0.4,0.7,0.6,1.4,0.6,2.3s-0.2,1.6-0.6,2.3
		c-0.4,0.7-1,1.2-1.7,1.5s-1.5,0.5-2.5,0.5h-3.8V92.1z M854.1,99.4c0.6,0,1.2-0.1,1.7-0.4c0.5-0.2,0.8-0.6,1.1-1s0.4-1,0.4-1.6
		s-0.1-1.1-0.4-1.6c-0.3-0.4-0.6-0.8-1.1-1c-0.5-0.2-1-0.4-1.7-0.4H852v5.9L854.1,99.4L854.1,99.4z"/>
	<path class="st2" d="M772,111.9c0.3,0.4,0.4,0.8,0.4,1.4c0,0.8-0.3,1.3-0.9,1.7s-1.4,0.6-2.5,0.6h-4.3v-8.7h4.1
		c1,0,1.8,0.2,2.4,0.6c0.5,0.4,0.8,1,0.8,1.6c0,0.4-0.1,0.8-0.3,1.1c-0.2,0.3-0.5,0.6-0.8,0.8C771.3,111.2,771.7,111.5,772,111.9z
		 M766.3,108.2v2.4h2.3c0.6,0,1-0.1,1.3-0.3c0.3-0.2,0.5-0.5,0.5-0.9c0-0.4-0.2-0.7-0.5-0.9c-0.3-0.2-0.7-0.3-1.3-0.3L766.3,108.2
		L766.3,108.2z M770.8,113.1c0-0.8-0.6-1.2-1.9-1.2h-2.6v2.5h2.6C770.2,114.3,770.8,113.9,770.8,113.1z"/>
	<path class="st2" d="M774.2,106.9h1.6v8.7h-1.6V106.9z"/>
	<path class="st2" d="M779.8,115.1c-0.7-0.4-1.3-0.9-1.7-1.6c-0.4-0.7-0.6-1.4-0.6-2.3s0.2-1.6,0.6-2.3s1-1.2,1.7-1.6
		c0.7-0.4,1.5-0.6,2.4-0.6s1.7,0.2,2.4,0.6c0.7,0.4,1.3,0.9,1.7,1.6c0.4,0.7,0.6,1.4,0.6,2.3s-0.2,1.6-0.6,2.3
		c-0.4,0.7-1,1.2-1.7,1.6c-0.7,0.4-1.5,0.6-2.4,0.6C781.3,115.7,780.5,115.5,779.8,115.1z M783.7,113.9c0.5-0.3,0.8-0.6,1.1-1.1
		s0.4-1,0.4-1.6s-0.1-1.1-0.4-1.6c-0.3-0.5-0.6-0.8-1.1-1.1s-1-0.4-1.6-0.4s-1.1,0.1-1.6,0.4s-0.8,0.6-1.1,1.1s-0.4,1-0.4,1.6
		s0.1,1.1,0.4,1.6c0.3,0.5,0.6,0.8,1.1,1.1s1,0.4,1.6,0.4S783.2,114.2,783.7,113.9z"/>
	<path class="st2" d="M794,113.6h-4.3l-0.8,2h-1.7l3.9-8.7h1.6l3.9,8.7h-1.7L794,113.6z M793.5,112.3l-1.6-3.8l-1.6,3.8H793.5z"/>
	<path class="st2" d="M799.2,115.1c-0.7-0.4-1.3-0.9-1.7-1.6c-0.4-0.7-0.6-1.4-0.6-2.3s0.2-1.6,0.6-2.3c0.4-0.7,1-1.2,1.7-1.6
		c0.7-0.4,1.5-0.6,2.4-0.6c0.7,0,1.4,0.1,1.9,0.4c0.6,0.2,1.1,0.6,1.5,1.1l-1,1c-0.6-0.7-1.4-1-2.3-1c-0.6,0-1.1,0.1-1.6,0.4
		s-0.8,0.6-1.1,1.1c-0.3,0.5-0.4,1-0.4,1.6c0,0.6,0.1,1.1,0.4,1.6c0.3,0.5,0.6,0.8,1.1,1.1c0.5,0.3,1,0.4,1.6,0.4
		c0.9,0,1.7-0.3,2.3-1l1,1c-0.4,0.5-0.9,0.8-1.5,1.1c-0.6,0.2-1.2,0.4-2,0.4C800.7,115.7,799.9,115.5,799.2,115.1z"/>
	<path class="st2" d="M808,115.1c-0.7-0.4-1.3-0.9-1.7-1.6c-0.4-0.7-0.6-1.4-0.6-2.3s0.2-1.6,0.6-2.3c0.4-0.7,1-1.2,1.7-1.6
		c0.7-0.4,1.5-0.6,2.4-0.6c0.7,0,1.4,0.1,1.9,0.4c0.6,0.2,1.1,0.6,1.5,1.1l-1,1c-0.6-0.7-1.4-1-2.3-1c-0.6,0-1.1,0.1-1.6,0.4
		s-0.8,0.6-1.1,1.1c-0.3,0.5-0.4,1-0.4,1.6c0,0.6,0.1,1.1,0.4,1.6c0.3,0.5,0.6,0.8,1.1,1.1c0.5,0.3,1,0.4,1.6,0.4
		c0.9,0,1.7-0.3,2.3-1l1,1c-0.4,0.5-0.9,0.8-1.5,1.1c-0.6,0.2-1.2,0.4-2,0.4C809.5,115.7,808.7,115.5,808,115.1z"/>
	<path class="st2" d="M816.2,114.7c-0.7-0.7-1-1.6-1-2.9v-4.9h1.6v4.8c0,1.7,0.7,2.5,2.2,2.5s2.2-0.9,2.2-2.5v-4.8h1.6v4.9
		c0,1.2-0.3,2.2-1,2.9s-1.6,1-2.8,1S816.9,115.4,816.2,114.7z"/>
	<path class="st2" d="M833,115.6l0-5.8l-2.8,4.8h-0.7l-2.8-4.7v5.7h-1.5v-8.7h1.3l3.4,5.8l3.4-5.8h1.3l0,8.7L833,115.6L833,115.6z"
		/>
	<path class="st2" d="M837.8,114.7c-0.7-0.7-1-1.6-1-2.9v-4.9h1.6v4.8c0,1.7,0.7,2.5,2.2,2.5s2.2-0.9,2.2-2.5v-4.8h1.6v4.9
		c0,1.2-0.3,2.2-1,2.9s-1.6,1-2.8,1C839.4,115.7,838.5,115.4,837.8,114.7z"/>
	<path class="st2" d="M846.7,106.9h1.6v7.3h4.5v1.4h-6.1V106.9z"/>
	<path class="st2" d="M859.8,113.6h-4.3l-0.8,2h-1.7l3.9-8.7h1.6l3.9,8.7h-1.7L859.8,113.6z M859.2,112.3l-1.6-3.8l-1.6,3.8H859.2z"
		/>
	<path class="st2" d="M864.8,108.3h-2.9v-1.4h7.4v1.4h-2.9v7.3h-1.6L864.8,108.3L864.8,108.3z"/>
	<path class="st2" d="M870.4,106.9h1.6v8.7h-1.6V106.9z"/>
	<path class="st2" d="M876,115.1c-0.7-0.4-1.3-0.9-1.7-1.6c-0.4-0.7-0.6-1.4-0.6-2.3s0.2-1.6,0.6-2.3s1-1.2,1.7-1.6
		c0.7-0.4,1.5-0.6,2.4-0.6s1.7,0.2,2.4,0.6c0.7,0.4,1.3,0.9,1.7,1.6c0.4,0.7,0.6,1.4,0.6,2.3s-0.2,1.6-0.6,2.3
		c-0.4,0.7-1,1.2-1.7,1.6c-0.7,0.4-1.5,0.6-2.4,0.6C877.6,115.7,876.8,115.5,876,115.1z M880,113.9c0.5-0.3,0.8-0.6,1.1-1.1
		s0.4-1,0.4-1.6s-0.1-1.1-0.4-1.6c-0.3-0.5-0.6-0.8-1.1-1.1s-1-0.4-1.6-0.4s-1.1,0.1-1.6,0.4s-0.8,0.6-1.1,1.1s-0.4,1-0.4,1.6
		s0.1,1.1,0.4,1.6c0.3,0.5,0.6,0.8,1.1,1.1s1,0.4,1.6,0.4S879.5,114.2,880,113.9z"/>
	<path class="st2" d="M892.5,106.9v8.7h-1.3l-4.8-5.9v5.9h-1.6v-8.7h1.3l4.8,5.9v-5.9H892.5z"/>
</g>
<g>
	<circle class="st0" cx="621.3" cy="294.1" r="82.9"/>
</g>
<g>
	<path class="st2" d="M620.4,264.5l-2.8,8.7h-3.1l-1.4-4.6l-1.5,4.6h-3.1l-2.8-8.7h3l1.5,4.9l1.6-4.9h2.7l1.5,5l1.6-5H620.4z"/>
	<path class="st2" d="M627.3,264.9c0.6,0.3,1,0.6,1.4,1.1s0.5,1.1,0.5,1.7s-0.2,1.2-0.5,1.7c-0.3,0.5-0.8,0.9-1.4,1.1
		c-0.6,0.3-1.3,0.4-2.1,0.4h-1.2v2.1H621v-8.7h4.2C626,264.5,626.7,264.7,627.3,264.9z M625.9,268.5c0.2-0.2,0.3-0.4,0.3-0.8
		s-0.1-0.6-0.3-0.8s-0.5-0.3-0.9-0.3h-1.1v2h1.1C625.4,268.8,625.7,268.7,625.9,268.5z"/>
	<path class="st2" d="M636,268.3c0.6,0.5,0.9,1.2,0.9,2c0,0.5-0.1,1-0.4,1.5c-0.3,0.5-0.7,0.8-1.3,1.1c-0.6,0.3-1.3,0.4-2.2,0.4
		c-0.6,0-1.2-0.1-1.8-0.2c-0.6-0.1-1.1-0.3-1.6-0.6l1-2.1c0.4,0.2,0.7,0.4,1.2,0.5c0.4,0.1,0.8,0.2,1.2,0.2c0.3,0,0.6-0.1,0.8-0.2
		s0.3-0.3,0.3-0.5s-0.1-0.4-0.3-0.5s-0.5-0.1-1-0.1h-2.5l0.4-5.3h5.8v2.2h-3.4l-0.1,0.9h0.5C634.5,267.6,635.4,267.8,636,268.3z"/>
	<path class="st2" d="M585.7,294.2h1.6v8.7h-1.6V294.2z"/>
	<path class="st2" d="M597.6,302.9l0-5.8l-2.8,4.8H594l-2.8-4.7v5.7h-1.5v-8.7h1.3l3.4,5.7l3.4-5.7h1.3l0,8.7L597.6,302.9
		L597.6,302.9z"/>
	<path class="st2" d="M607,294.6c0.6,0.2,1,0.6,1.3,1.1c0.3,0.5,0.5,1,0.5,1.6c0,0.6-0.2,1.2-0.5,1.6s-0.7,0.8-1.3,1.1
		c-0.6,0.2-1.2,0.4-2,0.4h-2v2.5h-1.6v-8.7h3.6C605.8,294.2,606.4,294.4,607,294.6z M606.5,298.6c0.4-0.3,0.5-0.7,0.5-1.3
		s-0.2-1-0.5-1.3c-0.4-0.3-0.9-0.5-1.6-0.5h-1.9v3.4h1.9C605.7,299,606.2,298.9,606.5,298.6z"/>
	<path class="st2" d="M615.5,300.9h-4.3l-0.8,2h-1.7l3.9-8.7h1.6l3.9,8.7h-1.7L615.5,300.9z M615,299.6l-1.6-3.8l-1.6,3.8H615z"/>
	<path class="st2" d="M620.7,302.5c-0.7-0.4-1.3-0.9-1.7-1.6c-0.4-0.7-0.6-1.4-0.6-2.3s0.2-1.6,0.6-2.3c0.4-0.7,1-1.2,1.7-1.6
		c0.7-0.4,1.5-0.6,2.4-0.6c0.7,0,1.4,0.1,1.9,0.4c0.6,0.2,1.1,0.6,1.5,1.1l-1,1c-0.6-0.7-1.4-1-2.3-1c-0.6,0-1.1,0.1-1.6,0.4
		s-0.8,0.6-1.1,1.1c-0.3,0.5-0.4,1-0.4,1.6c0,0.6,0.1,1.1,0.4,1.6c0.3,0.5,0.6,0.8,1.1,1.1s1,0.4,1.6,0.4c0.9,0,1.7-0.3,2.3-1l1,1
		c-0.4,0.5-0.9,0.8-1.5,1.1s-1.2,0.4-2,0.4C622.2,303,621.4,302.8,620.7,302.5z"/>
	<path class="st2" d="M629.7,295.6h-2.9v-1.4h7.4v1.4h-2.9v7.3h-1.6L629.7,295.6L629.7,295.6z"/>
	<path class="st2" d="M640.5,302.5c-0.7-0.4-1.3-0.9-1.7-1.6c-0.4-0.7-0.6-1.4-0.6-2.3s0.2-1.6,0.6-2.3c0.4-0.7,1-1.2,1.7-1.6
		c0.7-0.4,1.5-0.6,2.4-0.6s1.7,0.2,2.4,0.6c0.7,0.4,1.3,0.9,1.7,1.6c0.4,0.7,0.6,1.4,0.6,2.3s-0.2,1.6-0.6,2.3
		c-0.4,0.7-1,1.2-1.7,1.6c-0.7,0.4-1.5,0.6-2.4,0.6C642,303,641.2,302.8,640.5,302.5z M644.4,301.2c0.5-0.3,0.8-0.6,1.1-1.1
		s0.4-1,0.4-1.6s-0.1-1.1-0.4-1.6c-0.3-0.5-0.6-0.8-1.1-1.1s-1-0.4-1.6-0.4s-1.1,0.1-1.6,0.4s-0.8,0.6-1.1,1.1s-0.4,1-0.4,1.6
		s0.1,1.1,0.4,1.6c0.3,0.5,0.6,0.8,1.1,1.1s1,0.4,1.6,0.4S644,301.5,644.4,301.2z"/>
	<path class="st2" d="M657,294.2v8.7h-1.3l-4.8-5.9v5.9h-1.6v-8.7h1.3l4.8,5.9v-5.9H657z"/>
	<path class="st2" d="M567.5,309.1h1.6v8.7h-1.6V309.1z"/>
	<path class="st2" d="M579.4,317.8l0-5.8l-2.8,4.8h-0.7l-2.8-4.7v5.7h-1.5v-8.7h1.3l3.4,5.7l3.4-5.7h1.3l0,8.7L579.4,317.8
		L579.4,317.8z"/>
	<path class="st2" d="M591.2,317.8l0-5.8l-2.8,4.8h-0.7l-2.8-4.7v5.7h-1.5v-8.7h1.3l3.4,5.7l3.4-5.7h1.3l0,8.7L591.2,317.8
		L591.2,317.8z"/>
	<path class="st2" d="M596,316.9c-0.7-0.7-1-1.6-1-2.9v-4.9h1.6v4.8c0,1.7,0.7,2.5,2.2,2.5s2.2-0.9,2.2-2.5v-4.8h1.6v4.9
		c0,1.2-0.3,2.2-1,2.9s-1.6,1-2.8,1S596.7,317.6,596,316.9z"/>
	<path class="st2" d="M612.6,309.1v8.7h-1.3l-4.8-5.9v5.9h-1.6v-8.7h1.3l4.8,5.9v-5.9H612.6z"/>
	<path class="st2" d="M621.4,316.4v1.4h-6.5v-8.7h6.3v1.4h-4.7v2.2h4.2v1.3h-4.2v2.4L621.4,316.4L621.4,316.4z"/>
	<path class="st2" d="M627.4,317.6c-0.6-0.2-1.1-0.4-1.5-0.8l0.6-1.2c0.4,0.3,0.8,0.5,1.3,0.7s1,0.3,1.5,0.3c0.6,0,1.1-0.1,1.4-0.3
		s0.5-0.5,0.5-0.8c0-0.2-0.1-0.5-0.3-0.6c-0.2-0.2-0.4-0.3-0.7-0.4c-0.3-0.1-0.6-0.2-1.1-0.3c-0.7-0.2-1.2-0.3-1.6-0.5
		s-0.8-0.4-1-0.7c-0.3-0.3-0.4-0.8-0.4-1.4c0-0.5,0.1-0.9,0.4-1.3c0.3-0.4,0.7-0.7,1.2-0.9c0.5-0.2,1.2-0.4,1.9-0.4
		c0.5,0,1,0.1,1.6,0.2s1,0.3,1.3,0.6L632,311c-0.4-0.2-0.8-0.4-1.2-0.5s-0.8-0.2-1.2-0.2c-0.6,0-1.1,0.1-1.4,0.3
		c-0.3,0.2-0.5,0.5-0.5,0.9c0,0.2,0.1,0.5,0.3,0.6c0.2,0.2,0.4,0.3,0.7,0.4c0.3,0.1,0.6,0.2,1.1,0.3c0.6,0.1,1.2,0.3,1.6,0.5
		c0.4,0.2,0.8,0.4,1.1,0.7s0.4,0.8,0.4,1.3c0,0.5-0.1,0.9-0.4,1.3c-0.3,0.4-0.7,0.7-1.2,0.9c-0.5,0.2-1.2,0.4-1.9,0.4
		C628.6,317.9,628,317.8,627.4,317.6z"/>
	<path class="st2" d="M638,314.7v3.1h-1.6v-3l-3.4-5.6h1.7l2.5,4.2l2.6-4.2h1.6L638,314.7z"/>
	<path class="st2" d="M643,317.6c-0.6-0.2-1.1-0.4-1.5-0.8l0.6-1.2c0.4,0.3,0.8,0.5,1.3,0.7s1,0.3,1.5,0.3c0.6,0,1.1-0.1,1.4-0.3
		s0.5-0.5,0.5-0.8c0-0.2-0.1-0.5-0.3-0.6c-0.2-0.2-0.4-0.3-0.7-0.4c-0.3-0.1-0.6-0.2-1.1-0.3c-0.7-0.2-1.2-0.3-1.6-0.5
		s-0.8-0.4-1-0.7c-0.3-0.3-0.4-0.8-0.4-1.4c0-0.5,0.1-0.9,0.4-1.3c0.3-0.4,0.7-0.7,1.2-0.9c0.5-0.2,1.2-0.4,1.9-0.4
		c0.5,0,1,0.1,1.6,0.2s1,0.3,1.3,0.6l-0.5,1.2c-0.4-0.2-0.8-0.4-1.2-0.5s-0.8-0.2-1.2-0.2c-0.6,0-1.1,0.1-1.4,0.3
		c-0.3,0.2-0.5,0.5-0.5,0.9c0,0.2,0.1,0.5,0.3,0.6c0.2,0.2,0.4,0.3,0.7,0.4s0.6,0.2,1.1,0.3c0.6,0.1,1.2,0.3,1.6,0.5
		c0.4,0.2,0.8,0.4,1.1,0.7s0.4,0.8,0.4,1.3c0,0.5-0.1,0.9-0.4,1.3c-0.3,0.4-0.7,0.7-1.2,0.9s-1.2,0.4-1.9,0.4
		C644.2,317.9,643.6,317.8,643,317.6z"/>
	<path class="st2" d="M651.6,310.5h-2.9v-1.4h7.4v1.4h-2.9v7.3h-1.6L651.6,310.5L651.6,310.5z"/>
	<path class="st2" d="M663.8,316.4v1.4h-6.5v-8.7h6.3v1.4H659v2.2h4.2v1.3H659v2.4L663.8,316.4L663.8,316.4z"/>
	<path class="st2" d="M673.6,317.8l0-5.8l-2.8,4.8H670l-2.8-4.7v5.7h-1.5v-8.7h1.3l3.4,5.7l3.4-5.7h1.3l0,8.7L673.6,317.8
		L673.6,317.8z"/>
</g>
<g>
	<circle class="st0" cx="621.3" cy="91.9" r="82.9"/>
</g>
<g>
	<path class="st2" d="M620.5,62.3l-2.8,8.7h-3.1l-1.4-4.6l-1.5,4.6h-3.1l-2.8-8.7h3l1.5,4.9l1.6-4.9h2.7l1.5,5l1.6-5H620.5z"/>
	<path class="st2" d="M627.3,62.7c0.6,0.3,1,0.6,1.4,1.1s0.5,1.1,0.5,1.7c0,0.7-0.2,1.2-0.5,1.7c-0.3,0.5-0.8,0.9-1.4,1.1
		c-0.6,0.3-1.3,0.4-2.1,0.4H624V71h-2.9v-8.7h4.2C626.1,62.3,626.8,62.5,627.3,62.7z M626,66.4c0.2-0.2,0.3-0.4,0.3-0.8
		s-0.1-0.6-0.3-0.8s-0.5-0.3-0.9-0.3H624v2h1.1C625.5,66.6,625.8,66.5,626,66.4z"/>
	<path class="st2" d="M636.2,66.7c0.4,0.4,0.5,1,0.5,1.6c0,0.5-0.1,1-0.4,1.5c-0.3,0.4-0.7,0.8-1.3,1.1c-0.6,0.3-1.3,0.4-2.2,0.4
		c-0.6,0-1.2-0.1-1.8-0.2c-0.6-0.1-1.1-0.3-1.6-0.6l1-2.1c0.3,0.2,0.7,0.4,1.2,0.5c0.4,0.1,0.8,0.2,1.2,0.2c0.3,0,0.6-0.1,0.8-0.2
		c0.2-0.1,0.3-0.3,0.3-0.5c0-0.4-0.3-0.6-1-0.6h-1.2v-1.8l1.3-1.3h-3.1v-2.2h6.5v1.8l-1.6,1.6C635.3,65.9,635.8,66.2,636.2,66.7z"/>
	<path class="st2" d="M557,92.1h1.6v8.7H557V92.1z"/>
	<path class="st2" d="M568.9,100.7l0-5.8l-2.8,4.8h-0.7l-2.8-4.7v5.7H561v-8.7h1.3l3.4,5.8l3.4-5.8h1.3l0,8.7H568.9z"/>
	<path class="st2" d="M578.3,92.4c0.6,0.2,1,0.6,1.3,1.1c0.3,0.5,0.5,1,0.5,1.6c0,0.6-0.2,1.2-0.5,1.6s-0.7,0.8-1.3,1.1
		c-0.6,0.2-1.2,0.4-2,0.4h-2v2.5h-1.6v-8.7h3.6C577.1,92.1,577.8,92.2,578.3,92.4z M577.9,96.4c0.4-0.3,0.5-0.7,0.5-1.3
		c0-0.6-0.2-1-0.5-1.3c-0.4-0.3-0.9-0.4-1.6-0.4h-1.9v3.4h1.9C577,96.9,577.5,96.7,577.9,96.4z"/>
	<path class="st2" d="M586.8,98.7h-4.3l-0.8,2H580l3.9-8.7h1.6l3.9,8.7h-1.7L586.8,98.7z M586.3,97.5l-1.6-3.8l-1.6,3.8H586.3z"/>
	<path class="st2" d="M592,100.3c-0.7-0.4-1.3-0.9-1.7-1.6c-0.4-0.7-0.6-1.4-0.6-2.3c0-0.9,0.2-1.6,0.6-2.3s1-1.2,1.7-1.6
		c0.7-0.4,1.5-0.6,2.4-0.6c0.7,0,1.4,0.1,1.9,0.4c0.6,0.2,1.1,0.6,1.5,1.1l-1,1c-0.6-0.7-1.4-1-2.3-1c-0.6,0-1.1,0.1-1.6,0.4
		s-0.8,0.6-1.1,1.1c-0.3,0.5-0.4,1-0.4,1.6c0,0.6,0.1,1.1,0.4,1.6c0.3,0.5,0.6,0.8,1.1,1.1s1,0.4,1.6,0.4c0.9,0,1.7-0.3,2.3-1l1,1
		c-0.4,0.5-0.9,0.8-1.5,1.1c-0.6,0.2-1.2,0.4-2,0.4C593.5,100.8,592.7,100.7,592,100.3z"/>
	<path class="st2" d="M601,93.4h-2.9v-1.4h7.4v1.4h-2.9v7.3H601L601,93.4L601,93.4z"/>
	<path class="st2" d="M611.8,100.3c-0.7-0.4-1.3-0.9-1.7-1.6c-0.4-0.7-0.6-1.4-0.6-2.3s0.2-1.6,0.6-2.3s1-1.2,1.7-1.6
		c0.7-0.4,1.5-0.6,2.4-0.6s1.7,0.2,2.4,0.6c0.7,0.4,1.3,0.9,1.7,1.6c0.4,0.7,0.6,1.4,0.6,2.3c0,0.9-0.2,1.6-0.6,2.3s-1,1.2-1.7,1.6
		c-0.7,0.4-1.5,0.6-2.4,0.6C613.3,100.8,612.5,100.7,611.8,100.3z M615.8,99c0.5-0.3,0.8-0.6,1.1-1.1s0.4-1,0.4-1.6
		s-0.1-1.1-0.4-1.6c-0.3-0.5-0.6-0.8-1.1-1.1s-1-0.4-1.6-0.4s-1.1,0.1-1.6,0.4s-0.8,0.6-1.1,1.1s-0.4,1-0.4,1.6s0.1,1.1,0.4,1.6
		c0.3,0.5,0.6,0.8,1.1,1.1s1,0.4,1.6,0.4S615.3,99.3,615.8,99z"/>
	<path class="st2" d="M628.3,92.1v8.7H627l-4.8-5.9v5.9h-1.6v-8.7h1.3l4.8,5.9v-5.9H628.3z"/>
	<path class="st2" d="M640,96.3h1.5v3.4c-0.5,0.4-1,0.6-1.6,0.8s-1.2,0.3-1.8,0.3c-0.9,0-1.7-0.2-2.4-0.6c-0.7-0.4-1.3-0.9-1.7-1.6
		c-0.4-0.7-0.6-1.4-0.6-2.3c0-0.9,0.2-1.6,0.6-2.3s1-1.2,1.7-1.6c0.7-0.4,1.5-0.6,2.4-0.6c0.7,0,1.4,0.1,2,0.4
		c0.6,0.2,1.1,0.6,1.5,1.1l-1,1c-0.7-0.7-1.5-1-2.4-1c-0.6,0-1.2,0.1-1.6,0.4c-0.5,0.3-0.8,0.6-1.1,1.1c-0.3,0.5-0.4,1-0.4,1.6
		c0,0.6,0.1,1.1,0.4,1.6c0.3,0.5,0.6,0.8,1.1,1.1c0.5,0.3,1,0.4,1.6,0.4c0.7,0,1.3-0.1,1.8-0.4L640,96.3L640,96.3z"/>
	<path class="st2" d="M643.6,92.1h1.6v8.7h-1.6V92.1z"/>
	<path class="st2" d="M649.3,93.4h-2.9v-1.4h7.4v1.4h-2.9v7.3h-1.6L649.3,93.4L649.3,93.4z"/>
	<path class="st2" d="M664,98.7h-4.3l-0.8,2h-1.7l3.9-8.7h1.6l3.9,8.7h-1.7L664,98.7z M663.5,97.5l-1.6-3.8l-1.6,3.8H663.5z"/>
	<path class="st2" d="M675.4,92.1v8.7H674l-4.8-5.9v5.9h-1.6v-8.7h1.3l4.8,5.9v-5.9H675.4z"/>
	<path class="st2" d="M677.7,92.1h3.8c0.9,0,1.8,0.2,2.5,0.5c0.7,0.4,1.3,0.9,1.7,1.5c0.4,0.7,0.6,1.4,0.6,2.3s-0.2,1.6-0.6,2.3
		c-0.4,0.7-1,1.2-1.7,1.5s-1.5,0.5-2.5,0.5h-3.8V92.1z M681.4,99.4c0.6,0,1.2-0.1,1.7-0.4c0.5-0.2,0.8-0.6,1.1-1s0.4-1,0.4-1.6
		s-0.1-1.1-0.4-1.6c-0.3-0.4-0.6-0.8-1.1-1c-0.5-0.2-1-0.4-1.7-0.4h-2.1v5.9L681.4,99.4L681.4,99.4z"/>
	<path class="st2" d="M585.3,115.6l-1.8-2.5c-0.1,0-0.2,0-0.3,0h-2v2.5h-1.6v-8.7h3.6c0.8,0,1.4,0.1,2,0.4c0.6,0.2,1,0.6,1.3,1.1
		c0.3,0.5,0.5,1,0.5,1.6c0,0.6-0.2,1.2-0.5,1.7s-0.8,0.8-1.4,1l2,2.9L585.3,115.6L585.3,115.6z M584.7,108.7
		c-0.4-0.3-0.9-0.5-1.6-0.5h-1.9v3.5h1.9c0.7,0,1.2-0.1,1.6-0.5c0.4-0.3,0.5-0.7,0.5-1.3C585.3,109.4,585.1,109,584.7,108.7z"/>
	<path class="st2" d="M590.3,108.3h-2.9v-1.4h7.4v1.4H592v7.3h-1.6L590.3,108.3L590.3,108.3z"/>
	<path class="st2" d="M606.7,111.9c0.3,0.4,0.4,0.8,0.4,1.4c0,0.8-0.3,1.3-0.9,1.7s-1.4,0.6-2.5,0.6h-4.3v-8.7h4.1
		c1,0,1.8,0.2,2.4,0.6c0.5,0.4,0.8,1,0.8,1.6c0,0.4-0.1,0.8-0.3,1.1c-0.2,0.3-0.5,0.6-0.8,0.8C606.1,111.2,606.4,111.5,606.7,111.9z
		 M601,108.2v2.4h2.3c0.6,0,1-0.1,1.3-0.3s0.5-0.5,0.5-0.9c0-0.4-0.2-0.7-0.5-0.9c-0.3-0.2-0.7-0.3-1.3-0.3L601,108.2L601,108.2z
		 M605.5,113.1c0-0.8-0.6-1.2-1.9-1.2h-2.6v2.5h2.6C604.9,114.3,605.5,113.9,605.5,113.1z"/>
	<path class="st2" d="M614.5,113.6h-4.3l-0.8,2h-1.7l3.9-8.7h1.6l3.9,8.7h-1.7L614.5,113.6z M614,112.3l-1.6-3.8l-1.6,3.8H614z"/>
	<path class="st2" d="M623.8,115.6L622,113c-0.1,0-0.2,0-0.3,0h-2v2.5h-1.6v-8.7h3.6c0.8,0,1.4,0.1,2,0.4c0.6,0.2,1,0.6,1.3,1.1
		c0.3,0.5,0.5,1,0.5,1.6c0,0.6-0.2,1.2-0.5,1.7s-0.8,0.8-1.4,1l2,2.9L623.8,115.6L623.8,115.6z M623.2,108.7
		c-0.4-0.3-0.9-0.5-1.6-0.5h-1.9v3.5h1.9c0.7,0,1.2-0.1,1.6-0.5c0.4-0.3,0.5-0.7,0.5-1.3C623.8,109.4,623.6,109,623.2,108.7z"/>
	<path class="st2" d="M632.9,115.6l-1.8-2.5c-0.1,0-0.2,0-0.3,0h-2v2.5h-1.6v-8.7h3.6c0.8,0,1.4,0.1,2,0.4c0.6,0.2,1,0.6,1.3,1.1
		c0.3,0.5,0.4,1,0.4,1.6c0,0.6-0.2,1.2-0.5,1.7s-0.8,0.8-1.4,1l2,2.9L632.9,115.6L632.9,115.6z M632.3,108.7
		c-0.4-0.3-0.9-0.5-1.6-0.5h-1.9v3.5h1.9c0.7,0,1.2-0.1,1.6-0.5c0.4-0.3,0.5-0.7,0.5-1.3C632.8,109.4,632.6,109,632.3,108.7z"/>
	<path class="st2" d="M636.2,106.9h1.6v8.7h-1.6V106.9z"/>
	<path class="st2" d="M646.7,114.2v1.4h-6.5v-8.7h6.3v1.4h-4.7v2.2h4.2v1.3h-4.2v2.4L646.7,114.2L646.7,114.2z"/>
	<path class="st2" d="M654.2,115.6l-1.8-2.5c-0.1,0-0.2,0-0.3,0h-2v2.5h-1.6v-8.7h3.6c0.8,0,1.4,0.1,2,0.4c0.6,0.2,1,0.6,1.3,1.1
		c0.3,0.5,0.5,1,0.5,1.6c0,0.6-0.2,1.2-0.5,1.7s-0.8,0.8-1.4,1l2,2.9L654.2,115.6L654.2,115.6z M653.6,108.7
		c-0.4-0.3-0.9-0.5-1.6-0.5h-1.9v3.5h1.9c0.7,0,1.2-0.1,1.6-0.5c0.4-0.3,0.5-0.7,0.5-1.3S653.9,109,653.6,108.7z"/>
	<path class="st2" d="M658.3,115.4c-0.6-0.2-1.1-0.4-1.5-0.8l0.6-1.2c0.4,0.3,0.8,0.5,1.3,0.7s1,0.3,1.5,0.3c0.6,0,1.1-0.1,1.4-0.3
		s0.5-0.5,0.5-0.8c0-0.2-0.1-0.5-0.3-0.6c-0.2-0.2-0.4-0.3-0.7-0.4c-0.3-0.1-0.6-0.2-1.1-0.3c-0.7-0.2-1.2-0.3-1.6-0.5
		s-0.8-0.4-1-0.7c-0.3-0.3-0.4-0.8-0.4-1.4c0-0.5,0.1-0.9,0.4-1.3c0.3-0.4,0.7-0.7,1.2-0.9c0.5-0.2,1.2-0.4,1.9-0.4
		c0.5,0,1,0.1,1.6,0.2s1,0.3,1.3,0.6l-0.5,1.2c-0.4-0.2-0.8-0.4-1.2-0.5s-0.8-0.2-1.2-0.2c-0.6,0-1.1,0.1-1.4,0.3
		c-0.3,0.2-0.5,0.5-0.5,0.9c0,0.2,0.1,0.5,0.3,0.6c0.2,0.2,0.4,0.3,0.7,0.4c0.3,0.1,0.6,0.2,1.1,0.3c0.6,0.1,1.2,0.3,1.6,0.5
		c0.4,0.2,0.8,0.4,1.1,0.7s0.4,0.8,0.4,1.3c0,0.5-0.1,0.9-0.4,1.3c-0.3,0.4-0.7,0.7-1.2,0.9c-0.5,0.2-1.2,0.4-1.9,0.4
		C659.5,115.7,658.9,115.6,658.3,115.4z"/>
</g>
<g>
	<circle class="st2" cx="450.8" cy="504.6" r="66.1"/>
	<path class="st0" d="M450.8,571.6c-37,0-67-30.1-67-67.1s30.1-67.1,67-67.1s67.1,30.1,67.1,67.1S487.7,571.6,450.8,571.6z
		 M450.8,439.4c-36,0-65.2,29.2-65.2,65.2s29.2,65.2,65.2,65.2s65.2-29.2,65.2-65.2S486.7,439.4,450.8,439.4z"/>
</g>
<g>
	<circle class="st2" cx="783.2" cy="504.6" r="66.1"/>
	<path class="st0" d="M783.2,571.6c-37,0-67.1-30.1-67.1-67.1s30.1-67.1,67.1-67.1s67.1,30.1,67.1,67.1S820.2,571.6,783.2,571.6z
		 M783.2,439.4c-36,0-65.2,29.2-65.2,65.2s29.2,65.2,65.2,65.2s65.2-29.2,65.2-65.2S819.2,439.4,783.2,439.4z"/>
</g>
<g>
	<path class="st0" d="M449.5,468.9l-2.8,8.7h-3.1l-1.4-4.6l-1.5,4.6h-3.1l-2.8-8.7h3l1.5,4.9l1.6-4.9h2.7l1.5,5l1.6-5H449.5z"/>
	<path class="st0" d="M456.4,469.3c0.6,0.3,1,0.6,1.4,1.1c0.3,0.5,0.5,1.1,0.5,1.7s-0.2,1.2-0.5,1.7s-0.8,0.9-1.4,1.1
		c-0.6,0.3-1.3,0.4-2.1,0.4H453v2.1h-2.9v-8.7h4.2C455.1,468.9,455.8,469,456.4,469.3z M455,472.9c0.2-0.2,0.3-0.4,0.3-0.8
		s-0.1-0.6-0.3-0.8c-0.2-0.2-0.5-0.3-0.9-0.3H453v2h1.1C454.5,473.2,454.8,473.1,455,472.9z"/>
	<path class="st0" d="M466.2,473.8c0.2,0.3,0.3,0.7,0.3,1.2c0,0.5-0.2,1-0.5,1.5c-0.3,0.4-0.8,0.7-1.4,1s-1.3,0.3-2,0.3
		s-1.4-0.1-2-0.3c-0.6-0.2-1-0.5-1.4-1c-0.3-0.4-0.5-0.9-0.5-1.5c0-0.4,0.1-0.8,0.3-1.2c0.2-0.3,0.5-0.6,0.9-0.8
		c-0.6-0.5-0.9-1-0.9-1.7c0-0.5,0.1-1,0.5-1.4c0.3-0.4,0.7-0.7,1.3-0.9s1.2-0.3,1.9-0.3c0.7,0,1.3,0.1,1.9,0.3
		c0.5,0.2,1,0.5,1.3,0.9c0.3,0.4,0.5,0.8,0.5,1.4c0,0.7-0.3,1.3-0.9,1.7C465.8,473.2,466,473.5,466.2,473.8z M463.4,475.5
		c0.2-0.2,0.3-0.4,0.3-0.7c0-0.3-0.1-0.5-0.3-0.7c-0.2-0.2-0.4-0.2-0.7-0.2s-0.5,0.1-0.7,0.2s-0.3,0.4-0.3,0.7
		c0,0.3,0.1,0.5,0.3,0.7c0.2,0.2,0.4,0.2,0.7,0.2S463.2,475.7,463.4,475.5z M462.2,470.9c-0.1,0.1-0.2,0.3-0.2,0.5s0.1,0.4,0.2,0.5
		c0.1,0.1,0.3,0.2,0.5,0.2c0.2,0,0.4-0.1,0.5-0.2s0.2-0.3,0.2-0.5c0-0.2-0.1-0.4-0.2-0.5s-0.3-0.2-0.5-0.2
		C462.5,470.7,462.3,470.7,462.2,470.9z"/>
	<path class="st0" d="M406.6,498.6h3.6c0.9,0,1.7,0.2,2.4,0.5s1.3,0.9,1.6,1.5c0.4,0.7,0.6,1.4,0.6,2.3c0,0.8-0.2,1.6-0.6,2.3
		c-0.4,0.7-0.9,1.2-1.6,1.5c-0.7,0.4-1.5,0.5-2.4,0.5h-3.6V498.6z M410.2,506.2c0.7,0,1.3-0.1,1.9-0.4c0.5-0.3,0.9-0.7,1.2-1.2
		c0.3-0.5,0.4-1.1,0.4-1.7s-0.1-1.2-0.4-1.7c-0.3-0.5-0.7-0.9-1.2-1.2c-0.5-0.3-1.1-0.4-1.9-0.4h-2.3v6.5L410.2,506.2L410.2,506.2z"
		/>
	<path class="st0" d="M416.7,499.2c-0.1-0.2-0.2-0.3-0.2-0.5c0-0.2,0.1-0.4,0.2-0.5c0.1-0.2,0.3-0.2,0.6-0.2c0.2,0,0.4,0.1,0.6,0.2
		c0.1,0.2,0.2,0.3,0.2,0.5s-0.1,0.4-0.2,0.6c-0.1,0.2-0.4,0.2-0.6,0.2C417,499.4,416.8,499.4,416.7,499.2z M416.6,500.7h1.2v6.6
		h-1.2V500.7z"/>
	<path class="st0" d="M420.4,507.1c-0.5-0.1-0.9-0.3-1.2-0.5l0.5-0.9c0.3,0.2,0.6,0.4,1,0.5c0.4,0.1,0.8,0.2,1.2,0.2
		c1,0,1.6-0.3,1.6-0.9c0-0.2-0.1-0.3-0.2-0.5c-0.1-0.1-0.3-0.2-0.5-0.2s-0.5-0.1-0.9-0.2c-0.5-0.1-1-0.2-1.3-0.3
		c-0.3-0.1-0.6-0.3-0.9-0.5s-0.4-0.6-0.4-1.1c0-0.6,0.2-1.1,0.7-1.4c0.5-0.4,1.2-0.5,2-0.5c0.4,0,0.9,0,1.3,0.2s0.8,0.2,1.1,0.4
		l-0.5,0.9c-0.5-0.3-1.2-0.5-1.9-0.5c-0.5,0-0.9,0.1-1.1,0.2c-0.3,0.2-0.4,0.4-0.4,0.7c0,0.2,0.1,0.4,0.2,0.5
		c0.1,0.1,0.3,0.2,0.5,0.3c0.2,0.1,0.5,0.1,0.9,0.2c0.5,0.1,1,0.2,1.3,0.3c0.3,0.1,0.6,0.3,0.8,0.5c0.2,0.2,0.4,0.6,0.4,1
		c0,0.6-0.2,1.1-0.8,1.4s-1.2,0.5-2.1,0.5C421.5,507.3,420.9,507.3,420.4,507.1z"/>
	<path class="st0" d="M426.6,507.1c-0.5-0.1-0.9-0.3-1.2-0.5l0.5-0.9c0.3,0.2,0.6,0.4,1,0.5c0.4,0.1,0.8,0.2,1.2,0.2
		c1,0,1.6-0.3,1.6-0.9c0-0.2-0.1-0.3-0.2-0.5c-0.1-0.1-0.3-0.2-0.5-0.2s-0.5-0.1-0.9-0.2c-0.5-0.1-1-0.2-1.3-0.3
		c-0.3-0.1-0.6-0.3-0.9-0.5s-0.4-0.6-0.4-1.1c0-0.6,0.2-1.1,0.7-1.4c0.5-0.4,1.2-0.5,2-0.5c0.4,0,0.9,0,1.3,0.2s0.8,0.2,1.1,0.4
		l-0.5,0.9c-0.5-0.3-1.2-0.5-1.9-0.5c-0.5,0-0.9,0.1-1.1,0.2c-0.3,0.2-0.4,0.4-0.4,0.7c0,0.2,0.1,0.4,0.2,0.5
		c0.1,0.1,0.3,0.2,0.5,0.3c0.2,0.1,0.5,0.1,0.9,0.2c0.5,0.1,1,0.2,1.3,0.3c0.3,0.1,0.6,0.3,0.8,0.5c0.2,0.2,0.4,0.6,0.4,1
		c0,0.6-0.2,1.1-0.8,1.4s-1.2,0.5-2.1,0.5C427.6,507.3,427.1,507.3,426.6,507.1z"/>
	<path class="st0" d="M438.4,504.4h-5.3c0.1,0.6,0.3,1,0.8,1.4c0.4,0.3,1,0.5,1.6,0.5c0.8,0,1.4-0.3,1.9-0.8l0.7,0.8
		c-0.3,0.3-0.7,0.6-1.1,0.8c-0.4,0.2-0.9,0.3-1.5,0.3c-0.7,0-1.3-0.1-1.8-0.4c-0.5-0.3-1-0.7-1.2-1.2c-0.3-0.5-0.4-1.1-0.4-1.7
		c0-0.6,0.1-1.2,0.4-1.7c0.3-0.5,0.7-0.9,1.2-1.2c0.5-0.3,1.1-0.4,1.7-0.4s1.2,0.1,1.7,0.4c0.5,0.3,0.9,0.7,1.1,1.2
		c0.3,0.5,0.4,1.1,0.4,1.8C438.4,504.1,438.4,504.2,438.4,504.4z M433.8,502.2c-0.4,0.3-0.6,0.8-0.7,1.4h4.2c-0.1-0.5-0.3-1-0.7-1.4
		c-0.4-0.3-0.9-0.5-1.4-0.5C434.6,501.7,434.1,501.8,433.8,502.2z"/>
	<path class="st0" d="M450.3,501.4c0.5,0.5,0.7,1.2,0.7,2.1v3.8h-1.2v-3.6c0-0.6-0.1-1.1-0.4-1.4c-0.3-0.3-0.7-0.5-1.3-0.5
		c-0.6,0-1.1,0.2-1.4,0.6c-0.4,0.4-0.5,0.9-0.5,1.6v3.4h-1.2v-3.6c0-0.6-0.1-1.1-0.4-1.4c-0.3-0.3-0.7-0.5-1.3-0.5
		c-0.6,0-1.1,0.2-1.4,0.6c-0.4,0.4-0.5,0.9-0.5,1.6v3.4h-1.2v-6.6h1.1v1c0.2-0.3,0.5-0.6,0.9-0.8c0.4-0.2,0.8-0.3,1.3-0.3
		c0.5,0,1,0.1,1.4,0.3c0.4,0.2,0.7,0.5,0.9,0.9c0.2-0.4,0.6-0.7,1-0.9c0.4-0.2,0.9-0.3,1.5-0.3C449.1,500.6,449.8,500.9,450.3,501.4
		z"/>
	<path class="st0" d="M453.2,499.2c-0.1-0.2-0.2-0.3-0.2-0.5c0-0.2,0.1-0.4,0.2-0.5c0.1-0.2,0.3-0.2,0.6-0.2s0.4,0.1,0.6,0.2
		c0.1,0.2,0.2,0.3,0.2,0.5s-0.1,0.4-0.2,0.6c-0.1,0.2-0.4,0.2-0.6,0.2S453.4,499.4,453.2,499.2z M453.2,500.7h1.2v6.6h-1.2V500.7z"
		/>
	<path class="st0" d="M462.1,501.4c0.5,0.5,0.7,1.2,0.7,2.1v3.8h-1.2v-3.6c0-0.6-0.1-1.1-0.5-1.4c-0.3-0.3-0.7-0.5-1.3-0.5
		c-0.6,0-1.1,0.2-1.5,0.6c-0.4,0.4-0.6,0.9-0.6,1.6v3.4h-1.2v-6.6h1.1v1c0.2-0.3,0.6-0.6,1-0.8c0.4-0.2,0.9-0.3,1.4-0.3
		C461,500.6,461.6,500.9,462.1,501.4z"/>
	<path class="st0" d="M469.5,501.3c0.5,0.5,0.7,1.1,0.7,2v4h-1.1v-0.9c-0.2,0.3-0.5,0.5-0.9,0.7c-0.4,0.2-0.8,0.2-1.3,0.2
		c-0.7,0-1.3-0.2-1.8-0.5c-0.4-0.4-0.7-0.8-0.7-1.4s0.2-1,0.6-1.4s1.1-0.5,2-0.5h1.9v-0.2c0-0.5-0.1-0.9-0.5-1.2
		c-0.3-0.3-0.7-0.4-1.3-0.4c-0.4,0-0.8,0.1-1.1,0.2c-0.4,0.1-0.7,0.3-0.9,0.5l-0.5-0.9c0.3-0.3,0.7-0.5,1.2-0.6s1-0.2,1.5-0.2
		C468.4,500.6,469,500.9,469.5,501.3z M468.4,506.1c0.3-0.2,0.6-0.5,0.7-0.9v-0.9h-1.8c-1,0-1.5,0.3-1.5,1c0,0.3,0.1,0.6,0.4,0.8
		c0.3,0.2,0.6,0.3,1.1,0.3C467.6,506.4,468,506.3,468.4,506.1z"/>
	<path class="st0" d="M476.2,506.9c-0.2,0.2-0.4,0.3-0.6,0.3c-0.3,0.1-0.5,0.1-0.8,0.1c-0.7,0-1.2-0.2-1.5-0.5
		c-0.4-0.4-0.5-0.9-0.5-1.5v-3.6h-1.1v-1h1.1v-1.4h1.2v1.4h1.9v1h-1.9v3.5c0,0.4,0.1,0.6,0.3,0.8s0.4,0.3,0.8,0.3
		c0.4,0,0.7-0.1,0.9-0.3L476.2,506.9z"/>
	<path class="st0" d="M477.6,499.2c-0.1-0.2-0.2-0.3-0.2-0.5c0-0.2,0.1-0.4,0.2-0.5c0.1-0.2,0.3-0.2,0.6-0.2c0.2,0,0.4,0.1,0.6,0.2
		c0.1,0.2,0.2,0.3,0.2,0.5s-0.1,0.4-0.2,0.6c-0.1,0.2-0.4,0.2-0.6,0.2C478,499.4,477.8,499.4,477.6,499.2z M477.6,500.7h1.2v6.6
		h-1.2V500.7z"/>
	<path class="st0" d="M482.1,506.9c-0.5-0.3-0.9-0.7-1.2-1.2c-0.3-0.5-0.4-1.1-0.4-1.7c0-0.6,0.1-1.2,0.4-1.7s0.7-0.9,1.2-1.2
		s1.1-0.4,1.8-0.4c0.6,0,1.2,0.1,1.8,0.4c0.5,0.3,0.9,0.7,1.2,1.2c0.3,0.5,0.4,1.1,0.4,1.7c0,0.6-0.1,1.2-0.4,1.7s-0.7,0.9-1.2,1.2
		c-0.5,0.3-1.1,0.4-1.8,0.4C483.2,507.3,482.6,507.2,482.1,506.9z M485,506c0.3-0.2,0.6-0.5,0.8-0.8c0.2-0.3,0.3-0.8,0.3-1.2
		c0-0.5-0.1-0.9-0.3-1.2c-0.2-0.3-0.5-0.6-0.8-0.8c-0.3-0.2-0.7-0.3-1.1-0.3s-0.8,0.1-1.1,0.3c-0.3,0.2-0.6,0.5-0.8,0.8
		s-0.3,0.8-0.3,1.2c0,0.5,0.1,0.9,0.3,1.2c0.2,0.3,0.5,0.6,0.8,0.8c0.3,0.2,0.7,0.3,1.1,0.3S484.7,506.2,485,506z"/>
	<path class="st0" d="M494.4,501.4c0.5,0.5,0.7,1.2,0.7,2.1v3.8h-1.2v-3.6c0-0.6-0.1-1.1-0.5-1.4c-0.3-0.3-0.7-0.5-1.3-0.5
		c-0.6,0-1.1,0.2-1.5,0.6c-0.4,0.4-0.6,0.9-0.6,1.6v3.4h-1.2v-6.6h1.1v1c0.2-0.3,0.6-0.6,1-0.8c0.4-0.2,0.9-0.3,1.4-0.3
		C493.2,500.6,493.9,500.9,494.4,501.4z"/>
	<path class="st0" d="M402.4,521.7c-0.7-0.4-1.2-0.9-1.6-1.6c-0.4-0.7-0.6-1.4-0.6-2.3s0.2-1.6,0.6-2.3c0.4-0.7,1-1.2,1.6-1.6
		c0.7-0.4,1.5-0.6,2.4-0.6c0.7,0,1.3,0.1,1.9,0.3c0.6,0.2,1,0.6,1.4,1l-0.8,0.8c-0.6-0.7-1.5-1-2.4-1c-0.6,0-1.2,0.2-1.8,0.4
		s-0.9,0.7-1.2,1.2c-0.3,0.5-0.4,1.1-0.4,1.7s0.1,1.2,0.4,1.7s0.7,0.9,1.2,1.2s1.1,0.4,1.8,0.4c1,0,1.8-0.3,2.4-1l0.8,0.8
		c-0.4,0.5-0.9,0.8-1.4,1c-0.6,0.2-1.2,0.3-1.9,0.3C403.9,522.2,403.1,522,402.4,521.7z"/>
	<path class="st0" d="M410.4,521.8c-0.5-0.3-0.9-0.7-1.2-1.2c-0.3-0.5-0.4-1.1-0.4-1.7c0-0.6,0.1-1.2,0.4-1.7s0.7-0.9,1.2-1.2
		s1.1-0.4,1.8-0.4c0.6,0,1.2,0.1,1.8,0.4c0.5,0.3,0.9,0.7,1.2,1.2c0.3,0.5,0.4,1.1,0.4,1.7c0,0.6-0.1,1.2-0.4,1.7s-0.7,0.9-1.2,1.2
		c-0.5,0.3-1.1,0.4-1.8,0.4C411.5,522.2,411,522.1,410.4,521.8z M413.3,520.9c0.3-0.2,0.6-0.5,0.8-0.8c0.2-0.3,0.3-0.8,0.3-1.2
		c0-0.5-0.1-0.9-0.3-1.2c-0.2-0.3-0.5-0.6-0.8-0.8c-0.3-0.2-0.7-0.3-1.1-0.3s-0.8,0.1-1.1,0.3c-0.3,0.2-0.6,0.5-0.8,0.8
		s-0.3,0.8-0.3,1.2c0,0.5,0.1,0.9,0.3,1.2c0.2,0.3,0.5,0.6,0.8,0.8c0.3,0.2,0.7,0.3,1.1,0.3S413,521.1,413.3,520.9z"/>
	<path class="st0" d="M427.4,516.2c0.5,0.5,0.7,1.2,0.7,2.1v3.8H427v-3.6c0-0.6-0.1-1.1-0.4-1.4c-0.3-0.3-0.7-0.5-1.3-0.5
		c-0.6,0-1.1,0.2-1.4,0.6c-0.4,0.4-0.5,0.9-0.5,1.6v3.4h-1.2v-3.6c0-0.6-0.1-1.1-0.4-1.4c-0.3-0.3-0.7-0.5-1.3-0.5
		c-0.6,0-1.1,0.2-1.4,0.6c-0.4,0.4-0.5,0.9-0.5,1.6v3.4h-1.2v-6.6h1.1v1c0.2-0.3,0.5-0.6,0.9-0.8c0.4-0.2,0.8-0.3,1.3-0.3
		c0.5,0,1,0.1,1.4,0.3c0.4,0.2,0.7,0.5,0.9,0.9c0.2-0.4,0.6-0.7,1-0.9c0.4-0.2,0.9-0.3,1.5-0.3C426.3,515.5,426.9,515.7,427.4,516.2
		z"/>
	<path class="st0" d="M440.5,516.2c0.5,0.5,0.7,1.2,0.7,2.1v3.8H440v-3.6c0-0.6-0.1-1.1-0.4-1.4c-0.3-0.3-0.7-0.5-1.3-0.5
		c-0.6,0-1.1,0.2-1.4,0.6c-0.4,0.4-0.5,0.9-0.5,1.6v3.4h-1.2v-3.6c0-0.6-0.1-1.1-0.4-1.4c-0.3-0.3-0.7-0.5-1.3-0.5
		c-0.6,0-1.1,0.2-1.4,0.6c-0.4,0.4-0.5,0.9-0.5,1.6v3.4h-1.2v-6.6h1.1v1c0.2-0.3,0.5-0.6,0.9-0.8c0.4-0.2,0.8-0.3,1.3-0.3
		c0.5,0,1,0.1,1.4,0.3c0.4,0.2,0.7,0.5,0.9,0.9c0.2-0.4,0.6-0.7,1-0.9c0.4-0.2,0.9-0.3,1.5-0.3C439.4,515.5,440,515.7,440.5,516.2z"
		/>
	<path class="st0" d="M449.5,515.6v6.6h-1.1v-1c-0.2,0.3-0.6,0.6-1,0.8c-0.4,0.2-0.8,0.3-1.3,0.3c-0.9,0-1.6-0.2-2.1-0.7
		c-0.5-0.5-0.8-1.2-0.8-2.1v-3.8h1.2v3.6c0,0.6,0.1,1.1,0.5,1.4c0.3,0.3,0.7,0.5,1.3,0.5c0.6,0,1.1-0.2,1.5-0.6
		c0.4-0.4,0.5-0.9,0.5-1.6v-3.4H449.5z"/>
	<path class="st0" d="M457.3,516.2c0.5,0.5,0.7,1.2,0.7,2.1v3.8h-1.2v-3.6c0-0.6-0.1-1.1-0.5-1.4c-0.3-0.3-0.7-0.5-1.3-0.5
		c-0.6,0-1.1,0.2-1.5,0.6c-0.4,0.4-0.6,0.9-0.6,1.6v3.4h-1.2v-6.6h1.1v1c0.2-0.3,0.6-0.6,1-0.8c0.4-0.2,0.9-0.3,1.4-0.3
		C456.1,515.5,456.8,515.8,457.3,516.2z"/>
	<path class="st0" d="M460.3,514.1c-0.1-0.2-0.2-0.3-0.2-0.5c0-0.2,0.1-0.4,0.2-0.5c0.1-0.2,0.3-0.2,0.6-0.2s0.4,0.1,0.6,0.2
		c0.1,0.2,0.2,0.3,0.2,0.5s-0.1,0.4-0.2,0.6c-0.1,0.2-0.4,0.2-0.6,0.2S460.4,514.2,460.3,514.1z M460.2,515.6h1.2v6.6h-1.2V515.6z"
		/>
	<path class="st0" d="M464.8,521.8c-0.5-0.3-0.9-0.7-1.2-1.2c-0.3-0.5-0.5-1.1-0.5-1.7c0-0.6,0.1-1.2,0.5-1.7
		c0.3-0.5,0.7-0.9,1.2-1.2c0.5-0.3,1.1-0.4,1.8-0.4c0.6,0,1.1,0.1,1.6,0.4s0.8,0.6,1.1,1l-0.9,0.6c-0.2-0.3-0.5-0.5-0.8-0.7
		c-0.3-0.2-0.6-0.2-1-0.2c-0.4,0-0.8,0.1-1.2,0.3s-0.6,0.5-0.8,0.8c-0.2,0.3-0.3,0.8-0.3,1.2s0.1,0.9,0.3,1.2s0.5,0.6,0.8,0.8
		c0.3,0.2,0.7,0.3,1.2,0.3c0.4,0,0.7-0.1,1-0.2c0.3-0.2,0.6-0.4,0.8-0.7l0.9,0.6c-0.3,0.5-0.6,0.8-1.1,1c-0.5,0.2-1,0.4-1.6,0.4
		C465.9,522.2,465.3,522.1,464.8,521.8z"/>
	<path class="st0" d="M475.2,516.2c0.5,0.5,0.7,1.1,0.7,2v4h-1.1v-0.9c-0.2,0.3-0.5,0.5-0.9,0.7c-0.4,0.2-0.8,0.2-1.3,0.2
		c-0.7,0-1.3-0.2-1.8-0.5c-0.4-0.4-0.7-0.8-0.7-1.4s0.2-1,0.6-1.4c0.4-0.3,1.1-0.5,2-0.5h1.9v-0.2c0-0.5-0.1-0.9-0.5-1.2
		c-0.3-0.3-0.7-0.4-1.3-0.4c-0.4,0-0.8,0.1-1.1,0.2c-0.4,0.1-0.7,0.3-0.9,0.5l-0.5-0.9c0.3-0.3,0.7-0.5,1.2-0.6s1-0.2,1.5-0.2
		C474.1,515.5,474.8,515.7,475.2,516.2z M474.1,521c0.3-0.2,0.6-0.5,0.7-0.9v-0.9H473c-1,0-1.5,0.3-1.5,1c0,0.3,0.1,0.6,0.4,0.8
		c0.3,0.2,0.6,0.3,1.1,0.3C473.3,521.3,473.7,521.2,474.1,521z"/>
	<path class="st0" d="M481.9,521.7c-0.2,0.2-0.4,0.3-0.6,0.3c-0.3,0.1-0.5,0.1-0.8,0.1c-0.7,0-1.2-0.2-1.5-0.5
		c-0.4-0.4-0.5-0.9-0.5-1.5v-3.6h-1.1v-1h1.1v-1.4h1.2v1.4h1.9v1h-1.9v3.5c0,0.4,0.1,0.6,0.3,0.8s0.4,0.3,0.8,0.3
		c0.4,0,0.7-0.1,0.9-0.3L481.9,521.7z"/>
	<path class="st0" d="M483.3,514.1c-0.1-0.2-0.2-0.3-0.2-0.5c0-0.2,0.1-0.4,0.2-0.5c0.1-0.2,0.3-0.2,0.6-0.2s0.4,0.1,0.6,0.2
		c0.1,0.2,0.2,0.3,0.2,0.5s-0.1,0.4-0.2,0.6c-0.1,0.2-0.4,0.2-0.6,0.2S483.5,514.2,483.3,514.1z M483.3,515.6h1.2v6.6h-1.2V515.6z"
		/>
	<path class="st0" d="M487.8,521.8c-0.5-0.3-0.9-0.7-1.2-1.2c-0.3-0.5-0.4-1.1-0.4-1.7c0-0.6,0.1-1.2,0.4-1.7s0.7-0.9,1.2-1.2
		s1.1-0.4,1.8-0.4c0.6,0,1.2,0.1,1.8,0.4c0.5,0.3,0.9,0.7,1.2,1.2c0.3,0.5,0.4,1.1,0.4,1.7c0,0.6-0.1,1.2-0.4,1.7s-0.7,0.9-1.2,1.2
		c-0.5,0.3-1.1,0.4-1.8,0.4C488.9,522.2,488.3,522.1,487.8,521.8z M490.7,520.9c0.3-0.2,0.6-0.5,0.8-0.8c0.2-0.3,0.3-0.8,0.3-1.2
		c0-0.5-0.1-0.9-0.3-1.2c-0.2-0.3-0.5-0.6-0.8-0.8c-0.3-0.2-0.7-0.3-1.1-0.3s-0.8,0.1-1.1,0.3c-0.3,0.2-0.6,0.5-0.8,0.8
		s-0.3,0.8-0.3,1.2c0,0.5,0.1,0.9,0.3,1.2c0.2,0.3,0.5,0.6,0.8,0.8c0.3,0.2,0.7,0.3,1.1,0.3S490.4,521.1,490.7,520.9z"/>
	<path class="st0" d="M500.1,516.2c0.5,0.5,0.7,1.2,0.7,2.1v3.8h-1.2v-3.6c0-0.6-0.1-1.1-0.5-1.4c-0.3-0.3-0.7-0.5-1.3-0.5
		c-0.6,0-1.1,0.2-1.5,0.6c-0.4,0.4-0.6,0.9-0.6,1.6v3.4h-1.2v-6.6h1.1v1c0.2-0.3,0.6-0.6,1-0.8c0.4-0.2,0.9-0.3,1.4-0.3
		C499,515.5,499.6,515.8,500.1,516.2z"/>
	<path class="st0" d="M420.5,535.9v1.1h-6.3v-8.7h6.1v1.1h-4.9v2.7h4.4v1h-4.4v2.8H420.5z"/>
	<path class="st0" d="M426.4,537l-1.9-2.5l-1.9,2.5h-1.3l2.6-3.4l-2.5-3.2h1.3l1.8,2.4l1.8-2.4h1.3l-2.5,3.2l2.6,3.4H426.4z"/>
	<path class="st0" d="M434.2,530.8c0.5,0.3,0.9,0.7,1.2,1.2c0.3,0.5,0.4,1.1,0.4,1.8s-0.1,1.2-0.4,1.8c-0.3,0.5-0.7,0.9-1.2,1.2
		c-0.5,0.3-1.1,0.4-1.7,0.4c-0.5,0-0.9-0.1-1.3-0.3s-0.7-0.5-1-0.8v3.4h-1.2v-9h1.1v1c0.3-0.4,0.6-0.6,1-0.8
		c0.4-0.2,0.9-0.3,1.3-0.3C433.2,530.4,433.7,530.5,434.2,530.8z M433.6,535.7c0.3-0.2,0.6-0.5,0.8-0.8c0.2-0.3,0.3-0.8,0.3-1.2
		c0-0.5-0.1-0.9-0.3-1.2c-0.2-0.3-0.5-0.6-0.8-0.8c-0.3-0.2-0.7-0.3-1.1-0.3c-0.4,0-0.8,0.1-1.1,0.3s-0.6,0.5-0.8,0.8
		s-0.3,0.8-0.3,1.2s0.1,0.9,0.3,1.2c0.2,0.3,0.5,0.6,0.8,0.8c0.3,0.2,0.7,0.3,1.1,0.3C432.9,536,433.2,535.9,433.6,535.7z"/>
	<path class="st0" d="M437.5,527.8h1.2v9.2h-1.2V527.8z"/>
	<path class="st0" d="M442,536.6c-0.5-0.3-0.9-0.7-1.2-1.2c-0.3-0.5-0.4-1.1-0.4-1.7c0-0.6,0.1-1.2,0.4-1.7s0.7-0.9,1.2-1.2
		s1.1-0.4,1.8-0.4c0.6,0,1.2,0.1,1.8,0.4c0.5,0.3,0.9,0.7,1.2,1.2c0.3,0.5,0.4,1.1,0.4,1.7c0,0.6-0.1,1.2-0.4,1.7s-0.7,0.9-1.2,1.2
		c-0.5,0.3-1.1,0.4-1.8,0.4C443.1,537.1,442.5,536.9,442,536.6z M444.9,535.7c0.3-0.2,0.6-0.5,0.8-0.8c0.2-0.3,0.3-0.8,0.3-1.2
		c0-0.5-0.1-0.9-0.3-1.2c-0.2-0.3-0.5-0.6-0.8-0.8c-0.3-0.2-0.7-0.3-1.1-0.3s-0.8,0.1-1.1,0.3c-0.3,0.2-0.6,0.5-0.8,0.8
		s-0.3,0.8-0.3,1.2c0,0.5,0.1,0.9,0.3,1.2c0.2,0.3,0.5,0.6,0.8,0.8c0.3,0.2,0.7,0.3,1.1,0.3S444.6,535.9,444.9,535.7z"/>
	<path class="st0" d="M448.8,528.9c-0.1-0.2-0.2-0.3-0.2-0.5c0-0.2,0.1-0.4,0.2-0.5c0.1-0.2,0.3-0.2,0.6-0.2s0.4,0.1,0.6,0.2
		c0.1,0.2,0.2,0.3,0.2,0.5s-0.1,0.4-0.2,0.6c-0.1,0.2-0.4,0.2-0.6,0.2S449,529.1,448.8,528.9z M448.8,530.4h1.2v6.6h-1.2V530.4z"/>
	<path class="st0" d="M456,536.6c-0.2,0.2-0.4,0.3-0.6,0.3c-0.3,0.1-0.5,0.1-0.8,0.1c-0.7,0-1.2-0.2-1.5-0.5
		c-0.4-0.4-0.5-0.9-0.5-1.5v-3.6h-1.1v-1h1.1V529h1.2v1.4h1.9v1h-1.9v3.5c0,0.4,0.1,0.6,0.3,0.8s0.4,0.3,0.8,0.3
		c0.4,0,0.7-0.1,0.9-0.3L456,536.6z"/>
	<path class="st0" d="M461.9,531c0.5,0.5,0.7,1.1,0.7,2v4h-1.1v-0.9c-0.2,0.3-0.5,0.5-0.9,0.7c-0.4,0.2-0.8,0.2-1.3,0.2
		c-0.7,0-1.3-0.2-1.8-0.5c-0.4-0.4-0.7-0.8-0.7-1.4s0.2-1,0.6-1.4c0.4-0.3,1.1-0.5,2-0.5h1.9V533c0-0.5-0.1-0.9-0.5-1.2
		c-0.3-0.3-0.7-0.4-1.3-0.4c-0.4,0-0.8,0.1-1.1,0.2c-0.4,0.1-0.7,0.3-0.9,0.5l-0.5-0.9c0.3-0.3,0.7-0.5,1.2-0.6s1-0.2,1.5-0.2
		C460.7,530.4,461.4,530.6,461.9,531z M460.7,535.8c0.3-0.2,0.6-0.5,0.7-0.9v-0.9h-1.8c-1,0-1.5,0.3-1.5,1c0,0.3,0.1,0.6,0.4,0.8
		c0.3,0.2,0.6,0.3,1.1,0.3C460,536.1,460.4,536,460.7,535.8z"/>
	<path class="st0" d="M468.5,536.6c-0.2,0.2-0.4,0.3-0.6,0.3c-0.3,0.1-0.5,0.1-0.8,0.1c-0.7,0-1.2-0.2-1.5-0.5
		c-0.4-0.4-0.5-0.9-0.5-1.5v-3.6h-1.1v-1h1.1V529h1.2v1.4h1.9v1h-1.9v3.5c0,0.4,0.1,0.6,0.3,0.8s0.4,0.3,0.8,0.3
		c0.4,0,0.7-0.1,0.9-0.3L468.5,536.6z"/>
	<path class="st0" d="M470,528.9c-0.1-0.2-0.2-0.3-0.2-0.5c0-0.2,0.1-0.4,0.2-0.5c0.1-0.2,0.3-0.2,0.6-0.2s0.4,0.1,0.6,0.2
		c0.1,0.2,0.2,0.3,0.2,0.5s-0.1,0.4-0.2,0.6c-0.1,0.2-0.4,0.2-0.6,0.2S470.1,529.1,470,528.9z M469.9,530.4h1.2v6.6h-1.2V530.4z"/>
	<path class="st0" d="M474.4,536.6c-0.5-0.3-0.9-0.7-1.2-1.2c-0.3-0.5-0.4-1.1-0.4-1.7c0-0.6,0.1-1.2,0.4-1.7s0.7-0.9,1.2-1.2
		s1.1-0.4,1.8-0.4c0.6,0,1.2,0.1,1.8,0.4c0.5,0.3,0.9,0.7,1.2,1.2c0.3,0.5,0.4,1.1,0.4,1.7c0,0.6-0.1,1.2-0.4,1.7s-0.7,0.9-1.2,1.2
		c-0.5,0.3-1.1,0.4-1.8,0.4C475.5,537.1,475,536.9,474.4,536.6z M477.3,535.7c0.3-0.2,0.6-0.5,0.8-0.8c0.2-0.3,0.3-0.8,0.3-1.2
		c0-0.5-0.1-0.9-0.3-1.2c-0.2-0.3-0.5-0.6-0.8-0.8c-0.3-0.2-0.7-0.3-1.1-0.3s-0.8,0.1-1.1,0.3c-0.3,0.2-0.6,0.5-0.8,0.8
		s-0.3,0.8-0.3,1.2c0,0.5,0.1,0.9,0.3,1.2c0.2,0.3,0.5,0.6,0.8,0.8c0.3,0.2,0.7,0.3,1.1,0.3S477,535.9,477.3,535.7z"/>
	<path class="st0" d="M486.7,531.1c0.5,0.5,0.7,1.2,0.7,2.1v3.8h-1.2v-3.6c0-0.6-0.1-1.1-0.5-1.4c-0.3-0.3-0.7-0.5-1.3-0.5
		c-0.6,0-1.1,0.2-1.5,0.6c-0.4,0.4-0.6,0.9-0.6,1.6v3.4h-1.2v-6.6h1.1v1c0.2-0.3,0.6-0.6,1-0.8c0.4-0.2,0.9-0.3,1.4-0.3
		C485.6,530.4,486.2,530.6,486.7,531.1z"/>
</g>
<g>
	<circle class="st2" cx="618.1" cy="504.6" r="66.1"/>
	<path class="st0" d="M618.1,571.6c-37,0-67.1-30.1-67.1-67.1s30.1-67.1,67.1-67.1s67,30.1,67,67.1S655.1,571.6,618.1,571.6z
		 M618.1,439.4c-36,0-65.2,29.2-65.2,65.2s29.2,65.2,65.2,65.2s65.2-29.2,65.2-65.2S654.1,439.4,618.1,439.4z"/>
</g>
<g>
	<path class="st0" d="M616.4,483.4l-2.8,8.7h-3.1l-1.4-4.6l-1.5,4.6h-3.1l-2.8-8.7h3l1.5,4.9l1.6-4.9h2.7l1.5,5l1.6-5H616.4z"/>
	<path class="st0" d="M623.3,483.8c0.6,0.3,1,0.6,1.4,1.1c0.3,0.5,0.5,1.1,0.5,1.7s-0.2,1.2-0.5,1.7s-0.8,0.9-1.4,1.1
		c-0.6,0.3-1.3,0.4-2.1,0.4h-1.2v2.1H617v-8.7h4.2C622,483.4,622.7,483.6,623.3,483.8z M621.9,487.4c0.2-0.2,0.3-0.4,0.3-0.8
		s-0.1-0.6-0.3-0.8s-0.5-0.3-0.9-0.3h-1.1v2h1.1C621.4,487.7,621.7,487.6,621.9,487.4z"/>
	<path class="st0" d="M631.4,483.7c0.6,0.3,1.1,0.8,1.5,1.4c0.3,0.6,0.5,1.4,0.5,2.3c0,1-0.2,1.8-0.6,2.6c-0.4,0.7-1,1.3-1.7,1.7
		c-0.7,0.4-1.6,0.6-2.5,0.6c-0.5,0-1-0.1-1.5-0.2s-0.9-0.3-1.2-0.5l1-2c0.4,0.3,1,0.5,1.6,0.5c0.5,0,0.9-0.1,1.2-0.4
		c0.3-0.2,0.5-0.6,0.6-1.1c-0.5,0.3-1,0.5-1.7,0.5c-0.5,0-1-0.1-1.5-0.3c-0.5-0.2-0.8-0.6-1.1-1s-0.4-0.9-0.4-1.5
		c0-0.6,0.2-1.1,0.5-1.6c0.3-0.5,0.7-0.8,1.3-1.1c0.5-0.2,1.1-0.4,1.8-0.4C630,483.2,630.7,483.4,631.4,483.7z M630,486.8
		c0.2-0.2,0.2-0.4,0.2-0.7s-0.1-0.5-0.2-0.6c-0.2-0.2-0.4-0.2-0.6-0.2s-0.5,0.1-0.6,0.2c-0.2,0.2-0.2,0.4-0.2,0.6s0.1,0.5,0.2,0.7
		c0.2,0.2,0.4,0.2,0.6,0.2S629.8,486.9,630,486.8z"/>
	<path class="st0" d="M584.2,521.8l0-6.3l-3.1,5.3h-0.6l-3.1-5.2v6.3h-1.2v-8.7h1l3.6,6.1l3.6-6.1h1l0,8.7L584.2,521.8L584.2,521.8z
		"/>
	<path class="st0" d="M592.3,515.8c0.5,0.5,0.7,1.1,0.7,2v4h-1.1v-0.9c-0.2,0.3-0.5,0.5-0.8,0.7c-0.4,0.2-0.8,0.2-1.3,0.2
		c-0.7,0-1.3-0.2-1.8-0.5c-0.4-0.4-0.7-0.8-0.7-1.4s0.2-1,0.6-1.4c0.4-0.3,1.1-0.5,2-0.5h1.9v-0.2c0-0.5-0.2-0.9-0.5-1.2
		c-0.3-0.3-0.7-0.4-1.3-0.4c-0.4,0-0.8,0.1-1.1,0.2s-0.7,0.3-0.9,0.5l-0.5-0.9c0.3-0.3,0.7-0.5,1.2-0.6c0.5-0.2,1-0.2,1.5-0.2
		C591.1,515.2,591.8,515.4,592.3,515.8z M591.1,520.7c0.3-0.2,0.6-0.5,0.7-0.9v-0.9H590c-1,0-1.5,0.3-1.5,1c0,0.3,0.1,0.6,0.4,0.8
		c0.3,0.2,0.6,0.3,1.1,0.3C590.4,521,590.8,520.9,591.1,520.7z"/>
	<path class="st0" d="M600.7,515.9c0.5,0.5,0.7,1.2,0.7,2.1v3.8h-1.2v-3.6c0-0.6-0.2-1.1-0.5-1.4c-0.3-0.3-0.7-0.5-1.3-0.5
		c-0.6,0-1.2,0.2-1.5,0.6c-0.4,0.4-0.6,0.9-0.6,1.6v3.4h-1.2v-6.6h1.1v1c0.2-0.3,0.6-0.6,1-0.8c0.4-0.2,0.9-0.3,1.4-0.3
		C599.6,515.2,600.2,515.4,600.7,515.9z"/>
	<path class="st0" d="M608.2,515.8c0.5,0.5,0.7,1.1,0.7,2v4h-1.1v-0.9c-0.2,0.3-0.5,0.5-0.8,0.7c-0.4,0.2-0.8,0.2-1.3,0.2
		c-0.7,0-1.3-0.2-1.8-0.5c-0.4-0.4-0.7-0.8-0.7-1.4s0.2-1,0.6-1.4c0.4-0.3,1.1-0.5,2-0.5h1.9v-0.2c0-0.5-0.2-0.9-0.5-1.2
		c-0.3-0.3-0.7-0.4-1.3-0.4c-0.4,0-0.8,0.1-1.1,0.2s-0.7,0.3-0.9,0.5l-0.5-0.9c0.3-0.3,0.7-0.5,1.2-0.6c0.5-0.2,1-0.2,1.5-0.2
		C607,515.2,607.7,515.4,608.2,515.8z M607,520.7c0.3-0.2,0.6-0.5,0.7-0.9v-0.9h-1.8c-1,0-1.5,0.3-1.5,1c0,0.3,0.1,0.6,0.4,0.8
		c0.3,0.2,0.6,0.3,1.1,0.3C606.2,521,606.6,520.9,607,520.7z"/>
	<path class="st0" d="M617.4,515.2v5.7c0,1.2-0.3,2-0.8,2.5c-0.6,0.5-1.4,0.8-2.5,0.8c-0.6,0-1.2-0.1-1.8-0.2s-1-0.4-1.4-0.7
		l0.6-0.9c0.3,0.3,0.7,0.5,1.1,0.6c0.5,0.2,0.9,0.2,1.4,0.2c0.8,0,1.3-0.2,1.7-0.5c0.4-0.4,0.5-0.9,0.5-1.7v-0.5
		c-0.3,0.3-0.6,0.6-1,0.8c-0.4,0.2-0.8,0.2-1.3,0.2c-0.6,0-1.2-0.1-1.7-0.4c-0.5-0.3-0.9-0.6-1.2-1.1c-0.3-0.5-0.4-1-0.4-1.7
		s0.1-1.2,0.4-1.7c0.3-0.5,0.7-0.9,1.2-1.1s1.1-0.4,1.7-0.4c0.5,0,1,0.1,1.4,0.3c0.4,0.2,0.8,0.5,1,0.8v-1L617.4,515.2L617.4,515.2z
		 M615.1,520.2c0.3-0.2,0.6-0.4,0.8-0.8c0.2-0.3,0.3-0.7,0.3-1.1c0-0.6-0.2-1.2-0.6-1.5c-0.4-0.4-1-0.6-1.6-0.6
		c-0.7,0-1.2,0.2-1.6,0.6s-0.6,0.9-0.6,1.5c0,0.4,0.1,0.8,0.3,1.1c0.2,0.3,0.5,0.6,0.8,0.8c0.3,0.2,0.7,0.3,1.2,0.3
		C614.4,520.5,614.8,520.4,615.1,520.2z"/>
	<path class="st0" d="M625.6,518.9h-5.3c0.1,0.6,0.3,1,0.8,1.4c0.4,0.3,1,0.5,1.6,0.5c0.8,0,1.4-0.3,1.9-0.8l0.7,0.8
		c-0.3,0.3-0.7,0.6-1.1,0.8s-0.9,0.3-1.5,0.3c-0.7,0-1.3-0.1-1.8-0.4c-0.5-0.3-1-0.7-1.2-1.2s-0.4-1.1-0.4-1.7
		c0-0.6,0.1-1.2,0.4-1.7c0.3-0.5,0.7-0.9,1.2-1.2c0.5-0.3,1.1-0.4,1.7-0.4s1.2,0.1,1.7,0.4c0.5,0.3,0.9,0.7,1.2,1.2
		c0.3,0.5,0.4,1.1,0.4,1.8C625.6,518.7,625.6,518.8,625.6,518.9z M620.9,516.7c-0.4,0.3-0.6,0.8-0.7,1.4h4.2c-0.1-0.5-0.3-1-0.7-1.4
		c-0.4-0.3-0.9-0.5-1.4-0.5S621.3,516.4,620.9,516.7z"/>
	<path class="st0" d="M637.4,515.9c0.5,0.5,0.7,1.2,0.7,2.1v3.8h-1.2v-3.6c0-0.6-0.2-1.1-0.4-1.4c-0.3-0.3-0.7-0.5-1.3-0.5
		c-0.6,0-1.1,0.2-1.4,0.6c-0.3,0.4-0.5,0.9-0.5,1.6v3.4h-1.2v-3.6c0-0.6-0.2-1.1-0.4-1.4c-0.3-0.3-0.7-0.5-1.3-0.5
		c-0.6,0-1.1,0.2-1.4,0.6c-0.3,0.4-0.5,0.9-0.5,1.6v3.4h-1.2v-6.6h1.1v1c0.2-0.3,0.5-0.6,0.9-0.8c0.4-0.2,0.8-0.3,1.3-0.3
		c0.5,0,1,0.1,1.4,0.3c0.4,0.2,0.7,0.5,0.9,0.9c0.2-0.4,0.6-0.7,1-0.9c0.4-0.2,0.9-0.3,1.5-0.3C636.3,515.2,636.9,515.4,637.4,515.9
		z"/>
	<path class="st0" d="M646.3,518.9H641c0.1,0.6,0.3,1,0.8,1.4c0.4,0.3,1,0.5,1.6,0.5c0.8,0,1.4-0.3,1.9-0.8l0.7,0.8
		c-0.3,0.3-0.7,0.6-1.1,0.8s-0.9,0.3-1.5,0.3c-0.7,0-1.3-0.1-1.8-0.4c-0.5-0.3-1-0.7-1.2-1.2s-0.4-1.1-0.4-1.7
		c0-0.6,0.1-1.2,0.4-1.7c0.3-0.5,0.7-0.9,1.2-1.2c0.5-0.3,1.1-0.4,1.7-0.4s1.2,0.1,1.7,0.4c0.5,0.3,0.9,0.7,1.2,1.2
		c0.3,0.5,0.4,1.1,0.4,1.8C646.3,518.7,646.3,518.8,646.3,518.9z M641.6,516.7c-0.4,0.3-0.6,0.8-0.7,1.4h4.2c-0.1-0.5-0.3-1-0.7-1.4
		c-0.4-0.3-0.9-0.5-1.4-0.5C642.5,516.2,642,516.4,641.6,516.7z"/>
	<path class="st0" d="M653.4,515.9c0.5,0.5,0.7,1.2,0.7,2.1v3.8H653v-3.6c0-0.6-0.2-1.1-0.5-1.4c-0.3-0.3-0.7-0.5-1.3-0.5
		c-0.6,0-1.2,0.2-1.5,0.6c-0.4,0.4-0.6,0.9-0.6,1.6v3.4h-1.2v-6.6h1.1v1c0.2-0.3,0.6-0.6,1-0.8c0.4-0.2,0.9-0.3,1.4-0.3
		C652.3,515.2,652.9,515.4,653.4,515.9z"/>
	<path class="st0" d="M660.1,521.4c-0.2,0.2-0.4,0.3-0.6,0.3c-0.3,0.1-0.5,0.1-0.8,0.1c-0.7,0-1.2-0.2-1.5-0.5
		c-0.4-0.4-0.5-0.9-0.5-1.5v-3.6h-1.1v-1h1.1v-1.4h1.2v1.4h1.9v1h-1.9v3.5c0,0.4,0.1,0.6,0.3,0.8s0.4,0.3,0.8,0.3
		c0.4,0,0.7-0.1,0.9-0.3L660.1,521.4z"/>
</g>
<g>
	<path class="st0" d="M779.2,483.4l-2.8,8.7h-3.1l-1.4-4.6l-1.5,4.6h-3.1l-2.8-8.7h3l1.5,4.9l1.6-4.9h2.7l1.5,5l1.6-5H779.2z"/>
	<path class="st0" d="M786.1,483.8c0.6,0.3,1,0.6,1.4,1.1c0.3,0.5,0.5,1.1,0.5,1.7s-0.2,1.2-0.5,1.7s-0.8,0.9-1.4,1.1
		c-0.6,0.3-1.3,0.4-2.1,0.4h-1.2v2.1h-2.9v-8.7h4.2C784.8,483.4,785.5,483.6,786.1,483.8z M784.7,487.4c0.2-0.2,0.3-0.4,0.3-0.8
		s-0.1-0.6-0.3-0.8s-0.5-0.3-0.9-0.3h-1.1v2h1.1C784.2,487.7,784.5,487.6,784.7,487.4z"/>
	<path class="st0" d="M792.8,483.4v8.7h-2.9v-6.5h-1.5v-2.2L792.8,483.4L792.8,483.4z"/>
	<path class="st0" d="M795.7,491.7c-0.6-0.4-1-0.9-1.4-1.6c-0.3-0.7-0.5-1.5-0.5-2.4s0.2-1.8,0.5-2.4s0.8-1.2,1.4-1.6s1.3-0.5,2-0.5
		c0.8,0,1.5,0.2,2,0.5c0.6,0.4,1,0.9,1.4,1.6c0.3,0.7,0.5,1.5,0.5,2.4s-0.2,1.8-0.5,2.4s-0.8,1.2-1.4,1.6s-1.3,0.5-2,0.5
		C797,492.3,796.3,492.1,795.7,491.7z M798.8,487.8c0-1.5-0.3-2.2-1-2.2s-1,0.7-1,2.2s0.3,2.2,1,2.2S798.8,489.2,798.8,487.8z"/>
	<path class="st0" d="M771.6,520.7v1.1h-6.3v-8.7h6.1v1.1h-4.9v2.7h4.3v1h-4.3v2.8H771.6z"/>
	<path class="st0" d="M777,521.4c-0.2,0.2-0.4,0.3-0.6,0.3c-0.3,0.1-0.5,0.1-0.8,0.1c-0.7,0-1.2-0.2-1.5-0.5
		c-0.4-0.4-0.5-0.9-0.5-1.5v-3.6h-1.1v-1h1.1v-1.4h1.2v1.4h1.9v1h-1.9v3.5c0,0.4,0.1,0.6,0.3,0.8s0.4,0.3,0.8,0.3
		c0.4,0,0.7-0.1,0.9-0.3L777,521.4z"/>
	<path class="st0" d="M783.9,515.9c0.5,0.5,0.7,1.2,0.7,2.1v3.8h-1.2v-3.6c0-0.6-0.2-1.1-0.5-1.4c-0.3-0.3-0.7-0.5-1.3-0.5
		c-0.6,0-1.2,0.2-1.5,0.6c-0.4,0.4-0.6,0.9-0.6,1.6v3.4h-1.2v-9.2h1.2v3.5c0.2-0.3,0.6-0.6,1-0.7c0.4-0.2,0.8-0.3,1.3-0.3
		C782.7,515.2,783.4,515.4,783.9,515.9z"/>
	<path class="st0" d="M786.8,513.8c-0.2-0.2-0.2-0.3-0.2-0.5c0-0.2,0.1-0.4,0.2-0.5c0.2-0.2,0.3-0.2,0.6-0.2s0.4,0.1,0.6,0.2
		c0.2,0.2,0.2,0.3,0.2,0.5s-0.1,0.4-0.2,0.6c-0.2,0.2-0.3,0.2-0.6,0.2S787,513.9,786.8,513.8z M786.8,515.2h1.2v6.6h-1.2V515.2z"/>
	<path class="st0" d="M791.4,521.4c-0.5-0.3-0.9-0.7-1.2-1.2c-0.3-0.5-0.5-1.1-0.5-1.7c0-0.6,0.2-1.2,0.5-1.7s0.7-0.9,1.2-1.2
		c0.5-0.3,1.1-0.4,1.8-0.4c0.6,0,1.1,0.1,1.6,0.4s0.8,0.6,1.1,1l-0.9,0.6c-0.2-0.3-0.5-0.5-0.8-0.7c-0.3-0.2-0.6-0.2-1-0.2
		c-0.4,0-0.8,0.1-1.2,0.3c-0.3,0.2-0.6,0.5-0.8,0.8c-0.2,0.3-0.3,0.8-0.3,1.2s0.1,0.9,0.3,1.2s0.5,0.6,0.8,0.8
		c0.3,0.2,0.7,0.3,1.2,0.3c0.4,0,0.7-0.1,1-0.2c0.3-0.2,0.6-0.4,0.8-0.7l0.9,0.6c-0.3,0.5-0.6,0.8-1.1,1c-0.5,0.2-1,0.4-1.6,0.4
		C792.5,521.9,791.9,521.7,791.4,521.4z"/>
	<path class="st0" d="M797.7,521.7c-0.5-0.1-0.9-0.3-1.2-0.5l0.5-0.9c0.3,0.2,0.6,0.4,1,0.5c0.4,0.1,0.8,0.2,1.2,0.2
		c1,0,1.6-0.3,1.6-0.9c0-0.2-0.1-0.3-0.2-0.5s-0.3-0.2-0.5-0.2s-0.5-0.1-0.9-0.2c-0.5-0.1-1-0.2-1.3-0.3c-0.3-0.1-0.6-0.3-0.9-0.5
		s-0.4-0.6-0.4-1.1c0-0.6,0.2-1.1,0.7-1.4c0.5-0.4,1.2-0.5,2-0.5c0.4,0,0.9,0,1.3,0.2s0.8,0.2,1.1,0.4l-0.5,0.9
		c-0.5-0.3-1.2-0.5-1.9-0.5c-0.5,0-0.9,0.1-1.2,0.2c-0.3,0.2-0.4,0.4-0.4,0.7c0,0.2,0.1,0.4,0.2,0.5c0.2,0.1,0.3,0.2,0.5,0.3
		c0.2,0.1,0.5,0.1,0.9,0.2c0.5,0.1,1,0.2,1.3,0.3c0.3,0.1,0.6,0.3,0.8,0.5c0.2,0.2,0.3,0.6,0.3,1c0,0.6-0.2,1.1-0.8,1.4
		s-1.2,0.5-2.1,0.5C798.7,521.9,798.2,521.8,797.7,521.7z"/>
</g>
<g>
	<g>
		<circle class="st2" cx="1059" cy="193" r="82.9"/>
		<path class="st0" d="M1059,276.8c-46.2,0-83.8-37.6-83.8-83.8s37.6-83.8,83.8-83.8s83.8,37.6,83.8,83.8S1105.2,276.8,1059,276.8z
			 M1059,111.1c-45.2,0-81.9,36.8-81.9,81.9s36.8,81.9,81.9,81.9c45.2,0,81.9-36.8,81.9-81.9S1104.2,111.1,1059,111.1z"/>
	</g>
	<g>
		<path class="st0" d="M1057.9,163.4l-2.8,8.7h-3.1l-1.4-4.6l-1.5,4.6h-3.1l-2.8-8.7h3l1.5,4.9l1.6-4.9h2.7l1.5,5l1.6-5H1057.9z"/>
		<path class="st0" d="M1064.8,163.8c0.6,0.3,1.1,0.6,1.4,1.1s0.5,1.1,0.5,1.7s-0.2,1.2-0.5,1.7s-0.8,0.9-1.4,1.1
			c-0.6,0.3-1.3,0.4-2.1,0.4h-1.2v2.1h-2.9v-8.7h4.2C1063.5,163.4,1064.2,163.6,1064.8,163.8z M1063.4,167.5
			c0.2-0.2,0.3-0.4,0.3-0.8s-0.1-0.6-0.3-0.8c-0.2-0.2-0.5-0.3-0.9-0.3h-1.1v2h1.1C1062.9,167.7,1063.2,167.6,1063.4,167.5z"/>
		<path class="st0" d="M1074.7,163.4v1.8l-2.9,6.9h-3.2l2.8-6.4h-1.7v1.3h-2.4v-3.5H1074.7z"/>
		<path class="st0" d="M1002.3,194.2v3h4.3v1.1h-4.3v3.5h-1.2v-8.7h6.1v1.1L1002.3,194.2L1002.3,194.2z"/>
		<path class="st0" d="M1014.8,201.8l-1.9-2.7c-0.2,0-0.4,0-0.5,0h-2.1v2.6h-1.2v-8.7h3.4c1.1,0,2,0.3,2.7,0.8c0.6,0.5,1,1.3,1,2.2
			c0,0.7-0.2,1.2-0.5,1.7s-0.8,0.8-1.4,1l2.1,2.9L1014.8,201.8L1014.8,201.8z M1014.1,197.6c0.4-0.3,0.6-0.8,0.6-1.5
			s-0.2-1.1-0.6-1.4c-0.4-0.3-1-0.5-1.8-0.5h-2.1v3.9h2.1C1013.1,198.1,1013.7,198,1014.1,197.6z"/>
		<path class="st0" d="M1023.5,199.7h-4.6l-1,2.2h-1.3l3.9-8.7h1.2l3.9,8.7h-1.3L1023.5,199.7z M1023.1,198.7l-1.9-4.2l-1.9,4.2
			H1023.1z"/>
		<path class="st0" d="M1035.1,201.8l0-6.3l-3.1,5.3h-0.6l-3.1-5.2v6.3h-1.2v-8.7h1l3.6,6.1l3.6-6.1h1l0,8.7L1035.1,201.8
			L1035.1,201.8z"/>
		<path class="st0" d="M1045.2,200.7v1.1h-6.3v-8.7h6.1v1.1h-4.9v2.7h4.3v1h-4.3v2.8L1045.2,200.7L1045.2,200.7z"/>
		<path class="st0" d="M1059.3,193.2l-2.9,8.7h-1.3l-2.4-6.9l-2.4,6.9h-1.3l-2.9-8.7h1.3l2.3,7l2.4-7h1.1l2.4,7.1l2.4-7.1H1059.3z"
			/>
		<path class="st0" d="M1062.3,201.3c-0.7-0.4-1.2-0.9-1.7-1.6s-0.6-1.4-0.6-2.3c0-0.8,0.2-1.6,0.6-2.3s0.9-1.2,1.7-1.6
			c0.7-0.4,1.5-0.6,2.4-0.6c0.9,0,1.7,0.2,2.3,0.6c0.7,0.4,1.2,0.9,1.7,1.6c0.4,0.7,0.6,1.4,0.6,2.3s-0.2,1.6-0.6,2.3
			c-0.4,0.7-0.9,1.2-1.7,1.6c-0.7,0.4-1.5,0.6-2.3,0.6C1063.8,201.9,1063,201.7,1062.3,201.3z M1066.3,200.4
			c0.5-0.3,0.9-0.7,1.2-1.2c0.3-0.5,0.4-1.1,0.4-1.7s-0.2-1.2-0.4-1.7c-0.3-0.5-0.7-0.9-1.2-1.2c-0.5-0.3-1.1-0.4-1.7-0.4
			c-0.6,0-1.2,0.1-1.7,0.4c-0.5,0.3-0.9,0.7-1.2,1.2s-0.4,1.1-0.4,1.7c0,0.6,0.2,1.2,0.4,1.7c0.3,0.5,0.7,0.9,1.2,1.2
			c0.5,0.3,1.1,0.4,1.7,0.4C1065.3,200.8,1065.8,200.7,1066.3,200.4z"/>
		<path class="st0" d="M1076.9,201.8l-1.9-2.7c-0.2,0-0.4,0-0.5,0h-2.1v2.6h-1.2v-8.7h3.4c1.1,0,2,0.3,2.7,0.8c0.6,0.5,1,1.3,1,2.2
			c0,0.7-0.2,1.2-0.5,1.7s-0.8,0.8-1.4,1l2.1,2.9L1076.9,201.8L1076.9,201.8z M1076.2,197.6c0.4-0.3,0.6-0.8,0.6-1.5
			s-0.2-1.1-0.6-1.4c-0.4-0.3-1-0.5-1.8-0.5h-2.1v3.9h2.1C1075.2,198.1,1075.8,198,1076.2,197.6z"/>
		<path class="st0" d="M1082.9,198l-1.6,1.6v2.2h-1.2v-8.7h1.2v4.8l4.7-4.8h1.4l-3.7,3.9l3.9,4.8h-1.4L1082.9,198z"/>
		<path class="st0" d="M1093.6,194.2v3h4.3v1.1h-4.3v3.5h-1.2v-8.7h6.1v1.1L1093.6,194.2L1093.6,194.2z"/>
		<path class="st0" d="M1101.7,201.3c-0.7-0.4-1.2-0.9-1.7-1.6s-0.6-1.4-0.6-2.3c0-0.8,0.2-1.6,0.6-2.3s0.9-1.2,1.7-1.6
			c0.7-0.4,1.5-0.6,2.4-0.6c0.9,0,1.7,0.2,2.3,0.6c0.7,0.4,1.2,0.9,1.7,1.6c0.4,0.7,0.6,1.4,0.6,2.3s-0.2,1.6-0.6,2.3
			c-0.4,0.7-0.9,1.2-1.7,1.6c-0.7,0.4-1.5,0.6-2.3,0.6C1103.2,201.9,1102.4,201.7,1101.7,201.3z M1105.7,200.4
			c0.5-0.3,0.9-0.7,1.2-1.2c0.3-0.5,0.4-1.1,0.4-1.7s-0.2-1.2-0.4-1.7c-0.3-0.5-0.7-0.9-1.2-1.2c-0.5-0.3-1.1-0.4-1.7-0.4
			c-0.6,0-1.2,0.1-1.7,0.4c-0.5,0.3-0.9,0.7-1.2,1.2c-0.3,0.5-0.4,1.1-0.4,1.7c0,0.6,0.2,1.2,0.4,1.7c0.3,0.5,0.7,0.9,1.2,1.2
			c0.5,0.3,1.1,0.4,1.7,0.4C1104.7,200.8,1105.2,200.7,1105.7,200.4z"/>
		<path class="st0" d="M1116.3,201.8l-1.9-2.7c-0.2,0-0.4,0-0.5,0h-2.1v2.6h-1.2v-8.7h3.4c1.1,0,2,0.3,2.7,0.8c0.6,0.5,1,1.3,1,2.2
			c0,0.7-0.2,1.2-0.5,1.7s-0.8,0.8-1.4,1l2.1,2.9L1116.3,201.8L1116.3,201.8z M1115.7,197.6c0.4-0.3,0.6-0.8,0.6-1.5
			s-0.2-1.1-0.6-1.4c-0.4-0.3-1-0.5-1.8-0.5h-2.1v3.9h2.1C1114.6,198.1,1115.2,198,1115.7,197.6z"/>
		<path class="st0" d="M1008.4,216.7l-1.9-2.7c-0.2,0-0.4,0-0.5,0h-2.1v2.6h-1.2V208h3.4c1.1,0,2,0.3,2.7,0.8c0.6,0.5,1,1.3,1,2.2
			c0,0.7-0.2,1.2-0.5,1.7s-0.8,0.8-1.4,1l2.1,2.9L1008.4,216.7L1008.4,216.7z M1007.8,212.5c0.4-0.3,0.6-0.8,0.6-1.5
			s-0.2-1.1-0.6-1.4c-0.4-0.3-1-0.5-1.8-0.5h-2.1v3.9h2.1C1006.8,213,1007.4,212.8,1007.8,212.5z"/>
		<path class="st0" d="M1011.6,208h1.2v8.7h-1.2V208z"/>
		<path class="st0" d="M1016.1,216.5c-0.6-0.2-1.1-0.5-1.4-0.8l0.5-1c0.3,0.3,0.8,0.5,1.3,0.7c0.5,0.2,1,0.3,1.6,0.3
			c0.7,0,1.3-0.1,1.6-0.4c0.4-0.2,0.5-0.6,0.5-1c0-0.3-0.1-0.5-0.3-0.7c-0.2-0.2-0.4-0.3-0.7-0.4c-0.3-0.1-0.7-0.2-1.2-0.3
			c-0.7-0.2-1.2-0.3-1.6-0.5s-0.7-0.4-1-0.7c-0.3-0.3-0.4-0.8-0.4-1.3c0-0.5,0.1-0.9,0.4-1.2c0.2-0.4,0.6-0.7,1.1-0.9
			s1.1-0.3,1.8-0.3c0.5,0,1,0.1,1.5,0.2s0.9,0.3,1.3,0.6l-0.4,1c-0.4-0.2-0.8-0.4-1.2-0.5s-0.8-0.2-1.2-0.2c-0.7,0-1.2,0.1-1.6,0.4
			c-0.3,0.3-0.5,0.6-0.5,1c0,0.3,0.1,0.5,0.3,0.7c0.2,0.2,0.4,0.3,0.7,0.4c0.3,0.1,0.7,0.2,1.2,0.3c0.7,0.2,1.2,0.3,1.6,0.5
			c0.4,0.2,0.7,0.4,1,0.7s0.4,0.8,0.4,1.3c0,0.5-0.1,0.9-0.4,1.2c-0.2,0.4-0.6,0.7-1.1,0.9c-0.5,0.2-1.1,0.3-1.9,0.3
			C1017.3,216.8,1016.7,216.7,1016.1,216.5z"/>
		<path class="st0" d="M1026,212.8l-1.6,1.6v2.2h-1.2V208h1.2v4.8l4.7-4.8h1.4l-3.7,3.9l3.9,4.8h-1.4L1026,212.8z"/>
		<path class="st0" d="M1041.7,215.6v1.1h-6.3V208h6.1v1.1h-4.9v2.7h4.3v1h-4.3v2.8L1041.7,215.6L1041.7,215.6z"/>
		<path class="st0" d="M1051.1,208l-3.8,8.7h-1.2l-3.8-8.7h1.3l3.1,7.1l3.2-7.1H1051.1z"/>
		<path class="st0" d="M1057.4,214.5h-4.6l-0.9,2.2h-1.3l3.9-8.7h1.2l3.9,8.7h-1.3L1057.4,214.5z M1057,213.5l-1.9-4.2l-1.9,4.2
			H1057z"/>
		<path class="st0" d="M1061,208h1.2v7.6h4.7v1.1h-5.9L1061,208L1061,208z"/>
		<path class="st0" d="M1069.1,215.8c-0.6-0.7-1-1.6-1-2.9V208h1.2v4.9c0,1.9,0.8,2.8,2.4,2.8c0.8,0,1.4-0.2,1.8-0.7
			c0.4-0.5,0.6-1.2,0.6-2.1V208h1.2v4.9c0,1.2-0.3,2.2-1,2.9c-0.6,0.7-1.5,1-2.7,1C1070.6,216.8,1069.7,216.4,1069.1,215.8z"/>
		<path class="st0" d="M1083.3,214.5h-4.6l-0.9,2.2h-1.3l3.9-8.7h1.2l3.9,8.7h-1.3L1083.3,214.5z M1082.9,213.5l-1.9-4.2l-1.9,4.2
			H1082.9z"/>
		<path class="st0" d="M1088.2,209.1h-3V208h7.2v1.1h-3v7.6h-1.2L1088.2,209.1L1088.2,209.1z"/>
		<path class="st0" d="M1093.7,208h1.2v8.7h-1.2V208z"/>
		<path class="st0" d="M1099.1,216.2c-0.7-0.4-1.2-0.9-1.7-1.6s-0.6-1.4-0.6-2.3c0-0.8,0.2-1.6,0.6-2.3s0.9-1.2,1.7-1.6
			c0.7-0.4,1.5-0.6,2.4-0.6c0.9,0,1.7,0.2,2.3,0.6c0.7,0.4,1.2,0.9,1.7,1.6c0.4,0.7,0.6,1.4,0.6,2.3s-0.2,1.6-0.6,2.3
			c-0.4,0.7-0.9,1.2-1.7,1.6c-0.7,0.4-1.5,0.6-2.3,0.6C1100.6,216.8,1099.8,216.6,1099.1,216.2z M1103.2,215.2
			c0.5-0.3,0.9-0.7,1.2-1.2c0.3-0.5,0.4-1.1,0.4-1.7s-0.2-1.2-0.4-1.7c-0.3-0.5-0.7-0.9-1.2-1.2c-0.5-0.3-1.1-0.4-1.7-0.4
			c-0.6,0-1.2,0.1-1.7,0.4c-0.5,0.3-0.9,0.7-1.2,1.2c-0.3,0.5-0.4,1.1-0.4,1.7c0,0.6,0.2,1.2,0.4,1.7c0.3,0.5,0.7,0.9,1.2,1.2
			c0.5,0.3,1.1,0.4,1.7,0.4C1102.1,215.7,1102.7,215.5,1103.2,215.2z"/>
		<path class="st0" d="M1115.4,208v8.7h-1l-5.2-6.5v6.5h-1.2V208h1l5.2,6.5V208H1115.4z"/>
	</g>
</g>
<g>
	<path class="st0" d="M311.8,193.7h-2.5v-1.2h2.5V193.7z M306.8,193.7h-2.5v-1.2h2.5V193.7z M301.9,193.7h-2.5v-1.2h2.5V193.7z
		 M296.9,193.7h-2.5v-1.2h2.5V193.7z M291.9,193.7h-2.5v-1.2h2.5V193.7z M287,193.7h-2.5v-1.2h2.5V193.7z M282,193.7h-2.5v-1.2h2.5
		V193.7z M277.1,193.7h-2.5v-1.2h2.5V193.7z M272.1,193.7h-2.5v-1.2h2.5V193.7z M267.2,193.7h-2.5v-1.2h2.5V193.7z M262.2,193.7
		h-2.5v-1.2h2.5V193.7z M257.3,193.7h-1.9v-1.2h1.9V193.7z"/>
</g>
<g>
	<g>
		<rect x="537.2" y="88.9" class="st0" width="1.2" height="1.2"/>
	</g>
	<g>
		<path class="st0" d="M534.7,303.2h-2.5v-1.2h2.5V303.2z M529.8,303.2h-2.5v-1.2h2.5V303.2z M524.8,303.1c-0.8,0-1.7-0.1-2.5-0.2
			l0.2-1.2c0.8,0.1,1.6,0.2,2.4,0.2L524.8,303.1z M519.8,302.4c-0.8-0.2-1.6-0.5-2.4-0.8l0.5-1.1c0.7,0.3,1.5,0.5,2.3,0.8
			L519.8,302.4z M515.1,300.5c-0.7-0.4-1.5-0.9-2.1-1.4l0.7-1c0.6,0.5,1.3,0.9,2,1.3L515.1,300.5z M511,297.5
			c-0.6-0.6-1.2-1.2-1.7-1.9l1-0.8c0.5,0.6,1,1.2,1.6,1.8L511,297.5z M507.8,293.5c-0.4-0.7-0.8-1.5-1.1-2.3l1.1-0.5
			c0.3,0.7,0.6,1.4,1.1,2.1L507.8,293.5z M505.9,288.8c-0.2-0.8-0.3-1.7-0.4-2.5l1.2-0.1c0.1,0.8,0.2,1.6,0.4,2.4L505.9,288.8z
			 M506.7,283.7h-1.2v-2.5h1.2V283.7z M506.7,278.8h-1.2v-2.5h1.2V278.8z M506.7,273.9h-1.2v-2.5h1.2V273.9z M506.7,268.9h-1.2v-2.5
			h1.2V268.9z M506.7,264h-1.2v-2.5h1.2V264z M506.7,259h-1.2v-2.5h1.2V259z M506.7,254.1h-1.2v-2.5h1.2V254.1z M506.7,249.1h-1.2
			v-2.5h1.2V249.1z M506.7,244.2h-1.2v-2.5h1.2V244.2z M506.7,239.3h-1.2v-2.5h1.2V239.3z M506.7,234.3h-1.2v-2.5h1.2V234.3z
			 M506.7,229.4h-1.2v-2.5h1.2V229.4z M506.7,224.4h-1.2V222h1.2V224.4z M506.7,219.5h-1.2V217h1.2V219.5z M506.7,214.6h-1.2v-2.5
			h1.2V214.6z M506.7,209.6h-1.2v-2.5h1.2V209.6z M506.7,204.7h-1.2v-2.5h1.2V204.7z M506.7,199.7h-1.2v-2.5h1.2V199.7z
			 M506.7,194.8h-1.2v-2.5h1.2V194.8z M506.7,189.9h-1.2v-2.5h1.2V189.9z M506.7,184.9h-1.2v-2.5h1.2V184.9z M506.7,180h-1.2v-2.5
			h1.2V180z M506.7,175h-1.2v-2.5h1.2V175z M506.7,170.1h-1.2v-2.5h1.2V170.1z M506.7,165.2h-1.2v-2.5h1.2V165.2z M506.7,160.2h-1.2
			v-2.5h1.2V160.2z M506.7,155.3h-1.2v-2.5h1.2V155.3z M506.7,150.3h-1.2v-2.5h1.2V150.3z M506.7,145.4h-1.2v-2.5h1.2V145.4z
			 M506.7,140.4h-1.2V138h1.2V140.4z M506.7,135.5h-1.2V133h1.2V135.5z M506.7,130.6h-1.2v-2.5h1.2V130.6z M506.7,125.6h-1.2v-2.5
			h1.2V125.6z M506.7,120.7h-1.2v-2.5h1.2V120.7z M506.7,115.7h-1.2v-2.5h1.2V115.7z M506.7,110.8h-1.2v-2.5h1.2V110.8z
			 M506.7,105.9l-1.2-0.1c0.1-0.9,0.2-1.7,0.4-2.5l1.2,0.3C506.9,104.3,506.8,105.1,506.7,105.9z M507.8,101.3l-1.1-0.5
			c0.3-0.8,0.7-1.6,1.1-2.3l1.1,0.6C508.5,99.9,508.1,100.6,507.8,101.3z M510.2,97.2l-1-0.8c0.5-0.7,1.1-1.3,1.7-1.9l0.9,0.9
			C511.3,96,510.7,96.6,510.2,97.2z M513.7,93.9l-0.7-1c0.7-0.5,1.4-1,2.2-1.4l0.6,1.1C515,93,514.3,93.5,513.7,93.9z M517.9,91.6
			l-0.5-1.1c0.8-0.3,1.6-0.6,2.4-0.8l0.3,1.2C519.4,91.1,518.6,91.3,517.9,91.6z M522.5,90.4l-0.2-1.2c0.8-0.1,1.7-0.2,2.5-0.2
			l0,1.2C524.1,90.2,523.3,90.3,522.5,90.4z M534.8,90.2h-2.5v-1.2h2.5V90.2z M529.8,90.2h-2.5v-1.2h2.5V90.2z"/>
	</g>
	<g>
		<rect x="537.2" y="301.9" class="st0" width="1.2" height="1.2"/>
	</g>
</g>
<g>
	<g>
		<path class="st0" d="M788.4,411.7H786v-1.2h2.5V411.7z M783.5,411.7H781v-1.2h2.5V411.7z M778.5,411.7h-2.5v-1.2h2.5V411.7z
			 M773.6,411.7h-2.5v-1.2h2.5V411.7z M768.7,411.7h-2.5v-1.2h2.5V411.7z M763.7,411.7h-2.5v-1.2h2.5V411.7z M758.8,411.7h-2.5v-1.2
			h2.5V411.7z M753.8,411.7h-2.5v-1.2h2.5V411.7z M748.9,411.7h-2.5v-1.2h2.5V411.7z M744,411.7h-2.5v-1.2h2.5V411.7z M739,411.7
			h-2.5v-1.2h2.5V411.7z M734.1,411.7h-2.5v-1.2h2.5V411.7z M729.1,411.7h-2.5v-1.2h2.5V411.7z M724.2,411.7h-2.5v-1.2h2.5V411.7z
			 M719.2,411.7h-2.5v-1.2h2.5V411.7z M714.3,411.7h-2.5v-1.2h2.5V411.7z M709.4,411.7h-2.5v-1.2h2.5V411.7z M704.4,411.7H702v-1.2
			h2.5V411.7z M699.5,411.7H697v-1.2h2.5V411.7z M694.5,411.7h-2.5v-1.2h2.5V411.7z M689.6,411.7h-2.5v-1.2h2.5V411.7z M684.7,411.7
			h-2.5v-1.2h2.5V411.7z M679.7,411.7h-2.5v-1.2h2.5V411.7z M674.8,411.7h-2.5v-1.2h2.5V411.7z M669.8,411.7h-2.5v-1.2h2.5V411.7z
			 M664.9,411.7h-2.5v-1.2h2.5V411.7z M660,411.7h-2.5v-1.2h2.5V411.7z M655,411.7h-2.5v-1.2h2.5V411.7z M650.1,411.7h-2.5v-1.2h2.5
			V411.7z M645.1,411.7h-2.5v-1.2h2.5V411.7z M640.2,411.7h-2.5v-1.2h2.5V411.7z M635.2,411.7h-2.5v-1.2h2.5V411.7z M630.3,411.7
			h-2.5v-1.2h2.5V411.7z M625.4,411.7h-2.5v-1.2h2.5V411.7z M620.4,411.7H618v-1.2h2.5V411.7z M615.5,411.7H613v-1.2h2.5V411.7z
			 M610.5,411.7h-2.5v-1.2h2.5V411.7z M605.6,411.7h-2.5v-1.2h2.5V411.7z M600.7,411.7h-2.5v-1.2h2.5V411.7z M595.7,411.7h-2.5v-1.2
			h2.5V411.7z M590.8,411.7h-2.5v-1.2h2.5V411.7z M585.8,411.7h-2.5v-1.2h2.5V411.7z M580.9,411.7h-2.5v-1.2h2.5V411.7z M576,411.7
			h-2.5v-1.2h2.5V411.7z M571,411.7h-2.5v-1.2h2.5V411.7z M566.1,411.7h-2.5v-1.2h2.5V411.7z M561.1,411.7h-2.5v-1.2h2.5V411.7z
			 M556.2,411.7h-2.5v-1.2h2.5V411.7z M551.2,411.7h-2.5v-1.2h2.5V411.7z M546.3,411.7h-2.5v-1.2h2.5V411.7z M541.4,411.7h-2.5v-1.2
			h2.5V411.7z M536.4,411.7H534v-1.2h2.5V411.7z M531.5,411.7H529v-1.2h2.5V411.7z M526.5,411.7h-2.5v-1.2h2.5V411.7z M521.6,411.7
			h-2.5v-1.2h2.5V411.7z M516.7,411.7h-2.5v-1.2h2.5V411.7z M511.7,411.7h-2.5v-1.2h2.5V411.7z M506.8,411.7h-2.5v-1.2h2.5V411.7z
			 M501.8,411.7h-2.5v-1.2h2.5V411.7z M496.9,411.7h-2.5v-1.2h2.5V411.7z M492,411.7h-2.5v-1.2h2.5V411.7z M487,411.7h-2.5v-1.2h2.5
			V411.7z M482.1,411.7h-2.5v-1.2h2.5V411.7z M477.1,411.7h-2.5v-1.2h2.5V411.7z M472.2,411.7h-2.5v-1.2h2.5V411.7z M467.2,411.7
			h-2.5v-1.2h2.5V411.7z M462.3,411.7h-2.5v-1.2h2.5V411.7z M457.4,411.7h-2.5v-1.2h2.5V411.7z M452.4,411.7H450v-1.2h2.5V411.7z
			 M447.5,411.7H445v-1.2h2.5V411.7z M442.5,411.7h-2.5v-1.2h2.5V411.7z M437.6,411.7h-2.5v-1.2h2.5V411.7z M432.7,411.7h-2.5v-1.2
			h2.5V411.7z M427.7,411.7h-2.5v-1.2h2.5V411.7z M422.8,411.7h-2.5v-1.2h2.5V411.7z M790.9,411.6l0-1.2c0.8,0,1.7,0,2.5,0l0,1.2
			C792.6,411.6,791.7,411.6,790.9,411.6z M417.8,411.6c-0.8,0-1.7,0-2.5,0l0-1.2c0.8,0,1.6,0,2.5,0L417.8,411.6z M795.9,411.5l0-1.2
			c0.8,0,1.7-0.1,2.5-0.1l0.1,1.2C797.5,411.4,796.7,411.5,795.9,411.5z M412.9,411.5c-0.8,0-1.7-0.1-2.5-0.2l0.1-1.2
			c0.8,0.1,1.6,0.1,2.5,0.2L412.9,411.5z M800.8,411.2l-0.1-1.2c0.8-0.1,1.6-0.2,2.5-0.2l0.1,1.2
			C802.5,411.1,801.7,411.1,800.8,411.2z M407.9,411.1c-0.8-0.1-1.7-0.2-2.5-0.3l0.1-1.2c0.8,0.1,1.6,0.2,2.5,0.2L407.9,411.1z
			 M805.8,410.7l-0.2-1.2c0.8-0.1,1.6-0.2,2.4-0.3l0.2,1.2C807.4,410.5,806.6,410.6,805.8,410.7z M403,410.6
			c-0.8-0.1-1.7-0.2-2.5-0.4l0.2-1.2c0.8,0.1,1.6,0.3,2.4,0.4L403,410.6z M810.7,409.9l-0.2-1.2c0.8-0.2,1.6-0.3,2.4-0.5l0.3,1.2
			C812.3,409.6,811.5,409.7,810.7,409.9z M398.1,409.7c-0.8-0.2-1.6-0.3-2.4-0.5l0.3-1.2c0.8,0.2,1.6,0.3,2.4,0.5L398.1,409.7z
			 M815.5,408.8l-0.3-1.2c0.8-0.2,1.6-0.4,2.3-0.7l0.4,1.2C817.2,408.4,816.4,408.6,815.5,408.8z M393.2,408.6
			c-0.8-0.2-1.6-0.5-2.4-0.7l0.4-1.2c0.7,0.2,1.5,0.5,2.3,0.7L393.2,408.6z M820.3,407.3l-0.5-1.2c0.8-0.3,1.5-0.6,2.2-1l0.6,1.1
			C821.9,406.6,821.2,407,820.3,407.3z M388.5,407c-0.8-0.3-1.6-0.7-2.3-1.1l0.6-1.1c0.6,0.4,1.4,0.7,2.2,1L388.5,407z M824.8,405
			l-0.7-1c0.7-0.5,1.3-1,1.6-1.5l1,0.7C826.3,403.8,825.7,404.4,824.8,405z M384,404.4c-0.8-0.7-1.4-1.4-1.7-2.2l1.1-0.5
			c0.2,0.6,0.7,1.1,1.3,1.7L384,404.4z M827.5,400.5h-1.2V398h1.2V400.5z M383.3,399.6h-1.2v-2.5h1.2V399.6z M827.5,395.5h-1.2V393
			h1.2V395.5z M383.3,394.6h-1.2v-2.5h1.2V394.6z M827.5,390.6h-1.2v-2.5h1.2V390.6z M383.3,389.7h-1.2v-2.5h1.2V389.7z
			 M827.5,385.6h-1.2v-2.5h1.2V385.6z M383.3,384.8h-1.2v-2.5h1.2V384.8z M827.5,380.7h-1.2v-2.5h1.2V380.7z M383.3,379.8h-1.2v-2.5
			h1.2V379.8z M827.5,375.8h-1.2v-2.5h1.2V375.8z M383.3,374.9h-1.2v-2.5h1.2V374.9z M383.3,369.9h-1.2v-2.5h1.2V369.9z M383.3,365
			h-1.2v-2.5h1.2V365z M383.3,360h-1.2v-2.5h1.2V360z M383.3,355.1h-1.2v-2.5h1.2V355.1z M383.3,350.2h-1.2v-2.5h1.2V350.2z
			 M383.3,345.2h-1.2v-2.5h1.2V345.2z M383.3,340.3h-1.2v-2.5h1.2V340.3z M383.3,335.3h-1.2v-2.5h1.2V335.3z M383.3,330.4h-1.2v-2.5
			h1.2V330.4z M383.3,325.5h-1.2V323h1.2V325.5z M383.3,320.5h-1.2V318h1.2V320.5z M383.3,315.6h-1.2v-2.5h1.2V315.6z M383.3,310.6
			h-1.2v-2.5h1.2V310.6z M383.3,305.7h-1.2v-2.5h1.2V305.7z M383.3,300.8h-1.2v-2.5h1.2V300.8z M383.3,295.8h-1.2v-2.5h1.2V295.8z
			 M383.3,290.9h-1.2v-2.5h1.2V290.9z M383.3,285.9h-1.2v-2.5h1.2V285.9z M383.3,281h-1.2v-2.5h1.2V281z M383.3,276h-1.2v-0.1h1.2
			V276z"/>
	</g>
</g>
<g>
	<g>
		<rect x="463.4" y="192.4" class="st0" width="1.2" height="1.2"/>
	</g>
	<g>
		<path class="st0" d="M502.9,193.7h-2.4v-1.2h2.4V193.7z M498.1,193.7h-2.4v-1.2h2.4V193.7z M493.4,193.7H491v-1.2h2.4V193.7z
			 M488.6,193.7h-2.4v-1.2h2.4V193.7z M483.8,193.7h-2.4v-1.2h2.4V193.7z M479,193.7h-2.4v-1.2h2.4V193.7z M474.2,193.7h-2.4v-1.2
			h2.4V193.7z M469.4,193.7H467v-1.2h2.4V193.7z"/>
	</g>
	<g>
		<rect x="505.3" y="192.4" class="st0" width="1.2" height="1.2"/>
	</g>
	<g>
		<g>
			<path class="st0" d="M506.3,197.7c2.6,0,4.7-2.1,4.7-4.7s-2.1-4.7-4.7-4.7c-2.6,0-4.7,2.1-4.7,4.7S503.8,197.7,506.3,197.7z"/>
		</g>
	</g>
</g>
<g>
	<path class="st0" d="M511,191.8v-1.2l0,0V191.8z M508.5,191.7l-2.5-0.1l0-1.2l2.5,0.1L508.5,191.7z"/>
</g>
<g>
	<g>
		<rect x="901" y="301.9" class="st0" width="1.2" height="1.2"/>
	</g>
	<g>
		<path class="st0" d="M912.2,303.2h-2.5v-1.2h2.5V303.2z M907.2,303.2h-2.5v-1.2h2.5V303.2z M914.7,303.1l0-1.2
			c0.8,0,1.6-0.1,2.4-0.2l0.2,1.2C916.4,303.1,915.5,303.1,914.7,303.1z M919.7,302.4l-0.3-1.2c0.8-0.2,1.5-0.5,2.3-0.8l0.5,1.1
			C921.3,301.9,920.5,302.2,919.7,302.4z M924.4,300.5l-0.6-1.1c0.7-0.4,1.4-0.8,2-1.3l0.7,1C925.9,299.7,925.1,300.1,924.4,300.5z
			 M928.5,297.5l-0.8-0.9c0.6-0.5,1.1-1.1,1.6-1.8l1,0.8C929.7,296.3,929.1,296.9,928.5,297.5z M931.7,293.5l-1.1-0.6
			c0.4-0.7,0.8-1.4,1.1-2.1l1.2,0.5C932.5,292,932.1,292.8,931.7,293.5z M933.6,288.8l-1.2-0.3c0.2-0.8,0.3-1.6,0.4-2.3l1.2,0.1
			C934,287.1,933.8,288,933.6,288.8z M934.1,283.8h-1.2v-2.5h1.2V283.8z M934.1,278.8h-1.2v-2.5h1.2V278.8z M934.1,273.9h-1.2v-2.5
			h1.2V273.9z M934.1,268.9h-1.2v-2.5h1.2V268.9z M934.1,264h-1.2v-2.5h1.2V264z M934.1,259.1h-1.2v-2.5h1.2V259.1z M934.1,254.1
			h-1.2v-2.5h1.2V254.1z M934.1,249.2h-1.2v-2.5h1.2V249.2z M934.1,244.2h-1.2v-2.5h1.2V244.2z M934.1,239.3h-1.2v-2.5h1.2V239.3z
			 M934.1,234.4h-1.2v-2.5h1.2V234.4z M934.1,229.4h-1.2v-2.5h1.2V229.4z M934.1,224.5h-1.2V222h1.2V224.5z M934.1,219.5h-1.2v-2.5
			h1.2V219.5z M934.1,214.6h-1.2v-2.5h1.2V214.6z M934.1,209.7h-1.2v-2.5h1.2V209.7z M934.1,204.7h-1.2v-2.5h1.2V204.7z
			 M934.1,199.8h-1.2v-2.5h1.2V199.8z M934.1,194.8h-1.2v-2.5h1.2V194.8z M934.1,189.9h-1.2v-2.5h1.2V189.9z M934.1,184.9h-1.2v-2.5
			h1.2V184.9z M934.1,180h-1.2v-2.5h1.2V180z M934.1,175.1h-1.2v-2.5h1.2V175.1z M934.1,170.1h-1.2v-2.5h1.2V170.1z M934.1,165.2
			h-1.2v-2.5h1.2V165.2z M934.1,160.2h-1.2v-2.5h1.2V160.2z M934.1,155.3h-1.2v-2.5h1.2V155.3z M934.1,150.4h-1.2v-2.5h1.2V150.4z
			 M934.1,145.4h-1.2v-2.5h1.2V145.4z M934.1,140.5h-1.2V138h1.2V140.5z M934.1,135.5h-1.2v-2.5h1.2V135.5z M934.1,130.6h-1.2v-2.5
			h1.2V130.6z M934.1,125.7h-1.2v-2.5h1.2V125.7z M934.1,120.7h-1.2v-2.5h1.2V120.7z M934.1,115.8h-1.2v-2.5h1.2V115.8z
			 M934.1,110.8h-1.2v-2.5h1.2V110.8z M932.8,105.9c-0.1-0.8-0.2-1.6-0.4-2.3l1.2-0.3c0.2,0.8,0.3,1.7,0.4,2.5L932.8,105.9z
			 M931.7,101.3c-0.3-0.7-0.7-1.4-1.1-2.1l1.1-0.6c0.4,0.7,0.8,1.5,1.1,2.3L931.7,101.3z M929.3,97.3c-0.5-0.6-1-1.2-1.6-1.8
			l0.9-0.9c0.6,0.6,1.2,1.2,1.7,1.9L929.3,97.3z M925.8,94c-0.6-0.5-1.3-0.9-2-1.3l0.6-1.1c0.7,0.4,1.5,0.9,2.2,1.4L925.8,94z
			 M921.7,91.6c-0.7-0.3-1.5-0.6-2.3-0.8l0.3-1.2c0.8,0.2,1.6,0.5,2.4,0.8L921.7,91.6z M917,90.4c-0.8-0.1-1.6-0.2-2.4-0.2l0-1.2
			c0.8,0,1.7,0.1,2.5,0.2L917,90.4z M912.2,90.2h-2.5v-1.2h2.5V90.2z M907.3,90.2h-2.5v-1.2h2.5V90.2z"/>
	</g>
	<g>
		<rect x="901" y="88.9" class="st0" width="1.2" height="1.2"/>
	</g>
</g>
<g>
	<g>
		<rect x="974.9" y="192.4" class="st0" width="1.2" height="1.2"/>
	</g>
	<g>
		<path class="st0" d="M972.5,193.7h-2.4v-1.2h2.4V193.7z M967.7,193.7h-2.4v-1.2h2.4V193.7z M962.9,193.7h-2.4v-1.2h2.4V193.7z
			 M958.1,193.7h-2.4v-1.2h2.4V193.7z M953.3,193.7h-2.4v-1.2h2.4V193.7z M948.5,193.7h-2.4v-1.2h2.4V193.7z M943.8,193.7h-2.4v-1.2
			h2.4V193.7z M939,193.7h-2.4v-1.2h2.4V193.7z"/>
	</g>
	<g>
		<rect x="932.9" y="192.4" class="st0" width="1.2" height="1.2"/>
	</g>
	<g>
		<g>
			<path class="st0" d="M933.2,188.4c-2.6,0-4.7,2.1-4.7,4.7s2.1,4.7,4.7,4.7c2.6,0,4.7-2.1,4.7-4.7S935.7,188.4,933.2,188.4z"/>
		</g>
	</g>
</g>
<g>
	<path class="st0" d="M757,303.2h-2.5v-1.2h2.5V303.2z M752,303.2h-2.5v-1.2h2.5V303.2z M747.1,303.2h-2.5v-1.2h2.5V303.2z
		 M742.1,303.2h-2.5v-1.2h2.5V303.2z M737.2,303.2h-2.5v-1.2h2.5V303.2z M732.2,303.2h-2.5v-1.2h2.5V303.2z M727.3,303.2h-2.5v-1.2
		h2.5V303.2z M722.3,303.2h-2.5v-1.2h2.5V303.2z M717.3,303.2h-2.5v-1.2h2.5V303.2z M712.4,303.2h-2.5v-1.2h2.5V303.2z M707.5,303.2
		H705v-1.2h2.5V303.2z M702.5,303.2H700v-1.2h2.5V303.2z"/>
</g>
<g>
	<path class="st0" d="M757,90.2h-2.5v-1.2h2.5V90.2z M752,90.2h-2.5v-1.2h2.5V90.2z M747.1,90.2h-2.5v-1.2h2.5V90.2z M742.1,90.2
		h-2.5v-1.2h2.5V90.2z M737.2,90.2h-2.5v-1.2h2.5V90.2z M732.2,90.2h-2.5v-1.2h2.5V90.2z M727.3,90.2h-2.5v-1.2h2.5V90.2z
		 M722.3,90.2h-2.5v-1.2h2.5V90.2z M717.3,90.2h-2.5v-1.2h2.5V90.2z M712.4,90.2h-2.5v-1.2h2.5V90.2z M707.5,90.2H705v-1.2h2.5V90.2
		z M702.5,90.2H700v-1.2h2.5V90.2z"/>
</g>
</svg>
