<svg xmlns="http://www.w3.org/2000/svg" width="1096.02" height="417.554" viewBox="0 0 1096.02 417.554"><defs><style>.a,.m,.n,.o{fill:#1d1d1b;}.aa,.ab,.ac,.ad,.ae,.af,.b,.e,.p,.q,.r,.s,.t,.u,.y,.z{fill:#fff;}.b,.c,.f,.g,.h,.i,.j,.k,.l,.v,.x{stroke:#1d1d1b;stroke-miterlimit:10;}.b{stroke-width:1.5px;}.c,.f,.g,.h,.i,.j,.k,.l,.v,.w,.x{fill:none;}.c{stroke-width:2px;}.d{fill:#54d6c6;}.g{stroke-dasharray:2.01 2.01;}.h{stroke-dasharray:2.13 2.13;}.i{stroke-dasharray:2.03 2.03;}.j{stroke-dasharray:1.98 1.98;}.k{stroke-dasharray:1.97 1.97;}.l{stroke-dasharray:1.92 1.92;}.m,.n,.o,.p,.q,.r,.s,.t,.u{font-size:10px;}.ab,.ac,.ad,.ae,.m,.n,.o,.p,.q,.r{font-family:Montserrat-SemiBold, Montserrat;font-weight:600;}.ac,.n,.p,.t,.z{letter-spacing:-0.01em;}.o{letter-spacing:-0.04em;}.r{letter-spacing:-0.03em;}.aa,.af,.s,.t,.y,.z{font-family:Montserrat-Regular, Montserrat;}.u{font-family:Montserrat-Medium, Montserrat;font-weight:500;}.v{stroke-dasharray:2;}.x{stroke-dasharray:2 2;}.aa,.ab,.ac,.ad,.ae,.af,.y,.z{font-size:8.5px;}.aa,.ae{letter-spacing:0.01em;}.ad,.af{letter-spacing:-0.02em;}</style></defs><circle class="a" cx="17.01" cy="17.01" r="17.01" transform="translate(180.63 176.43)"/><rect class="b" width="114.74" height="46.14" rx="12" transform="translate(0.75 86.49)"/><path class="c" d="M458.74,388.14,455,365.69a11.51,11.51,0,0,1,0-3.75c7.27-45.05,1.31-71.91-.05-77.17a9.332,9.332,0,0,1-.3-2.1l-3.39-99.15a26.32,26.32,0,0,0-15.93-23.28l-38.9-16.67a18.28,18.28,0,0,1-11.08-16.8v-1.24a28.36,28.36,0,0,1,7.84-19.85c15.54-15.91,12.07-46.3-6.49-58.42-7.62-5-15.47-5.33-24.23-5.52C347.15,41.4,336,51.3,331,64h0a43.811,43.811,0,0,0-2.27,7.74A77.39,77.39,0,0,1,317.8,93a2.64,2.64,0,0,0,0,3.23c1.15,1.49,3,3.53,4.77,4.29,3,1.25-2.12,5.18-1.43,6.37a4.83,4.83,0,0,0,2.62,1.69s-3.31,1.5-2.37,3.12,3,1.35,2.37,3.94c-3.17,13.88,14.6,12.4,21.21,10.8a.79.79,0,0,1,.64.22,18.48,18.48,0,0,1-11.2,17l-38.78,16.62a26.29,26.29,0,0,0-15.92,23.28l-3.39,99.15a10,10,0,0,1-.31,2.1c-1.36,5.26-7.31,32.12,0,77.17a11.511,11.511,0,0,1,0,3.75l-3.75,22.45a12.83,12.83,0,0,0,2.13,9.45c4.87,7,14.28,19.81,17,18.9,3.75-1.25-7.5-22.25-6-27a19.878,19.878,0,0,1,2.05-4.51,1.06,1.06,0,0,1,1.95.56v9a10.8,10.8,0,0,0,3,7.58,4.911,4.911,0,0,0,1,.84c1.75,1,3.25-11.5,3.5-25.5s-7-11-2.75-20.5c4.15-9.28,11.64-50.3,7.32-71.54a8.709,8.709,0,0,1,0-3.18l8.21-48.78s11.5,44.5,9,66.25-16.25,95.75-12.75,114h49.75l2.28-17.8a27.6,27.6,0,0,0,15.15,0l2.28,17.8h49.75c3.5-18.25-10.25-92.25-12.75-114s9-66.25,9-66.25l8.22,48.78a8.94,8.94,0,0,1,0,3.18c-4.32,21.24,3.17,62.26,7.32,71.54,4.25,9.5-3,6.5-2.75,20.5s1.75,26.5,3.5,25.5a4.659,4.659,0,0,0,1-.84,10.8,10.8,0,0,0,3-7.58v-9a1.06,1.06,0,0,1,2-.56,19,19,0,0,1,2,4.51c1.5,4.75-9.75,25.75-6,27,2.74.91,12.15-11.92,17-18.9a12.77,12.77,0,0,0,2.07-9.49Z"/><path class="d" d="M360.55,181.72l-4.93,1.82,2.32,8.59h0a17,17,0,0,1,16.26,0h0l2.32-8.59-4.93-1.82A16,16,0,0,0,360.55,181.72Z"/><path class="d" d="M347.1,203.06a8.08,8.08,0,0,0,3.29,6.24,1,1,0,0,1-.55,1.84,1.07,1.07,0,0,1-.56-.17,9.72,9.72,0,0,1-4.1-7,16.711,16.711,0,0,1-4,1.1c.93,2,2.48,6,1.89,8.92-.78,3.88-5.91,9.87-6.13,10.12a1,1,0,1,1-1.51-1.3c.66-.77,1.84-2.26,3-3.91-1.69-.6-4.95-1.44-6.79.27a1,1,0,1,1-1.36-1.47c2.82-2.62,7.38-1.25,9.26-.52a12.51,12.51,0,0,0,1.6-3.59c.5-2.44-1.11-6.41-2.05-8.32h-.24c-2.51.16-4.41.28-7,3.76h0a1.061,1.061,0,0,1-.09.11A61.39,61.39,0,0,0,325.92,220a1,1,0,1,1-1.83-.81,74.294,74.294,0,0,1,5.18-10,8.54,8.54,0,0,0-5.38,1.75,1,1,0,0,1-1.11-1.67c3.69-2.45,6.46-2.22,7.77-1.88,2.79-3.53,5.07-3.92,8.13-4.11l.86-.07h0a15.15,15.15,0,0,0,6.09-1.66c6.61-3.34,10.11-9.27,11.62-12.55-.24-1-.5-1.95-.79-2.91-1.4,2.34-3.47,5-6,5.65a14.509,14.509,0,0,1-4.67.21c-3.32-.2-6.75-.41-10.32,3.8a1,1,0,1,1-1.53-1.29c4.23-5,8.52-4.72,12-4.5a13.28,13.28,0,0,0,4-.15c2.35-.63,4.46-3.85,5.71-6.3a45.517,45.517,0,0,0-2.27-5.29c-2.47-4.8-6-8.32-11-7.78-9.25,1-31,40-23,67.25,4.28,14.57,16.29,9.09,24.34,1,11-11.07,17.07-25.34,15.11-41.15-.22-1.82-.51-3.63-.85-5.43a27.62,27.62,0,0,1-10.88,10.95Z"/><path class="d" d="M384.9,203.06a8.06,8.06,0,0,1-3.3,6.24,1,1,0,1,0,1.11,1.67,9.71,9.71,0,0,0,4.11-7,16.711,16.711,0,0,0,4,1.1c-.93,2-2.48,6-1.89,8.92.78,3.88,5.91,9.87,6.13,10.12a1,1,0,1,0,1.51-1.3c-.66-.77-1.84-2.26-3-3.91,1.69-.6,4.95-1.44,6.79.27a1,1,0,0,0,1.36-1.47c-2.82-2.62-7.39-1.25-9.26-.52a12.509,12.509,0,0,1-1.6-3.59c-.5-2.44,1.11-6.41,2.05-8.32h.24c2.51.16,4.41.28,7,3.76h0s.06.07.09.11A61.4,61.4,0,0,1,406.08,220a1,1,0,1,0,1.83-.81,75.479,75.479,0,0,0-5.18-10A8.52,8.52,0,0,1,408.1,211a1.07,1.07,0,0,0,.56.17,1,1,0,0,0,.55-1.84c-3.68-2.45-6.45-2.22-7.76-1.88-2.79-3.53-5.07-3.92-8.13-4.11l-.86-.07h0a15.15,15.15,0,0,1-6.09-1.66c-6.61-3.34-10.11-9.27-11.62-12.55.24-1,.5-1.95.79-2.91,1.4,2.34,3.47,5,6,5.65a14.51,14.51,0,0,0,4.67.21c3.32-.2,6.74-.41,10.32,3.8a1,1,0,1,0,1.53-1.29c-4.23-5-8.52-4.72-12-4.5a13.28,13.28,0,0,1-4-.15c-2.35-.63-4.46-3.85-5.71-6.3a43.863,43.863,0,0,1,2.27-5.29c2.47-4.8,6-8.32,11-7.78,9.25,1,31,40,23,67.25-4.28,14.57-16.29,9.09-24.34,1-11-11.07-17.07-25.34-15.11-41.15.22-1.82.51-3.63.85-5.43a27.55,27.55,0,0,0,10.88,10.89Z"/><rect class="d" width="6.91" height="34.17" transform="translate(362.61 149.94)"/><rect class="e" width="6.91" height="1.67" transform="translate(362.61 155.6)"/><rect class="e" width="6.91" height="1.67" transform="translate(362.61 151.64)"/><rect class="e" width="6.91" height="1.67" transform="translate(362.61 159.85)"/><rect class="e" width="6.91" height="1.67" transform="translate(362.61 164.02)"/><rect class="e" width="6.91" height="1.67" transform="translate(362.61 168.27)"/><rect class="e" width="6.91" height="1.67" transform="translate(362.61 172.52)"/><rect class="e" width="6.91" height="1.67" transform="translate(362.61 176.77)"/><path class="e" d="M366.32,209.05a12.54,12.54,0,0,1,6.95,1.19A14.93,14.93,0,0,0,370,198.49a1.35,1.35,0,0,0-1.65-.35l-.16.08a1.35,1.35,0,0,0-.49,2,9.489,9.489,0,0,1,1.08,2.13,1.35,1.35,0,0,1-1.84,1.71l-.49-.23a3.44,3.44,0,0,1-1.47-2.41,1.35,1.35,0,1,0-2.62.65l.35,1.37a1.29,1.29,0,0,1-.22,1.14c-1.09,1.38.09,4.94-1.36,4.37-1.1-.44-1.3-2.8-1.32-4.23a1.43,1.43,0,0,0-1.27-1.36l-1.18-.23a1.35,1.35,0,0,0-1.59,1.1,20.21,20.21,0,0,0,1.63,10.69.46.46,0,0,0,.15.16,11.34,11.34,0,0,1,8.77-6.03Z"/><path class="e" d="M375.37,212c-.48-.29-1-.54-1.43-.77a12.931,12.931,0,0,0-3.23-1,12.61,12.61,0,0,1,4,6.29h0c.07.22.14.44.2.66a38.94,38.94,0,0,1,1.64,9.61v.14a.86.86,0,0,1-.85.85h-.16a.84.84,0,0,1-.68-.83v-.12a31.391,31.391,0,0,0-1-6.74,45.2,45.2,0,0,1-1.93,5c-.62,1.38-1.14,2.72-.69,3.81a6.45,6.45,0,0,0,2.63,2.93.85.85,0,0,1,.27,1.17.87.87,0,0,1-.88.38.81.81,0,0,1-.29-.12,8.11,8.11,0,0,1-3.3-3.72c-.76-1.85.13-3.83.71-5.14a34.88,34.88,0,0,0,2.59-7.63c-.8-2.39-2.72-6.28-6.76-6.5h-.07a11.915,11.915,0,0,0-1.51.39v.1c0,.04,0,3.63,3.38,7.54a.86.86,0,0,1-.81,1.39.89.89,0,0,1-.47-.28,14.5,14.5,0,0,1-3.77-8.06,11.3,11.3,0,0,0-3,2.33,13.07,13.07,0,0,0,6.86,11.58.85.85,0,0,1-.56,1.58.749.749,0,0,1-.24-.08,15.422,15.422,0,0,1-2.24-1.45c.47,2.62,1.52,6.19,3.51,7.49a.85.85,0,0,1,.25,1.17.87.87,0,0,1-.88.37.939.939,0,0,1-.3-.12c-3.61-2.35-4.41-9.36-4.54-10.81a15.28,15.28,0,0,1-3.36-7.71c-.09.15-.19.29-.27.45a12.06,12.06,0,0,0-.31,10.81c3.83,8.25,13.55,14.1,17.73,11.54C381.73,234.71,384.88,217.9,375.37,212Z"/><path class="d" d="M384.16,269.54V265h-5.07a1.6,1.6,0,0,0-1.59,1.6v4.52a2.48,2.48,0,0,1-1.79,2.38,12.54,12.54,0,0,0-3.86,1.83,5.93,5.93,0,0,0-2.2,7,26.634,26.634,0,0,0,1,2.79c2,4.68,4.39,7.78,1.94,11.38a7.6,7.6,0,0,1-5.66,3.22c-1.85.15-4.21.68-4.91,2.35H356.2a10.15,10.15,0,0,0-8.25,4,10.74,10.74,0,0,0-1.77,8.82L348.57,325l8,1.06-3-12.91a3.21,3.21,0,0,1,.6-2.74,3.8,3.8,0,0,1,2.52-1.7h5.47s9.51,10.58,24.73,5a29.87,29.87,0,0,0,19.38-22.59c.69-3.68.6-18.29-20-19.43A2.2,2.2,0,0,1,384.16,269.54Z"/><path class="d" d="M340.49,288.3s-10.43,9.66-13.75,6.34,1.43-13,0-18.25c0,0-5.21-25.36,18.49-25.12s35.32-8.3,42.66-2.37c6.24,5-2.16,11.75-4.85,13.67a2.88,2.88,0,0,1-1.68.54h-3.52a2.24,2.24,0,0,0-2.24,2.24v3.93a2,2,0,0,1-1.78,2,19.11,19.11,0,0,0-10.1,4.61C358,280.9,357.08,291.43,340.49,288.3Z"/><path class="d" d="M399.66,336.54a2,2,0,0,0,.11-.2c3.26-5.92-2.44-12.94-8.77-10.78a8.91,8.91,0,0,0-4.84,4c-4.86-4.3-11.61.64-11.61.64-4.08-3.66-9.57.16-9.57.16-3.14-4.46-8.31,0-8.31,0-2.67-4.14-7.22-1.43-7.22-1.43-10.52-8.6-16.16,3.18-16.16,3.18-10.83,4.78-3.3,14.18-3.3,14.18-4.24,6.21,2.35,10.51,2.35,10.51-1.09,7,7.22,8.92,7.22,8.92-.63,2.55,1.89,5.42,1.89,5.42,3.22,2,4.38-1.2,4.79-4.06a4.69,4.69,0,0,1,.23-3.59c4.7-4.77.15-11.62.15-11.62a12.21,12.21,0,0,0-2.36-9.44c-.31-.32-.53-.7,0,0,5.32,5.6,10.35-1,10.35-1,3.95,5.55,10.88,1.37,10.88,1.37,4.16,4,11.1-.5,11.1-.5,7.22,4.94,12.24-2.87,12.24-2.87-3.29,5.1,1.1,11.63,1.1,11.63-2.35,1.59-1.1,5.89-1.1,5.89-5.18-.63-6.59,4.46-6.59,4.46-5.49-3.82-9.73,3-9.73,3-14.28.48-9.15,11.82-9.15,11.82-.44.76-2,2.07-2.2,2.73-2.13,6.15,4.14,8.23,4.14,8.23s-1.42,5.73,3.29,6.85,4.55-7.17,4.55-7.17c5.65-3.82,2.2-9.72,2.2-9.72,7.22.48,10.82-4,10.82-4,12.09,1.12,11.93-9.4,11.93-9.4,9.89-4.78,4.39-14.17,4.39-14.17C408.45,342.28,399.66,336.54,399.66,336.54Z"/><path class="d" d="M387.74,350.23a15,15,0,0,1-1.65-5.17,7.29,7.29,0,0,0-4.31,5.11.92.92,0,0,1-.9.78h-.14a.91.91,0,0,1-.76-1,8.9,8.9,0,0,1,3.31-5.26,8,8,0,0,1-2.38.38h0a8.5,8.5,0,0,1-3.88-1,.9.9,0,0,0-1,.12,10.211,10.211,0,0,1-3.59,2.12.89.89,0,0,1,.92.66c.07.25,1.63,5.77,10.51,6.4a.91.91,0,1,1-.06,1.82h-.06a16.63,16.63,0,0,1-7.52-2.17,6.07,6.07,0,0,1-.15,3,4.2,4.2,0,0,1-2.34,2.5.84.84,0,0,1-.38.08.91.91,0,0,1-.38-1.74,2.39,2.39,0,0,0,1.37-1.44,6.33,6.33,0,0,0-.58-4.16.91.91,0,0,1-.09-.31,9.17,9.17,0,0,1-2.09-3.54.89.89,0,0,1,.41-1,8.841,8.841,0,0,1-2.31.31h0a10.45,10.45,0,0,1-4.69-1.19.91.91,0,0,0-.67-.06,14.769,14.769,0,0,1-4.16.67,7.29,7.29,0,0,1-4.78-1.54.9.9,0,0,0-1.07,0,7.94,7.94,0,0,1-4.35,1.42,7.244,7.244,0,0,1-.928-.06.9.9,0,0,0-.872.38c1.71.21,5.17,1.18,8.52,5.48a.91.91,0,0,1-.16,1.28.88.88,0,0,1-.56.19.91.91,0,0,1-.72-.35c-2.81-3.6-5.59-4.52-7-4.75a11.908,11.908,0,0,1,0,3,.94.94,0,0,0,.12.57c1.31,2.24,2.59,6.23.86,9.66a10.55,10.55,0,0,1,8.25-.47.912.912,0,1,1-.58,1.73,9.672,9.672,0,0,0-2.5-.49,4.9,4.9,0,0,1,.86.73,3.9,3.9,0,0,1,1,3.09.91.91,0,0,1-.9.83h-.09a.91.91,0,0,1-.82-1c.21-2.29-2.81-2.93-3-3a.86.86,0,0,1-.46-.22,8.6,8.6,0,0,0-3,1.79,12.251,12.251,0,0,1-.12,1.39.9.9,0,0,0,.09.54,5.55,5.55,0,0,0,2.1,2l.17.1.12.17a3.73,3.73,0,0,0,2.92,1.53,5.17,5.17,0,0,0,2.68-.88l2.24-1.39-.9,2.48a5,5,0,0,0,.23,3.67,4.85,4.85,0,0,0,2.47,2.11.9.9,0,0,0,1.18-.41h0a.89.89,0,0,0,.08-.62,11.48,11.48,0,0,1,.27-6.37.89.89,0,0,1-.29-.76,2.61,2.61,0,0,0-.43-2.09,2.09,2.09,0,0,0-1.38-.61.92.92,0,1,1,0-1.83,3.87,3.87,0,0,1,2.75,1.23,3.569,3.569,0,0,1,.8,1.63,10.5,10.5,0,0,1,6.3-3.22c-3.35-3.41-6.76-2.12-6.8-2.11a.911.911,0,1,1-.68-1.69c.06,0,5.26-2,9.67,3.52a1,1,0,0,0,.64-.34c1-1.25,3.29-3.7,6.4-3.7a6.129,6.129,0,0,1,2.14.39.89.89,0,0,0,1.07-.38,6.56,6.56,0,0,1,4.49-3.12.91.91,0,0,0,.75-1,5.83,5.83,0,0,1,.8-3.57.88.88,0,0,0-.01-.85Zm-28.54,8.29h0c-4.05-.07-6.88-1.06-8.42-3a5.22,5.22,0,0,1-1.13-4.06.911.911,0,1,1,1.79.34,3.45,3.45,0,0,0,.78,2.6c1.18,1.42,3.6,2.2,7,2.25a.92.92,0,0,1,0,1.83Zm4.85-5.08a13.1,13.1,0,0,0,3.64,1,.9.9,0,0,1,.78,1,.91.91,0,0,1-.9.8h-.12c-3.62-.49-6.21-1.8-7.68-3.9a7.39,7.39,0,0,1-1.21-5.37.915.915,0,0,1,1.79.38,5.52,5.52,0,0,0,.93,4,5.184,5.184,0,0,0,.47.58c1.17-.07,6.25-.54,6.46-3.11a.9.9,0,0,1,1-.83.92.92,0,0,1,.84,1c-.26,2.88-3.58,4.01-6,4.45Z"/><line class="f" x1="1" transform="translate(158.16 79.51)"/><path class="g" d="M156.15,79.51H150c-7.53,0-13.69,2.28-13.69,5.06v51c0,2.79,6.16,5.06,13.69,5.06h7.19"/><line class="f" x2="1" transform="translate(158.16 140.62)"/><line class="f" x2="1" transform="translate(115.63 110.07)"/><line class="h" x2="15.99" transform="translate(118.77 110.07)"/><line class="f" x2="1" transform="translate(135.82 110.07)"/><path class="a" d="M136.63,113.83a3.76,3.76,0,1,0-3.76-3.76,3.76,3.76,0,0,0,3.76,3.76Z"/><line class="f" x2="1" transform="translate(235.93 140.86)"/><path class="g" d="M238.94,140.86h6.19c7.53,0,13.69-2.28,13.69-5.06v-51c0-2.79-6.16-5.06-13.69-5.06h-7.2"/><line class="f" x1="1" transform="translate(235.93 79.75)"/><line class="f" y2="1" transform="translate(174.38 34.22)"/><path class="i" d="M174.38,37.25v1.52c0,3.72,1.73,6.77,3.85,6.77h38.82c2.11,0,3.85-3,3.85-6.77V36.24"/><line class="f" y1="1" transform="translate(220.9 34.22)"/><line class="f" x2="1" transform="translate(259.23 110.3)"/><line class="j" x2="101.81" transform="translate(262.2 110.3)"/><line class="f" x2="1" transform="translate(365 110.3)"/><path class="a" d="M259.41,114.06a3.76,3.76,0,1,1,3.76-3.76A3.76,3.76,0,0,1,259.41,114.06Z"/><line class="f" x1="1" transform="translate(892.4 265)"/><line class="k" x1="38.49" transform="translate(851.94 265)"/><line class="f" x1="1" transform="translate(849.95 265)"/><line class="f" x2="1" transform="translate(650.4 398.37)"/><path class="g" d="M653.41,398.37h6.2c7.53,0,13.69-9.9,13.69-22V154.64c0-12.1-6.16-22-13.69-22h-7.2"/><line class="f" x1="1" transform="translate(650.4 132.64)"/><line class="f" x2="1" transform="translate(672.7 265.75)"/><line class="l" x2="45.21" transform="translate(675.63 265.75)"/><line class="f" x2="1" transform="translate(721.8 265.75)"/><path class="a" d="M672.89,269.51a3.76,3.76,0,1,1,3.76-3.76A3.76,3.76,0,0,1,672.89,269.51Z"/><text class="m" transform="translate(11.92 107.14)"><tspan x="0" y="0">E</tspan></text><text class="m" transform="translate(18.62 107.14)"><tspan x="0" y="0">N</tspan></text><text class="n" transform="translate(26.67 107.14)"><tspan x="0" y="0">V</tspan></text><text class="m" transform="translate(33.81 107.14)"><tspan x="0" y="0">IRONMEN</tspan></text><text class="o" transform="translate(85.18 107.14)"><tspan x="0" y="0">T</tspan></text><text class="m" transform="translate(90.85 107.14)"><tspan x="0" y="0">AL</tspan></text><text class="m" transform="translate(23.17 119.14)"><tspan x="0" y="0">MONI</tspan></text><text class="n" transform="translate(52.42 119.14)"><tspan x="0" y="0">T</tspan></text><text class="m" transform="translate(58.34 119.14)"><tspan x="0" y="0">ORING</tspan></text><rect class="a" width="129.06" height="46.14" rx="12" transform="translate(720.89 241.93)"/><text class="p" transform="translate(737.28 262.58)"><tspan x="0" y="0">C</tspan></text><text class="q" transform="translate(744.4 262.58)"><tspan x="0" y="0">OM</tspan></text><text class="p" transform="translate(762.37 262.58)"><tspan x="0" y="0">P</tspan></text><text class="q" transform="translate(769.53 262.58)"><tspan x="0" y="0">LEMEN</tspan></text><text class="r" transform="translate(806.57 262.58)"><tspan x="0" y="0">T</tspan></text><text class="q" transform="translate(812.24 262.58)"><tspan x="0" y="0">A</tspan></text><text class="p" transform="translate(819.73 262.58)"><tspan x="0" y="0">R</tspan></text><text class="q" transform="translate(826.94 262.58)"><tspan x="0" y="0">Y </tspan></text><text class="q" transform="translate(735.41 274.58)"><tspan x="0" y="0">MODE</tspan></text><text class="q" transform="translate(768.34 274.58)"><tspan x="0" y="0">L</tspan></text><text class="q" transform="translate(774.28 274.58)"><tspan x="0" y="0">S OF </tspan></text><text class="p" transform="translate(800.88 274.58)"><tspan x="0" y="0">S</tspan></text><text class="p" transform="translate(807.07 274.58)"><tspan x="0" y="0">T</tspan></text><text class="q" transform="translate(812.96 274.58)"><tspan x="0" y="0">U</tspan></text><text class="r" transform="translate(820.85 274.58)"><tspan x="0" y="0">D</tspan></text><text class="q" transform="translate(828.81 274.58)"><tspan x="0" y="0">Y</tspan></text><rect class="a" width="76.77" height="40.65" rx="12" transform="translate(159.16 59.03)"/><text class="s" transform="translate(179.77 75.93)"><tspan x="0" y="0">MN</tspan></text><text class="t" transform="translate(197.45 75.93)"><tspan x="0" y="0">P</tspan></text><text class="s" transform="translate(204.53 75.93)"><tspan x="0" y="0">Ls </tspan></text><text class="u" transform="translate(173.51 87.93)"><tspan x="0" y="0">I</tspan></text><text class="u" transform="translate(176.61 87.93)"><tspan x="0" y="0">n</tspan></text><text class="u" transform="translate(183.45 87.93)"><tspan x="0" y="0">gestion</tspan></text><rect class="a" width="76.77" height="40.65" rx="12" transform="translate(159.16 119.2)"/><text class="s" transform="translate(179.87 136.11)"><tspan x="0" y="0">MN</tspan></text><text class="t" transform="translate(197.55 136.11)"><tspan x="0" y="0">P</tspan></text><text class="s" transform="translate(204.63 136.11)"><tspan x="0" y="0">Ls </tspan></text><text class="u" transform="translate(171.86 148.11)"><tspan x="0" y="0">Inhalation</tspan></text><line class="v" y2="15.36" transform="translate(197.54 160.59)"/><rect class="w" width="20.48" height="20.48" transform="translate(186.82 182.63)"/><circle class="a" cx="36.86" cy="36.86" r="36.86" transform="translate(488.58 138.4)"/><line class="x" x2="100.92" transform="translate(393.23 176.26)"/><path class="a" d="M393.42,180a3.76,3.76,0,1,1,3.76-3.76A3.76,3.76,0,0,1,393.42,180Z"/><circle class="a" cx="17.01" cy="17.01" r="17.01" transform="translate(157.37 0)"/><line class="v" y1="15.36" transform="translate(197.64 44.94)"/><rect class="w" width="20.48" height="20.48" transform="translate(164.32 11.03)"/><circle class="a" cx="17.01" cy="17.01" r="17.01" transform="translate(203.69 0)"/><rect class="w" width="20.48" height="20.48" transform="translate(210.66 5.96)"/><line class="f" y2="1" transform="translate(762.44 216.2)"/><path class="i" d="M762.44,219.23v1.52c0,3.72,1.73,6.76,3.85,6.76h38.82c2.11,0,3.85-3,3.85-6.76v-2.54"/><line class="f" y1="1" transform="translate(808.96 216.2)"/><circle class="a" cx="17.01" cy="17.01" r="17.01" transform="translate(745.43 181.97)"/><line class="v" y1="15.37" transform="translate(785.7 226.91)"/><circle class="a" cx="17.01" cy="17.01" r="17.01" transform="translate(791.75 181.97)"/><line class="f" y1="1" transform="translate(808.58 313.46)"/><path class="i" d="M808.58,311.44v-1.52c0-3.72-1.73-6.77-3.85-6.77H765.91c-2.12,0-3.85,3.05-3.85,6.77v2.53"/><line class="f" y2="1" transform="translate(762.06 313.46)"/><circle class="a" cx="17.01" cy="17.01" r="17.01" transform="translate(791.57 314.67)"/><line class="v" y2="15.36" transform="translate(785.32 288.39)"/><circle class="a" cx="17.01" cy="17.01" r="17.01" transform="translate(745.25 314.67)"/><text class="y" transform="translate(504.31 169.46)"><tspan x="0" y="0">Ef</tspan></text><text class="z" transform="translate(512.88 169.46)"><tspan x="0" y="0">f</tspan></text><text class="y" transform="translate(515.68 169.46)"><tspan x="0" y="0">e</tspan></text><text class="aa" transform="translate(520.82 169.46)"><tspan x="0" y="0">c</tspan></text><text class="y" transform="translate(525.65 169.46)"><tspan x="0" y="0">ts on </tspan></text><text class="ab" transform="translate(500.26 179.66)"><tspan x="0" y="0">Respi</tspan></text><text class="ac" transform="translate(524.42 179.66)"><tspan x="0" y="0">r</tspan></text><text class="ab" transform="translate(527.92 179.66)"><tspan x="0" y="0">a</tspan></text><text class="ad" transform="translate(533.08 179.66)"><tspan x="0" y="0">t</tspan></text><text class="ab" transform="translate(536.53 179.66)"><tspan x="0" y="0">o</tspan></text><text class="ae" transform="translate(542.02 179.66)"><tspan x="0" y="0">r</tspan></text><text class="ab" transform="translate(545.71 179.66)"><tspan x="0" y="0">y </tspan></text><text class="ac" transform="translate(514.28 189.86)"><tspan x="0" y="0">T</tspan></text><text class="ac" transform="translate(519.29 189.86)"><tspan x="0" y="0">r</tspan></text><text class="ab" transform="translate(522.79 189.86)"><tspan x="0" y="0">a</tspan></text><text class="ae" transform="translate(528 189.86)"><tspan x="0" y="0">c</tspan></text><text class="ab" transform="translate(532.99 189.86)"><tspan x="0" y="0">t</tspan></text><circle class="a" cx="36.86" cy="36.86" r="36.86" transform="translate(488.58 225.21)"/><line class="x" x2="116.2" transform="translate(379.17 263.07)"/><path class="a" d="M379.36,266.83a3.76,3.76,0,1,1,3.76-3.76,3.76,3.76,0,0,1-3.76,3.76Z"/><text class="y" transform="translate(504.31 256.27)"><tspan x="0" y="0">Ef</tspan></text><text class="z" transform="translate(512.88 256.27)"><tspan x="0" y="0">f</tspan></text><text class="y" transform="translate(515.68 256.27)"><tspan x="0" y="0">e</tspan></text><text class="aa" transform="translate(520.82 256.27)"><tspan x="0" y="0">c</tspan></text><text class="y" transform="translate(525.65 256.27)"><tspan x="0" y="0">ts on </tspan></text><text class="ab" transform="translate(502.02 266.47)"><tspan x="0" y="0">Secu</tspan></text><text class="ab" transform="translate(523.38 266.47)"><tspan x="0" y="0">n</tspan></text><text class="ab" transform="translate(529.25 266.47)"><tspan x="0" y="0">da</tspan></text><text class="ae" transform="translate(540.25 266.47)"><tspan x="0" y="0">r</tspan></text><text class="ab" transform="translate(543.95 266.47)"><tspan x="0" y="0">y</tspan></text><text class="ab" transform="translate(509.49 276.67)"><tspan x="0" y="0">O</tspan></text><text class="ac" transform="translate(516.65 276.67)"><tspan x="0" y="0">r</tspan></text><text class="ab" transform="translate(520.13 276.67)"><tspan x="0" y="0">gans</tspan></text><circle class="a" cx="36.86" cy="36.86" r="36.86" transform="translate(584.43 269.07)"/><line class="x" x2="137.89" transform="translate(446.83 306.93)"/><path class="a" d="M447,310.69a3.76,3.76,0,1,1,3.76-3.76A3.76,3.76,0,0,1,447,310.69Z"/><text class="z" transform="translate(598.85 300.14)"><tspan x="0" y="0">L</tspan></text><text class="y" transform="translate(603.79 300.14)"><tspan x="0" y="0">o</tspan></text><text class="y" transform="translate(609.12 300.14)"><tspan x="0" y="0">n</tspan></text><text class="y" transform="translate(614.89 300.14)"><tspan x="0" y="0">g </tspan></text><text class="af" transform="translate(622.95 300.14)"><tspan x="0" y="0">t</tspan></text><text class="y" transform="translate(626.24 300.14)"><tspan x="0" y="0">e</tspan></text><text class="z" transform="translate(631.37 300.14)"><tspan x="0" y="0">r</tspan></text><text class="y" transform="translate(634.71 300.14)"><tspan x="0" y="0">m </tspan></text><text class="y" transform="translate(601.61 310.34)"><tspan x="0" y="0">ef</tspan></text><text class="z" transform="translate(609.62 310.34)"><tspan x="0" y="0">f</tspan></text><text class="y" transform="translate(612.43 310.34)"><tspan x="0" y="0">e</tspan></text><text class="aa" transform="translate(617.56 310.34)"><tspan x="0" y="0">c</tspan></text><text class="y" transform="translate(622.4 310.34)"><tspan x="0" y="0">ts or </tspan></text><text class="ab" transform="translate(591.03 320.54)"><tspan x="0" y="0">a</tspan></text><text class="ac" transform="translate(596.23 320.54)"><tspan x="0" y="0">c</tspan></text><text class="ab" transform="translate(601.1 320.54)"><tspan x="0" y="0">cumulation</tspan></text><circle class="a" cx="36.86" cy="36.86" r="36.86" transform="translate(582.96 180.8)"/><line class="x" x2="144.48" transform="translate(439.06 218.66)"/><path class="a" d="M439.24,222.42a3.76,3.76,0,1,1,3.76-3.76A3.76,3.76,0,0,1,439.24,222.42Z"/><text class="y" transform="translate(598.69 205.9)"><tspan x="0" y="0">Ef</tspan></text><text class="z" transform="translate(607.26 205.9)"><tspan x="0" y="0">f</tspan></text><text class="y" transform="translate(610.06 205.9)"><tspan x="0" y="0">e</tspan></text><text class="aa" transform="translate(615.2 205.9)"><tspan x="0" y="0">c</tspan></text><text class="y" transform="translate(620.03 205.9)"><tspan x="0" y="0">ts on </tspan></text><text class="ab" transform="translate(602.74 216.1)"><tspan x="0" y="0">inmu</tspan></text><text class="ab" transform="translate(625.75 216.1)"><tspan x="0" y="0">n</tspan></text><text class="ab" transform="translate(631.62 216.1)"><tspan x="0" y="0">e </tspan></text><text class="ac" transform="translate(599.56 226.3)"><tspan x="0" y="0">S</tspan></text><text class="ac" transform="translate(604.82 226.3)"><tspan x="0" y="0">y</tspan></text><text class="ab" transform="translate(609.67 226.3)"><tspan x="0" y="0">s</tspan></text><text class="ad" transform="translate(614.05 226.3)"><tspan x="0" y="0">t</tspan></text><text class="ab" transform="translate(617.5 226.3)"><tspan x="0" y="0">em &amp; </tspan></text><text class="ab" transform="translate(609.68 236.5)"><tspan x="0" y="0">DNA</tspan></text><circle class="a" cx="39.61" cy="39.61" r="39.61" transform="translate(485.83 313.88)"/><line class="x" x2="90.22" transform="translate(399.93 357.24)"/><path class="a" d="M400.12,361a3.76,3.76,0,1,1,3.76-3.76A3.76,3.76,0,0,1,400.12,361Z"/><text class="y" transform="translate(504.31 348.92)"><tspan x="0" y="0">Ef</tspan></text><text class="z" transform="translate(512.88 348.92)"><tspan x="0" y="0">f</tspan></text><text class="y" transform="translate(515.68 348.92)"><tspan x="0" y="0">e</tspan></text><text class="aa" transform="translate(520.82 348.92)"><tspan x="0" y="0">c</tspan></text><text class="y" transform="translate(525.65 348.92)"><tspan x="0" y="0">ts on </tspan></text><text class="ab" transform="translate(490.66 359.12)"><tspan x="0" y="0">Gast</tspan></text><text class="ac" transform="translate(510.36 359.12)"><tspan x="0" y="0">r</tspan></text><text class="ab" transform="translate(513.85 359.12)"><tspan x="0" y="0">oin</tspan></text><text class="ad" transform="translate(527.61 359.12)"><tspan x="0" y="0">t</tspan></text><text class="ab" transform="translate(531.06 359.12)"><tspan x="0" y="0">estinal </tspan></text><text class="ac" transform="translate(514.28 369.32)"><tspan x="0" y="0">T</tspan></text><text class="ac" transform="translate(519.29 369.32)"><tspan x="0" y="0">r</tspan></text><text class="ab" transform="translate(522.79 369.32)"><tspan x="0" y="0">a</tspan></text><text class="ae" transform="translate(528 369.32)"><tspan x="0" y="0">c</tspan></text><text class="ab" transform="translate(532.99 369.32)"><tspan x="0" y="0">t</tspan></text><circle class="a" cx="37.15" cy="37.15" r="37.15" transform="translate(879.93 225.85)"/><text class="q" transform="translate(898.76 259.52)"><tspan x="0" y="0">POLI</tspan></text><text class="p" transform="translate(923.62 259.52)"><tspan x="0" y="0">C</tspan></text><text class="q" transform="translate(930.79 259.52)"><tspan x="0" y="0">Y </tspan></text><text class="q" transform="translate(895.77 271.52)"><tspan x="0" y="0">MAKERS</tspan></text><line class="f" x1="1" transform="translate(989.63 265)"/><line class="k" x1="38.49" transform="translate(949.17 265)"/><line class="f" x1="1" transform="translate(947.18 265)"/><line class="x" y2="24.83" transform="translate(366 110.3)"/><path class="a" d="M361.01,133.67,366,142.3l4.99-8.63Z"/><circle class="a" cx="17.01" cy="17.01" r="17.01" transform="translate(900.07 315.5)"/><line class="v" y2="15.37" transform="translate(916.99 299.65)"/><rect class="w" width="21.76" height="21.76" transform="translate(751.45 321.7)"/><rect class="w" width="20.48" height="20.48" transform="translate(798.3 321.4)"/><rect class="w" width="21.76" height="21.76" transform="translate(751.53 188.08)"/><rect class="w" width="17.92" height="17.92" transform="translate(799.92 190.14)"/><rect class="w" width="19.2" height="19.2" transform="translate(907.5 322.93)"/><circle class="b" cx="53.4" cy="53.4" r="53.4" transform="translate(988.47 212.6)"/><text class="m" transform="translate(1021.31 263.58)"><tspan x="0" y="0">HUMAN</tspan></text><text class="m" transform="translate(997.31 275.58)"><tspan x="0" y="0">BIOMONI</tspan></text><text class="n" transform="translate(1045.78 275.58)"><tspan x="0" y="0">T</tspan></text><text class="m" transform="translate(1051.7 275.58)"><tspan x="0" y="0">ORING</tspan></text></svg>