<svg xmlns="http://www.w3.org/2000/svg" width="101.975" height="139.226" viewBox="0 0 101.975 139.226"><defs><style>.a{fill:#54d6c6;}</style></defs><path class="a" d="M502.45,150.249l0,.012c-.008.008-.021.021-.027.013S502.442,150.243,502.45,150.249Zm4.055,93.674c-.79-.14-.481-2.02-1.262-2.01-.51,0-.255,1.415-.863,1.442-.245.01-.069-.66-.47-.648-.355.012-.207.806-.545.861-.462.077-.721-.495-.982-.792-.1-.119-.079-.4-.261-.424-.318-.033-.384.458-.6.608a.765.765,0,0,1-.464.019c-.09-.6-.547-.6-.992-.79-.366-.157-.437-.913-.8-1.191-.748-.572-16.953-19.486-36.011-44.88-.391-.522.136-1.176-.169-1.628-.236-.351-1.18-.1-1.308-.32-3.147-5.376,2-9.948,2.676-10.671,2.123-2.255,12.089-11.521,14.149-14.122.146-.184.51-.182.625-.361a2.031,2.031,0,0,1,1.885-1.21,1.019,1.019,0,0,0,.827-1.3c-.125-.414.24-.652.595-.61a1.464,1.464,0,0,0,1.423-.738c.073-.1.148-.226.247-.253.825-.23.69-1.18,1.3-1.636.272-.2.719.221.955.021a.2.2,0,0,0,.036-.238c-.165-.251-.4-.033-.554-.426-.151-.374,2.323-2.449,2.651-2.766.871-.84,2.325-2.14,2.773-2.489.568-.447,4.687.819,5.633,1.784.083.084.42.019.566-.082.435-.3.993-.974.522-1.279-.34-.217-.79.155-1.185.238-1.279.267-2.839-.432-1.536-1.27.221-.142.322.38.581.387,1.068.029,3.266-.478,3.021-1.78-.088-.472-.79-.192-1.187-.192-1.8,0-.3-.606-.077-.875.274-.328.823.025,1.039-.094.389-.213.468-.637.7-.894.136-.153,1.536-.226,1.6-.393.391-1.015.228-.376.963-.838.547-.343.052-1.346.445-1.82a2.247,2.247,0,0,1,1.354-.861c1.435-.161,1.922-1.469,3.255-2.16.5-.259.748-1.018,1.089-1.563.334-.529.606-1.055,1.331-1.218.4-.088.608-.825,1.2-.859a.987.987,0,0,1,.873.5c.175.456-.817,1.011-.487,1.488.368.531,1.018-.071,1.485-.3.844-.428-.23-.2-.075-1.07.05-.276-1.026-.245-.88-.616.272-.689,1.406-.044,2.035-.466.215-.144.654-.7,1-.316.93,1.034-1.845.9-.963,2.041.506.656.226.7.806.226a8.042,8.042,0,0,0,.828-.932c.2-.217-.265,2.129-.023,2.06,1.387-.4.945,1.07,1.985.272.357-.272.842-1.066,1.243-.685.328.313-.458.926-.257,1.331a.209.209,0,0,0,.2.1c.564-.071.738-1.438,1.423-1.2.5.176-.1,1.03.238,1.22.418.23.944-.926,1.417-.55.618.491,1.939-4.16,3.184-3.725.125.042.315-.079.468-.138.633-.242,1.431-.056,1.367.572-.094.936-1.389-.171-1.977.111-.61.292-.14,1.949.376,1.467.157-.148.464-.121.662-.242.566-.345,1.442-.272,1.59-1.224.023-.142.643-.742,1.018-.384.57.545-.244.466.2.875s1.21-1.922,1.743-1.442c.261.236-.8.867-.315,1.172.827.518,1.431-.533,2-.226.606.33-1.147,1.866-1.362,2.223a9.621,9.621,0,0,1-3.1,3.22c-.351.169-.949,1.1-.288,1.287,1.369.4,3.067-2.434,3.753-3.565.14-.23.01-.639.236-.806.907-.669,1.4-2.407,2.215-2.829.219-.113.347-.552.587-.474s-.167.721.221.871c.581.221,1.015-.332,1.636.161.669.529-1.208,1.54-.748,1.979.5.478,1.534-.224,1.926-.838.054-.084.2-.366-.015-.531-.249-.192-.589.328-.806.188a.164.164,0,0,1-.031-.188c.445-.648.629-.169,1.107-.527v-.021c.456-.4.188-.422.309-.543.247-.249.566-.656.909-.573,1.1.261-.171,2.386.69,1.728,2.913-2.223,6.074-1.5,4.419,1.575-.506.942-7.21,7.762-7.438,7.624-1.281-.765-.625-1.764-1.185-1.92s-1.16.683-1.16,1.32c0,.458.978.57.978,1.109a2.9,2.9,0,0,1-1.364,1.943c-.516.364-2.121-.109-1.956.573.042.175.424-.067.537.077a.178.178,0,0,1-.025.2,3.048,3.048,0,0,1-.838.466c-.938.226-.907.219-1.433,1.381-.106.232-.612.393-.93.387-.292-.006-.533-.456-.913-.464-.652-.011-.771,1.275-1.705,1.2-.081-.008-.174.251-.276.376a19.005,19.005,0,0,1-2.158,2.4,2.52,2.52,0,0,0-.708,1.463c-.077.575-.458,1.6-.924,1.093-.274-.3.713-.809.407-1.149-.612-.673-1.857,1.049-1.4,1.586.136.159.366-.353.631-.286.3.075.886.439.679.888-.311.673-1.513-.347-1.953.107-.3.307.052.779-.046,1.076-.079.236-.28.549-.677.307-.127-.079-.372-.207-.474-.082-.136.165.483.479.251.712-.359.357-.928-.666-1.481-.535-1.3.309-4.108,2.242-2.428,3.105,0,0,1.195-.119,1.132-1.055-.046-.7,1.172-1.891,1.78-1.183.326.38-.217.842-.416,1.135a11.523,11.523,0,0,1-2.021,1.832c-.34.309-.608.618-1.2.453-.294-.082-.725.3-1.084.487a8.784,8.784,0,0,0-1.5.844,19.483,19.483,0,0,0-2.447,2.252c-.338.389-.769,1.1-.512,1.621.6,1.22,1.4-2.052,2.106-1.423.844.752-1.047,2.031-1.891,2.656-.477.353-.648,1.245-1.4,1.369-.048.01-.451.013-.518-.251-.213-.857,1.753-1.235,1.484-2.041-.2-.606-1.022-.159-1.371.38a2.387,2.387,0,0,1-.982.938,2.628,2.628,0,0,0-1.433,1.452c-.3.6-.522,1.344-1.4,1.444-.125.013-.207.328-.328.489-.219.293-.4.744-.685.832a2.07,2.07,0,0,0-1.444,1.713c-.048.194-.393.384-.263.618.387.687,1.325-.163,1.5-.832.332-1.3,1.383-1.841,2.39-2.451.428-.259.984-1.5,1.548-.928.4.407-.428.779-.635,1-.5.52-1.013,1.026-1.559,1.494-.756.646-.522,1.929-1.469,2.43-.606.32-1.007-.069-1.364.3-.907.934-1.8,1.88-2.7,2.827-.106.111-.259.293-.23.4.3,1.026-1.588,1.364-1.137,2.2.18.336.963-.685,1.208-.176.554,1.158-1.477,2.173-.713,2.758.545.418,1.895-1.047,1.828-.14-.033.426-.871.29-1.043.654-.359.76.178.951.827.783.735-.19,1.377-.282,1.895.424.054.075.269.023.4.048.347.067,1.055-.259,1.218.253.343,1.084-2.1,1.256-2.121,2.292-.011.562.788.928,1.224,1.419.036.042.3.274.453.015.284-.489-.848-.8-.79-1.306.075-.673.577-.786,1.5-1.27.5-.263.7.476.4.9-.213.3-.683.758-.43,1.1.4.541,1.369-.527,1.742-.088.441.522,0,1.293-.353,1.617-1.082.992-2.077.857-.988,1.341.905.4,2.591-1.22,2.946.017.267.934-2.488,3.414-.932,2.745a.828.828,0,0,0,.506-.435c.169-.353,0-1.005.466-.938,1.193.171-.648,1.862-.079,2.614.393.52,1.387,1.857,1.688.876.146-.472-.917-.56-.934-1.068-.021-.61.857-.338,1.513-.14,1.446.432-.075,1.937.894,2.677.451.343.786-.631,1.116-.558.781.173-.608,1.009-.3,1.381.554.666.527.476,1.112.875.263.178.752-.253,1.055.023.426.387.255,1.022.936,1.133.236.038.412.476.6.742.223.316.232.512.623.579.583.1.679-.236.309-.625-.656-.685-.894-1.649-1.722-2.267a1.993,1.993,0,0,1-.869-1.82.239.239,0,0,1,.236-.155c1.8.274,3.443,2.388,3.533,4.331.035.767-1.887,1.289-1.366,2.029.568.807,1.318-.19,2.624-.449,1.036-.205-.272,1.089-.094,1.573.424,1.147.758-1.114,1.147-.474.336.556.221,1.024,1.026,1.291a3.976,3.976,0,0,1,1.7,1.751c.495.8,1.009,1.456,1.578,2.317.949,1.431,2.72,2.1,3.291,3.75.088.259.121.813-.221.911-.631.176-.888-.832-1.249-1.254s-.449-1.08-1.024-1.417c-.309-.182-1.078.3-1.358-.153-.182-.3.667-.681.428-1.134-.226-.43-.852-.211-1.028-.635-.3-.738-.311-.838-.825-1.043-.466-.186-.683-.6-1.492-.176-.936.5,1.18,1.137,2.158,1.9.767.6.3,1.051.923,1.8a42.7,42.7,0,0,1,3.322,4.534c.257.428.911.493,1.279.965.228.292.034.788.219,1.072.125.2.675.027.875.3.119.167-.278.558-.019.809.307.3.915-.349,1.31-.061.481.351.579,1.034,1.107,1.423.232.169.533.41.566.652.165,1.233,8.792,8.115,7.112,10.585-1.042,1.529-7.877.752-8.512.451-.6-.286-.393-2.334-1.431-2.735-.518-.2-1.007.472-.713,1.183.027.063-.111.28-.175.282-.886.015-.915.8-1.218,1.333-.121.217-.1.7-.416.7-1.172,0-.516-1.488.117-2.079.259-.242.652-.458.307-.974-.518-.773-.462-2.42-1.465-2.463-.689-.031-.863.924-1,1.408-.182.641.485,1.437.117,1.941a1.762,1.762,0,0,1-2.219.581c-.284-.2.266-.994-.109-1.208-.294-.169-.666.462-.921.393-.29-.079-.341-.9-.763-.829-.819.138-.115,2.043-.944,2.374-.489.2-.947-.838-1.458-.666-.219.073-.169.445-.28.522a2.065,2.065,0,0,1-1.841.24c-.086-.029-.222-.447-.518-.5-.713-.123-1.277.89-1.883.852-.537-.033-.842-.658-1.289-.758-1.439-.322-.188-1.32-1.665-1.974-.483-.213-.666.84-1.133.865-1.191.067-1.314-1.843-.664-2.512.334-.343,1.038.245,1.454-.082.435-.345,1-1.379.485-1.638-.859-.435-1.343,1.308-2.2,1.389-.545.05,1.018-.282.079-.838-.3-.178.1-.715-.054-1a1.149,1.149,0,0,0-.926-.706,2.1,2.1,0,0,0-1.406,2.915c.261.37.8-.255,1.07-.1A.393.393,0,0,1,507,240c-.054.491-.355.834.219,1.429C507.95,242.193,507.839,244.159,506.5,243.923Zm6.661-1.059c-.029,0-.088.027-.092.065a.092.092,0,0,0,.075.09.093.093,0,0,0,.094-.071C513.246,242.908,513.194,242.866,513.165,242.864Zm4.329-.3a.166.166,0,0,0-.192.136c0,.107.175.244.263.184S517.6,242.605,517.494,242.567Zm1.88-2.3c-.345-.082-.947.543-.675.94C519.082,241.767,519.818,240.373,519.373,240.265Zm-5.587-.445c-.464-.545-1.774.083-1.757.583.011.334.811.537,1.283.326C513.62,240.591,514.022,240.1,513.786,239.82Zm4.808-.629c-.071-.013-.125.088-.153.15s-.048.152.006.182c.081.046.224-.036.253-.127A.162.162,0,0,0,518.595,239.191Zm7.568-.343c-.011.13.33.422.487.407a.53.53,0,0,0,.433-.886C526.719,237.937,526.2,238.341,526.163,238.848Zm-.558-1.519c-.029-.006-.084-.012-.09.019s.04.05.069.056.086.01.092-.021S525.632,237.333,525.6,237.329Zm8.447-90.64a.682.682,0,0,0,.669-.533.175.175,0,0,0-.136-.171.68.68,0,0,0-.667.535A.174.174,0,0,0,534.051,146.689Zm-.359.455c.038,0,.082-.05.084-.079a.117.117,0,0,0-.071-.084c-.029,0-.088.033-.09.073A.094.094,0,0,0,533.693,147.144Zm4.043,2.56c.27.428,1.124-.236.971-.662C538.476,148.4,537.252,148.943,537.736,149.7Zm-1.118.455c.056.017.123-.069.127-.111.008-.063.011-.184-.061-.2s-.121.075-.125.119C536.552,150.024,536.55,150.141,536.618,150.159Zm-9.868-5.232c-.4-.293-1.241.213-1.1.844C525.894,146.808,527.448,145.441,526.75,144.927Zm-9.839,5.292c.644.334,2.085-.888,1.506-1.578C517.918,148.043,516.05,149.773,516.911,150.218Zm-9.5,22.344a.11.11,0,0,0-.084.071c0,.029.031.088.071.09a.094.094,0,0,0,.09-.077C507.5,172.608,507.442,172.566,507.415,172.562Zm1.2-1.013c1.015.951,3.682-1.04,3.395-2.371C511.761,168.043,507,170.036,508.612,171.549Zm-1.588-2.532c-.341-.219-.629.315-.658.456a.477.477,0,0,1-.6.455c-.721-.084-.965.3-1,.955-.015.265-.376.539-.247.783.269.508.552-.591,1.026-.656C506.539,170.874,507.968,169.622,507.024,169.018Zm-6.732,1.811a.155.155,0,0,0,.136.134,1.181,1.181,0,0,0,1.041-1.055.194.194,0,0,0-.176-.173A1.176,1.176,0,0,0,500.292,170.828Zm-15.52-.748c-.067-.1-.288.027-.326.138a.111.111,0,0,0,.073.132C484.642,170.366,484.843,170.18,484.772,170.08Zm1.352-1.268c-.857-.712-1.6.748-1.206,1.155C485.57,170.646,486.77,169.346,486.124,168.813Zm18.525-.1c-.644-.326-1.479.811-1.26,1.3C503.733,170.771,505.589,169.188,504.649,168.713Zm14.854-2.244a.108.108,0,0,0-.082.071c0,.027.031.086.071.09a.1.1,0,0,0,.09-.077A.1.1,0,0,0,519.5,166.469Zm-4.66-.3c-.606-.5-1.3.376-1.366,1.162-.023.282-.309.539-.462.815-.1.178-.579.441-.33.689C513.6,169.747,515.906,167.056,514.843,166.173Zm-7.574,2.518c.88.928,2.808-1.5,2.1-2.154S506.435,167.811,507.269,168.692Zm-1.237-1.671c.107-1.124-1.864-.355-2.4.176-.205.2-.3.641-.084.8C504.222,168.515,505.94,167.982,506.032,167.021Zm3.167,1.333c-.011.038.054.092.071.088.069-.017.192-.01.2-.083.008-.036-.06-.079-.081-.075C509.325,168.3,509.216,168.289,509.2,168.354Zm-1.571-2.066c-.013-.067-.121-.065-.186-.081-.023-.006-.09.033-.086.069.01.073.127.111.2.1C507.592,166.367,507.638,166.325,507.628,166.288Zm2.135-.3c-.067-.006-.188,0-.209.067s.058.127.117.144.194-.006.213-.079S509.8,165.989,509.763,165.985Zm.157-.842c-.084-1.523-2.537-.082-1.8.633C508.518,166.168,509.964,165.934,509.92,165.143Zm-5.209-.176a.073.073,0,0,0-.011-.086.6.6,0,0,0-.706-.015c-.059.052-.088.18-.031.234A.577.577,0,0,0,504.711,164.967Zm8.176-1.091c-.407-1.114-2.1.441-1.989,1.157C511.055,166.01,513.215,164.777,512.887,163.876Zm-23.243.084a.55.55,0,0,0,.364-.591.209.209,0,0,0-.23-.134.554.554,0,0,0-.3.623A.163.163,0,0,0,489.643,163.96Zm-2.407-.205,0-.013c-.23.015-.244.531-.075.687a.176.176,0,0,0,.232-.044C487.509,164.2,487.288,163.966,487.236,163.755Zm7.58-.027a.26.26,0,0,0,.265.217.539.539,0,0,0,.318-.614.128.128,0,0,0-.128-.082A.539.539,0,0,0,494.816,163.728Zm10.075-.7a.211.211,0,0,0,.015-.269.56.56,0,0,0-.7-.015.179.179,0,0,0-.013.221A.56.56,0,0,0,504.891,163.024Zm3.282.723a.15.15,0,0,0,.094.165.655.655,0,0,0,.717-.4.172.172,0,0,0-.107-.188A.656.656,0,0,0,508.173,163.747Zm-6.446.364c.1.123.326.1.47.065s.345-.109.385-.261a.16.16,0,0,0-.075-.157.692.692,0,0,0-.782.094A.219.219,0,0,0,501.727,164.112Zm8.427.092c.971.378,1.463-.848,2.056-1.592a1.637,1.637,0,0,1,1.229-.619c.113-.015.393.1.414.3.042.4-.683.5-.712.829s.1.738.462.784c.811.1,1.066-1.053,1.536-1.542.453-.468,1.139-.491,1.018-1.168-.234-1.3-1.333,1-2.135.583-.3-.157.029-.629-.13-.8-.635-.666-1.435.284-1.962.955-.545.7-1.657.733-2.012,1.747C509.9,163.724,509.885,164.1,510.154,164.2Zm-8.017-2.4c-.1-.065-.255.142-.238.257a.078.078,0,0,0,.092.052C502.1,162.077,502.231,161.864,502.137,161.8Zm4.77-.959c-.038-.012-.094.054-.09.069.015.071.006.192.079.207.038.008.081-.059.077-.082C506.962,160.97,506.972,160.863,506.907,160.843Zm4.482.192a.518.518,0,0,0,.495-.435.158.158,0,0,0-.14-.148.523.523,0,0,0-.441.479A.107.107,0,0,0,511.389,161.035Zm-5.376-.04a.59.59,0,0,0-.51.535.232.232,0,0,0,.2.207.588.588,0,0,0,.556-.493A.275.275,0,0,0,506.013,160.995Zm10.664,1.423c.075.788,1.784-.169,1.688-.754C518.217,160.771,516.61,161.7,516.677,162.418Zm-.071,2.739c.629.107,1.185-.735,1.051-1.241-.209-.788-.917.378-1.264.667C516.358,164.612,516.262,165.1,516.606,165.157Zm4.53-2.163c-.554-.664-2.3.992-1.722,1.525S521.667,163.632,521.136,162.993Zm-1.778-.694c-.38-.336-2.2,1.11-1.133,1.46C518.976,164,519.753,162.65,519.358,162.3Zm.729-3.044c-1.674.176-1.753,1.532-.934,1.8.543.178,1.525-1.421,1.828-.575.207.581-1,.75-.971,1.22a.205.205,0,0,0,.173.175c.834.073,2.227-.568,2.148-1.527S520.837,159.179,520.087,159.255Zm3.6-1.456c.13.09.372-.153.36-.311a.179.179,0,0,0-.205-.13C523.7,157.41,523.562,157.712,523.691,157.8Zm5.481-.715c-.451-.121-.852.524-.832.9a.2.2,0,0,0,.184.161C528.906,158.126,529.911,157.282,529.172,157.084Zm-5.616.844c-.107-.163-.489.01-.552.2a.2.2,0,0,0,.148.228C523.346,158.371,523.662,158.093,523.556,157.928Zm-1.191-.643,0,0c.215-.1.838.251.9-.194C523.378,156.39,522.051,157.075,522.365,157.286Zm1.743-1.066c-.111-.1-.464.031-.447.244.013.173.29.113.3.1C524.021,156.457,524.2,156.3,524.109,156.219Zm6.552-.443c-.029,0-.088.031-.088.069a.094.094,0,0,0,.084.082.092.092,0,0,0,.084-.071C530.743,155.817,530.689,155.778,530.66,155.776Zm2.376-1.987c-.639-.282-2.089.853-1.429,1.421.485.416,1.379-.042,1.653-.541A.709.709,0,0,0,533.037,153.789Zm-6.258.2c-.391-.389-1.139,1.133-.495,1.11C526.69,155.082,527.066,154.273,526.779,153.987Zm-6.632.456c.606.558,1.218-.265,1.022-.832C520.871,152.754,519.675,154.008,520.146,154.443Zm3.307-1.624c-.046.56.533.29.821-.04.267-.307.359-.589.017-.7C523.62,151.848,523.486,152.431,523.453,152.819Zm-3.243-.163c.422.341,1.469-.474,1.055-.988C520.806,151.1,519.663,152.217,520.21,152.656Zm2.068-.188c0,.023.033.09.069.086.073-.01.111-.125.1-.2-.008-.036-.05-.082-.086-.075C522.291,152.3,522.293,152.4,522.277,152.468Zm4.012-.721a.933.933,0,0,0,.027-1.172c-.6-.533-1.828.817-1.281,1.381C525.421,152.355,526.1,151.963,526.289,151.747Zm-9.459-.385a.109.109,0,0,0-.106-.094c-.036,0-.067.058-.065.084,0,.052,0,.144.05.153S516.836,151.425,516.83,151.361Zm7.4-.579c.008-.063.046-.163-.01-.194s-.123.019-.142.069c-.025.065.006.182.075.2C524.187,150.864,524.228,150.809,524.23,150.782Zm6.617.468c-.155,0-.339.19-.3.265.063.111.387.015.424-.138C530.987,151.319,530.906,151.252,530.846,151.25Zm5.942-.019c.067,0,.173-.086.14-.144s-.2-.019-.226.054C536.69,151.181,536.746,151.231,536.788,151.231Zm.268-.7c-.1.073-.125.336-.008.359s.178-.226.123-.33A.087.087,0,0,0,537.057,150.529Zm-27.645-.56a.907.907,0,0,0-.965.6.355.355,0,0,0,.27.366.9.9,0,0,0,.878-.725A.244.244,0,0,0,509.412,149.969Zm11.734-.813a.429.429,0,0,0-.524.146c-.046.1.1.292.13.288.171-.027.422,0,.5-.153A.239.239,0,0,0,521.146,149.156Zm-1.408-.232c-.067.012-.174,0-.194.071-.01.036.056.09.071.086.071-.017.192-.01.205-.081C519.828,148.962,519.761,148.92,519.738,148.924Zm-6.893-.19c-.035-.035-.127,0-.138.046a.086.086,0,0,0,.088.088C512.841,148.858,512.877,148.766,512.845,148.734Zm16.646-2.626c-.034-.036-.126,0-.138.046a.086.086,0,0,0,.088.088C529.487,146.233,529.523,146.143,529.49,146.108Zm-19.812,1.256c.432.324,1.4-.393,1.229-.884C510.6,145.6,508.974,146.833,509.678,147.364Zm2.3-.142a.55.55,0,0,0-.428.549.163.163,0,0,0,.163.123.549.549,0,0,0,.464-.51A.2.2,0,0,0,511.98,147.222Zm-8.916,3.719c.29-.42,1.237-.226,1.35-.725.015-.067-.059-.134-.121-.167-.178-.092-.43.025-.614.1a1.725,1.725,0,0,0-.541.462C502.8,150.941,502.983,151.058,503.063,150.941Zm1.519,1.2c.7-.276,1.128-1.18,1.8-1.634.836-.572,1.272-1.561,2.246-1.975.4-.171.938-1.026.284-1.118-.527-.075-.7.815-1.126,1.028a8.173,8.173,0,0,0-3.2,3.061.972.972,0,0,1-1.155.522,1,1,0,0,0-1,.5c-.044.132.069.292.174.386C503.232,153.459,503.957,152.391,504.582,152.146Zm1.473.97c.664.514,1.872-.353,2.263-1.093a1.144,1.144,0,0,0-.157-1.053c-.054-.09-.153-.222-.253-.188C506.84,151.152,505.092,152.372,506.055,153.116Zm10,.32c-.027.123.092.33.217.311.6-.092,1.979-.646,1.158-1.122C516.913,152.324,516.163,152.951,516.057,153.436Zm-1.881,0a.221.221,0,0,0,.163.249.161.161,0,0,0,.065-.313C514.333,153.364,514.2,153.364,514.176,153.438Zm-9.35.4c.071.023.19,0,.209-.075s-.077-.129-.127-.14-.177-.008-.2.059S504.763,153.818,504.826,153.837Zm-5.209,1.231c.416.132.959-.585.773-.972C500.075,153.435,498.654,154.764,499.617,155.069Zm3.3-.549a.227.227,0,0,0-.23-.132c-.292.029-.953.915-.255.944C502.835,155.349,502.99,154.785,502.921,154.52Zm15.4,1.431a.289.289,0,0,0,.253.247c.6.029,1.442-.535,1.4-1.13-.01-.165-.278-.361-.537-.324A1.375,1.375,0,0,0,518.322,155.951Zm-12.15-.913c0,.027.033.086.071.09s.082-.05.084-.077-.031-.088-.071-.09S506.176,155.009,506.172,155.038Zm6.617.19h0C512.839,155.245,512.814,155.147,512.789,155.228Zm-11.465.157c.081.035.364-.15.357-.2-.04-.228-.027-.55-.234-.662a.3.3,0,0,0-.307.067A.463.463,0,0,0,501.324,155.385Zm-.138.591c.019,0,.05-.042.042-.059s-.054-.023-.063-.01S501.168,155.974,501.186,155.976Zm14.968.378c.481.422,2.083-.65,1.4-1.3C516.951,154.484,515.6,155.868,516.153,156.354Zm-2.8.134a.22.22,0,0,0-.261-.092.716.716,0,0,0-.364.8.178.178,0,0,0,.2.1A.711.711,0,0,0,513.355,156.488Zm.9,1.649c.547.527,2.15-.648,1.676-1.429C515.384,155.8,513.652,157.552,514.258,158.137Zm-9.118-.8a.056.056,0,0,0-.023-.063c-.029-.013-.075-.044-.1-.019a.073.073,0,1,0,.121.082Zm-6.889.111c.364.533.7-.209.533-.566-.042-.084-.159-.173-.247-.142C498.194,156.858,498.046,157.15,498.251,157.447Zm.631,1.162c1.826,2.785-.85-3.023,2.484-1.531C500.689,156.776,498.362,157.817,498.882,158.609Zm5.489.142c0,.052-.061.031,0,0Zm-.019.011Zm9.34.545a.538.538,0,0,0,.439-.853C513.694,157.986,512.912,159.223,513.692,159.307Zm-.915.3a.094.094,0,0,0,.09-.075.1.1,0,0,0-.079-.084.107.107,0,0,0-.083.071C512.7,159.551,512.737,159.61,512.778,159.612Zm1.162.236c-.192.315.027.5.338.677.838.479,1.385-.472,1.765-1.5.075-.205.382-.71.683-.527.579.351-.811,1.438-.291,1.885.5.433,1.258-.056,1.561-.485.261-.366-.514-1.147-.054-1.427.288-.176.5.535.85.478a.6.6,0,0,0,.4-.474c.071-.919.426-1.222,1.435-1.6,1.358-.512,3.567-1.4,3.352-2.938-.027-.2-.416-.286-.52-.232a13.251,13.251,0,0,0-2.027,1.185,22.693,22.693,0,0,0-1.63,1.586c-.595.558-1.126,1.2-2.127,1.032a1.449,1.449,0,0,0-1.118.364C515.785,158.667,514.523,158.895,513.94,159.848Zm-22.664.669c.318.075.805-.326.689-.708C491.734,159.048,490.654,160.37,491.276,160.517Zm-4.12,1.6c.027,0,.088-.029.094-.067s-.05-.082-.079-.086-.09.027-.094.067S487.127,162.115,487.156,162.119Zm5.389.309a10.079,10.079,0,0,0,1.448-.351c.061-.017.152-.136.14-.19-.144-.75.773-1.329.581-2.016a.248.248,0,0,0-.236-.159c-1.128.079-2.869,1.076-2.677,2.386C491.853,162.455,492.35,162.451,492.545,162.428Zm-5.3,1.2c.79.55,1.7-.924.83-1.22C487.557,162.232,486.686,163.237,487.242,163.626Zm-1.935,1.751c.293.311,1.291-1.08.376-1.015-.276.019-.159.407-.215.556S485.2,165.259,485.307,165.377Zm-1.8,1c.071-.017.192-.008.205-.081.006-.038-.059-.079-.082-.075-.067.01-.177,0-.194.069C483.429,166.325,483.495,166.379,483.512,166.375Zm1.822,1.082c.169.28.62-.038.877-.169.33-.167.571-.633.938-.593.052.008.063.088.109.115a1.416,1.416,0,0,0,1.084.234c.485-.2.414-.836.689-1.045a22.568,22.568,0,0,1,2.476-1.661c.433-.245.629-.807.132-.892-.781-.136-1.122,1.045-1.684,1.529a2.441,2.441,0,0,1-.817.526c-.667.205-1.392.249-2.031.51C486.408,166.3,484.876,166.7,485.334,167.457Zm12.235.631c.5.775,1.444-.353,1.373-.9C498.861,166.538,497.129,167.407,497.568,168.088Zm-7.967.761a.228.228,0,0,0,.207.194,1.085,1.085,0,0,0,.959-.93.24.24,0,0,0-.2-.228A1.063,1.063,0,0,0,489.6,168.849Zm-9.287,1.972c.547.286,1.27-.376,1.5-.946.142-.355.3-1.358-.341-1.373C480.468,168.479,479.452,170.37,480.315,170.821Zm4.921,1.124c.006.036.067.035.1.031s.1-.013.1-.052-.063-.071-.081-.065C485.313,171.875,485.227,171.895,485.236,171.944Zm-2.489.472c.067.04.23-.027.213-.1s-.169-.056-.219,0A.077.077,0,0,0,482.747,172.416Zm18.99,1.686c.2.263.614-.117.855-.278a6.718,6.718,0,0,1,1.2-.867c.669-.247.5-.639.044-.98C502.716,171.139,500.875,172.961,501.736,174.1Zm4.058,2.745c-.04,0-.082.048-.084.077s.031.086.071.088a.094.094,0,0,0,.09-.075A.1.1,0,0,0,505.794,176.847Zm-6.488-.763c-.044.364.192.848.558.886.692.073.921-.938,1.339-1.391.073-.077.18-.23.113-.332C500.743,174.371,499.465,174.741,499.306,176.083Zm-.506-.915c-.493-.738-1.513.838-.756,1.018C498.472,176.287,499.053,175.548,498.8,175.169Zm-1.646.075c.013.011.067,0,.071-.021s-.042-.05-.06-.042S497.143,175.234,497.154,175.243Zm-1.4,3.17c.142.077.129-.161.136-.2.019-.075.109-.211.033-.232C495.81,177.953,495.547,178.3,495.752,178.414Zm.144,2.534c.445.042.733-.537,1.143-.7.387-.152,1.026.136,1.254-.224a.192.192,0,0,0-.067-.236c-.276-.167-.257-.023-.547-.19-.83-.478.47-.886.274-1.517a.617.617,0,0,0-.646-.428c-.453.094-.677.666-.688,1.066-.008.234.217.384.311.566.008.013-.027.081-.063.084s-.042-.054-.069-.05a1.476,1.476,0,0,0-1.1,1.446A.227.227,0,0,0,495.9,180.947Zm-2.486,2.488a.469.469,0,0,0-.349.445c.008.088.111.192.2.176a.468.468,0,0,0,.29-.535A.136.136,0,0,0,493.41,183.435Zm.276-1.878c-.372-.6-1.728.071-1.665.6C492.137,183.092,494.218,182.413,493.687,181.557Zm.527,1.5a.609.609,0,0,0,.574-.508.18.18,0,0,0-.152-.169.609.609,0,0,0-.562.52A.168.168,0,0,0,494.214,183.057Zm-3.5,1.022c.307.157.543-.391.8-.591.061-.048.313-.113.217-.3C491.278,182.29,489.906,183.663,490.716,184.079Zm8.466,2.854c-.067.015-.075.13-.071.194,0,.04.061.13.117.119s.094-.125.081-.192S499.239,186.922,499.181,186.933Zm-7.927-.081c.455.5,1.916-1.038,1.235-1.506C491.907,184.946,490.794,186.346,491.255,186.853Zm-19.521,4.264c.017,0,.048-.042.042-.059s-.054-.021-.063-.01S471.717,191.112,471.734,191.116Zm25.146-2.6c.027,0,.086-.031.088-.069a.091.091,0,0,0-.075-.09.1.1,0,0,0-.092.075A.1.1,0,0,0,496.88,188.514Zm1.383.274a.765.765,0,0,0,.481-.848.255.255,0,0,0-.3-.121.765.765,0,0,0-.382.867A.185.185,0,0,0,498.263,188.788Zm-2.683.974a.094.094,0,0,0,.09-.075c0-.04-.048-.082-.077-.084a.107.107,0,0,0-.082.071C495.507,189.7,495.541,189.76,495.58,189.762Zm-.29.631a.055.055,0,0,0,.063-.023c.013-.029.044-.075.019-.1s-.086-.006-.105.025A.077.077,0,0,0,495.29,190.393Zm.748.815c.593.541,1.972-1.1,1.258-1.628S495.512,190.729,496.038,191.208Zm-23.846,4.908c.537-.063,1.063-1.072.681-1.419C471.812,193.734,471.325,196.216,472.192,196.116Zm.629,1.563a.156.156,0,0,0,.174-.071.484.484,0,0,0-.153-.581.241.241,0,0,0-.3.1A.487.487,0,0,0,472.821,197.679Zm20.635-3.519a.979.979,0,0,0,.456-1.116.224.224,0,0,0-.259-.121.959.959,0,0,0-.4,1.166A.171.171,0,0,0,493.456,194.16Zm1.233,2.33a.779.779,0,0,0,.878-.669c.013-.324-.729-.3-.806-.735-.05-.288,1.134-.7.635-1.216-.431-.447-1,.338-1.155.583C493.792,195.161,493.88,196.258,494.69,196.49Zm3.815.783c.036.015.069-.044.09-.077s.023-.071,0-.084-.086.027-.1.054S498.47,197.259,498.5,197.273Zm-2.359,1.245a.509.509,0,0,0,.441.107c.132-.044.334-.28.307-.338a3.484,3.484,0,0,0-.631-1.02c-.088-.088-.727-.119-.85.247C495.225,198.073,495.925,198.28,496.145,198.517Zm-25.587,2.67c.18.2.683.255.813.017.581-1.059,1.346-1.375.811-2.012-.336-.4-.968.483-1.235.232-.171-.165.338-.583.1-.729-.328-.2-.819.244-.834.585-.029.621.8.692.449,1.222C470.545,200.675,470.4,201.011,470.558,201.187Zm-.127.2c.05-.008.092-.1.06-.138s-.132-.01-.148.038A.092.092,0,0,0,470.432,201.385Zm4.058,2.791a.3.3,0,0,0,.315-.2c.171-.867-.6-2.426-1.605-2.275-.282.044-.19.428-.15.485C473.518,202.854,473.684,204.024,474.49,204.175Zm28.554,2.931c.529-.848-1.323-1.414-1.709-2.2-.27-.549-.583-1.573-1.053-1.254-.288.194.059.725.226,1.007a17.041,17.041,0,0,1,1.093,1.507C501.888,206.8,502.674,207.695,503.044,207.106Zm.067.654c-.035,0-.044.065-.031.1s.071.082.1.056S503.167,207.756,503.111,207.76Zm-26.918-.736c-.01,0-.04.034-.033.056s.06.019.09.017c.011,0,.04-.029.034-.048S476.224,207.025,476.193,207.024Zm-.922.923c.368-.105.775-.625.527-.961-.328-.445-1.034-.013-1.3.267a.226.226,0,0,0-.038.236A.781.781,0,0,0,475.271,207.946Zm28.734,1.191a.122.122,0,0,0,.127-.084c.042-.188-.107-.478-.3-.5-.063-.008-.125.075-.13.138A.448.448,0,0,0,504.005,209.137Zm1.669,2.1c.038.012.1-.054.094-.059-.052-.129-.036-.334-.167-.38a.1.1,0,0,0-.119.056A.335.335,0,0,0,505.674,211.237Zm-24.107,3.351c-.027-.006-.063.042-.06.052C481.523,214.686,481.6,214.6,481.567,214.588Zm38.9,14.952a.282.282,0,0,0,.353-.215c.017-.153-.215-.222-.339-.311-.027-.019-.192.083-.186.1C520.332,229.247,520.292,229.484,520.467,229.54Zm-.157.449a.087.087,0,0,0,.04-.105c-.054-.1-.286-.171-.328-.067S520.2,230.025,520.309,229.989Zm1.826,2.539c.727-.41-.623-1.515-.905-.861C521.042,232.1,521.8,232.718,522.135,232.528Zm3.328,4.432c.409-.4-.318-.915-.529-1.224-.29-.422-.913-.767-.949-1.183-.065-.773-.631-1.195-1-.944C521.355,234.724,524.7,237.71,525.463,236.961Zm-19.716-.155c.244-.025.113-.307.1-.361a.24.24,0,0,0-.148-.142c-.042-.008-.151.09-.144.113C505.587,236.523,505.539,236.828,505.746,236.805Zm18.495-84c.01.013.021-.015.033-.029l0-.006C524.266,152.767,524.234,152.8,524.241,152.807Zm50.921,67.277c.01.01.029-.01.036-.021s.011-.023,0-.027S575.155,220.071,575.162,220.085Zm-17.336-68.307c.008.011.034,0,.042-.01s.01-.025,0-.029S557.818,151.766,557.826,151.777ZM574.713,219c-.011-.013-.042.012-.044.031l.006.006C574.687,219.032,574.721,219,574.713,219Zm-19.741-62.457c.015-.012-.012-.023-.025-.035l-.011,0C554.93,156.513,554.961,156.543,554.972,156.538Zm43.341-9.2c-.552.5-29.454,27.871-41.155,41.222-.109.125.192-.368.129-.545a.15.15,0,0,0-.14-.105c-.483.428-1.383.654-1.44,1.3a.218.218,0,0,0,.161.211c.324.054.531-.823.909-.606.623.355-.226,1.187-.689,1.609-.384.347-1.972,1.876-1.995,2.405-.015.364.522.46.549.723.159,1.523-.355.867.715,2.336.38.52-.782,1.7-.048,2.2.468.324.877-.564,1.356-.545.777.029,1.331.827,1.7,1.646.121.269.479.422.692.662.132.148.161.38.3.525.414.432,1.3.5,1.471.932.32.815,1.147,1.057,1.538,1.77.278.506.947.79,1.4,1.218.391.372,1.124.654,1.128,1.268,0,.332-.713.378-.635.744.213,1,1.276.93,2.223,1.956.28.3-.023.773-.023,1.134,0,.322.234.708.021,1.02-.357.529-.773.616-.226.978.491.324.662,1.252,1.578.921.092-.035.2.876.658.83.364-.035.1-.838.424-.846.472-.01.708.731.652,1.172-.033.259-.681.345-.69.733a1.133,1.133,0,0,0,.928,1.1c.368.029.47-.74.828-.71.961.084.117.65.15,1.82a1.99,1.99,0,0,0,.852,1.7c.326.2,1.124.99,1.529.249.56-1.028-2.8-2.033-1.619-2.666.489-.263.677.694.986.767.48.113.742.215.614.784-.031.136.236.349.38.512.378.424,1.214.694,1.149,1.258-.048.418-.926.315-1.032.7-.3,1.143.982,2.127,1.463,1.828.439-.272-.171-1.084.1-1.494a.727.727,0,0,1,.526-.234c.37-.05.79-.1.94.389.129.418-.113.57-.477.715a1.04,1.04,0,0,0-.619.595c-.173.6-.209,1.584.447,2a.691.691,0,0,0,.738-.169c1.02-.99.832-2.323,1.644-1.383.317.366-.222.819.084,1.2.234.288.543.058.756.635.067.184.4.27.6.412.232.161.445.357.689.5.4.226-.32,1.116.7,1.057.269-.015.562.736.88,1.1a1.68,1.68,0,0,0,1.241.761c.512.025-.109.42.307,1.007.65.921,1.509.677,2.252,1,.913.4,1.279,1.421,2.014,2.05a6.142,6.142,0,0,1,.677.664c.556.639,10.393,6.162,7.457,9.686-.656.788-5.694.393-6.688.441-.167.01-.385.19-.573.04-.236-.186.221-.921-.161-1-.4-.084-.173,1.145-.706,1.086-.752-.084-.372-1.755-1.11-1.584-.021.006-.067.065-.125.107a3.348,3.348,0,0,0-1.64,2.079c-.065.359-.838.236-1.151-.2-.334-.466-.393-1.339-.961-1.427-.681-.107-.892,1.394-1.622,1.287-.549-.081-.387-1.216-.944-1.35-.34-.082-.644.309-.946.508a.831.831,0,0,0-.328.443c-.211.827-.535,1.049-1.335.888q-.969-.2-1.945-.364a.784.784,0,0,0-.355.067c-1.072.347-.951-.412-1.859-.165-.455.123-.125,1.2-.664,1.343-.637.173-1.065-.5-1.682-.426-.278.033-.518-.637-1.026-.748-.232-.05-.606.368-1,.23-1.2-.422-1.753-1.929-2.363-3.05a11.452,11.452,0,0,0-2.2-2.384c-.627-.654-1.116-1.438-1.73-2.11-.242-.267-.627-.777-1.053-.6a1.377,1.377,0,0,0-.583,1.964c.549.577,1.287-.025,1.584.754.117.3.846.265,1.128.677.485.7.063,1.291-.019,2.689-.138,2.328,1.977,2.906.666,3.061-.8.1-1.329-1.183-2.165-1.087-.813.1-.882-.456-2.221-.316-.541.057-.508,1.3-1.126,1.293s-.558-1.016-1.258-1.066c-.259-.017-34.226-38.832-37.935-43.169-1.715-2-5.514-5.907-5.274-9.237.2-2.787.719-3.462,5.595-8.335,2.486-2.488,6.18-6.132,8.22-8.188.455-.456.8.811,1.191.4.433-.451.531-.514,1.275-1.321.326-.355,1.18-.384,1.375.115.263.667-.878.919-1.218,1.354-.121.159-.263.43-.167.629.175.368.639.063.965-.188.518-.4,1.118-.692,1.667-1.055.524-.345,2.077-.362,1.8-1.27-.322-1.051-2.338.7-2.888-.063-.652-.907.923-1.107,1.728-1.312.384-.1.483.533.719.57a3.276,3.276,0,0,0,2.066-.84c.441-.286.65-.907,1.049-1.287a14.712,14.712,0,0,1,1.3-.911c.1-.079-.059-.43.148-.526.6-.284,1.057.221,1.427-.414a5.427,5.427,0,0,1,1.147-1.3,1.479,1.479,0,0,1,.878-.265c1-.029,3.213-3.307,3.966-4.07h0c.054-.119-.18-.2-.175-.238.069-.478.771-1.084,1.03-.775.008.01-.042.023-.034.033.272.416.94-.351,1.36-.61.485-.3.217-.316-.012-1-.132-.4.575-.652.564-1.053-.01-.324-.859-.527-.614-1,.457-.878,2.223.573,2.8-.175.286-.37-.186-.733-.182-1s-.1-.679.194-.873c.487-.326.656,1.2,1.427.554.439-.37.29-.715.725-1.312.451-.618.585-1.015,1.1-1.137.6-.142,1-.044,1.4-.426a2.576,2.576,0,0,1,.658-.56c.157-.067.581-.107.685.159.341.88-2.355,1.736-1.383,2.326.265.161.533-.175.694-.318.518-.466,1.009-.965,1.5-1.458.3-.3.2-.978-.106-.924-.936.163-.938-.529-.687-.88.115-.157.418-.059.533-.18.625-.641,1.832-1.227,1.672-1.39-.194-.2.282-.8-.069-.961s-.481.71-.859.614a.631.631,0,0,1-.4-.832c.255-.42.853-.259,1.212-.506.261-.178.6-.084.483-.366s-.855-.063-.829-.361c.115-1.258,4.323-.769,3.132-2-.418-.433-.986.825-1.3.52-.769-.733.345-1,.968-1.057,1.2-.1.495-1.471,1.908-1.74.711-.136,1.158.946,1.245,1.6.052.389-.8.786-.5,1.172.529.673,1.592-.441,2.259-.32.752.138,1.811-1.392,2-.355.121.671-1.038.18-1.5,1.268-.184.433.177.456.207.9.113,1.644-3.506,1.753-2.771,3.328.449.961,1.851-.315,2.342-1.262a11.494,11.494,0,0,1,1.367-2.071c.332-.4.771-1.13,1.333-.972,1.176.33,1.414.955,2.246.8a.231.231,0,0,0,.15-.207c.025-.29-.508-.514-.4-.834.086-.251.616-.117.794-.4a1.742,1.742,0,0,0,.038-1.743c-.073-.123-.652.332-.781.05-.435-.961,1.076-2.077,2-1.766.644.215-.3.767-.42,1.17-.165.566.205.725.6.685.506-.052.556-.368.961-.514a2.018,2.018,0,0,0,1.346-1c.052-.111.52-.5.731-.19.524.786-1.555.834-1.354,1.649.161.65,1.369.261,1.571.773.18.458-.769.951-.551,1.45.247.562.832.012,1.084-.3.288-.359.6-.7.919-1.028a.819.819,0,0,1,.424-.23c1.16-.186.38-.671,1.354-1.356.491-.345,1.178.092,1.78.316.46.173,3.143-1.738,3.161-.894.015.717-3.713,3.353-2.842,4.049.393.315,2.284-2.227,2.647-2.3.378-.079.79.485,1.237.309.478-.188.226-2.156.683-2.338,1.022-.409,2.229,1.3,3.163.629a2.283,2.283,0,0,1,.738-.458C593.922,142.531,603.9,142.3,598.314,147.341Zm-23.148-1.711c.476.242,1.323.272,1.456-.153.105-.345-.478-.758-.861-.735C575.4,144.765,574.493,145.289,575.166,145.63Zm-.781-.316c-.063,0-.123.111-.088.163s.126.031.153-.013S574.439,145.316,574.385,145.314Zm-.155.362c.044-.025.06-.121.017-.15s-.167.023-.165.084S574.184,145.7,574.23,145.676Zm-11.874,96.777a.109.109,0,0,0-.084.073c0,.027.031.086.071.09a.093.093,0,0,0,.09-.077C562.437,242.5,562.383,242.457,562.356,242.454Zm20.413-7.217c-.219.4.224,1.231.769,1.126.453-.088.495-.784.244-1.1A.664.664,0,0,0,582.769,235.236Zm-1.5-1.916a.218.218,0,0,0-.115.247.628.628,0,0,0,.719.349.239.239,0,0,0,.113-.28A.63.63,0,0,0,581.265,233.32Zm-52.893-34.674a.679.679,0,0,0,.944-.052,1.263,1.263,0,0,0-.623-1.638c-.23-.09-.681.065-.694.349A1.574,1.574,0,0,0,528.372,198.646Zm-4.505.031c.6.52.978-.882.46-.806C524.007,197.919,523.449,198.314,523.867,198.677Zm5.957,1.066c.056.023.184.038.213-.029.038-.086-.094-.175-.167-.226-.031-.023-.178.01-.2.082S529.761,199.716,529.824,199.743Zm1.584,1.444a.145.145,0,0,0,.075-.163.073.073,0,0,0-.075-.023c-.038.046-.119.094-.1.152A.083.083,0,0,0,531.408,201.187Zm1.3,8.5c.3-.015.794-.282.623-.656-.315-.681-1.8-1.427-1.812-.362A1.206,1.206,0,0,0,532.713,209.689Zm5.478.059a1.02,1.02,0,0,0,1.279.029c.545-.589-.539-1.985-1.461-1.013C537.73,209.058,537.951,209.544,538.19,209.749Zm-2.137,2.012c.029,0,.088-.031.09-.071a.084.084,0,1,0-.167-.013C535.973,211.715,536.027,211.759,536.054,211.761Zm3.763.537c.364-.5-.328-1.12-.721-1.158-.313-.031-.884.347-.748.8C538.5,212.463,539.464,212.785,539.817,212.3Zm3.3-.71a.221.221,0,0,0,.063.3.169.169,0,0,0,.215-.1c.023-.073-.061-.148-.113-.2C543.256,211.563,543.156,211.544,543.121,211.588Zm-4.007,1.705c.021-.013.017-.052.006-.075a.082.082,0,0,0-.071-.04c-.031.012-.088.033-.081.067C538.979,213.3,539.071,213.322,539.115,213.293Zm1.392.161c.441.493.871-.685,1.676-.341.042.017.318-.282.3-.407-.086-.6-.788-1.3-1.444-1.118A1.218,1.218,0,0,0,540.507,213.454Zm-.587.445c-.211-.351-.554-.163-.259.217C539.913,214.436,540.095,214.193,539.92,213.9Zm-5.205.89c.04,0,.083-.048.086-.077a.112.112,0,0,0-.073-.084c-.027,0-.086.033-.09.071A.1.1,0,0,0,534.715,214.789Zm.938.667c.079,0,.155-.1.157-.178a.689.689,0,0,0-.533-.644.176.176,0,0,0-.171.14A.676.676,0,0,0,535.653,215.457Zm3.648.278c.151-.558-.861-1.807-1.392-.967a.8.8,0,0,0,.048.938C538.33,216.07,539.193,216.134,539.3,215.735Zm-2.595.947a.209.209,0,0,0,.259-.063.553.553,0,0,0-.211-.664.142.142,0,0,0-.167.042A.553.553,0,0,0,536.706,216.682Zm3.817,1.1c.013-.015.006-.082-.015-.084s-.029.067-.017.082Zm4.687.117a.7.7,0,0,0,.648-.309,1.757,1.757,0,0,0-.205-2.014c-.1-.1-.27.017-.387-.013-1.258-.332-1.465-.6-1.492-1.891,0-.209.109-.606-.1-.625-.974-.1-2.372,2.234-1.074,2.608.284.082.451-.46.711-.433.495.052.642.664.98.9a1.538,1.538,0,0,1,.738,1.554A.235.235,0,0,0,545.21,217.894Zm1.615-.959c.268.453.639.286.725-.127.065-.315-.476-.573-.829-.5C546.466,216.356,546.652,216.644,546.825,216.935Zm-5.313,2.589c.43.529,1.454-.341,1.137-.873C542.057,217.662,540.931,218.805,541.512,219.525Zm3.891.136c.065.031.153-.04.192-.09.023-.031.012-.157-.05-.182s-.146.056-.192.107A.148.148,0,0,0,545.4,219.661Zm1.851.211c.418.192,1.3-.288.963-.928-.316-.61-1.111-.809-1.684-1.187-.046-.031-.244.155-.247.165A1.826,1.826,0,0,0,547.254,219.872Zm1.366.83c.222.113.811-.023.767-.435C549.3,219.385,547.991,220.38,548.62,220.7Zm-6.318.775c.51.5,1.4-.182,1.456-.643.054-.418-.5-.819-.905-.713S541.809,221,542.3,221.477Zm4.419.683c.232-.01.654-.441.376-.744C546.612,220.884,546.159,222.183,546.721,222.16Zm-5.769-.081a.2.2,0,0,0,.228-.173.268.268,0,0,0-.209-.272c-.071,0-.148.107-.142.15C540.843,221.882,540.841,222.05,540.952,222.079Zm8.962,3.261c.393-.069.978-.646.627-1.082-.4-.493-1.3,0-1.383.443C549.09,225.044,549.556,225.4,549.915,225.34Zm3.074.453c1.694-1.358-1.948-5.834-3.621-4.582-.99.74-2.15,2.511-.761,2.656.666.071.424-1.229.882-1.369C551.092,222.006,551.593,226.911,552.989,225.792Zm25.909-1.057c-.169.013-.378.3-.27.432s.445-.021.485-.19A.234.234,0,0,0,578.9,224.736Zm-1.231-.867a.467.467,0,0,0,.489-.435c-.021-.211-.341-.316-.554-.313a.211.211,0,0,0-.2.119C577.335,223.454,577.445,223.819,577.667,223.869Zm-13.192-14.893c-.4.625.794.61.988.3a.245.245,0,0,0,0-.28C565.247,208.782,564.681,208.658,564.476,208.976Zm-4.778-5.62c-.491.171-.3,1.005-.027,1.2.426.3,1.2,1.224,1.27.3C560.987,204.229,560.429,203.1,559.7,203.356Zm-1.059-3.078a.346.346,0,0,0-.075.38c.094.127.773.533.639.088C559.159,200.6,558.779,200.211,558.639,200.278Zm-5.748-3.957a.34.34,0,0,0-.01.424.089.089,0,0,0,.109,0,.335.335,0,0,0,.01-.422A.087.087,0,0,0,552.891,196.321Zm-1.847-1.281c-.38.109-.334.752-.673,1.015-.366.284-.915-.132-1.371.51l0,0a.658.658,0,0,0,.387.66c.121.046.3-.219.466-.15a.173.173,0,0,1,.088.182c-.069.292-.625.263-.681.506-.077.328.3.666.52.986a18.4,18.4,0,0,0,1.933,2.672c.487.493,1.254.7,1.358,1.542,0,.029.15.052.232.058.641.052.884.55,1.172,1.015a4.794,4.794,0,0,0,.579.811c1.2,1.25,2.422,2.478,3.621,3.727.43.449.963.829,1.038,1.538a.717.717,0,0,0,.382.479,2.336,2.336,0,0,1,1.158,1.256,5.06,5.06,0,0,0,.769,1.26c1.2,1.306,2.424,2.6,3.681,3.845a41.28,41.28,0,0,1,3.583,3.784c.869,1.112,1.977,2.033,2.923,3.088.662.738,1.227,1.559,1.833,2.344.585.756,1.419,1.235,2,2.043.8,1.1,1.5,3.178,2.877,2.98.829-.119-.2-.326-.639-1.6-.111-.316-.04-1.977-.322-2.152-1.036-.641-2.184.013-2.681-.852-.4-.692-.243-1.218-.788-1.655a2,2,0,0,1-.616-.7c-.284-.681-.031-1.776-.744-2.16a13.212,13.212,0,0,1-1.9-1.11c-.836-.627.242-2.139-.583-2.242-.938-.117-.876.573-1.36-.1-.593-.83-1.166-1.676-1.809-2.465-.654-.8-1.475-1.486-2.05-2.338-.593-.876-1.78-1.258-1.972-2.474a1.079,1.079,0,0,0-.708-.669c-.813-.184-1.183-.842-1.692-1.362a4.713,4.713,0,0,0-.711-.7c-.644-.42-.491-.953-.949-1.749-.081-.138-.347-.013-.462-.123-.363-.341-.253.01-.493-.01-1.118-.081-1.249-1.864-2.1-2.624-.606-.537-1.1-1.26-1.69-1.73A13.517,13.517,0,0,1,552,199.766c-.489-.658-.746-1.145-1.189-1.661a.96.96,0,0,1-.138-1.333c.307-.476.852-1.08.627-1.615A.232.232,0,0,0,551.044,195.04Zm-25.265-1.109c-1.183-.919-2.267,1.885-2.141,3.059.019.171.207.328.361.464.067.063.468-.247.573-.3.412-.2.24-.209.476-.832l-.012-.015C524.617,195.522,526.593,194.563,525.779,193.932Zm-4.73-9.442c.056-.012.132-.069.119-.127s-.129-.075-.192-.071c-.042,0-.132.061-.121.117S520.981,184.505,521.05,184.49Zm33.1,5.608c-.228,0-.119.32-.09.366.056.1.144.3.242.242C554.443,190.621,554.445,190.1,554.149,190.1Zm-35.021-1.755c-.318-.6-1.452.972-.763,1.122C518.806,189.559,519.341,188.742,519.128,188.343Zm2.683-.157c-.015.006-.023.054-.011.063s.067,0,.069-.021S521.826,188.178,521.811,188.186Zm13.717-.932a.914.914,0,0,0-.827.8.179.179,0,0,0,.153.159.917.917,0,0,0,.867-.756A.22.22,0,0,0,535.528,187.253Zm20.85.389c-.031.031.011.125.019.125.077,0,.188.044.234-.019a.072.072,0,0,0-.021-.077C556.535,187.656,556.434,187.585,556.378,187.643ZM532.9,185.3c-.025-.125-.288-.146-.378-.058C532.158,185.6,532.931,185.464,532.9,185.3Zm1.814-.972c-.159-.556-1.062.219-1.509.474-.113.065-.1.274.042.387C533.754,185.594,534.893,184.954,534.715,184.332Zm-10.278-.226c-1.346-.591-1.27,2.043-2.139,2.883-.14.136-.247.627-.036.809,1.159,1,2.507-1.26,2.773-2.338A1.234,1.234,0,0,0,524.437,184.106Zm-1.475-1.44c-.7-.466-2.081.209-1.9,1.032.077.345.89.224.942.654.136,1.093-1.279,1.444-1.814,2.075-.462.541-1.235,1-.478,1.306,1.155.458,1.843-.807,2.3-2.092.234-.652-.036-1.414,1.07-1.444.154,0,.359-.311.376-.43A1.2,1.2,0,0,0,522.962,182.666Zm.993-1.916c.136.378.549-.031.666-.084.1-.048.247-.142.244-.263a.173.173,0,0,0-.144-.15C524.51,180.228,523.79,180.293,523.955,180.75Zm2.85,1.066c.05-.017.148-.113.107-.18-.351-.575-.345-.813-.671-1.072-.664-.524-.706.583-.9,1.02-.165.363-1.17.449-1,.857C524.694,183.279,526.027,182.085,526.805,181.816Zm1.076-1.732c-1-.614-1.408.552-.426.969A.529.529,0,0,0,527.881,180.084Zm-2.355-.756c-.113.059-.188.334-.067.378s.221-.207.182-.326A.094.094,0,0,0,525.526,179.329Zm23.155-5.625c-.368-.727-1.268.823-.807.974C548.215,174.791,548.929,174.192,548.681,173.7Zm-18.157,1.678c-.136-.568-.644-.186-.942.455-.086.188-.339.435-.5.428-.491-.029-.5.353-.66.621-.111.188-.547.376-.385.61.1.15.33-.088.483-.09,1.483-.033,1.523-.073,1.993-1.571A.687.687,0,0,0,530.524,175.381Zm43.345-28.065c.441-.077.5-.844.261-1.024C573.779,146.035,573.229,147.426,573.87,147.316Zm1.272.424c.1-.054.073-.309.054-.315-.159-.059-.359-.217-.5-.119a.205.205,0,0,0-.042.247A.417.417,0,0,0,575.141,147.74Zm-4.6,1.7c.514.257,1.674-.7,1.078-1.25C570.8,147.431,569.944,149.142,570.544,149.441Zm2.946-1.02a.092.092,0,0,0,.077.09c.038,0,.081-.052.083-.081s-.031-.086-.071-.09A.094.094,0,0,0,573.49,148.421Zm-.259.491c0,.029.031.088.071.09a.094.094,0,0,0,.09-.077.092.092,0,0,0-.077-.09C573.275,148.831,573.233,148.885,573.231,148.912Zm-4.106-.533c-.174.161-.213.679.021.712s.34-.485.209-.685A.176.176,0,0,0,569.125,148.379Zm-.426,1.335c.234.044.456-.307.374-.468C568.971,149.046,568.116,149.6,568.7,149.714Zm5.781,1.64c.341-.226-.276-.923.027-1.231.4-.407,1.08.033,1.329-.059.974-.362,2.2-.79,2.223-1.759.021-.928-1.318-.288-1.893.031a8.089,8.089,0,0,0-2.1,1.586C573.45,150.588,573.6,151.935,574.48,151.354Zm4.555-1.31a.132.132,0,0,0,.165.075c.1-.058.146-.3.038-.347S579.008,149.934,579.035,150.044Zm-.508.3c-.025.067.006.182.073.2.036.01.075-.046.079-.073.008-.063.046-.161-.012-.194S578.545,150.293,578.526,150.341Zm-.677.669c.008.138.194.228.315.263.065.021.3-.069.3-.226,0-.182-.251-.232-.385-.282C578.041,150.749,577.845,150.893,577.849,151.01ZM561.8,149.39c-.046.01-.082.1-.05.136s.126,0,.138-.048A.087.087,0,0,0,561.8,149.39Zm-.126.205c-.165-.178-.919-.2-.932.274C560.724,150.536,561.9,149.836,561.675,149.595Zm1.03,2.754c.117.706.583.2.917-.008.29-.178.416-.69.549-1,.175-.412.859-.9.251-1.128C563.38,149.819,562.483,151.01,562.705,152.349Zm2.534-.725c-.437-.2-.806.437-1.011.775-.037.061-.086.161-.037.211.188.2.641-.173.746-.059.7.744,1.293.255,1.567-.221C567.013,151.449,566.108,152.023,565.239,151.624Zm4.72,3.427c0,.063.065.134.073.119.266-.629,1.312-.2,1.929-.357.571-.148,1.86-.155,1.659-.9-.182-.677-1.178-.416-1.761-.234s-1.4.036-1.822.541C569.88,154.413,569.972,154.76,569.959,155.051Zm-6.024-2.119c-.479-.175-.936.479-.746.951.113.276.673.341.934.117A.647.647,0,0,0,563.935,152.932Zm11.747.595c.317.585,1.728-.978.907-1.224C575.96,152.115,575.475,153.145,575.682,153.527Zm-7.38-1.112c.006-.012-.052-.075-.054-.073-.054.033-.121.061-.148.111-.013.029.008.144.067.148C568.252,152.608,568.265,152.477,568.3,152.414Zm4.208-.309a.452.452,0,0,0-.574.042.239.239,0,0,0,.094.3.442.442,0,0,0,.516-.186A.139.139,0,0,0,572.51,152.105Zm-12.683,1.239a2.623,2.623,0,0,0,2.152-2.829.13.13,0,0,0-.123-.1,3.25,3.25,0,0,0-2.457,1.828c-.215.374.065.6.255.992A.181.181,0,0,0,559.826,153.344Zm-1,1.918a.414.414,0,0,0,.479-.175.176.176,0,0,0-.048-.207.41.41,0,0,0-.508.111A.219.219,0,0,0,558.827,155.262Zm3.262.178c.284-.4,1.009-.817.771-1.241-.1-.184-.566-.006-.566.006-.061,1.116-1.475.433-1.632,1.055C560.425,156.2,561.574,156.16,562.09,155.441Zm11.663,2.112c.036.182.4.244.539.2a5.863,5.863,0,0,0,.861-.5c.681-.382,1.164-1.074,2.046-1.162.5-.052.537-.447.222-.829-.15-.18-.134-.713-.631-.733C575.327,154.466,573.455,156.118,573.753,157.552Zm-14.154-.606c-.061.013-.06.115-.069.176-.006.027.027.09.065.094a.153.153,0,0,0,.146-.142C559.74,157.013,559.662,156.933,559.6,156.946Zm9.613.025a.212.212,0,0,0,.18.178c.217.008.721-.175.6-.51-.094-.265-.43-.052-.516,0C569.364,156.708,569.2,156.827,569.211,156.971Zm-.556-.357c.006-.061.011-.182-.061-.2s-.121.075-.125.117c-.006.063-.008.178.059.2S568.651,156.657,568.655,156.614Zm-1.435.209a.516.516,0,0,0,.715-.318C567.945,156.181,566.6,156.423,567.22,156.823Zm-16.483,2.555c.157-.038.259-.242.363-.4.079-.121.255-.272.176-.393-.123-.186-.543-.083-.646.029C550.448,158.81,550.12,159.53,550.737,159.378Zm-.8,2.618c2.269,1.162,6.446-2.992,5.407-5.412-.063-.146-.3-.008-.4-.081-.364-.272-.464-.2-.635.033-.512.7-.955,1.456-1.5,2.131-.161.2-.644.075-.905.334C551.106,159.8,548.729,161.38,549.936,162Zm9.118-3.949c.088.061.253-.1.249-.209a.12.12,0,0,0-.13-.1C559.065,157.767,558.965,157.982,559.054,158.047Zm15.88.84c-.033-.441-.769-.349-1.137-.506a1.126,1.126,0,0,0-1.561.539c-.3.99-1.122,1.461-1.789,2.1-.4.386-1.387.708-1.116,1.264.389.806,1.072-.3,1.467-.713.543-.57.97-1.4,1.728-1.611C573.553,159.668,575,159.791,574.934,158.887Zm5.942.713c.036.105.27.069.334-.023a.129.129,0,0,0-.052-.169C581.05,159.371,580.839,159.493,580.876,159.6Zm-6.07,1.007c-.008.008.012.205.163.222.324.036.9-.286.811-.7C575.653,159.558,575.043,160.36,574.806,160.608Zm-17.6-.729c.376.265,1.252-1.155.359-.949C557.285,158.995,556.859,159.635,557.208,159.879Zm7.405.648a.184.184,0,0,0,.154.165.543.543,0,0,0,.526-.443.246.246,0,0,0-.226-.222A.542.542,0,0,0,564.614,160.527Zm-9.131,1.026c.487.315,1.1-.416.988-.717C556.342,160.491,554.809,161.116,555.482,161.553Zm-8.523.882a.107.107,0,0,0,.152-.015c.025-.05-.029-.146-.083-.142A.116.116,0,0,0,546.959,162.435Zm13.89.612c0,.4.535.529.829.455.98-.245,3.261-2.6,1.584-2.476C561.948,161.124,560.839,161.918,560.849,163.047Zm8.594,1.291c.539.545,1.906-.1,1.947-.865C571.459,162.2,568.344,163.229,569.443,164.338Zm2.94-.648c.027.006.092.01.09-.021,0-.056-.14-.084-.163-.033C572.3,163.663,572.356,163.684,572.383,163.69Zm-5.641,1.4a.2.2,0,0,0-.219-.13.775.775,0,0,0-.495.846.17.17,0,0,0,.184.105A.78.78,0,0,0,566.743,165.092Zm2.587.322a.289.289,0,0,0,.366.01.075.075,0,0,0,0-.1.292.292,0,0,0-.366-.01A.078.078,0,0,0,569.33,165.414Zm-3.2,2.209c.219.806.075.257.249.508.364.524.813-.257.963-.708.132-.389.161-.646.711-.608.284.017.884-.236.932-.65a.729.729,0,0,0-.646-.767C567.278,165.354,565.855,166.586,566.135,167.623Zm4.68-2.279c.349,0,.867-.472.7-.781-.19-.355-.99.129-.919.535C570.615,165.209,570.7,165.345,570.814,165.345Zm-3.028-.464c.336.1,1.182-.43.888-.97C568.3,163.226,567.249,164.723,567.786,164.881Zm-7.883-.614c-.359,1.1,1.943.621,1.385-.121C561.01,163.776,560.047,163.826,559.9,164.267Zm-8.669.807c.292.2.75-.514.4-.752C551.148,163.987,551.006,164.919,551.234,165.074Zm-.418.242c.113.05.355-.069.32-.188s-.288-.086-.362.01A.134.134,0,0,0,550.816,165.316Zm9.227.33c-.023-1.009-1.726-.234-1.417.247C558.881,166.292,560.059,166.313,560.043,165.646Zm-17.937,3.276c.067.178.472.061.56-.106a.152.152,0,0,0-.082-.182C542.408,168.579,542.04,168.749,542.107,168.922Zm-.566.466c.188.044.456-.224.382-.384C541.834,168.814,541,169.265,541.541,169.388Zm-3.046,1.977c.734.3,2.829-.938,1.688-1.567C539.468,169.4,537.6,170.993,538.5,171.365Zm25.675-.867c.942.562,2.75-.955,2.02-1.857-.222-.276-.566-.15-.9-.065C564.111,168.874,563.01,169.808,564.171,170.5Zm-.854.43c.035.035.127,0,.138-.046a.088.088,0,0,0-.086-.09C563.321,170.8,563.285,170.893,563.317,170.928Zm-.054.071c-.261-.169-.905.048-.924.458C562.285,172.572,563.674,171.262,563.263,171Zm4.509-.643c-.107-.008-.163.146-.215.236-.025.044-.073.194.038.247a.3.3,0,0,0,.387-.205A.262.262,0,0,0,567.772,170.356Zm1.02-.376c.057.006.117-.094.09-.144a.1.1,0,0,0-.14,0C568.712,169.877,568.743,169.975,568.793,169.981Zm1.477-1.9c-.439.562-1.676,1.1-1.3,1.7.478.767,1.841-.846,1.584-1.592C570.506,168.042,570.285,168.061,570.27,168.078Zm4.655-2.2c.269.221.957-.038.865-.309S574.349,165.4,574.924,165.874Zm-.61-1.669c-.972-1.072-1.743,1.724-2.923,2.522-.238.161-1.009.861-.487,1.237.593.428.9-.736,1.245-1.007C573.179,166.133,575.183,165.165,574.315,164.206Zm5.32-.949a.472.472,0,0,0-.566.192.169.169,0,0,0,.063.2c.175.092.38-.113.566-.18C579.7,163.467,579.7,163.291,579.635,163.256Zm-1.881.017c.412.138.758-.514.652-.823C578.143,161.664,577.241,163.1,577.753,163.273Zm-1.5-1.312c-.884-.117-2.363,1.35-1.569,1.874.372.245.8-.408,1.159-.664C576.186,162.926,577.009,162.063,576.25,161.962Zm2.727-2.083c-.393-.829-1.552.432-2.045,1.155a.77.77,0,0,0-.115.729.213.213,0,0,0,.213.088C577.909,161.668,579.393,160.761,578.977,159.879Zm1.625.249a.16.16,0,0,0,.207.061c.127-.1.136-.453-.023-.483S580.538,159.99,580.6,160.128Zm2.825-.984c-.412-.641-1.669.817-.742,1.1C583.2,160.4,583.638,159.472,583.427,159.144Zm-5.412-1.091c-.416-.809-1.672.531-1.064.911C577.3,159.183,578.283,158.575,578.014,158.053Zm-9.862-.66a1.481,1.481,0,0,0-1.442.1c-.188.092-.324.376-.523.577-.18.182-1.015.224-.775.7.36.715,1.295-.2,1.757-.37C567.682,158.214,568.731,157.792,568.152,157.393Zm17.622-.163c-.266.031-1.26.65-.416.838.353.079.635-.357.637-.619A.234.234,0,0,0,585.774,157.23Zm-1.634-.907c.33.238,1.022-.019,1.017-.466C585.149,155.184,583.507,155.868,584.14,156.323Zm-3.353-1.2c-.733-.094-2.087,1.619-1.327,1.945.859.366,1.556-1.066,1.521-1.761A.226.226,0,0,0,580.788,155.118Zm5.119-1.17a.683.683,0,0,0-.2.829.127.127,0,0,0,.153.035.68.68,0,0,0,.213-.83A.129.129,0,0,0,585.907,153.949Zm-2.841-.641a.553.553,0,0,0-.474.5.137.137,0,0,0,.125.119.549.549,0,0,0,.487-.491A.153.153,0,0,0,583.066,153.308Zm-4.392.662c-.209.972,2.33.224,2.089-.848C580.475,151.85,578.856,153.118,578.674,153.97Zm2.741-1.7c.008-.013-.058-.092-.061-.09-.1.056-.267.067-.282.178a.157.157,0,0,0,.148.175C581.346,152.531,581.361,152.357,581.415,152.272Zm-2.225-.244c-.1-.04-.215.094-.28.175-.029.036-.006.211.075.24.105.036.24-.075.276-.169A.2.2,0,0,0,579.19,152.029Zm-10.773-.242a.1.1,0,0,0-.09.069.093.093,0,0,0,.077.09.091.091,0,0,0,.09-.075C568.5,151.831,568.446,151.789,568.417,151.787Zm3.9-1.295c-.234-1.243-1.8,1.314-2.415.775-.163-.146.136-.376.054-.476a.14.14,0,0,0-.186-.015c-.079.238-.278.625-.2.692a1.347,1.347,0,0,0,.832.334C571.231,151.789,572.491,151.392,572.322,150.492Zm9.542,1.392c-.012.013,0,.065.021.069s.05-.042.042-.059A.052.052,0,0,0,581.864,151.885Zm9.574-.942v.015a.47.47,0,0,0,.585.012v-.013C592.128,151.062,594.213,148.1,591.438,150.943Zm-10.552-.928a1.472,1.472,0,0,0-1.17,1.5c.013.119.157.205.274.23.733.163,1.061-.915,1.068-1.536C581.06,150.124,580.974,150.011,580.885,150.015Zm1.2-2.073c-.729-.184-1,1.289-.428,1.519C582.74,149.9,583.045,148.185,582.084,147.942Zm15.173-1.134a.419.419,0,0,0,.025.526.177.177,0,0,0,.226-.015.415.415,0,0,0-.036-.524A.171.171,0,0,0,597.257,146.808Zm-9.96-.94c-.232.008-.38.3-.491.489s-.324.481-.213.7a.192.192,0,0,0,.213.081,1.1,1.1,0,0,0,.735-1.063A.267.267,0,0,0,587.3,145.868Zm9.264-1.158c-.315-.355-1.218.167-.955.61C595.9,145.818,596.971,145.17,596.561,144.71Zm-6.839-.353c-.6-.466-1.584.742-1.243,1.151S590.444,144.921,589.721,144.357Zm-51.5,23.286a13.78,13.78,0,0,0,2.031-1.438c.742-.637,1.949-1.074,2.133-2.069.027-.152.033-1.415-.282-1.379-.869.1-6.139,4.492-5.545,5.2C536.8,168.247,537.891,167.832,538.217,167.643Zm49.527,62.452a4.252,4.252,0,0,0,1.25,1.381c.341.2.589.5.89.088.255-.351-.094-.907-.315-1.249-.453-.7-1.536-1.912-2.4-1.951C586.169,228.32,587.356,229.521,587.744,230.094ZM503.978,147.1c.192-.174.606-.585.362-.89-.184-.228-.4.027-.449.073-1.183,1.063-2.374,2.117-3.523,3.216-.188.18.564.667.8.852.635.487.081-.944.6-1.408C502.488,148.308,503.27,147.746,503.978,147.1Zm-4.664,4.283a.612.612,0,0,0,.2-.6c-.027-.082-.184-.073-.211-.155-.092-.276-4.068,3.124-3.673,3.47.455.4,1.295-.595,1.749-.98C498.033,152.556,498.474,151.76,499.314,151.384Zm68.133-7.035c-.015,1.254,1.617-.2,2.323-.336.378-.075,1.078-.62.571-1.03A1.951,1.951,0,0,0,567.446,144.349Zm-4.436,57.436a.264.264,0,0,0,.244-.142.626.626,0,0,0-.1-.608c-.468-.476-.978-.907-1.49-1.337-.46-.389-.892-1.433-1.415-1.132-.2.115.019.5.148.637C561.246,200.084,561.794,201.636,563.01,201.786Zm-41.358-58.752c-.98-.575-3.13,1.555-2.334,2.532C520.307,146.777,523.156,143.918,521.652,143.034ZM507,144.315c.107-.223.3-.606.088-.806-.142-.136-.313.011-.347.058a4.026,4.026,0,0,1-1.868,1.527c-.341.119-.583.694-.175.83C505.221,146.1,506.794,144.725,507,144.315Zm45.06,9.582c.3-.226.94.338,1.133-.081.228-.489-.347-1.041-.777-1.074-.865-.063-1.53.949-1.745,1.786a.249.249,0,0,0,.077.276.865.865,0,0,0,.913.142C552.049,154.716,551.813,154.077,552.055,153.9Zm-25.3,7.679c-.251-.56-2.282,1.577-2.438,1.987C523.76,165.04,527.218,162.6,526.759,161.576Zm19.469-3.418a.412.412,0,0,0-.407.228c-.115.3-.727.855-.269,1.189.794.575,2.066-.491,2.012-1.158C547.517,157.83,546.988,158.4,546.228,158.158Zm19.325,46.055c.2-.132.165-.5.094-.69-.163-.441-.725-.809-.984-.481C564.368,203.418,564.89,204.649,565.553,204.214Zm-33.174,27.962c-.56.292-.165,1.554.52,1.281S533.064,231.817,532.379,232.175Zm-26.784-33.612c-.069.577.677.99,1.126.963.063,0,.117-.077.13-.14.081-.4,0-1.057-.449-1.233C506.17,198.061,505.645,198.143,505.595,198.563Zm22.492-37.636c.073,0,.29-.14.247-.3-.071-.265-.6-.058-.692-.269-.077-.176.318-.362.221-.556-.2-.387-.627-.065-.654.363C527.168,160.836,527.6,160.92,528.087,160.928Zm1.46,68.115c.226-.328-.119-1.189-.625-1.151C528.016,227.958,529.078,229.726,529.546,229.043Zm52.181-6.208c.042.023.322-.215.3-.278-.058-.2-.106-.518-.318-.566a.443.443,0,0,0-.535.351C581.148,222.676,581.555,222.739,581.727,222.835Zm-21.849-24.81c.226-.255-.355-.589-.468-.907-.125-.349-.66-1.089-.888-.524C558.233,197.313,559.435,198.529,559.878,198.025Zm-29.314,33.044c-.213.5.5,1.258,1.02,1.028.472-.211.125-.83-.058-1.007S530.747,230.643,530.565,231.069ZM506.554,200.83c-.057-.293-.439-.79-.884-.55-.4.215-.121.827,0,.928C506.092,201.565,506.642,201.264,506.554,200.83Zm-12.44-44.937c-.428-.3-1.577.575-1.116.963C493.391,157.186,494.716,156.321,494.114,155.893Zm69.435,46.88c.215.244.763.349.909.094.205-.366-.288-1.373-.886-1.181C563.085,201.843,563.346,202.543,563.549,202.773Zm28.094,29.621c-.111-.32-.61-.671-.884-.481-.219.152.017.556.138.769C591.114,233.059,591.833,232.937,591.643,232.394Zm-11.5-11.471c-.374-.658-.921-1.517-1.139-.376C578.883,221.163,580.143,220.93,580.139,220.923Zm-79.182-69.182c.065-.088-.109-.694-.431-.746a.6.6,0,0,0-.641.543A.576.576,0,0,0,500.957,151.741Zm26.73,74.98c-.437.265-.433,1.258.244,1.1.543-.128.362-.884.186-1.1C528.025,226.609,527.793,226.657,527.688,226.721Zm-18.4-84.03c-.332-.023-.842.186-.894.591a.462.462,0,0,0,.458.51c.445-.027.683-.583.643-.919A.237.237,0,0,0,509.291,142.69Zm9.225.038c-.416-.226-1.264.547-1.017.923C518.06,144.51,518.965,142.972,518.516,142.729Zm-7.384,62.77c.209-.453-.629-1.07-.938-.848C509.521,205.134,510.879,206.047,511.132,205.5Zm-5.006-25.14c-.215.731,1.6.3,1.124-.288C506.913,179.653,506.214,180.059,506.126,180.358Zm6.887-5.574c.278-.04.754-.374.608-.742-.13-.326-.539-.173-.662-.082a.631.631,0,0,0-.119.7A.189.189,0,0,0,513.013,174.785ZM493.934,158.7c-.219,0-.3.315-.447.481a1.145,1.145,0,0,0,.142.161c.178-.136.5-.205.514-.428A.232.232,0,0,0,493.934,158.7Zm55.582-3.4a.567.567,0,0,0-.1.725.186.186,0,0,0,.226.035.568.568,0,0,0,.173-.673A.245.245,0,0,0,549.516,155.3ZM511.468,206.22a.547.547,0,0,0,.081.69.27.27,0,0,0,.338-.058.551.551,0,0,0-.161-.664A.211.211,0,0,0,511.468,206.22ZM544.076,160.5c.006.15.205.23.332.292.046.021.328-.046.322-.238-.006-.219-.3-.23-.437-.274C544.249,160.268,544.075,160.395,544.076,160.5Zm11.908,30.558c-.228-.14-.719.165-.679.43C555.4,192.117,556.487,191.371,555.985,191.061Zm-35.156-23.782a.48.48,0,0,0,.529-.525C521.23,166.127,520.331,167.134,520.829,167.278Zm50.576-21.609a.616.616,0,0,0,.5-.587.2.2,0,0,0-.2-.165.617.617,0,0,0-.5.595A.2.2,0,0,0,571.405,145.669ZM529,159.4a.508.508,0,0,0-.385.487.238.238,0,0,0,.249.188.512.512,0,0,0,.276-.595A.135.135,0,0,0,529,159.4Zm-33.9-4.7c-.069-.088-.242-.035-.307.017-.1.075-.265.245-.184.355s.3-.006.4-.077C495.083,154.948,495.177,154.787,495.106,154.7Zm12.119,27.052c.2.033.443-.341.311-.516C507.289,180.905,506.811,181.68,507.225,181.749Zm28.562-13.32a.56.56,0,0,0,.34.744C536.7,169.246,536.182,167.815,535.787,168.429ZM556.7,149.056a.2.2,0,0,0,.15.207.483.483,0,0,0,.506-.32.183.183,0,0,0-.119-.2A.486.486,0,0,0,556.7,149.056Zm-1.9,44.04a.511.511,0,0,0,.372-.491c0-.077-.082-.173-.159-.167a.51.51,0,0,0-.362.556A.145.145,0,0,0,554.8,193.1Zm.328-42.826c-.211-.05-.593.222-.495.414s.52.038.612-.15A.213.213,0,0,0,555.126,150.27Zm-1.316,1.956c.174-.165.1-.654-.134-.694C553.384,151.482,553.344,152.663,553.81,152.226Zm-72.534,14.53a.406.406,0,0,0-.311.4.161.161,0,0,0,.15.127.4.4,0,0,0,.347-.374A.187.187,0,0,0,481.276,166.756Zm97.717-23.566a.409.409,0,0,0,.334-.391.156.156,0,0,0-.155-.127.409.409,0,0,0-.322.4A.149.149,0,0,0,578.992,143.191Zm-62.81-.512a.407.407,0,0,0-.332.391.16.16,0,0,0,.153.127.41.41,0,0,0,.322-.4A.148.148,0,0,0,516.182,142.679Zm64.151.529c.1.048.223-.071.221-.086-.015-.105.01-.265-.088-.311-.071-.035-.207.058-.207.086C580.256,143,580.235,143.158,580.333,143.208ZM548.469,157.2a.046.046,0,0,0,0-.056.367.367,0,0,0-.462.019v.027A.369.369,0,0,0,548.469,157.2Zm.523-.6a.133.133,0,0,0-.015-.167.4.4,0,0,0-.5.05.133.133,0,0,0,.017.167A.4.4,0,0,0,548.992,156.6Zm-40.852,44.59a.134.134,0,0,0-.159-.077.1.1,0,0,0-.044.1c.015.054.027.152.084.152C508.094,201.369,508.159,201.256,508.14,201.187Zm27.085-31.4c.127.044.361-.048.359-.182,0-.159-.351-.466-.558-.263S535.123,169.754,535.225,169.791Zm-8.763-9.25a.262.262,0,0,0-.259.221c0,.092.155.182.2.169.086-.029.215-.1.219-.2A.183.183,0,0,0,526.462,160.54Zm39.857-16.531a.369.369,0,0,0,.458.012.151.151,0,0,0-.008-.194.367.367,0,0,0-.462.065A.1.1,0,0,0,566.319,144.01ZM523.95,164.186c-.081-.245-.416-.082-.451-.038-.073.09-.525.414-.18.623C523.687,164.992,524.04,164.449,523.95,164.186Zm59.542-21.306c.065-.008.163.006.19-.056.015-.035-.038-.1-.046-.1-.069.012-.176-.006-.2.059C583.421,142.823,583.477,142.882,583.492,142.88ZM530.6,157.844a.294.294,0,0,0-.008.366.084.084,0,0,0,.1.006.29.29,0,0,0,.033-.364A.1.1,0,0,0,530.6,157.844Zm-28.41,85.563c.1-.071.126-.334.009-.372s-.249.188-.209.3A.152.152,0,0,0,502.191,243.407Zm12.317-70.53c0,.069.107.107.167.113.044,0,.161-.04.152-.107-.011-.084-.15-.065-.223-.077C514.577,172.8,514.508,172.836,514.508,172.877Zm20.133-2.514c-.073,0-.19-.04-.221.027-.025.052.034.128.09.146.073.023.2-.012.215-.086C534.732,170.408,534.669,170.364,534.64,170.362Zm-17.7,43.109c-.063,0-.056.117-.067.178a.093.093,0,0,0,.073.077c.035,0,.073-.058.067-.077C517,213.589,517,213.472,516.938,213.472Zm-9.555-8.529c0,.038.046.079.073.081a.093.093,0,0,0,.086-.065c0-.038-.046-.079-.073-.082A.1.1,0,0,0,507.383,204.943Zm17.576-42.923c-.04-.006-.086.048-.09.079s.029.092.069.1.086-.048.09-.079S525,162.023,524.958,162.019Z" transform="translate(-142.506 599.991) rotate(-90)"/></svg>