<svg xmlns="http://www.w3.org/2000/svg" width="130.221" height="160.509" viewBox="0 0 130.221 160.509"><defs><style>.a{fill:#54d6c6;}</style></defs><path class="a" d="M142.123,545.864c-.712-.274-.907.434-1.622.169-.109-.039-.165-.623-.146-.74.131-.85,2.338-.225,2.623-1,.781-2.127.6-3.389-1.018-3.742a4.836,4.836,0,0,0-1.874.359,99.22,99.22,0,0,0-15.521,9.821c-.054.043-.295.9.028.841.218-.043-.021.482.081.584.83.83,2.51.676,2.422,1.647-.167,1.84-3.641,1.4-4.245,2.88-.227.554.911,1.346.349,1.72-.807.541-1.164-.364-1.692.128-1.532,1.429-6.569,5.24-7.647,4.9-.826-.261.244-2.841.421-4.069.805-5.62,2.8-28.212-6.75-46.6C79,457.843,14.962,458.608,14.544,458.621c-.593.021-1.339.432-1.341,1.044,0,.652,1.553,1.091,2.394,1.444,6.936,2.908,10.347,5.3,11.575,5.315,1.776.017,3.656-.86,3.181,1.006-.124.488-2.465-.263-1.22.4,2.054,1.085,4.119,3.319,4.422,1.425.13-.822-2.135-.406-2.165-1.226-.039-1.125,3.042.126,2.854,1.142-.223,1.217.636,1.031,1.106,1.389.019.013.207-.075.214-.169.032-.377-1.256-.477-.943-1.074.237-.453.683.039.82.1,1.418.648,2.837,1.292,4.234,1.977a5.044,5.044,0,0,1,1.56,1.006,4.309,4.309,0,0,0,1.318.961c.9.466,2.086.939,2.446,1.729.544,1.2,1.213.725,2.185,1.055,1.9.648,1.258,1.737,3.169,2.816a2.094,2.094,0,0,1,.689.781c.2.344.21.817.4.969.4.323.89.068,1.185.22a3.89,3.89,0,0,1,.768.728c1.461,1.414,2.9,2.861,4.254,4.361,1.029,1.143,3.111,1.585,2.874,3.723,0,.026.22.051.312.115a3.34,3.34,0,0,1,.918.691,18.41,18.41,0,0,0,1.755,2.456c.353.368-1.151,1.682-1.309.67-.184-1.168-1.19-2.921-1.874-2.15-1.41,1.594,1.371,6.545,3.477,5.488.627-.313-.9-1.568-.242-2.022,1.677-1.153,2.85,2.339,4.112,3.468a.757.757,0,0,1,.126.5,2.382,2.382,0,0,0,1.481,2.18c.158.083.409.364.317.586-.216.52-1.35,0-1.433.458-.092.526.963.225,1.157.439a8.32,8.32,0,0,1,1.372,2.533c.058.135.24.191.28.312.689,2.161,1.372,4.324,2.026,6.494.111.366.366.882.111,1.132-.285.28-.805-.33-1.035-.109-.413.4-.293,1.834.6,1.617.355-.086.25-1.239.9-1.072.706.184.691,1.326.329,1.72-.674.736-1.761.567-1.01,1.08,1.1.755,2.559.344,1.635,1.8-.237.375-1.106.022-1.32.447-.43.852.192,2.047.886,2.781,1.078,1.136,1.5.719.4,1.791-.148.145-.749.642-.3.982.584.447.931-1.078,1.408-.866.556.248.4,1.205.265,1.694-.21.76-1.119,1.339-1.13,2.251-.017,1.123,1,.454,1.887.158.689-.229-.847-2.174.16-2.321.847-.122.653,1.264.565,1.615-.31,1.239.167,2.364.3,3.539a38.167,38.167,0,0,1,.315,4.484c-.008,1.288-.727,2.745.544,2.422,2.172-.556.259-4.527-.135-6.7a32.28,32.28,0,0,1-.65-5.161,19.336,19.336,0,0,0-.5-2.726c-.113-.651-.111-1.327-.267-1.968-.133-.55-.642-1.006-.708-1.77a22.742,22.742,0,0,0-.522-3.44c-.627-2.6-1.423-5.128-2.272-7.653a10.332,10.332,0,0,1-.956-3.494c.131-2.687-1.416-4.76-2.354-6.988-1.046-2.48-2.816-4.653-4.251-6.971-.208-.338-.753-.79-.484-1.25.466-.8,1.361.259,1.686.712,1.213,1.694,2.394,3.411,3.56,5.139a32.809,32.809,0,0,0,3.321,4.876,16.556,16.556,0,0,1,3.794,7.76c.323,1.279.026,2.884,1.686,3.56.163.066.261.385.315.6.52,2.133,1.066,4.264,1.515,6.412.25,1.192.329,2.418.484,3.629.317,2.48.661,4.957.937,7.442.1.918-.139,1.868.787,2.583.27.21.289.86.278,1.3-.094,3.466-.225,6.93-.345,10.394a1.464,1.464,0,0,1-.023.353c-.665,2.371-2.621,6.906-.248,7.153,1.613.167.422-3.2.657-4.8a23.428,23.428,0,0,0,.576-2.394c.1-2.69.075-5.385.1-8.077.006-.565-.447-1.327,0-1.737.867-.792,1.068.819,1.07,1.453q.008,3.751.006,7.5a4.853,4.853,0,0,0,.034,1.587c.548,1.493.079,2.886-.18,4.326-.1.533.43,1.141.238,1.846-.171.623-1.5,1.106-.146,2.026.084.058-.045.432-.077.657-.075.516-.148,1.031-.227,1.545-.126.805,0,1.819-.443,2.369a2.412,2.412,0,0,0-.31,2.679c.084.237-.154.849-.293.866-.927.105-.661.768-.743,1.318-.2,1.367.2,2.946-1.284,3.9-.073.047-.086.212-.1.327-.135,1.155-.253,2.313-.406,3.468-.03.218-.075.526-.28.629a.333.333,0,0,1-.375-.075c-2.458-3.028,4.356-10.452.582-11.7-.926-.306-.713,1.782-.974,2.69a27.86,27.86,0,0,1-.727,2.694,5.966,5.966,0,0,0-.642,3.211.306.306,0,0,1-.222.25c-.28.034-.441-.563-.715-.466-1.836.648-1.7,4.54-3.5,3.982-1.294-.4.931-1.639.77-2.536-.043-.235-.5-.255-.488-.276.353-.88,1.508-1.767,1.1-2.623-.111-.237-.636.015-.845-.244-.293-.362-.06-.927-.1-1.389a4.4,4.4,0,0,1-.107-1.3c.184-.785.526-1.53.777-2.3.8-2.441.612-5.094,1.63-7.5.175-.411-.184-1.245-.706-.9-.635.422-.032,1.4-.655,2.114a2.93,2.93,0,0,0-.561,2.691c.2.612-.13,2.3-.875,1.639-.338-.3.24-.807.15-1.085a7.74,7.74,0,0,1,.1-3.186c.2-2.125.689-4.222,1-6.34.193-1.333.135-2.717.434-4.022.541-2.36,2-5.154.6-7.159-1.018-1.459-1.329-2.139-2.52-3.706-.464-.612-1.252.07-1.28.742-.009.2.407.4.6.631.158.2.43.5.372.642-.392.939.208,1.316.839,1.757s1.275,1.677.409,1.846c-.608.12-.759-1.051-1.292-1.091a.393.393,0,0,0-.4.248c-.2.943,1.568,1.919.65,2.553-.3.21-1.031-.263-1.173.171-.437,1.329.988.944,2.266.712.231-.043.781.406.779.621a1.6,1.6,0,0,1-.569,1c-.73.646-.755.618-.244,1.515.417.732.223,1.341-.544,1.917-.165.124-.345.451-.291.6.137.389.965.729.689,1.215-.253.443-1.055.315-1.371,0-.822-.822-.079-2.221.019-3.265.128-1.4-.327-3.721-.757-2.405-.437,1.339-.556,7.48-3.488,19.812-1.027,4.313-2.09,3.637-2.914,2.578a93.255,93.255,0,0,0-22.316-21.051c-.131-.088-.976,0-1.059.207-.528,1.318,3.77,1.849,3.04,3.434-.644,1.4-1.986-1.228-2.863-1.7s-1.406-1.727-2.27-1.956c-1.17-.312-2.781-.792-2.493-1.964.334-1.357,2.473,1.725,3.406,1.04.4-.3-.19-1.188-.452-1.277-1.035-.342-1.686-1.222-2.645-1.639-1.528-.667-3.072-1.312-4.534-2.1-1.538-.832-4.268-1.408-4.78-.434-.541,1.023-.563,3.021,7.886,10.539.516.46,14.923,14.579,23.764,28.944C81.188,608.778,78.67,618.586,84.3,619.123c5.944.567,39.822-42.4,40.3-43.249.173-.306,12.807-17.938,13.287-20.392.105-.533-.2-1.936-4.654-1.063-.578.113-1.162.24-1.318-.353a1.366,1.366,0,0,1,.665-1.155c1.22-.466,1.389-1.085.959-2.306-.19-.539.347-1.418.734-2.028.133-.214,1.042-.6,1.4-.128.6.783-1.066,1.63-.8,2.315a.386.386,0,0,0,.389.214c.608-.1,1.29-1.074,1.194-1.311-.436-1.074.772-.706.866-1.168.126-.61.109-1.247.227-1.859.03-.154.3-.447.529-.391,1.367.336.839,1.307,2.088.954.321-.092.736.259,1.08.135a1.578,1.578,0,0,0,1.059-1.172A.324.324,0,0,0,142.123,545.864Zm-118-81.563c-.066-.009-.2-.1-.175-.186s.193-.105.284-.1c.062.007.2.105.173.193S24.207,464.313,24.123,464.3Zm1.508.768a.718.718,0,0,1-.693-.528.19.19,0,0,1,.116-.2.722.722,0,0,1,.828.434A.3.3,0,0,1,25.63,465.068ZM65.2,494.686c-.222.024-.575-.3-.454-.49s.544,0,.621.2A.242.242,0,0,1,65.2,494.686ZM35.373,539.433c.477-.873,2.617-.032,2.861,1.357C38.591,542.809,34.849,540.394,35.373,539.433Zm11.706,8.719c-.081-.237.255-.546.507-.554.623-.024,1.564.7,1.359,1.292C48.641,549.769,47.319,548.851,47.079,548.152Zm27.044,13.49a.334.334,0,0,1,.383.2.624.624,0,0,1-.406.693.281.281,0,0,1-.287-.192A.622.622,0,0,1,74.123,561.642Zm-.46,13.734c-1.3.452-.663-1.414-.484-2.052.1-.37.484-1.038,1-.978C75.888,572.539,74.622,575.042,73.663,575.376Zm2.185,3.141a.343.343,0,0,1-.327-.237c-.128-.689.377-2.2,1.269-1.953C78.137,576.708,77.075,578.491,75.848,578.518Zm32.192-43.5c1.151-.426.965,1.866.413,2.307a.347.347,0,0,1-.413.011C107.567,536.878,107.105,535.368,108.04,535.021Zm-8.362,10.026a.136.136,0,0,1-.124.1c-.039,0-.115-.06-.111-.115a.132.132,0,0,1,.124-.111A.134.134,0,0,1,99.678,545.047Zm-.5-10.441c1.241-.238.794,2.264-.118,1.883C98.458,536.24,98.383,534.756,99.175,534.606Zm-4.493-.984a.759.759,0,0,1-.107.952.334.334,0,0,1-.419-.053.763.763,0,0,1,.137-.948A.31.31,0,0,1,94.682,533.622Zm-.916-.539c-.584-.22-.548-1.538,0-1.774C94.84,530.847,94.971,533.538,93.766,533.083ZM93.5,530.72c-.678-.3-.832-1.919,0-2.281C94.99,527.791,94.958,531.367,93.5,530.72Zm-.085-4.966c.058.006.184.1.161.186s-.188.1-.276.09c-.064-.008-.2-.094-.178-.18C93.152,525.742,93.326,525.744,93.418,525.754ZM82.27,503.124c1.057-.385,2.662,2.5,1.459,3.036C82.585,506.665,81.164,503.524,82.27,503.124Zm4.484,55.293c-.971-.522-.33-2.047-.293-2.987.045-1.091.323-2.172.471-3.261.141-1.034.28-2.071.355-3.111.152-2.1.27-4.194.385-6.293.079-1.448-.8-3.288.191-4.348a.318.318,0,0,1,.37-.041c1.829,1.209.884,4.2.779,6.447-.109,2.351-.988,4.694-.575,7.009.261,1.459-.428,2.364-.462,3.594-.032,1.128.5.088.533,1.924A1.168,1.168,0,0,1,86.753,558.417Zm1.134,8.552c-.06.009-.084-.1-.1-.152-.006-.026.036-.111.081-.105s.054.081.058.128S87.932,566.961,87.887,566.969Zm.3-.986c-.689-.238-.3-1.4-.428-2.091a.694.694,0,0,1,.058-.486,4.607,4.607,0,0,0,.644-3.244c-.024-.577.513-1.157.61-1.765.4-2.46.781-4.923,1.059-7.4a51.278,51.278,0,0,0,.342-5.6c0-1.707-.295-3.411-.291-5.118,0-1.592-.306-3.147-.36-4.724a37.815,37.815,0,0,0-.071-4.953,100.48,100.48,0,0,0-2.262-11.594c-1.023-3.492-1.861-7.033-3.218-10.424-.282-.7-1.143-1.872-.473-2.251.755-.424,1.1,1.235,1.466,2.077.929,2.133.794,4.652,2.08,6.586.719,1.081.845,2.152,1.671,3.006a1.3,1.3,0,0,1,.394.565c.387,2.107.77,4.213,1.1,6.329.377,2.4.764,4.808,1.029,7.227.222,2.033.267,4.086.4,6.126.094,1.451.323,2.906.28,4.352-.056,1.851-.321,3.695-.5,5.542-.023.229-.111.452-.126.683a51.8,51.8,0,0,1-.4,5.6c-.682,3.815-1.177,7.687-2.707,11.3C88.443,565.82,88.347,566.038,88.188,565.983Zm3.445,3.012c-.111.462.552,1.078.233,1.7-.176.345-.928.238-1.222.625-.31.411.208,1.453-.314,1.547-1.307.231-.556-2.276-.434-3.393.13-1.17.911-2.281.278-3.52-.041-.081.015-.231.058-.336,1.335-3.318,1.235-7.009,2.689-10.3a2.121,2.121,0,0,0,.069-.7c.12-1.872.175-3.75.385-5.61.107-.958,1.1-1.876.817-3.07-.165-.7-.817-1.183-.115-2.043a1.412,1.412,0,0,0,.054-1.222c-.668-1.459.2-3.727.24-5.265.024-.967-1.316-1.585-.15-2.041,1.763-.689-.051,2.984.988,3.913.109.1.561-.2.787.148.374.588-.56,1.374-.454,1.986a18.993,18.993,0,0,1-.12,3.539c-.026,2.565-.394,5.128-.616,7.692-.03.351-.026.708-.03,1.061a10.951,10.951,0,0,1-.55,3.96,29.905,29.905,0,0,0-.648,3.759C92.973,563.961,92.239,566.462,91.633,568.995Zm3.939,1.791c-1.637.345-.834-4.446.689-3.785C97.639,567.6,96.719,570.546,95.572,570.786Zm1.587-16.211c0,.4.13.892-.053,1.185-.683,1.1-.52,2.313-.668,3.492-.084.676-.406,1.318-.55,1.988-.28,1.3-.511,2.621-.76,3.932-.169.888-.586,2.8-1.637,2.2-.486-.278-.066-.879.009-1.16.417-1.555,1.143-3.04.952-4.728-.028-.25.2-.541.334-.8s.5-.535.449-.728c-.366-1.51.426-2.841.6-4.262.156-1.256.454-2.5.719-3.738a.834.834,0,0,1,.37-.563.272.272,0,0,1,.3.005c.268.293-.06.794-.066,1.192C97.149,553.252,97.162,553.914,97.158,554.575Zm-.648-4.972c-.4-.353-.13-1.637.563-1.66C98.336,547.9,97.372,550.374,96.511,549.6Zm.914,17.551a.117.117,0,0,1,.015-.233.137.137,0,0,1,.1.122C97.538,567.083,97.479,567.157,97.425,567.155Zm-.062-21.434a.543.543,0,0,1-.1-.676.194.194,0,0,1,.242-.028.544.544,0,0,1,.066.68A.17.17,0,0,1,97.363,545.721Zm1.481,29.948a.132.132,0,0,1-.109-.124.134.134,0,0,1,.124-.109c.054,0,.1.084.1.124S98.9,575.673,98.844,575.669Zm.319-4.675c-.1-.024-.1-.19-.088-.28,0-.06.094-.184.173-.163.1.024.126.184.1.281C99.327,570.912,99.242,571.015,99.164,570.994Zm.1-1.339c-.126.015-.261-.137-.27-.261-.017-.244.3-.389.458-.573a1.188,1.188,0,0,1,.216.16C99.539,569.213,99.518,569.624,99.259,569.656Zm.336-14.538a.281.281,0,0,1-.357-.052.968.968,0,0,1,.253-1.19.191.191,0,0,1,.229.036A.969.969,0,0,1,99.6,555.118Zm.289,16.421c.038-.052.165-.058.2,0s-.058.2-.135.188S99.845,571.591,99.885,571.539Zm9.742-21.282c-.894,2-.37,3.883-.588,6.147-.2,2.069-.244,3.764-.445,5.636a20.5,20.5,0,0,1-.76,4.1c-.216.674-1.021,1.143-1.487,1.761-.27.359-.161,1.01-.65,1.4-.1.075-.6-.081-.881.169-.713.625.053,3.547-1.16,2.572-.935-.751,1.025-2.52.389-3.477a.2.2,0,0,0-.229-.068c-1.718.894.086,4.992-1.906,5.662-1.074.362-1.618-1.079-1.491-2.123.019-.152,0-.805.006-.807.46-.944-.223-1.365-.293-2.208-.051-.637.914-1.232.131-1.953a.35.35,0,0,1,.124-.233c1.324-.424,1.876-1.489,1.245-2.542-.323-.541-.869.507-1.111.325a.837.837,0,0,1,0-1.213c.3-.175.588.308,1.019.115.924-.415.392-1.47.524-2.405q.642-4.56,1.2-9.132c.039-.327.909-2.574.135-2.957-.608-.3-.518,1.142-.948,1.093-1-.113-.539-1.63-.3-2.593a19.509,19.509,0,0,0,.09-3.532c.03-.614-.038-2.035.655-1.806,1.1.364-.83,2.672,0,3.481a.323.323,0,0,0,.413-.009c1.862-2.058.323-5.535-.327-8.312a24.8,24.8,0,0,1-.385-3.648c-.139-1.692-.223-3.385-.383-5.073a17.1,17.1,0,0,0-.443-2.745c-.452-1.729-1.106-3.413-1.455-5.159-.176-.879-.586-2.709.379-2.788,6.909-.563-.725,15.345,4.514,19.855a.38.38,0,0,0,.462-.053c.25-.252.135-.712.092-1.051-.312-2.424-.674-4.842-.967-7.268-.071-.588-.357-1.818.334-1.831,1.75-.032,1.992,2.914,1.611,4.85a17.219,17.219,0,0,0-.22,2.955c0,.208.278.43.436.636a17.073,17.073,0,0,1,.661,3.081c.115,1.371-.958,4.221.421,4.11.984-.079,1.245-1.784.43-2.891-.381-.518-.672-2.4.428-1.9,1.669.757.2,3.015.481,4.792a5.363,5.363,0,0,1-.028.948c-.021.8-.379,1.526.2,2.424.342.533-.535,1.619-.357,2.736C109.2,549.446,109.747,549.987,109.627,550.257Zm-7.264.417a.521.521,0,0,1,.578.267c.31.6-.248,1.32-.359,1.981-.118.712.109,1.909-.847,2.073C100.594,555.187,100.649,551.432,102.363,550.674Zm-1.147,10.642c-.826.184-1.341-4.621.287-3.956C102.027,557.574,101.792,561.186,101.216,561.316Zm.417-4.987c.015-.066.141-.116.19-.071s0,.175-.066.192A.122.122,0,0,1,101.633,556.329Zm30.3-3.866a13.933,13.933,0,0,1-1.057,1.162,2.169,2.169,0,0,0-.6.89c-.175,1.115-1.56,1.883-1.955.847-.59-1.549,1.836-2.48,2.73-3.594a.765.765,0,0,1,.753-.062A.779.779,0,0,1,131.93,552.463Zm.188-4.11c-.246.047-.689.15-.693.237-.038,1.384-1.4,1.025-2.122,1.735-.464.46.053,1.579-1.095,1.665-.695.053-1.9,1.489-1.842-.079.026-.652.824-.674,1.1-1.474a13.62,13.62,0,0,0,1.592-.92c1.239-1,2.619-1.235,3.911-2.358.479-.415-.193-2.056.8-1.127C135.075,547.247,134.193,547.961,132.118,548.353Zm2.8-3.2c.419-.268.74-.927,1.371-.392a.46.46,0,0,1,.069.439.868.868,0,0,1-1.429.22A.213.213,0,0,1,134.917,545.156Zm-.094,1.38c-.443-.781,1.56-.584,1.147.124C135.706,547.112,135,546.853,134.823,546.536Zm1.066,1.448a.409.409,0,0,1-.244-.325.44.44,0,0,1,.329-.25c.141-.011.591-.122.612.22C136.618,548.135,135.995,548.01,135.89,547.983Zm1.008-3.52a.185.185,0,0,1-.1-.231c.081-.131.411-.165.46-.021S137.039,544.5,136.9,544.463Zm.627-.464c-.122-.1.084-.389.242-.415a.125.125,0,0,1,.128.109C137.9,543.853,137.647,544.1,137.525,544Zm-62.3-13.486c.173-.146.531-.135.588-.359.092-.355-.458-1.192-.169-1.187,1.038.026,1.051-.419,1.277.039.813,1.669.471,5.721,0,6.355a.183.183,0,0,1-.24.006c-.621-.6.017-1.735-.006-2.6-.032-1.284-.062-1.3-1.44-1.562a.355.355,0,0,1-.253-.3C74.97,530.761,75.109,530.611,75.225,530.513ZM64.262,500.219c.347-.691.845.5.984.873.46,1.228.849,2.435,2.375,2.747.113.024.988.606-.008.98-.143.053.165.757-.15.9C65.353,506.665,63.292,502.142,64.262,500.219Zm1.429-.543c-1.525.321-2.351-.76-1.648-2.075.152-.284.76-.216,1.078-.09a1.447,1.447,0,0,1,1.065,1.436C66.149,499.669,66.724,499.461,65.691,499.677Zm8.071,25.949c.317.563.4,2.786-.391,2.653-1.121-.186-1.2-2.058-.931-3.047a.476.476,0,0,1,.379-.347C73.224,524.864,73.58,525.3,73.763,525.626ZM71.688,512.54c-.409.351-.278-.009-1.254-.056-.631-.03-2.212-.312-1.493-1.13C70.058,510.076,72.662,511.708,71.688,512.54Zm44.644,48.155c-.083.13-.176.31-.33.323a.588.588,0,0,1-.522-.372c-.163-1.112.762-3.723,1.842-2.743C118.085,558.6,116.85,559.881,116.332,560.694ZM67.514,506.056a.959.959,0,0,1,.64-.073c.319.041.742-.154.9.051a1.6,1.6,0,0,1-.6,2.364C67.448,508.625,66.517,506.657,67.514,506.056Zm5.452,12.44c-.145.385-.909.032-1.207-.25-.486-.46-.976-1.408-.541-2.02a.922.922,0,0,1,1.008-.077A1.859,1.859,0,0,1,72.966,518.5Zm49.912,35.343c-.33-.077-1.346-.809-.9-1.47.526-.779,2.388-.513,2.576.428C124.689,553.481,123.553,554,122.879,553.839ZM121.065,556a.527.527,0,0,1-.441-.36c-.2-.569-.494-1.992.5-2.15.856-.137.9,1.173.914,1.62A1.206,1.206,0,0,1,121.065,556ZM82.02,557.846a.333.333,0,0,1-.413-.071,3.365,3.365,0,0,1,.762-4.162.316.316,0,0,1,.392.069A3.364,3.364,0,0,1,82.02,557.846ZM68.25,509.579a.817.817,0,0,1,.295-.894c.736-.608,2.52.636,1.748,1.436C69.72,510.715,68.556,510.146,68.25,509.579Zm50.667,48.309c-.223-.958-.511-3.1.7-2.814,1.048.244.514.306.8,2.69.03.25-.415.329-.667.359C119.458,558.16,118.949,558.024,118.917,557.887ZM70.851,514.6a.882.882,0,1,1-.3-1.727C71.607,512.631,71.74,514.468,70.851,514.6ZM51.4,483c-.886.573-2.368-.99-2.42-2.043a.3.3,0,0,1,.259-.267C50.3,480.582,52.408,482.347,51.4,483Zm6.391,7.3c-.766.417-1.772-.993-1.528-1.637C56.647,487.636,59.366,489.446,57.787,490.3ZM44.315,476.127c-.282.843-2.028-.161-2.093-.926a.409.409,0,0,1,.3-.4C43.26,474.7,44.552,475.423,44.315,476.127ZM72.129,523.2c.385-.162.841-.545,1.213-.345a.393.393,0,0,1,.15.437c-.139.39-.668,1.006-1.224.757C71.9,523.883,72.078,523.219,72.129,523.2ZM40.912,474.307c-.734.107-2-.73-1.718-1.414.317-.76,1.891.306,1.945,1.078A.331.331,0,0,1,40.912,474.307Zm99.319,75.135c.879.2-.618,2.567-1.138,1.479C138.779,550.268,139.673,549.318,140.231,549.442Zm-86.2-63.768c.655-.531,2.57,1.207,1.637,1.643C54.969,487.645,53.311,486.262,54.034,485.674ZM73.244,529.4a.986.986,0,0,1,1.235,0,.4.4,0,0,1-.024.515.986.986,0,0,1-1.239-.15A.3.3,0,0,1,73.244,529.4Zm2.634,2.43c.479.118.55,1.309,0,1.62C74.739,534.092,75.347,531.7,75.879,531.831ZM70.034,506.9c-.569-.21.122-1.853.449-1.6C70.956,505.658,70.6,507.1,70.034,506.9Zm-11.9-15.906c.312-.73,2.281.862,1.406,1.335C58.784,492.73,57.918,491.487,58.13,490.989Zm20.232,47.67a1.314,1.314,0,0,1,0,1.65.122.122,0,0,1-.154,0,1.311,1.311,0,0,1,0-1.65A.122.122,0,0,1,78.362,538.66Zm-.252,4.211a.271.271,0,0,1,.338.069c.229.325.372,1.2-.212,1.4C77.262,544.668,77.788,543.113,78.111,542.871ZM62.826,497.4c.475-.047.914,1,.563,1.316C62.937,499.134,62.248,497.463,62.826,497.4Zm55.143,62.212c.066-.27-.015-.68.235-.8a.317.317,0,0,1,.381.139c.109.252-.214.507-.342.751A1.062,1.062,0,0,1,117.969,559.617Zm-50.954-57.58a.62.62,0,0,1,0,.92C66.314,503.4,66.406,501.637,67.015,502.037ZM36.884,471.3c.261-.237.984.207.9.55C37.69,472.269,36.571,471.579,36.884,471.3Zm101.97,80.076a.638.638,0,0,1,.569.522c.1.817-.556,1.951-1.307,2.015-.407.036-.869-.513-.856-.957A1.816,1.816,0,0,1,138.854,551.372Zm-69.232-47.59c-.021.432-.569.2-.728.212-.094.006-.282-.086-.28-.13.006-.152-.023-.385.118-.453S69.655,503.135,69.623,503.783Zm8.207,42.5c-.158-.15-.118-.655.1-.648s.184.449.062.614C77.959,546.3,77.869,546.324,77.829,546.286Zm62.73,1.859c.118-.105.443-.227.591,0,.1.156-.1.314-.184.394-.109.1-.282.428-.5.28C140.231,548.654,140.415,548.271,140.559,548.145ZM53.023,484.97c-.27.092-.7-.336-.608-.608C52.565,483.92,53.47,484.818,53.023,484.97ZM77.5,559.277a.085.085,0,0,1,.105,0,.494.494,0,0,1,0,.621.08.08,0,0,1-.105,0A.49.49,0,0,1,77.5,559.277Zm-25.335-75.21c-.278.094-.715-.362-.608-.636C51.719,483,52.6,483.92,52.162,484.067ZM71.5,519.5c.073-.2.475-.377.591-.2s-.21.515-.426.494A.243.243,0,0,1,71.5,519.5ZM55.984,487.786c-.081-.064-.28-.111-.233-.2s.312-.034.347.079C56.116,487.719,55.988,487.788,55.984,487.786Zm19.825,40.446c.058.152-.088.46-.244.419s-.135-.4,0-.5A.186.186,0,0,1,75.809,528.232ZM36.235,470.586c.137.09.178.443.023.49s-.3-.255-.246-.4A.175.175,0,0,1,36.235,470.586Zm24.789,23.908c-.008.086-.09.208-.173.192-.105-.023-.081-.2-.094-.3-.006-.036.051-.13.107-.126C60.96,494.266,61.029,494.4,61.024,494.495Zm13.37,36.657c.1.026.133.18.109.274s-.109.177-.188.158c-.1-.024-.1-.188-.1-.28C74.215,531.251,74.315,531.131,74.393,531.151Zm-14.8-41.1c-.009.053-.068.116-.118.105-.094-.019-.092-.169-.115-.259-.006-.03.047-.122.1-.116C59.553,489.789,59.608,489.947,59.589,490.047ZM46.518,478.432c-.034.006-.128-.047-.118-.1.017-.1.19-.088.289-.111.024-.006.116.064.1.116C46.766,478.432,46.612,478.417,46.518,478.432Zm26.21,42.141c-.006.051-.084.094-.122.09s-.107-.058-.1-.111.084-.094.122-.09S72.732,520.521,72.728,520.573ZM118,557.189c-.051-.006-.092-.086-.088-.124s.06-.107.111-.1.092.085.088.122S118.055,557.193,118,557.189ZM54.959,484.73c0,.038-.058.107-.111.105s-.1-.083-.1-.118.058-.109.111-.105S54.961,484.692,54.959,484.73Zm-9.226-7.1c0,.037-.058.109-.111.105a.131.131,0,0,1-.094-.118c0-.038.058-.107.111-.1A.131.131,0,0,1,45.733,477.633Zm25.542,31.942c0,.038-.056.111-.109.109s-.1-.083-.1-.122.056-.111.109-.107S71.277,509.537,71.275,509.575Zm34.154,32.186c-.038-.728-.531-1.684-.006-2.189a.487.487,0,0,1,.651.024c1.423,2.1.9,9.589-.22,9.465-.762-.084-.053-1.252-.083-1.737C105.658,545.469,105.526,543.616,105.429,541.761ZM106.8,553.2c-.308,1.716.377,4.17-1.085,5.12a.272.272,0,0,1-.329-.069c-1.239-1.645-1.136-4.816.454-6.228C106.482,551.455,106.9,552.634,106.8,553.2Zm-2.354,11.714c.89.145.92,3.28-.421,2.82C102.855,567.333,103.548,564.77,104.449,564.915Zm1.675-14.066c.084-.265.8-.991,1.113-.436s-.659.764-.926.721A.26.26,0,0,1,106.124,550.849Zm-1.2,10a.627.627,0,0,1,.073.787.145.145,0,0,1-.182.017.627.627,0,0,1-.071-.787A.142.142,0,0,1,104.922,560.85Zm2.154-13.511c.167-.1.556.021.539.214s-.445.261-.591.122A.245.245,0,0,1,107.075,547.339Zm1.376,2.157a.156.156,0,0,1,.081.163c-.038.2-.255.453-.449.4-.137-.036-.2-.27-.141-.4A.438.438,0,0,1,108.452,549.5ZM107.13,561c-.021.1-.006.285-.109.289s-.1-.184-.124-.282c-.008-.024.071-.1.111-.1S107.136,560.98,107.13,561Z" transform="translate(-13.203 -458.619)"/></svg>