<svg xmlns="http://www.w3.org/2000/svg" width="18.054" height="18.053" viewBox="0 0 18.054 18.053"><defs><style>.a{fill:#fff;fill-rule:evenodd;}</style></defs><path class="a" d="M12.026,3c-2.452,0-2.758.011-3.721.054a6.643,6.643,0,0,0-2.191.42,4.613,4.613,0,0,0-2.64,2.64A6.655,6.655,0,0,0,3.054,8.3C3.01,9.268,3,9.575,3,12.026s.01,2.758.054,3.721a6.643,6.643,0,0,0,.42,2.191,4.612,4.612,0,0,0,2.64,2.64A6.655,6.655,0,0,0,8.306,21c.963.043,1.27.054,3.721.054s2.758-.011,3.721-.054a6.643,6.643,0,0,0,2.191-.42,4.612,4.612,0,0,0,2.64-2.64A6.655,6.655,0,0,0,21,15.747c.043-.963.054-1.27.054-3.721S21.043,9.268,21,8.3a6.643,6.643,0,0,0-.42-2.191,4.612,4.612,0,0,0-2.64-2.64,6.655,6.655,0,0,0-2.191-.42C14.785,3.011,14.478,3,12.026,3m0,1.627c2.41,0,2.7.009,3.647.052a5.015,5.015,0,0,1,1.677.311A2.988,2.988,0,0,1,19.063,6.7a5.009,5.009,0,0,1,.311,1.676c.043.953.052,1.237.052,3.648s-.009,2.7-.052,3.647a5.046,5.046,0,0,1-.311,1.677,2.988,2.988,0,0,1-1.713,1.713,5.009,5.009,0,0,1-1.676.311c-.951.043-1.237.052-3.648.052s-2.7-.009-3.647-.052A5.046,5.046,0,0,1,6.7,19.063,2.988,2.988,0,0,1,4.989,17.35a4.978,4.978,0,0,1-.311-1.676c-.043-.953-.052-1.237-.052-3.648s.009-2.7.052-3.647A5.015,5.015,0,0,1,4.989,6.7,2.988,2.988,0,0,1,6.7,4.989a4.978,4.978,0,0,1,1.676-.31c.953-.043,1.237-.052,3.648-.052m0,10.408a3.009,3.009,0,1,1,3.009-3.009,3.008,3.008,0,0,1-3.009,3.009m0-7.644a4.635,4.635,0,1,0,4.635,4.635,4.635,4.635,0,0,0-4.635-4.635m5.9-.183a1.083,1.083,0,1,1-1.083-1.083,1.083,1.083,0,0,1,1.083,1.083" transform="translate(-3 -3)"/></svg>