<svg xmlns="http://www.w3.org/2000/svg" width="21.666" height="20.71" viewBox="0 0 21.666 20.71"><defs><style>.a{fill:#fff;}</style></defs><path class="a" d="M4.918,20.71V6.737H.274V20.71ZM2.6,4.828A2.421,2.421,0,1,0,2.627,0a2.421,2.421,0,1,0-.061,4.828H2.6ZM7.489,20.71h4.644v-7.8a3.179,3.179,0,0,1,.153-1.133,2.542,2.542,0,0,1,2.383-1.7c1.681,0,2.353,1.281,2.353,3.16V20.71h4.644V12.7c0-4.292-2.291-6.289-5.347-6.289A4.625,4.625,0,0,0,12.1,8.763h.031V6.737H7.489c.061,1.311,0,13.973,0,13.973Z"/></svg>