<svg xmlns="http://www.w3.org/2000/svg" width="234.902" height="38.701" viewBox="0 0 234.902 38.701"><defs><style>.a{fill:#fff;}</style></defs><g transform="translate(-191.337 -253.79)"><g transform="translate(229.631 253.79)"><path class="a" d="M264.824,300.407v-29.8h5.511v1.756a8.857,8.857,0,0,1,2.817-1.531,10.248,10.248,0,0,1,3.225-.51,10.521,10.521,0,0,1,4.225.857,11.01,11.01,0,0,1,3.45,2.327,10.669,10.669,0,0,1,2.307,3.47,10.994,10.994,0,0,1,.837,4.286,10.768,10.768,0,0,1-.858,4.287,10.952,10.952,0,0,1-2.327,3.47,10.6,10.6,0,0,1-3.49,2.306,11.154,11.154,0,0,1-4.307.837,10.951,10.951,0,0,1-3.041-.429,10.281,10.281,0,0,1-2.756-1.245v9.92ZM275.479,275.1a7.679,7.679,0,0,0-2.817.51,6.184,6.184,0,0,0-2.245,1.49v8.369a6.52,6.52,0,0,0,2.225,1.429,7.564,7.564,0,0,0,2.837.53,6.033,6.033,0,0,0,4.409-1.776,6.234,6.234,0,0,0-.02-8.777A6.051,6.051,0,0,0,275.479,275.1Z" transform="translate(-264.824 -261.706)"/><path class="a" d="M319.928,254.495v29.8h-5.593V255.72Z" transform="translate(-288.535 -254.128)"/><path class="a" d="M339.248,292.13a8.4,8.4,0,0,1-5.593-1.817,5.866,5.866,0,0,1-2.164-4.715,5.557,5.557,0,0,1,2.327-4.736,10.6,10.6,0,0,1,6.41-1.715,16.92,16.92,0,0,1,5.184.817v-1.511a3.386,3.386,0,0,0-1.143-2.776,5.171,5.171,0,0,0-3.348-.939,11.146,11.146,0,0,0-2.919.428,24.955,24.955,0,0,0-3.572,1.327l-2.041-4.123a26.979,26.979,0,0,1,4.837-1.715,19.566,19.566,0,0,1,4.634-.571,9.9,9.9,0,0,1,6.675,2.061,7.271,7.271,0,0,1,2.388,5.817v13.8h-5.512v-1.47a9.962,9.962,0,0,1-2.837,1.388A11.5,11.5,0,0,1,339.248,292.13Zm-2.409-6.655a2.222,2.222,0,0,0,1.062,1.94,4.963,4.963,0,0,0,2.817.714,8.9,8.9,0,0,0,2.551-.347,7.908,7.908,0,0,0,2.143-1V283.6a10.19,10.19,0,0,0-2.143-.592,14.518,14.518,0,0,0-2.347-.184,5.408,5.408,0,0,0-3,.714A2.214,2.214,0,0,0,336.839,285.475Z" transform="translate(-296.751 -261.594)"/><path class="a" d="M373.483,289.307l2.776-3.715a16.891,16.891,0,0,0,3.552,1.817,9.973,9.973,0,0,0,3.348.592,6.28,6.28,0,0,0,3-.612,1.835,1.835,0,0,0,1.123-1.633,1.572,1.572,0,0,0-.633-1.307,4.407,4.407,0,0,0-2.021-.694l-4.082-.613a8.829,8.829,0,0,1-4.8-2.041,5.386,5.386,0,0,1-1.653-4.123,5.852,5.852,0,0,1,2.409-4.9,10.371,10.371,0,0,1,6.45-1.837,15.421,15.421,0,0,1,4.532.673,16.477,16.477,0,0,1,4.2,1.98L389,276.488a17.169,17.169,0,0,0-3.348-1.531,10.508,10.508,0,0,0-3.225-.511,4.554,4.554,0,0,0-2.429.572,1.722,1.722,0,0,0-.919,1.511,1.522,1.522,0,0,0,.674,1.327,5.224,5.224,0,0,0,2.225.673l4.082.612a8.632,8.632,0,0,1,4.8,2.042,5.308,5.308,0,0,1,1.694,4.042,5.662,5.662,0,0,1-.715,2.8,7.176,7.176,0,0,1-1.939,2.225,9.292,9.292,0,0,1-2.939,1.47,12.541,12.541,0,0,1-3.715.53,18.924,18.924,0,0,1-5.43-.755A12.683,12.683,0,0,1,373.483,289.307Z" transform="translate(-316.861 -261.669)"/><path class="a" d="M416.161,279.984V269.41h-4.368v-4.7h4.368v-5.429l5.593-1.266v6.7H427.8v4.7h-6.042v9.43a2.827,2.827,0,0,0,.653,2.123,3.333,3.333,0,0,0,2.286.613,10.154,10.154,0,0,0,1.469-.1,8.248,8.248,0,0,0,1.511-.388v4.572a13.683,13.683,0,0,1-2.164.47,15.356,15.356,0,0,1-2.164.184,7.86,7.86,0,0,1-5.369-1.613A5.972,5.972,0,0,1,416.161,279.984Z" transform="translate(-335.207 -255.816)"/><path class="a" d="M450.23,260.158a3.206,3.206,0,1,1,2.245-.939A3.062,3.062,0,0,1,450.23,260.158Zm2.817,2.531v21.269h-5.592V262.689Z" transform="translate(-352.09 -253.79)"/><path class="a" d="M476.454,287.272a6.331,6.331,0,0,0,2.674-.572,7.7,7.7,0,0,0,2.388-1.8l3.348,3.471a11.414,11.414,0,0,1-3.919,2.8,11.712,11.712,0,0,1-4.736,1,11.312,11.312,0,0,1-4.389-.857,11.02,11.02,0,0,1-3.552-2.327,10.719,10.719,0,0,1-2.347-3.49,11.184,11.184,0,0,1,2.347-12.207,10.852,10.852,0,0,1,3.552-2.347,11.312,11.312,0,0,1,4.389-.857,12.186,12.186,0,0,1,4.858,1,11.329,11.329,0,0,1,3.96,2.8l-3.429,3.633a8.383,8.383,0,0,0-2.449-1.919,6.22,6.22,0,0,0-2.817-.653,5.306,5.306,0,0,0-4.062,1.8,6.268,6.268,0,0,0-1.653,4.409,6.04,6.04,0,0,0,1.694,4.368A5.538,5.538,0,0,0,476.454,287.272Z" transform="translate(-360.719 -261.594)"/><path class="a" d="M509.327,284.784V256.207l3.021-.694V266.74a7.747,7.747,0,0,1,2.817-2.1,8.975,8.975,0,0,1,3.633-.714,7.555,7.555,0,0,1,7.879,7.92v12.941H523.7V272.455a5.878,5.878,0,0,0-1.551-4.287,5.548,5.548,0,0,0-4.164-1.592,6.584,6.584,0,0,0-3.286.816,6.314,6.314,0,0,0-2.348,2.327v15.064Z" transform="translate(-381.916 -254.615)"/><path class="a" d="M568.7,290.424a13.148,13.148,0,0,1-3.572,1.9,12.549,12.549,0,0,1-4.062.633,10.573,10.573,0,0,1-4.144-.817,10.2,10.2,0,0,1-3.348-2.245,10.955,10.955,0,0,1-2.245-11.676,10.96,10.96,0,0,1,2.143-3.347,9.823,9.823,0,0,1,7.144-3.062,9.032,9.032,0,0,1,3.817.817,9.3,9.3,0,0,1,3.062,2.245,10.963,10.963,0,0,1,2.041,3.347,11.164,11.164,0,0,1,.755,4.124v.939H553.515a7.738,7.738,0,0,0,2.491,5.021,7.367,7.367,0,0,0,5.184,2,9.992,9.992,0,0,0,3.1-.49,7.08,7.08,0,0,0,2.531-1.388Zm-8.165-15.962a6.53,6.53,0,0,0-4.592,1.8,7.553,7.553,0,0,0-2.348,4.613h13.676a7.843,7.843,0,0,0-2.306-4.552A6.138,6.138,0,0,0,560.537,274.462Z" transform="translate(-401.651 -262.419)"/><path class="a" d="M601.333,292.88a8.347,8.347,0,0,1-5.45-1.715,5.782,5.782,0,0,1,.1-9,9.548,9.548,0,0,1,5.96-1.694,13.511,13.511,0,0,1,3.164.368,13.247,13.247,0,0,1,2.837,1.02v-2.694a4.711,4.711,0,0,0-1.388-3.695,5.866,5.866,0,0,0-4.042-1.245,11.228,11.228,0,0,0-3.042.429,18.452,18.452,0,0,0-3.368,1.367l-1.143-2.327a22.745,22.745,0,0,1,4.083-1.551,14.817,14.817,0,0,1,3.756-.49,8.812,8.812,0,0,1,5.981,1.837,6.619,6.619,0,0,1,2.1,5.266v13.758h-2.939v-2a9.687,9.687,0,0,1-3.042,1.776A10.525,10.525,0,0,1,601.333,292.88Zm-4.654-6.246a3.34,3.34,0,0,0,1.449,2.8,6.079,6.079,0,0,0,3.735,1.081,9.381,9.381,0,0,0,3.348-.571,7.705,7.705,0,0,0,2.736-1.8v-3.838a8.954,8.954,0,0,0-2.715-1.245,12.394,12.394,0,0,0-3.2-.388,6.372,6.372,0,0,0-3.9,1.082A3.415,3.415,0,0,0,596.679,286.634Z" transform="translate(-422.361 -262.344)"/><path class="a" d="M639.341,255.513v29.271H636.32V256.207Z" transform="translate(-442.733 -254.615)"/></g><g transform="translate(210.325 262.075)"><circle class="a" cx="5.521" cy="5.521" r="5.521" transform="translate(1.147 0)"/><path class="a" d="M237.315,293.659a7.586,7.586,0,0,1-5.826,0,5.651,5.651,0,0,0-3.714,5.076v4.892H241.03v-4.892A5.651,5.651,0,0,0,237.315,293.659Z" transform="translate(-227.775 -281.168)"/></g><g transform="translate(191.337 262.243)"><circle class="a" cx="3.088" cy="3.088" r="3.088" transform="translate(9.03 16.32)"/><circle class="a" cx="3.088" cy="3.088" r="3.088" transform="translate(9.03 8.16)"/><circle class="a" cx="3.088" cy="3.088" r="3.088" transform="translate(9.03)"/><circle class="a" cx="3.088" cy="3.088" r="3.088" transform="translate(0 8.16)"/><circle class="a" cx="3.088" cy="3.088" r="3.088"/></g></g></svg>