<svg xmlns="http://www.w3.org/2000/svg" width="21.663" height="17.598" viewBox="0 0 21.663 17.598"><defs><style>.a{fill:#fff;}</style></defs><path class="a" d="M21.663,2.084a9,9,0,0,1-2.22,2.3q.013.255.013.575a12.766,12.766,0,0,1-2.107,6.989A13.5,13.5,0,0,1,14.8,14.838a11.342,11.342,0,0,1-3.549,2.01,12.963,12.963,0,0,1-4.443.75A12.37,12.37,0,0,1,0,15.6a9.61,9.61,0,0,0,1.06.061,8.714,8.714,0,0,0,5.52-1.9A4.312,4.312,0,0,1,4,12.871a4.368,4.368,0,0,1-1.569-2.2A4.443,4.443,0,0,0,4.438,10.6,4.332,4.332,0,0,1,1.886,9.066,4.3,4.3,0,0,1,.873,6.241V6.187a4.386,4.386,0,0,0,2.013.556A4.415,4.415,0,0,1,1.442,5.159,4.337,4.337,0,0,1,.909,3.045,4.367,4.367,0,0,1,1.51.812a12.654,12.654,0,0,0,4.052,3.28,12.35,12.35,0,0,0,5.107,1.364,4.346,4.346,0,0,1-.117-1.012,4.281,4.281,0,0,1,1.3-3.142,4.446,4.446,0,0,1,6.386.1A8.852,8.852,0,0,0,21.062.323,4.3,4.3,0,0,1,19.11,2.782,8.882,8.882,0,0,0,21.663,2.084Z"/></svg>