<?xml version="1.0" encoding="utf-8"?>
<!-- Generator: Adobe Illustrator 25.2.3, SVG Export Plug-In . SVG Version: 6.00 Build 0)  -->
<svg version="1.1" id="Capa_1" xmlns="http://www.w3.org/2000/svg" xmlns:xlink="http://www.w3.org/1999/xlink" x="0px" y="0px"
	 viewBox="0 0 1190.55 841.89" style="enable-background:new 0 0 1190.55 841.89;" xml:space="preserve">
<style type="text/css">
	.st0{fill:#1E1E1C;}
	.st1{fill:#86CBC7;}
	.st2{fill:#FFFFFF;}
</style>
<g>
	<circle class="st0" cx="176.26" cy="350.65" r="82.86"/>
</g>
<g>
	<circle class="st0" cx="382.69" cy="347.64" r="82.86"/>
</g>
<g>
	<g>
		<path class="st1" d="M58.13,348.45l0,4.41l-12.63,4.58l0-4.21l7.5-2.58l-7.5-2.58v-4.21L58.13,348.45z"/>
	</g>
	<g>
		<path class="st1" d="M73.48,348.45v4.41l-12.63,4.58v-4.21l7.5-2.58l-7.5-2.58v-4.21L73.48,348.45z"/>
	</g>
</g>
<g>
	<path class="st2" d="M176.51,321.05l-2.77,8.67h-3.13l-1.4-4.63l-1.47,4.63h-3.13l-2.77-8.67h3.01l1.51,4.93l1.6-4.93h2.69
		l1.51,4.99l1.6-4.99H176.51z"/>
	<path class="st2" d="M183.42,321.45c0.59,0.26,1.05,0.64,1.37,1.14c0.32,0.5,0.48,1.07,0.48,1.73c0,0.66-0.16,1.24-0.48,1.73
		c-0.32,0.5-0.78,0.87-1.37,1.14c-0.59,0.26-1.29,0.4-2.09,0.4h-1.25v2.13h-2.92v-8.67h4.17
		C182.13,321.05,182.83,321.19,183.42,321.45z M182.03,325.07c0.2-0.18,0.3-0.43,0.3-0.75c0-0.32-0.1-0.57-0.3-0.75
		c-0.2-0.18-0.49-0.27-0.89-0.27h-1.07v2.03h1.07C181.54,325.34,181.83,325.25,182.03,325.07z"/>
	<path class="st2" d="M190.12,321.05v8.67h-2.92v-6.46h-1.49v-2.2H190.12z"/>
	<path class="st2" d="M126.72,358.09v1.35h-6.5v-8.67h6.33v1.35h-4.72v2.25h4.19v1.32h-4.19v2.39H126.72z"/>
	<path class="st2" d="M136.21,350.77v8.67h-1.33l-4.78-5.87v5.87h-1.6v-8.67h1.32l4.78,5.87v-5.87H136.21z"/>
	<path class="st2" d="M146.4,350.77l-3.78,8.67h-1.59l-3.79-8.67H139l2.89,6.69l2.91-6.69H146.4z"/>
	<path class="st2" d="M147.32,350.77h1.61v8.67h-1.61V350.77z"/>
	<path class="st2" d="M156.94,359.44l-1.77-2.54c-0.07,0.01-0.19,0.01-0.33,0.01h-1.96v2.53h-1.61v-8.67h3.57
		c0.75,0,1.41,0.12,1.96,0.37c0.56,0.25,0.98,0.6,1.28,1.07c0.3,0.46,0.44,1.01,0.44,1.65c0,0.65-0.16,1.21-0.48,1.68
		c-0.32,0.47-0.77,0.82-1.37,1.05l1.99,2.85H156.94z M156.36,352.58c-0.36-0.3-0.9-0.45-1.6-0.45h-1.88v3.45h1.88
		c0.7,0,1.23-0.15,1.6-0.45c0.36-0.3,0.55-0.73,0.55-1.28C156.9,353.3,156.72,352.88,156.36,352.58z"/>
	<path class="st2" d="M161.98,358.99c-0.71-0.38-1.27-0.92-1.67-1.6c-0.4-0.68-0.61-1.44-0.61-2.28c0-0.84,0.2-1.6,0.61-2.28
		c0.41-0.68,0.96-1.21,1.67-1.6c0.71-0.38,1.51-0.58,2.39-0.58c0.88,0,1.68,0.19,2.39,0.58c0.71,0.38,1.27,0.91,1.67,1.59
		c0.4,0.68,0.61,1.44,0.61,2.29c0,0.85-0.2,1.61-0.61,2.29c-0.41,0.68-0.96,1.21-1.67,1.59c-0.71,0.38-1.51,0.58-2.39,0.58
		C163.49,359.56,162.69,359.37,161.98,358.99z M165.93,357.76c0.46-0.26,0.83-0.62,1.09-1.09c0.26-0.47,0.4-0.99,0.4-1.57
		s-0.13-1.1-0.4-1.57c-0.26-0.47-0.63-0.83-1.09-1.09c-0.46-0.26-0.98-0.39-1.56-0.39s-1.1,0.13-1.56,0.39
		c-0.46,0.26-0.83,0.62-1.09,1.09c-0.26,0.47-0.4,0.99-0.4,1.57s0.13,1.1,0.4,1.57c0.26,0.47,0.63,0.83,1.09,1.09
		c0.46,0.26,0.98,0.39,1.56,0.39S165.47,358.02,165.93,357.76z"/>
	<path class="st2" d="M178.45,350.77v8.67h-1.33l-4.78-5.87v5.87h-1.6v-8.67h1.32l4.78,5.87v-5.87H178.45z"/>
	<path class="st2" d="M188.74,359.44l-0.01-5.75l-2.85,4.76h-0.72l-2.85-4.68v5.67h-1.53v-8.67h1.32l3.44,5.75l3.38-5.75h1.33
		l0.01,8.67H188.74z"/>
	<path class="st2" d="M199.1,358.09v1.35h-6.5v-8.67h6.33v1.35h-4.72v2.25h4.19v1.32h-4.19v2.39H199.1z"/>
	<path class="st2" d="M208.6,350.77v8.67h-1.33l-4.78-5.87v5.87h-1.6v-8.67h1.32l4.78,5.87v-5.87H208.6z"/>
	<path class="st2" d="M212.68,352.13h-2.87v-1.36h7.36v1.36h-2.87v7.31h-1.61V352.13z"/>
	<path class="st2" d="M223.57,357.43h-4.33l-0.85,2.01h-1.66l3.9-8.67h1.59l3.91,8.67h-1.68L223.57,357.43z M223.04,356.17
		l-1.63-3.79l-1.62,3.79H223.04z"/>
	<path class="st2" d="M227.22,350.77h1.61v7.31h4.53v1.36h-6.14V350.77z"/>
	<path class="st2" d="M142.1,374.3l-0.01-5.75l-2.85,4.76h-0.72l-2.85-4.68v5.67h-1.53v-8.67h1.32l3.44,5.75l3.38-5.75h1.33
		l0.01,8.67H142.1z"/>
	<path class="st2" d="M147.62,373.85c-0.71-0.38-1.27-0.92-1.67-1.6c-0.4-0.68-0.61-1.44-0.61-2.28s0.2-1.6,0.61-2.28
		c0.41-0.68,0.96-1.21,1.67-1.6c0.71-0.38,1.51-0.58,2.39-0.58c0.88,0,1.68,0.19,2.39,0.58c0.71,0.38,1.27,0.91,1.67,1.59
		c0.4,0.68,0.61,1.44,0.61,2.29s-0.2,1.61-0.61,2.29c-0.41,0.68-0.96,1.21-1.67,1.59c-0.71,0.38-1.51,0.58-2.39,0.58
		C149.13,374.42,148.33,374.23,147.62,373.85z M151.57,372.62c0.46-0.26,0.83-0.62,1.09-1.09c0.26-0.47,0.4-0.99,0.4-1.57
		s-0.13-1.1-0.4-1.57c-0.26-0.47-0.63-0.83-1.09-1.09c-0.46-0.26-0.98-0.39-1.56-0.39s-1.1,0.13-1.56,0.39
		c-0.46,0.26-0.83,0.62-1.09,1.09c-0.26,0.47-0.4,0.99-0.4,1.57s0.13,1.1,0.4,1.57c0.26,0.47,0.63,0.83,1.09,1.09
		c0.46,0.26,0.98,0.39,1.56,0.39S151.11,372.88,151.57,372.62z"/>
	<path class="st2" d="M164.09,365.63v8.67h-1.33l-4.78-5.87v5.87h-1.6v-8.67h1.32l4.78,5.87v-5.87H164.09z"/>
	<path class="st2" d="M166.42,365.63h1.61v8.67h-1.61V365.63z"/>
	<path class="st2" d="M172.13,366.99h-2.87v-1.36h7.36v1.36h-2.87v7.31h-1.61V366.99z"/>
	<path class="st2" d="M179.36,373.85c-0.71-0.38-1.27-0.92-1.67-1.6c-0.4-0.68-0.61-1.44-0.61-2.28s0.2-1.6,0.61-2.28
		c0.41-0.68,0.96-1.21,1.67-1.6c0.71-0.38,1.51-0.58,2.39-0.58c0.88,0,1.68,0.19,2.39,0.58c0.71,0.38,1.27,0.91,1.67,1.59
		c0.4,0.68,0.61,1.44,0.61,2.29s-0.2,1.61-0.61,2.29c-0.41,0.68-0.96,1.21-1.67,1.59c-0.71,0.38-1.51,0.58-2.39,0.58
		C180.86,374.42,180.07,374.23,179.36,373.85z M183.31,372.62c0.46-0.26,0.83-0.62,1.09-1.09c0.26-0.47,0.4-0.99,0.4-1.57
		s-0.13-1.1-0.4-1.57c-0.26-0.47-0.63-0.83-1.09-1.09c-0.46-0.26-0.98-0.39-1.56-0.39s-1.1,0.13-1.56,0.39
		c-0.46,0.26-0.83,0.62-1.09,1.09c-0.26,0.47-0.4,0.99-0.4,1.57s0.13,1.1,0.4,1.57c0.26,0.47,0.63,0.83,1.09,1.09
		c0.46,0.26,0.98,0.39,1.56,0.39S182.85,372.88,183.31,372.62z"/>
	<path class="st2" d="M193.8,374.3l-1.77-2.54c-0.07,0.01-0.19,0.01-0.33,0.01h-1.96v2.53h-1.61v-8.67h3.57
		c0.75,0,1.41,0.12,1.96,0.37c0.56,0.25,0.98,0.6,1.28,1.07c0.3,0.46,0.44,1.01,0.44,1.65c0,0.65-0.16,1.21-0.48,1.68
		c-0.32,0.47-0.77,0.82-1.37,1.05l1.99,2.85H193.8z M193.21,367.44c-0.36-0.3-0.9-0.45-1.6-0.45h-1.88v3.45h1.88
		c0.7,0,1.23-0.15,1.6-0.45c0.36-0.3,0.55-0.73,0.55-1.28C193.76,368.16,193.58,367.74,193.21,367.44z"/>
	<path class="st2" d="M197.18,365.63h1.61v8.67h-1.61V365.63z"/>
	<path class="st2" d="M208.83,365.63v8.67h-1.33l-4.78-5.87v5.87h-1.6v-8.67h1.32l4.78,5.87v-5.87H208.83z"/>
	<path class="st2" d="M217.07,369.87h1.52v3.45c-0.45,0.35-0.97,0.63-1.56,0.82c-0.59,0.19-1.21,0.28-1.83,0.28
		c-0.88,0-1.68-0.19-2.39-0.58c-0.71-0.38-1.27-0.91-1.67-1.59c-0.4-0.68-0.61-1.44-0.61-2.29s0.2-1.61,0.61-2.29
		c0.41-0.68,0.96-1.21,1.68-1.59c0.71-0.38,1.52-0.58,2.41-0.58c0.73,0,1.39,0.12,1.98,0.36c0.59,0.24,1.09,0.59,1.5,1.05
		l-1.02,0.99c-0.66-0.66-1.46-0.99-2.39-0.99c-0.61,0-1.15,0.13-1.63,0.38c-0.47,0.26-0.85,0.61-1.11,1.08
		c-0.27,0.46-0.4,0.99-0.4,1.58c0,0.58,0.13,1.1,0.4,1.56c0.27,0.46,0.64,0.83,1.11,1.09c0.48,0.26,1.01,0.4,1.62,0.4
		c0.68,0,1.27-0.15,1.78-0.45V369.87z"/>
</g>
<g>
	<circle class="st0" cx="826.92" cy="448.73" r="82.86"/>
</g>
<g>
	<path class="st2" d="M825.66,411.73l-2.77,8.67h-3.13l-1.4-4.63l-1.47,4.63h-3.13l-2.77-8.67h3.01l1.51,4.93l1.6-4.93h2.69
		l1.51,4.99l1.6-4.99H825.66z"/>
	<path class="st2" d="M832.57,412.12c0.59,0.26,1.05,0.64,1.37,1.14c0.32,0.5,0.48,1.07,0.48,1.73c0,0.66-0.16,1.24-0.48,1.73
		s-0.78,0.87-1.37,1.14c-0.59,0.26-1.29,0.4-2.09,0.4h-1.25v2.13h-2.92v-8.67h4.17C831.28,411.73,831.97,411.86,832.57,412.12z
		 M831.18,415.74c0.2-0.18,0.3-0.43,0.3-0.75c0-0.32-0.1-0.57-0.3-0.75c-0.2-0.18-0.49-0.27-0.89-0.27h-1.07v2.03h1.07
		C830.69,416.01,830.98,415.92,831.18,415.74z"/>
	<path class="st2" d="M841.33,415.13c0.45,0.23,0.82,0.56,1.09,0.98c0.27,0.42,0.41,0.9,0.41,1.45c0,0.6-0.15,1.14-0.46,1.6
		c-0.31,0.46-0.73,0.82-1.27,1.06c-0.54,0.25-1.13,0.37-1.78,0.37c-0.83,0-1.56-0.16-2.19-0.48c-0.62-0.32-1.11-0.8-1.45-1.44
		c-0.35-0.64-0.52-1.42-0.52-2.34c0-0.99,0.2-1.85,0.6-2.58c0.4-0.73,0.96-1.28,1.68-1.66c0.72-0.38,1.56-0.57,2.52-0.57
		c0.52,0,1.02,0.06,1.49,0.18c0.47,0.12,0.87,0.29,1.2,0.5l-1.05,2.04c-0.43-0.31-0.95-0.46-1.57-0.46c-0.5,0-0.92,0.13-1.24,0.38
		c-0.33,0.25-0.54,0.62-0.64,1.1c0.45-0.32,1.03-0.48,1.72-0.48C840.39,414.79,840.88,414.9,841.33,415.13z M839.76,418.34
		c0.17-0.16,0.25-0.37,0.25-0.64c0-0.27-0.08-0.49-0.25-0.65c-0.16-0.16-0.38-0.24-0.64-0.24c-0.26,0-0.48,0.08-0.64,0.24
		c-0.16,0.16-0.25,0.38-0.25,0.65c0,0.27,0.08,0.49,0.25,0.64c0.17,0.16,0.38,0.24,0.64,0.24
		C839.38,418.57,839.6,418.5,839.76,418.34z"/>
	<path class="st2" d="M788.96,441.44h1.61v7.3h4.53v1.36h-6.14V441.44z"/>
	<path class="st2" d="M797.88,449.66c-0.71-0.38-1.27-0.92-1.67-1.6c-0.4-0.68-0.61-1.44-0.61-2.28c0-0.84,0.2-1.6,0.61-2.29
		c0.41-0.68,0.96-1.21,1.67-1.6c0.71-0.38,1.51-0.58,2.39-0.58c0.88,0,1.68,0.19,2.39,0.58c0.71,0.38,1.27,0.91,1.67,1.59
		c0.4,0.68,0.61,1.44,0.61,2.29c0,0.85-0.2,1.61-0.61,2.29c-0.41,0.68-0.96,1.21-1.67,1.59c-0.71,0.38-1.51,0.58-2.39,0.58
		C799.39,450.24,798.59,450.04,797.88,449.66z M801.83,448.43c0.46-0.26,0.83-0.62,1.09-1.09c0.26-0.47,0.4-0.99,0.4-1.57
		s-0.13-1.1-0.4-1.57c-0.26-0.47-0.63-0.83-1.09-1.09c-0.46-0.26-0.98-0.39-1.56-0.39s-1.1,0.13-1.56,0.39
		c-0.46,0.26-0.83,0.62-1.09,1.09c-0.26,0.47-0.4,0.99-0.4,1.57s0.13,1.1,0.4,1.57c0.26,0.47,0.63,0.83,1.09,1.09
		c0.46,0.26,0.98,0.39,1.56,0.39S801.37,448.69,801.83,448.43z"/>
	<path class="st2" d="M814.35,441.44v8.67h-1.33l-4.78-5.87v5.87h-1.6v-8.67h1.32l4.78,5.87v-5.87H814.35z"/>
	<path class="st2" d="M822.59,445.68h1.52v3.45c-0.45,0.35-0.97,0.63-1.56,0.82c-0.59,0.19-1.21,0.28-1.83,0.28
		c-0.88,0-1.68-0.19-2.39-0.58c-0.71-0.38-1.27-0.91-1.67-1.59c-0.4-0.68-0.61-1.44-0.61-2.29c0-0.85,0.2-1.61,0.61-2.29
		c0.41-0.68,0.96-1.21,1.68-1.59c0.71-0.38,1.52-0.58,2.41-0.58c0.73,0,1.39,0.12,1.98,0.36c0.59,0.24,1.09,0.59,1.5,1.05
		l-1.02,0.99c-0.66-0.66-1.46-0.99-2.39-0.99c-0.61,0-1.15,0.13-1.63,0.38c-0.47,0.26-0.85,0.62-1.11,1.08s-0.4,0.99-0.4,1.59
		c0,0.58,0.13,1.1,0.4,1.56s0.64,0.83,1.11,1.09c0.48,0.26,1.01,0.4,1.62,0.4c0.68,0,1.27-0.15,1.78-0.45V445.68z"/>
	<path class="st2" d="M825.75,446.03h3.41v1.29h-3.41V446.03z"/>
	<path class="st2" d="M832.33,442.81h-2.87v-1.36h7.36v1.36h-2.87v7.31h-1.61V442.81z"/>
	<path class="st2" d="M844.52,448.76v1.35h-6.5v-8.67h6.33v1.35h-4.72v2.25h4.19v1.32h-4.19v2.39H844.52z"/>
	<path class="st2" d="M851.99,450.11l-1.77-2.54c-0.07,0.01-0.18,0.01-0.33,0.01h-1.96v2.53h-1.61v-8.67h3.57
		c0.75,0,1.41,0.12,1.96,0.37c0.56,0.25,0.98,0.6,1.28,1.07c0.3,0.46,0.45,1.01,0.45,1.65c0,0.65-0.16,1.21-0.48,1.68
		c-0.32,0.47-0.77,0.82-1.37,1.05l1.99,2.85H851.99z M851.41,443.25c-0.36-0.3-0.9-0.45-1.6-0.45h-1.88v3.45h1.88
		c0.7,0,1.23-0.15,1.6-0.45c0.36-0.3,0.55-0.73,0.55-1.28C851.95,443.97,851.77,443.55,851.41,443.25z"/>
	<path class="st2" d="M863.33,450.11l-0.01-5.75l-2.85,4.76h-0.72l-2.85-4.68v5.67h-1.53v-8.67h1.32l3.44,5.74l3.38-5.74h1.33
		l0.01,8.67H863.33z"/>
	<path class="st2" d="M768.76,463.62v1.35h-6.5v-8.67h6.33v1.35h-4.72v2.25h4.19v1.32h-4.19v2.39H768.76z"/>
	<path class="st2" d="M775.91,464.97l-2.35-3.29l-2.33,3.29h-1.83l3.22-4.42l-3.05-4.25h1.82l2.22,3.08l2.19-3.08h1.75l-3.03,4.19
		l3.26,4.48H775.91z"/>
	<path class="st2" d="M784.28,456.67c0.56,0.25,0.98,0.6,1.28,1.07c0.3,0.46,0.44,1.01,0.44,1.65c0,0.63-0.15,1.17-0.44,1.64
		c-0.3,0.47-0.72,0.82-1.28,1.07c-0.56,0.25-1.21,0.37-1.96,0.37h-1.96v2.5h-1.61v-8.67h3.57
		C783.07,456.3,783.72,456.43,784.28,456.67z M783.84,460.66c0.36-0.3,0.55-0.72,0.55-1.27c0-0.55-0.18-0.98-0.55-1.28
		c-0.36-0.3-0.9-0.45-1.6-0.45h-1.88v3.44h1.88C782.94,461.11,783.48,460.96,783.84,460.66z"/>
	<path class="st2" d="M789.4,464.52c-0.71-0.38-1.27-0.92-1.67-1.6c-0.4-0.68-0.61-1.44-0.61-2.28c0-0.84,0.2-1.6,0.61-2.29
		c0.41-0.68,0.96-1.21,1.67-1.6c0.71-0.38,1.51-0.58,2.39-0.58c0.88,0,1.68,0.19,2.39,0.58c0.71,0.38,1.27,0.91,1.67,1.59
		c0.4,0.68,0.61,1.44,0.61,2.29s-0.2,1.61-0.61,2.29c-0.41,0.68-0.96,1.21-1.67,1.59c-0.71,0.38-1.51,0.58-2.39,0.58
		C790.9,465.09,790.11,464.9,789.4,464.52z M793.35,463.29c0.46-0.26,0.83-0.62,1.09-1.09c0.26-0.47,0.4-0.99,0.4-1.57
		s-0.13-1.1-0.4-1.57c-0.26-0.47-0.63-0.83-1.09-1.09c-0.46-0.26-0.98-0.39-1.56-0.39s-1.1,0.13-1.56,0.39
		c-0.46,0.26-0.83,0.62-1.09,1.09c-0.26,0.47-0.4,0.99-0.4,1.57s0.13,1.1,0.4,1.57c0.26,0.47,0.63,0.83,1.09,1.09
		c0.46,0.26,0.98,0.39,1.56,0.39S792.89,463.55,793.35,463.29z"/>
	<path class="st2" d="M798.91,464.81c-0.62-0.19-1.12-0.44-1.48-0.76l0.56-1.25c0.36,0.28,0.79,0.51,1.31,0.69
		c0.52,0.18,1.03,0.27,1.55,0.27c0.64,0,1.12-0.1,1.44-0.31c0.32-0.21,0.48-0.48,0.48-0.82c0-0.25-0.09-0.45-0.27-0.61
		c-0.18-0.16-0.4-0.29-0.67-0.38c-0.27-0.09-0.64-0.19-1.11-0.31c-0.66-0.16-1.19-0.31-1.6-0.47c-0.41-0.16-0.76-0.4-1.05-0.74
		c-0.29-0.33-0.44-0.79-0.44-1.36c0-0.48,0.13-0.91,0.39-1.31c0.26-0.39,0.65-0.7,1.18-0.93c0.52-0.23,1.17-0.35,1.93-0.35
		c0.53,0,1.05,0.07,1.56,0.2c0.51,0.13,0.95,0.32,1.33,0.57l-0.51,1.25c-0.38-0.22-0.78-0.39-1.19-0.51
		c-0.41-0.12-0.81-0.17-1.2-0.17c-0.63,0-1.11,0.11-1.42,0.32c-0.31,0.21-0.46,0.5-0.46,0.85c0,0.25,0.09,0.45,0.27,0.61
		s0.4,0.28,0.67,0.37c0.27,0.09,0.64,0.19,1.11,0.31c0.64,0.15,1.17,0.3,1.59,0.46c0.41,0.16,0.77,0.41,1.06,0.74
		c0.29,0.33,0.44,0.78,0.44,1.34c0,0.48-0.13,0.91-0.39,1.3c-0.26,0.39-0.65,0.7-1.18,0.93s-1.17,0.35-1.93,0.35
		C800.18,465.09,799.54,465,798.91,464.81z"/>
	<path class="st2" d="M806.88,464.09c-0.67-0.67-1-1.64-1-2.89v-4.89h1.61v4.83c0,1.7,0.74,2.55,2.2,2.55
		c1.46,0,2.19-0.85,2.19-2.55v-4.83h1.58v4.89c0,1.25-0.33,2.22-1,2.89c-0.67,0.67-1.59,1.01-2.79,1.01S807.55,464.76,806.88,464.09
		z"/>
	<path class="st2" d="M821.39,464.97l-1.77-2.54c-0.07,0.01-0.18,0.01-0.33,0.01h-1.96v2.53h-1.61v-8.67h3.57
		c0.75,0,1.41,0.12,1.96,0.37c0.56,0.25,0.98,0.6,1.28,1.07c0.3,0.46,0.44,1.01,0.44,1.65c0,0.65-0.16,1.21-0.48,1.68
		c-0.32,0.47-0.77,0.82-1.37,1.05l1.99,2.85H821.39z M820.81,458.11c-0.36-0.3-0.9-0.45-1.6-0.45h-1.88v3.45h1.88
		c0.7,0,1.23-0.15,1.6-0.45c0.36-0.3,0.55-0.73,0.55-1.28C821.36,458.83,821.18,458.41,820.81,458.11z"/>
	<path class="st2" d="M831.28,463.62v1.35h-6.5v-8.67h6.33v1.35h-4.72v2.25h4.19v1.32h-4.19v2.39H831.28z"/>
	<path class="st2" d="M836.49,456.3h1.61v8.67h-1.61V456.3z"/>
	<path class="st2" d="M848.4,464.97l-0.01-5.75l-2.85,4.76h-0.72l-2.85-4.68v5.67h-1.53v-8.67h1.32l3.44,5.74l3.38-5.74h1.33
		l0.01,8.67H848.4z"/>
	<path class="st2" d="M857.79,456.67c0.56,0.25,0.98,0.6,1.28,1.07c0.3,0.46,0.45,1.01,0.45,1.65c0,0.63-0.15,1.17-0.45,1.64
		c-0.3,0.47-0.72,0.82-1.28,1.07s-1.21,0.37-1.96,0.37h-1.96v2.5h-1.61v-8.67h3.57C856.58,456.3,857.23,456.43,857.79,456.67z
		 M857.35,460.66c0.36-0.3,0.55-0.72,0.55-1.27c0-0.55-0.18-0.98-0.55-1.28c-0.36-0.3-0.9-0.45-1.6-0.45h-1.88v3.44h1.88
		C856.45,461.11,856.99,460.96,857.35,460.66z"/>
	<path class="st2" d="M866.32,462.96h-4.33l-0.85,2.01h-1.66l3.9-8.67h1.59l3.91,8.67h-1.68L866.32,462.96z M865.78,461.7
		l-1.63-3.79l-1.62,3.79H865.78z"/>
	<path class="st2" d="M871.49,464.52c-0.71-0.38-1.26-0.91-1.66-1.59s-0.6-1.44-0.6-2.29s0.2-1.61,0.61-2.29
		c0.41-0.68,0.96-1.21,1.67-1.59c0.7-0.38,1.5-0.58,2.37-0.58c0.71,0,1.36,0.12,1.94,0.37c0.59,0.25,1.08,0.61,1.49,1.08l-1.04,0.98
		c-0.63-0.68-1.4-1.01-2.32-1.01c-0.59,0-1.13,0.13-1.6,0.39c-0.47,0.26-0.84,0.62-1.1,1.08c-0.26,0.46-0.4,0.99-0.4,1.57
		c0,0.59,0.13,1.11,0.4,1.57c0.26,0.46,0.63,0.82,1.1,1.08c0.47,0.26,1,0.39,1.6,0.39c0.92,0,1.69-0.34,2.32-1.03l1.04,0.99
		c-0.41,0.47-0.9,0.83-1.49,1.08s-1.24,0.37-1.95,0.37C872.98,465.09,872.19,464.9,871.49,464.52z"/>
	<path class="st2" d="M880.51,457.66h-2.87v-1.36h7.36v1.36h-2.87v7.31h-1.61V457.66z"/>
	<path class="st2" d="M886.86,464.81c-0.62-0.19-1.12-0.44-1.48-0.76l0.56-1.25c0.36,0.28,0.79,0.51,1.31,0.69
		c0.52,0.18,1.03,0.27,1.55,0.27c0.64,0,1.12-0.1,1.44-0.31c0.32-0.21,0.48-0.48,0.48-0.82c0-0.25-0.09-0.45-0.27-0.61
		c-0.18-0.16-0.4-0.29-0.67-0.38c-0.27-0.09-0.64-0.19-1.11-0.31c-0.66-0.16-1.19-0.31-1.6-0.47c-0.41-0.16-0.76-0.4-1.05-0.74
		c-0.29-0.33-0.44-0.79-0.44-1.36c0-0.48,0.13-0.91,0.39-1.31c0.26-0.39,0.65-0.7,1.18-0.93c0.52-0.23,1.17-0.35,1.93-0.35
		c0.53,0,1.05,0.07,1.56,0.2s0.95,0.32,1.33,0.57l-0.51,1.25c-0.38-0.22-0.78-0.39-1.19-0.51c-0.41-0.12-0.81-0.17-1.2-0.17
		c-0.63,0-1.11,0.11-1.42,0.32c-0.31,0.21-0.46,0.5-0.46,0.85c0,0.25,0.09,0.45,0.27,0.61c0.18,0.16,0.4,0.28,0.67,0.37
		c0.27,0.09,0.64,0.19,1.11,0.31c0.64,0.15,1.17,0.3,1.59,0.46c0.41,0.16,0.77,0.41,1.06,0.74c0.29,0.33,0.44,0.78,0.44,1.34
		c0,0.48-0.13,0.91-0.39,1.3c-0.26,0.39-0.65,0.7-1.18,0.93c-0.53,0.23-1.17,0.35-1.93,0.35C888.13,465.09,887.49,465,886.86,464.81
		z"/>
</g>
<g>
	<path class="st2" d="M381.79,318.04l-2.77,8.67h-3.13l-1.4-4.63l-1.47,4.63h-3.13l-2.77-8.67h3.01l1.51,4.93l1.6-4.93h2.69
		l1.51,4.99l1.6-4.99H381.79z"/>
	<path class="st2" d="M388.7,318.43c0.59,0.26,1.05,0.64,1.37,1.14c0.32,0.5,0.48,1.07,0.48,1.73s-0.16,1.24-0.48,1.73
		s-0.78,0.87-1.37,1.14c-0.59,0.26-1.29,0.4-2.09,0.4h-1.25v2.13h-2.92v-8.67h4.17C387.41,318.04,388.11,318.17,388.7,318.43z
		 M387.31,322.06c0.2-0.18,0.3-0.43,0.3-0.75c0-0.32-0.1-0.57-0.3-0.75c-0.2-0.18-0.49-0.27-0.89-0.27h-1.07v2.03h1.07
		C386.82,322.32,387.11,322.23,387.31,322.06z"/>
	<path class="st2" d="M398.16,324.44v2.27h-6.95v-1.8l3.13-2.9c0.27-0.26,0.45-0.47,0.55-0.66c0.09-0.18,0.14-0.36,0.14-0.53
		c0-0.21-0.07-0.38-0.22-0.5c-0.14-0.12-0.35-0.18-0.63-0.18c-0.26,0-0.51,0.07-0.74,0.21s-0.41,0.34-0.53,0.59l-2.2-1.1
		c0.33-0.62,0.81-1.11,1.45-1.47s1.4-0.54,2.3-0.54c0.68,0,1.29,0.11,1.82,0.33c0.53,0.22,0.94,0.54,1.24,0.95
		c0.3,0.41,0.45,0.89,0.45,1.42c0,0.48-0.1,0.93-0.3,1.34c-0.2,0.42-0.6,0.89-1.18,1.42l-1.24,1.13H398.16z"/>
	<path class="st2" d="M366.09,347.76v8.67h-1.61v-3.71H360v3.71h-1.61v-8.67H360v3.58h4.48v-3.58H366.09z"/>
	<path class="st2" d="M369.35,355.54c-0.67-0.67-1-1.64-1-2.89v-4.89h1.61v4.83c0,1.7,0.74,2.55,2.2,2.55
		c1.46,0,2.19-0.85,2.19-2.55v-4.83h1.58v4.89c0,1.25-0.33,2.22-1,2.89c-0.67,0.67-1.59,1.01-2.79,1.01S370.02,356.21,369.35,355.54
		z"/>
	<path class="st2" d="M386.15,356.42l-0.01-5.75l-2.85,4.76h-0.72l-2.85-4.68v5.67h-1.53v-8.67h1.32l3.44,5.75l3.38-5.75h1.33
		l0.01,8.67H386.15z"/>
	<path class="st2" d="M395.63,354.42h-4.33l-0.85,2.01h-1.66l3.9-8.67h1.59l3.91,8.67h-1.68L395.63,354.42z M395.1,353.15
		l-1.63-3.79l-1.62,3.79H395.1z"/>
	<path class="st2" d="M406.99,347.76v8.67h-1.33l-4.78-5.87v5.87h-1.6v-8.67h1.32l4.78,5.87v-5.87H406.99z"/>
	<path class="st2" d="M335.95,367.56c0.28,0.37,0.42,0.82,0.42,1.37c0,0.75-0.29,1.33-0.87,1.74s-1.42,0.61-2.53,0.61h-4.31v-8.67
		h4.06c1.02,0,1.81,0.2,2.37,0.6c0.55,0.4,0.83,0.95,0.83,1.65c0,0.43-0.1,0.81-0.3,1.14c-0.2,0.33-0.47,0.59-0.82,0.77
		C335.28,366.93,335.67,367.19,335.95,367.56z M330.27,363.88v2.39h2.28c0.56,0,0.99-0.1,1.29-0.3s0.45-0.5,0.45-0.89
		c0-0.4-0.15-0.7-0.45-0.9c-0.3-0.2-0.73-0.3-1.29-0.3H330.27z M334.74,368.77c0-0.83-0.62-1.25-1.87-1.25h-2.6v2.5h2.6
		C334.12,370.02,334.74,369.6,334.74,368.77z"/>
	<path class="st2" d="M338.09,362.61h1.61v8.67h-1.61V362.61z"/>
	<path class="st2" d="M343.7,370.83c-0.71-0.38-1.27-0.92-1.67-1.6c-0.4-0.68-0.61-1.44-0.61-2.28c0-0.84,0.2-1.6,0.61-2.28
		c0.41-0.68,0.96-1.21,1.67-1.6c0.71-0.38,1.51-0.58,2.39-0.58c0.88,0,1.68,0.19,2.39,0.58c0.71,0.38,1.27,0.91,1.67,1.59
		c0.4,0.68,0.61,1.44,0.61,2.29c0,0.85-0.2,1.61-0.61,2.29c-0.41,0.68-0.96,1.21-1.67,1.59c-0.71,0.38-1.51,0.58-2.39,0.58
		C345.2,371.41,344.41,371.21,343.7,370.83z M347.65,369.6c0.46-0.26,0.83-0.62,1.09-1.09c0.26-0.47,0.4-0.99,0.4-1.57
		s-0.13-1.1-0.4-1.57c-0.26-0.47-0.63-0.83-1.09-1.09c-0.46-0.26-0.98-0.39-1.56-0.39s-1.1,0.13-1.56,0.39
		c-0.46,0.26-0.83,0.62-1.09,1.09c-0.26,0.47-0.4,0.99-0.4,1.57s0.13,1.1,0.4,1.57c0.26,0.47,0.63,0.83,1.09,1.09
		c0.46,0.26,0.98,0.39,1.56,0.39S347.18,369.86,347.65,369.6z"/>
	<path class="st2" d="M360.42,371.28l-0.01-5.75l-2.85,4.76h-0.72l-2.85-4.68v5.67h-1.53v-8.67h1.32l3.44,5.75l3.38-5.75h1.33
		l0.01,8.67H360.42z"/>
	<path class="st2" d="M365.95,370.83c-0.71-0.38-1.27-0.92-1.67-1.6c-0.4-0.68-0.61-1.44-0.61-2.28c0-0.84,0.2-1.6,0.61-2.28
		c0.41-0.68,0.96-1.21,1.67-1.6c0.71-0.38,1.51-0.58,2.39-0.58c0.88,0,1.68,0.19,2.39,0.58c0.71,0.38,1.27,0.91,1.67,1.59
		c0.4,0.68,0.61,1.44,0.61,2.29c0,0.85-0.2,1.61-0.61,2.29c-0.41,0.68-0.96,1.21-1.67,1.59c-0.71,0.38-1.51,0.58-2.39,0.58
		C367.45,371.41,366.66,371.21,365.95,370.83z M369.9,369.6c0.46-0.26,0.83-0.62,1.09-1.09c0.26-0.47,0.4-0.99,0.4-1.57
		s-0.13-1.1-0.4-1.57c-0.26-0.47-0.63-0.83-1.09-1.09c-0.46-0.26-0.98-0.39-1.56-0.39s-1.1,0.13-1.56,0.39
		c-0.46,0.26-0.83,0.62-1.09,1.09c-0.26,0.47-0.4,0.99-0.4,1.57s0.13,1.1,0.4,1.57c0.26,0.47,0.63,0.83,1.09,1.09
		c0.46,0.26,0.98,0.39,1.56,0.39S369.43,369.86,369.9,369.6z"/>
	<path class="st2" d="M382.41,362.61v8.67h-1.33l-4.78-5.87v5.87h-1.6v-8.67h1.32l4.78,5.87v-5.87H382.41z"/>
	<path class="st2" d="M384.74,362.61h1.61v8.67h-1.61V362.61z"/>
	<path class="st2" d="M390.45,363.98h-2.87v-1.36h7.36v1.36h-2.87v7.31h-1.61V363.98z"/>
	<path class="st2" d="M397.68,370.83c-0.71-0.38-1.27-0.92-1.67-1.6c-0.4-0.68-0.61-1.44-0.61-2.28c0-0.84,0.2-1.6,0.61-2.28
		c0.41-0.68,0.96-1.21,1.67-1.6c0.71-0.38,1.51-0.58,2.39-0.58c0.88,0,1.68,0.19,2.39,0.58c0.71,0.38,1.27,0.91,1.67,1.59
		c0.4,0.68,0.61,1.44,0.61,2.29c0,0.85-0.2,1.61-0.61,2.29c-0.41,0.68-0.96,1.21-1.67,1.59c-0.71,0.38-1.51,0.58-2.39,0.58
		C399.19,371.41,398.39,371.21,397.68,370.83z M401.63,369.6c0.46-0.26,0.83-0.62,1.09-1.09c0.26-0.47,0.4-0.99,0.4-1.57
		s-0.13-1.1-0.4-1.57c-0.26-0.47-0.63-0.83-1.09-1.09c-0.46-0.26-0.98-0.39-1.56-0.39s-1.1,0.13-1.56,0.39
		c-0.46,0.26-0.83,0.62-1.09,1.09c-0.26,0.47-0.4,0.99-0.4,1.57s0.13,1.1,0.4,1.57c0.26,0.47,0.63,0.83,1.09,1.09
		c0.46,0.26,0.98,0.39,1.56,0.39S401.17,369.86,401.63,369.6z"/>
	<path class="st2" d="M412.12,371.28l-1.77-2.54c-0.07,0.01-0.18,0.01-0.33,0.01h-1.96v2.53h-1.61v-8.67h3.57
		c0.75,0,1.41,0.12,1.96,0.37c0.56,0.25,0.98,0.6,1.28,1.07c0.3,0.46,0.44,1.01,0.44,1.65c0,0.65-0.16,1.21-0.48,1.68
		c-0.32,0.47-0.77,0.82-1.37,1.05l1.99,2.85H412.12z M411.54,364.42c-0.36-0.3-0.9-0.45-1.6-0.45h-1.88v3.45h1.88
		c0.7,0,1.23-0.15,1.6-0.45c0.36-0.3,0.55-0.73,0.55-1.28C412.08,365.14,411.9,364.72,411.54,364.42z"/>
	<path class="st2" d="M415.5,362.61h1.61v8.67h-1.61V362.61z"/>
	<path class="st2" d="M427.15,362.61v8.67h-1.33l-4.78-5.87v5.87h-1.6v-8.67h1.32l4.78,5.87v-5.87H427.15z"/>
	<path class="st2" d="M435.4,366.85h1.52v3.45c-0.45,0.35-0.97,0.63-1.56,0.82c-0.59,0.19-1.21,0.28-1.83,0.28
		c-0.88,0-1.68-0.19-2.39-0.58c-0.71-0.38-1.27-0.91-1.67-1.59c-0.4-0.68-0.61-1.44-0.61-2.29c0-0.85,0.2-1.61,0.61-2.29
		c0.41-0.68,0.96-1.21,1.68-1.59c0.71-0.38,1.52-0.58,2.41-0.58c0.73,0,1.39,0.12,1.98,0.36c0.59,0.24,1.09,0.59,1.5,1.05
		l-1.02,0.99c-0.66-0.66-1.46-0.99-2.39-0.99c-0.61,0-1.15,0.13-1.63,0.38c-0.47,0.26-0.85,0.61-1.11,1.08
		c-0.27,0.46-0.4,0.99-0.4,1.58c0,0.58,0.13,1.1,0.4,1.56c0.27,0.46,0.64,0.83,1.11,1.09c0.48,0.26,1.01,0.4,1.62,0.4
		c0.68,0,1.27-0.15,1.78-0.45V366.85z"/>
</g>
<g>
	<circle class="st0" cx="826.92" cy="246.54" r="82.86"/>
</g>
<g>
	<path class="st2" d="M825.53,216.94l-2.77,8.67h-3.13l-1.4-4.63l-1.47,4.63h-3.13l-2.77-8.67h3.01l1.51,4.93l1.6-4.93h2.69
		l1.51,4.99l1.6-4.99H825.53z"/>
	<path class="st2" d="M832.43,217.34c0.59,0.26,1.05,0.64,1.37,1.14c0.32,0.5,0.48,1.07,0.48,1.73s-0.16,1.24-0.48,1.73
		c-0.32,0.5-0.78,0.87-1.37,1.14c-0.59,0.26-1.29,0.4-2.09,0.4h-1.25v2.13h-2.92v-8.67h4.17
		C831.14,216.94,831.84,217.08,832.43,217.34z M831.05,220.96c0.2-0.18,0.3-0.43,0.3-0.75c0-0.32-0.1-0.57-0.3-0.75
		c-0.2-0.18-0.49-0.27-0.89-0.27h-1.07v2.03h1.07C830.55,221.23,830.85,221.14,831.05,220.96z"/>
	<path class="st2" d="M843.06,224.13h-1.15v1.49h-2.84v-1.49h-4.49v-1.86l3.68-5.32h3l-3.27,4.92h1.18v-1.33h2.75v1.33h1.15V224.13z
		"/>
	<path class="st2" d="M797.16,248.01v2.64h4.19v1.36h-4.19v3.32h-1.61v-8.67h6.33v1.35H797.16z"/>
	<path class="st2" d="M808.69,253.32h-4.33l-0.85,2.01h-1.66l3.9-8.67h1.59l3.91,8.67h-1.68L808.69,253.32z M808.16,252.06
		l-1.63-3.79l-1.62,3.79H808.16z"/>
	<path class="st2" d="M813.67,248.02h-2.87v-1.36h7.36v1.36h-2.87v7.31h-1.61V248.02z"/>
	<path class="st2" d="M825.86,253.98v1.35h-6.5v-8.67h6.33v1.35h-4.72v2.25h4.19v1.32h-4.19v2.39H825.86z"/>
	<path class="st2" d="M836.7,253.32h-4.33l-0.85,2.01h-1.66l3.9-8.67h1.59l3.91,8.67h-1.68L836.7,253.32z M836.16,252.06l-1.63-3.79
		l-1.62,3.79H836.16z"/>
	<path class="st2" d="M848.05,246.66v8.67h-1.33l-4.78-5.87v5.87h-1.6v-8.67h1.32l4.78,5.87v-5.87H848.05z"/>
	<path class="st2" d="M850.38,246.66h3.79c0.92,0,1.75,0.18,2.46,0.54c0.72,0.36,1.27,0.87,1.67,1.52c0.4,0.66,0.59,1.41,0.59,2.27
		c0,0.86-0.2,1.62-0.59,2.27c-0.4,0.66-0.95,1.16-1.67,1.52c-0.72,0.36-1.54,0.54-2.46,0.54h-3.79V246.66z M854.09,253.97
		c0.63,0,1.19-0.12,1.68-0.37c0.48-0.24,0.85-0.59,1.11-1.04c0.26-0.45,0.39-0.97,0.39-1.57s-0.13-1.12-0.39-1.57
		c-0.26-0.45-0.63-0.8-1.11-1.04c-0.48-0.24-1.04-0.37-1.68-0.37h-2.11v5.94H854.09z"/>
	<path class="st2" d="M772,266.47c0.28,0.37,0.42,0.82,0.42,1.37c0,0.75-0.29,1.33-0.87,1.74s-1.42,0.61-2.53,0.61h-4.31v-8.67h4.06
		c1.02,0,1.81,0.2,2.37,0.6c0.55,0.4,0.83,0.95,0.83,1.65c0,0.43-0.1,0.81-0.3,1.14c-0.2,0.33-0.47,0.59-0.82,0.77
		C771.34,265.84,771.72,266.1,772,266.47z M766.33,262.78v2.39h2.28c0.56,0,0.99-0.1,1.29-0.3c0.3-0.2,0.45-0.5,0.45-0.89
		c0-0.4-0.15-0.7-0.45-0.9c-0.3-0.2-0.73-0.3-1.29-0.3H766.33z M770.8,267.68c0-0.83-0.62-1.25-1.87-1.25h-2.6v2.5h2.6
		C770.18,268.93,770.8,268.51,770.8,267.68z"/>
	<path class="st2" d="M774.15,261.52h1.61v8.67h-1.61V261.52z"/>
	<path class="st2" d="M779.76,269.74c-0.71-0.38-1.27-0.92-1.67-1.6c-0.4-0.68-0.61-1.44-0.61-2.28c0-0.84,0.2-1.6,0.61-2.28
		c0.41-0.68,0.96-1.21,1.67-1.6c0.71-0.38,1.51-0.58,2.39-0.58c0.88,0,1.68,0.19,2.39,0.58c0.71,0.38,1.27,0.91,1.67,1.59
		c0.4,0.68,0.61,1.44,0.61,2.29c0,0.85-0.2,1.61-0.61,2.29c-0.41,0.68-0.96,1.21-1.67,1.59c-0.71,0.38-1.51,0.58-2.39,0.58
		C781.26,270.31,780.47,270.12,779.76,269.74z M783.7,268.51c0.46-0.26,0.83-0.62,1.09-1.09c0.26-0.47,0.4-0.99,0.4-1.57
		s-0.13-1.1-0.4-1.57c-0.26-0.47-0.63-0.83-1.09-1.09c-0.46-0.26-0.98-0.39-1.56-0.39s-1.1,0.13-1.56,0.39
		c-0.46,0.26-0.83,0.62-1.09,1.09c-0.26,0.47-0.4,0.99-0.4,1.57s0.13,1.1,0.4,1.57c0.26,0.47,0.63,0.83,1.09,1.09
		c0.46,0.26,0.98,0.39,1.56,0.39S783.24,268.77,783.7,268.51z"/>
	<path class="st2" d="M794.02,268.18h-4.33l-0.85,2.01h-1.66l3.9-8.67h1.59l3.91,8.67h-1.68L794.02,268.18z M793.49,266.92
		l-1.63-3.79l-1.62,3.79H793.49z"/>
	<path class="st2" d="M799.19,269.74c-0.7-0.38-1.26-0.91-1.66-1.59c-0.4-0.68-0.6-1.44-0.6-2.29c0-0.85,0.2-1.61,0.61-2.29
		c0.41-0.68,0.96-1.21,1.67-1.59c0.7-0.38,1.5-0.58,2.37-0.58c0.71,0,1.36,0.12,1.94,0.37c0.59,0.25,1.08,0.61,1.49,1.08l-1.04,0.98
		c-0.63-0.68-1.4-1.02-2.32-1.02c-0.59,0-1.13,0.13-1.6,0.39s-0.84,0.62-1.1,1.08c-0.26,0.46-0.4,0.99-0.4,1.57
		c0,0.59,0.13,1.11,0.4,1.57c0.26,0.46,0.63,0.82,1.1,1.08c0.47,0.26,1,0.39,1.6,0.39c0.92,0,1.69-0.34,2.32-1.03l1.04,0.99
		c-0.41,0.47-0.9,0.83-1.49,1.08c-0.59,0.25-1.24,0.37-1.95,0.37C800.69,270.31,799.89,270.12,799.19,269.74z"/>
	<path class="st2" d="M808.01,269.74c-0.7-0.38-1.26-0.91-1.66-1.59c-0.4-0.68-0.6-1.44-0.6-2.29c0-0.85,0.2-1.61,0.61-2.29
		c0.41-0.68,0.96-1.21,1.67-1.59c0.7-0.38,1.5-0.58,2.37-0.58c0.71,0,1.36,0.12,1.94,0.37c0.59,0.25,1.08,0.61,1.49,1.08l-1.04,0.98
		c-0.63-0.68-1.4-1.02-2.32-1.02c-0.59,0-1.13,0.13-1.6,0.39s-0.84,0.62-1.1,1.08c-0.26,0.46-0.4,0.99-0.4,1.57
		c0,0.59,0.13,1.11,0.4,1.57c0.26,0.46,0.63,0.82,1.1,1.08c0.47,0.26,1,0.39,1.6,0.39c0.92,0,1.69-0.34,2.32-1.03l1.04,0.99
		c-0.41,0.47-0.9,0.83-1.49,1.08c-0.59,0.25-1.24,0.37-1.95,0.37C809.5,270.31,808.71,270.12,808.01,269.74z"/>
	<path class="st2" d="M816.23,269.3c-0.67-0.67-1-1.64-1-2.89v-4.89h1.61v4.83c0,1.7,0.74,2.55,2.2,2.55c1.46,0,2.19-0.85,2.19-2.55
		v-4.83h1.58v4.89c0,1.25-0.33,2.22-1,2.89c-0.67,0.67-1.59,1.01-2.79,1.01S816.9,269.98,816.23,269.3z"/>
	<path class="st2" d="M833.04,270.19l-0.01-5.75l-2.85,4.76h-0.72l-2.85-4.68v5.67h-1.53v-8.67h1.32l3.44,5.75l3.38-5.75h1.33
		l0.01,8.67H833.04z"/>
	<path class="st2" d="M837.83,269.3c-0.67-0.67-1-1.64-1-2.89v-4.89h1.61v4.83c0,1.7,0.74,2.55,2.2,2.55c1.46,0,2.19-0.85,2.19-2.55
		v-4.83h1.58v4.89c0,1.25-0.33,2.22-1,2.89c-0.67,0.67-1.59,1.01-2.79,1.01C839.43,270.31,838.5,269.98,837.83,269.3z"/>
	<path class="st2" d="M846.67,261.52h1.61v7.31h4.53v1.36h-6.14V261.52z"/>
	<path class="st2" d="M859.77,268.18h-4.33l-0.85,2.01h-1.66l3.9-8.67h1.59l3.91,8.67h-1.68L859.77,268.18z M859.24,266.92
		l-1.63-3.79l-1.62,3.79H859.24z"/>
	<path class="st2" d="M864.75,262.88h-2.87v-1.36h7.36v1.36h-2.87v7.31h-1.61V262.88z"/>
	<path class="st2" d="M870.44,261.52h1.61v8.67h-1.61V261.52z"/>
	<path class="st2" d="M876.05,269.74c-0.71-0.38-1.27-0.92-1.67-1.6c-0.4-0.68-0.61-1.44-0.61-2.28c0-0.84,0.2-1.6,0.61-2.28
		c0.41-0.68,0.96-1.21,1.67-1.6c0.71-0.38,1.51-0.58,2.39-0.58c0.88,0,1.68,0.19,2.39,0.58c0.71,0.38,1.27,0.91,1.67,1.59
		c0.4,0.68,0.61,1.44,0.61,2.29c0,0.85-0.2,1.61-0.61,2.29c-0.41,0.68-0.96,1.21-1.67,1.59c-0.71,0.38-1.51,0.58-2.39,0.58
		C877.56,270.31,876.76,270.12,876.05,269.74z M880,268.51c0.46-0.26,0.83-0.62,1.09-1.09c0.26-0.47,0.4-0.99,0.4-1.57
		s-0.13-1.1-0.4-1.57c-0.26-0.47-0.63-0.83-1.09-1.09c-0.46-0.26-0.98-0.39-1.56-0.39s-1.1,0.13-1.56,0.39
		c-0.46,0.26-0.83,0.62-1.09,1.09c-0.26,0.47-0.4,0.99-0.4,1.57s0.13,1.1,0.4,1.57c0.26,0.47,0.63,0.83,1.09,1.09
		c0.46,0.26,0.98,0.39,1.56,0.39S879.54,268.77,880,268.51z"/>
	<path class="st2" d="M892.52,261.52v8.67h-1.33l-4.78-5.87v5.87h-1.6v-8.67h1.32l4.78,5.87v-5.87H892.52z"/>
</g>
<g>
	<circle class="st0" cx="621.32" cy="448.73" r="82.86"/>
</g>
<g>
	<path class="st2" d="M620.38,419.13l-2.77,8.67h-3.13l-1.4-4.63l-1.47,4.63h-3.13l-2.77-8.67h3.01l1.51,4.93l1.6-4.93h2.69
		l1.51,4.99l1.6-4.99H620.38z"/>
	<path class="st2" d="M627.29,419.53c0.59,0.26,1.05,0.64,1.37,1.14c0.32,0.5,0.48,1.07,0.48,1.73c0,0.66-0.16,1.24-0.48,1.73
		c-0.32,0.5-0.78,0.87-1.37,1.14c-0.59,0.26-1.29,0.4-2.09,0.4h-1.25v2.13h-2.92v-8.67h4.17C626,419.13,626.7,419.26,627.29,419.53z
		 M625.91,423.15c0.2-0.18,0.3-0.43,0.3-0.75c0-0.32-0.1-0.57-0.3-0.75c-0.2-0.18-0.49-0.27-0.89-0.27h-1.07v2.03h1.07
		C625.41,423.42,625.71,423.33,625.91,423.15z"/>
	<path class="st2" d="M635.98,422.95c0.57,0.51,0.86,1.17,0.86,2c0,0.54-0.14,1.05-0.43,1.5c-0.29,0.46-0.72,0.83-1.32,1.11
		c-0.59,0.28-1.33,0.43-2.22,0.43c-0.61,0-1.22-0.07-1.83-0.2c-0.61-0.13-1.14-0.33-1.59-0.58l0.99-2.15
		c0.36,0.21,0.74,0.36,1.15,0.47c0.4,0.11,0.79,0.16,1.17,0.16c0.34,0,0.61-0.06,0.82-0.18c0.21-0.12,0.32-0.29,0.32-0.5
		c0-0.21-0.09-0.36-0.28-0.46c-0.19-0.1-0.53-0.15-1.03-0.15h-2.51l0.43-5.26h5.76v2.2h-3.36l-0.06,0.85h0.45
		C634.51,422.19,635.4,422.44,635.98,422.95z"/>
	<path class="st2" d="M585.69,448.85h1.61v8.67h-1.61V448.85z"/>
	<path class="st2" d="M597.6,457.52l-0.01-5.75l-2.85,4.76h-0.72l-2.85-4.68v5.67h-1.53v-8.67h1.32l3.44,5.74l3.38-5.74h1.33
		l0.01,8.67H597.6z"/>
	<path class="st2" d="M606.99,449.22c0.56,0.25,0.98,0.6,1.28,1.07c0.3,0.46,0.45,1.01,0.45,1.65c0,0.63-0.15,1.17-0.45,1.64
		c-0.3,0.47-0.72,0.82-1.28,1.07c-0.56,0.25-1.21,0.37-1.96,0.37h-1.96v2.5h-1.61v-8.67h3.57
		C605.78,448.85,606.43,448.97,606.99,449.22z M606.55,453.21c0.36-0.3,0.55-0.72,0.55-1.27c0-0.55-0.18-0.98-0.55-1.28
		c-0.36-0.3-0.9-0.45-1.6-0.45h-1.88v3.44h1.88C605.66,453.65,606.19,453.51,606.55,453.21z"/>
	<path class="st2" d="M615.52,455.51h-4.33l-0.85,2.01h-1.66l3.9-8.67h1.59l3.91,8.67h-1.68L615.52,455.51z M614.98,454.25
		l-1.63-3.79l-1.62,3.79H614.98z"/>
	<path class="st2" d="M620.69,457.07c-0.7-0.38-1.26-0.91-1.66-1.59c-0.4-0.68-0.6-1.44-0.6-2.29c0-0.85,0.2-1.61,0.61-2.29
		c0.41-0.68,0.96-1.21,1.67-1.59c0.7-0.38,1.5-0.58,2.37-0.58c0.71,0,1.36,0.12,1.94,0.37c0.59,0.25,1.08,0.61,1.49,1.08l-1.04,0.98
		c-0.63-0.68-1.4-1.01-2.32-1.01c-0.59,0-1.13,0.13-1.6,0.39s-0.84,0.62-1.1,1.08c-0.26,0.46-0.4,0.99-0.4,1.57
		c0,0.59,0.13,1.11,0.4,1.57c0.26,0.46,0.63,0.82,1.1,1.08s1,0.39,1.6,0.39c0.92,0,1.69-0.34,2.32-1.03l1.04,0.99
		c-0.41,0.47-0.9,0.83-1.49,1.08s-1.24,0.37-1.95,0.37C622.18,457.64,621.39,457.45,620.69,457.07z"/>
	<path class="st2" d="M629.71,450.21h-2.87v-1.36h7.36v1.36h-2.87v7.31h-1.61V450.21z"/>
	<path class="st2" d="M640.48,457.07c-0.71-0.38-1.27-0.92-1.67-1.6c-0.4-0.68-0.61-1.44-0.61-2.28c0-0.84,0.2-1.6,0.61-2.29
		c0.41-0.68,0.96-1.21,1.67-1.6c0.71-0.38,1.51-0.58,2.39-0.58c0.88,0,1.68,0.19,2.39,0.58c0.71,0.38,1.27,0.91,1.67,1.59
		c0.4,0.68,0.61,1.44,0.61,2.29c0,0.85-0.2,1.61-0.61,2.29c-0.41,0.68-0.96,1.21-1.67,1.59c-0.71,0.38-1.51,0.58-2.39,0.58
		C641.98,457.64,641.19,457.45,640.48,457.07z M644.43,455.84c0.46-0.26,0.83-0.62,1.09-1.09c0.26-0.47,0.4-0.99,0.4-1.57
		s-0.13-1.1-0.4-1.57c-0.26-0.47-0.63-0.83-1.09-1.09c-0.46-0.26-0.98-0.39-1.56-0.39s-1.1,0.13-1.56,0.39
		c-0.46,0.26-0.83,0.62-1.09,1.09c-0.26,0.47-0.4,0.99-0.4,1.57s0.13,1.1,0.4,1.57c0.26,0.47,0.63,0.83,1.09,1.09
		c0.46,0.26,0.98,0.39,1.56,0.39S643.97,456.1,644.43,455.84z"/>
	<path class="st2" d="M656.95,448.85v8.67h-1.33l-4.78-5.87v5.87h-1.6v-8.67h1.32l4.78,5.87v-5.87H656.95z"/>
	<path class="st2" d="M567.51,463.71h1.61v8.67h-1.61V463.71z"/>
	<path class="st2" d="M579.42,472.38l-0.01-5.75l-2.85,4.76h-0.72l-2.85-4.68v5.67h-1.53v-8.67h1.32l3.44,5.74l3.38-5.74h1.33
		l0.01,8.67H579.42z"/>
	<path class="st2" d="M591.24,472.38l-0.01-5.75l-2.85,4.76h-0.72l-2.85-4.68v5.67h-1.53v-8.67h1.32l3.44,5.74l3.38-5.74h1.33
		l0.01,8.67H591.24z"/>
	<path class="st2" d="M596.03,471.49c-0.67-0.67-1-1.64-1-2.89v-4.89h1.61v4.83c0,1.7,0.74,2.55,2.2,2.55
		c1.46,0,2.19-0.85,2.19-2.55v-4.83h1.58v4.89c0,1.25-0.33,2.22-1,2.89c-0.67,0.67-1.59,1.01-2.79,1.01S596.7,472.16,596.03,471.49z
		"/>
	<path class="st2" d="M612.58,463.71v8.67h-1.33l-4.78-5.87v5.87h-1.6v-8.67h1.32l4.78,5.87v-5.87H612.58z"/>
	<path class="st2" d="M621.4,471.03v1.35h-6.5v-8.67h6.33v1.35h-4.72v2.25h4.19v1.32h-4.19v2.39H621.4z"/>
	<path class="st2" d="M627.37,472.22c-0.62-0.19-1.12-0.44-1.48-0.76l0.56-1.25c0.36,0.28,0.79,0.51,1.31,0.69
		c0.52,0.18,1.03,0.27,1.55,0.27c0.64,0,1.12-0.1,1.44-0.31c0.32-0.21,0.48-0.48,0.48-0.82c0-0.25-0.09-0.45-0.27-0.61
		c-0.18-0.16-0.4-0.29-0.67-0.38c-0.27-0.09-0.64-0.19-1.11-0.31c-0.66-0.16-1.19-0.31-1.6-0.47c-0.41-0.16-0.76-0.4-1.05-0.74
		c-0.29-0.33-0.44-0.79-0.44-1.36c0-0.48,0.13-0.91,0.39-1.31c0.26-0.39,0.65-0.7,1.18-0.93c0.52-0.23,1.17-0.35,1.93-0.35
		c0.53,0,1.05,0.07,1.56,0.2s0.95,0.32,1.33,0.57l-0.51,1.25c-0.38-0.22-0.78-0.39-1.19-0.51c-0.41-0.12-0.81-0.17-1.2-0.17
		c-0.63,0-1.11,0.11-1.42,0.32c-0.31,0.21-0.46,0.5-0.46,0.85c0,0.25,0.09,0.45,0.27,0.61c0.18,0.16,0.4,0.28,0.67,0.37
		c0.27,0.09,0.64,0.19,1.11,0.31c0.64,0.15,1.17,0.3,1.59,0.46c0.41,0.16,0.77,0.41,1.06,0.74c0.29,0.33,0.44,0.78,0.44,1.34
		c0,0.48-0.13,0.91-0.39,1.3c-0.26,0.39-0.65,0.7-1.18,0.93c-0.53,0.23-1.17,0.35-1.93,0.35
		C628.64,472.5,627.99,472.41,627.37,472.22z"/>
	<path class="st2" d="M637.96,469.32v3.06h-1.61v-3.03l-3.41-5.63h1.72l2.54,4.22l2.56-4.22h1.59L637.96,469.32z"/>
	<path class="st2" d="M642.97,472.22c-0.62-0.19-1.12-0.44-1.48-0.76l0.56-1.25c0.36,0.28,0.79,0.51,1.31,0.69
		c0.52,0.18,1.03,0.27,1.55,0.27c0.64,0,1.12-0.1,1.44-0.31c0.32-0.21,0.48-0.48,0.48-0.82c0-0.25-0.09-0.45-0.27-0.61
		c-0.18-0.16-0.4-0.29-0.67-0.38c-0.27-0.09-0.64-0.19-1.11-0.31c-0.66-0.16-1.19-0.31-1.6-0.47c-0.41-0.16-0.76-0.4-1.05-0.74
		c-0.29-0.33-0.44-0.79-0.44-1.36c0-0.48,0.13-0.91,0.39-1.31c0.26-0.39,0.65-0.7,1.18-0.93c0.52-0.23,1.17-0.35,1.93-0.35
		c0.53,0,1.05,0.07,1.56,0.2c0.51,0.13,0.95,0.32,1.33,0.57l-0.51,1.25c-0.38-0.22-0.78-0.39-1.19-0.51
		c-0.41-0.12-0.81-0.17-1.2-0.17c-0.63,0-1.11,0.11-1.42,0.32c-0.31,0.21-0.46,0.5-0.46,0.85c0,0.25,0.09,0.45,0.27,0.61
		c0.18,0.16,0.4,0.28,0.67,0.37s0.64,0.19,1.11,0.31c0.64,0.15,1.17,0.3,1.59,0.46c0.41,0.16,0.77,0.41,1.06,0.74
		c0.29,0.33,0.44,0.78,0.44,1.34c0,0.48-0.13,0.91-0.39,1.3c-0.26,0.39-0.65,0.7-1.18,0.93s-1.17,0.35-1.93,0.35
		C644.24,472.5,643.59,472.41,642.97,472.22z"/>
	<path class="st2" d="M651.64,465.07h-2.87v-1.36h7.36v1.36h-2.87v7.31h-1.61V465.07z"/>
	<path class="st2" d="M663.84,471.03v1.35h-6.5v-8.67h6.33v1.35h-4.72v2.25h4.19v1.32h-4.19v2.39H663.84z"/>
	<path class="st2" d="M673.6,472.38l-0.01-5.75l-2.85,4.76h-0.72l-2.85-4.68v5.67h-1.53v-8.67h1.32l3.44,5.74l3.38-5.74h1.33
		l0.01,8.67H673.6z"/>
</g>
<g>
	<circle class="st0" cx="621.32" cy="246.54" r="82.86"/>
</g>
<g>
	<path class="st2" d="M620.45,216.94l-2.77,8.67h-3.13l-1.4-4.63l-1.47,4.63h-3.13l-2.77-8.67h3.01l1.51,4.93l1.6-4.93h2.69
		l1.51,4.99l1.6-4.99H620.45z"/>
	<path class="st2" d="M627.35,217.34c0.59,0.26,1.05,0.64,1.37,1.14c0.32,0.5,0.48,1.07,0.48,1.73c0,0.66-0.16,1.24-0.48,1.73
		c-0.32,0.5-0.78,0.87-1.37,1.14c-0.59,0.26-1.29,0.4-2.09,0.4h-1.25v2.13h-2.92v-8.67h4.17
		C626.06,216.94,626.76,217.08,627.35,217.34z M625.97,220.96c0.2-0.18,0.3-0.43,0.3-0.75c0-0.32-0.1-0.57-0.3-0.75
		c-0.2-0.18-0.49-0.27-0.89-0.27h-1.07v2.03h1.07C625.47,221.23,625.77,221.14,625.97,220.96z"/>
	<path class="st2" d="M636.16,221.27c0.36,0.43,0.54,0.96,0.54,1.57c0,0.52-0.14,1.01-0.43,1.46c-0.28,0.45-0.72,0.82-1.32,1.1
		c-0.59,0.28-1.33,0.42-2.22,0.42c-0.61,0-1.22-0.07-1.83-0.2c-0.61-0.13-1.14-0.33-1.59-0.58l0.99-2.15
		c0.35,0.21,0.74,0.36,1.15,0.47c0.41,0.11,0.8,0.16,1.18,0.16c0.34,0,0.61-0.06,0.82-0.17c0.21-0.12,0.31-0.28,0.31-0.5
		c0-0.4-0.34-0.59-1.03-0.59h-1.15v-1.8l1.28-1.3h-3.1v-2.2h6.46v1.8l-1.61,1.63C635.29,220.54,635.8,220.84,636.16,221.27z"/>
	<path class="st2" d="M557.02,246.66h1.61v8.67h-1.61V246.66z"/>
	<path class="st2" d="M568.94,255.33l-0.01-5.75l-2.85,4.76h-0.72l-2.85-4.68v5.67h-1.53v-8.67h1.32l3.44,5.75l3.38-5.75h1.33
		l0.01,8.67H568.94z"/>
	<path class="st2" d="M578.33,247.03c0.56,0.25,0.98,0.6,1.28,1.07c0.3,0.46,0.45,1.01,0.45,1.65c0,0.63-0.15,1.17-0.45,1.64
		c-0.3,0.47-0.72,0.82-1.28,1.07c-0.56,0.25-1.21,0.37-1.96,0.37h-1.96v2.5h-1.61v-8.67h3.57
		C577.12,246.66,577.77,246.79,578.33,247.03z M577.89,251.02c0.36-0.3,0.55-0.72,0.55-1.28c0-0.55-0.18-0.98-0.55-1.28
		c-0.36-0.3-0.9-0.45-1.6-0.45h-1.88v3.44h1.88C576.99,251.47,577.52,251.32,577.89,251.02z"/>
	<path class="st2" d="M586.85,253.32h-4.33l-0.85,2.01H580l3.9-8.67h1.59l3.91,8.67h-1.68L586.85,253.32z M586.32,252.06l-1.63-3.79
		l-1.62,3.79H586.32z"/>
	<path class="st2" d="M592.02,254.88c-0.7-0.38-1.26-0.91-1.66-1.59c-0.4-0.68-0.6-1.44-0.6-2.29c0-0.85,0.2-1.61,0.61-2.29
		c0.41-0.68,0.96-1.21,1.67-1.59c0.71-0.38,1.5-0.58,2.37-0.58c0.71,0,1.36,0.12,1.94,0.37c0.59,0.25,1.08,0.61,1.49,1.08
		l-1.04,0.98c-0.63-0.68-1.4-1.02-2.32-1.02c-0.59,0-1.13,0.13-1.6,0.39c-0.47,0.26-0.84,0.62-1.1,1.08
		c-0.26,0.46-0.4,0.99-0.4,1.57c0,0.59,0.13,1.11,0.4,1.57c0.26,0.46,0.63,0.82,1.1,1.08c0.47,0.26,1,0.39,1.6,0.39
		c0.92,0,1.69-0.34,2.32-1.03l1.04,0.99c-0.41,0.47-0.9,0.83-1.49,1.08c-0.59,0.25-1.24,0.37-1.95,0.37
		C593.52,255.45,592.73,255.26,592.02,254.88z"/>
	<path class="st2" d="M601.04,248.02h-2.87v-1.36h7.36v1.36h-2.87v7.31h-1.61V248.02z"/>
	<path class="st2" d="M611.81,254.88c-0.71-0.38-1.27-0.92-1.67-1.6c-0.4-0.68-0.61-1.44-0.61-2.28c0-0.84,0.2-1.6,0.61-2.28
		c0.41-0.68,0.96-1.21,1.67-1.6c0.71-0.38,1.51-0.58,2.39-0.58c0.88,0,1.68,0.19,2.39,0.58c0.71,0.38,1.27,0.91,1.67,1.59
		c0.4,0.68,0.61,1.44,0.61,2.29c0,0.85-0.2,1.61-0.61,2.29c-0.41,0.68-0.96,1.21-1.67,1.59c-0.71,0.38-1.51,0.58-2.39,0.58
		C613.32,255.45,612.52,255.26,611.81,254.88z M615.76,253.65c0.46-0.26,0.83-0.62,1.09-1.09c0.26-0.47,0.4-0.99,0.4-1.57
		s-0.13-1.1-0.4-1.57c-0.26-0.47-0.63-0.83-1.09-1.09c-0.46-0.26-0.98-0.39-1.56-0.39s-1.1,0.13-1.56,0.39
		c-0.46,0.26-0.83,0.62-1.09,1.09c-0.26,0.47-0.4,0.99-0.4,1.57s0.13,1.1,0.4,1.57c0.26,0.47,0.63,0.83,1.09,1.09
		c0.46,0.26,0.98,0.39,1.56,0.39S615.3,253.91,615.76,253.65z"/>
	<path class="st2" d="M628.28,246.66v8.67h-1.33l-4.78-5.87v5.87h-1.6v-8.67h1.32l4.78,5.87v-5.87H628.28z"/>
	<path class="st2" d="M639.95,250.9h1.52v3.45c-0.45,0.35-0.97,0.63-1.56,0.82c-0.59,0.19-1.21,0.28-1.83,0.28
		c-0.88,0-1.68-0.19-2.39-0.58c-0.71-0.38-1.27-0.91-1.67-1.59c-0.4-0.68-0.61-1.44-0.61-2.29c0-0.85,0.2-1.61,0.61-2.29
		c0.41-0.68,0.96-1.21,1.68-1.59c0.71-0.38,1.52-0.58,2.41-0.58c0.73,0,1.39,0.12,1.98,0.36c0.59,0.24,1.09,0.59,1.5,1.05
		l-1.02,0.99c-0.66-0.66-1.46-0.99-2.39-0.99c-0.61,0-1.15,0.13-1.63,0.38c-0.47,0.26-0.85,0.61-1.11,1.08
		c-0.27,0.46-0.4,0.99-0.4,1.58c0,0.58,0.13,1.1,0.4,1.56c0.27,0.46,0.64,0.83,1.11,1.09c0.48,0.26,1.01,0.4,1.62,0.4
		c0.68,0,1.27-0.15,1.78-0.45V250.9z"/>
	<path class="st2" d="M643.59,246.66h1.61v8.67h-1.61V246.66z"/>
	<path class="st2" d="M649.29,248.02h-2.87v-1.36h7.36v1.36h-2.87v7.31h-1.61V248.02z"/>
	<path class="st2" d="M664.03,253.32h-4.33l-0.85,2.01h-1.66l3.9-8.67h1.59l3.91,8.67h-1.68L664.03,253.32z M663.49,252.06
		l-1.63-3.79l-1.62,3.79H663.49z"/>
	<path class="st2" d="M675.38,246.66v8.67h-1.33l-4.78-5.87v5.87h-1.6v-8.67h1.32l4.78,5.87v-5.87H675.38z"/>
	<path class="st2" d="M677.71,246.66h3.79c0.92,0,1.75,0.18,2.46,0.54c0.72,0.36,1.27,0.87,1.67,1.52c0.4,0.66,0.59,1.41,0.59,2.27
		s-0.2,1.62-0.59,2.27c-0.4,0.66-0.95,1.16-1.67,1.52c-0.72,0.36-1.54,0.54-2.46,0.54h-3.79V246.66z M681.42,253.97
		c0.63,0,1.19-0.12,1.68-0.37c0.48-0.24,0.85-0.59,1.11-1.04c0.26-0.45,0.39-0.97,0.39-1.57s-0.13-1.12-0.39-1.57
		c-0.26-0.45-0.63-0.8-1.11-1.04c-0.48-0.24-1.04-0.37-1.68-0.37h-2.11v5.94H681.42z"/>
	<path class="st2" d="M585.31,270.19l-1.77-2.54c-0.07,0.01-0.18,0.01-0.33,0.01h-1.96v2.53h-1.61v-8.67h3.57
		c0.75,0,1.41,0.12,1.96,0.37c0.56,0.25,0.98,0.6,1.28,1.07c0.3,0.46,0.45,1.01,0.45,1.65c0,0.65-0.16,1.21-0.48,1.68
		c-0.32,0.47-0.77,0.82-1.37,1.05l1.99,2.85H585.31z M584.73,263.33c-0.36-0.3-0.9-0.45-1.6-0.45h-1.88v3.45h1.88
		c0.7,0,1.23-0.15,1.6-0.45c0.36-0.3,0.55-0.73,0.55-1.28C585.27,264.05,585.09,263.63,584.73,263.33z"/>
	<path class="st2" d="M590.33,262.88h-2.87v-1.36h7.36v1.36h-2.87v7.31h-1.61V262.88z"/>
	<path class="st2" d="M606.72,266.47c0.28,0.37,0.42,0.82,0.42,1.37c0,0.75-0.29,1.33-0.87,1.74s-1.42,0.61-2.53,0.61h-4.31v-8.67
		h4.06c1.02,0,1.81,0.2,2.37,0.6c0.55,0.4,0.83,0.95,0.83,1.65c0,0.43-0.1,0.81-0.3,1.14c-0.2,0.33-0.47,0.59-0.82,0.77
		C606.06,265.84,606.44,266.1,606.72,266.47z M601.05,262.78v2.39h2.28c0.56,0,0.99-0.1,1.29-0.3s0.45-0.5,0.45-0.89
		c0-0.4-0.15-0.7-0.45-0.9c-0.3-0.2-0.73-0.3-1.29-0.3H601.05z M605.52,267.67c0-0.83-0.62-1.25-1.87-1.25h-2.6v2.5h2.6
		C604.9,268.93,605.52,268.51,605.52,267.67z"/>
	<path class="st2" d="M614.48,268.18h-4.33l-0.85,2.01h-1.66l3.9-8.67h1.59l3.91,8.67h-1.68L614.48,268.18z M613.95,266.92
		l-1.63-3.79l-1.62,3.79H613.95z"/>
	<path class="st2" d="M623.81,270.19l-1.77-2.54c-0.07,0.01-0.18,0.01-0.33,0.01h-1.96v2.53h-1.61v-8.67h3.57
		c0.75,0,1.41,0.12,1.96,0.37c0.56,0.25,0.98,0.6,1.28,1.07c0.3,0.46,0.45,1.01,0.45,1.65c0,0.65-0.16,1.21-0.48,1.68
		c-0.32,0.47-0.77,0.82-1.37,1.05l1.99,2.85H623.81z M623.22,263.33c-0.36-0.3-0.9-0.45-1.6-0.45h-1.88v3.45h1.88
		c0.7,0,1.23-0.15,1.6-0.45c0.36-0.3,0.55-0.73,0.55-1.28C623.77,264.05,623.59,263.63,623.22,263.33z"/>
	<path class="st2" d="M632.86,270.19l-1.77-2.54c-0.07,0.01-0.18,0.01-0.33,0.01h-1.96v2.53h-1.61v-8.67h3.57
		c0.75,0,1.41,0.12,1.96,0.37c0.56,0.25,0.98,0.6,1.28,1.07c0.3,0.46,0.44,1.01,0.44,1.65c0,0.65-0.16,1.21-0.48,1.68
		c-0.32,0.47-0.77,0.82-1.37,1.05l1.99,2.85H632.86z M632.28,263.33c-0.36-0.3-0.9-0.45-1.6-0.45h-1.88v3.45h1.88
		c0.7,0,1.23-0.15,1.6-0.45c0.36-0.3,0.55-0.73,0.55-1.28C632.82,264.05,632.64,263.63,632.28,263.33z"/>
	<path class="st2" d="M636.24,261.52h1.61v8.67h-1.61V261.52z"/>
	<path class="st2" d="M646.69,268.84v1.35h-6.5v-8.67h6.33v1.35h-4.72v2.25h4.19v1.32h-4.19v2.39H646.69z"/>
	<path class="st2" d="M654.15,270.19l-1.77-2.54c-0.07,0.01-0.19,0.01-0.33,0.01h-1.96v2.53h-1.61v-8.67h3.57
		c0.75,0,1.41,0.12,1.96,0.37c0.56,0.25,0.98,0.6,1.28,1.07c0.3,0.46,0.45,1.01,0.45,1.65c0,0.65-0.16,1.21-0.48,1.68
		c-0.32,0.47-0.77,0.82-1.37,1.05l1.99,2.85H654.15z M653.57,263.33c-0.36-0.3-0.9-0.45-1.6-0.45h-1.88v3.45h1.88
		c0.7,0,1.23-0.15,1.6-0.45c0.36-0.3,0.55-0.73,0.55-1.28C654.12,264.05,653.94,263.63,653.57,263.33z"/>
	<path class="st2" d="M658.28,270.03c-0.62-0.19-1.12-0.44-1.48-0.76l0.56-1.25c0.36,0.28,0.79,0.51,1.31,0.69
		c0.52,0.18,1.03,0.27,1.55,0.27c0.64,0,1.12-0.1,1.44-0.31c0.32-0.21,0.48-0.48,0.48-0.82c0-0.25-0.09-0.45-0.27-0.61
		c-0.18-0.16-0.4-0.29-0.67-0.38c-0.27-0.09-0.64-0.19-1.11-0.31c-0.66-0.16-1.19-0.31-1.6-0.47c-0.41-0.16-0.76-0.4-1.05-0.74
		c-0.29-0.33-0.44-0.79-0.44-1.36c0-0.48,0.13-0.91,0.39-1.31c0.26-0.39,0.65-0.7,1.18-0.93c0.52-0.23,1.17-0.35,1.93-0.35
		c0.53,0,1.05,0.07,1.56,0.2c0.51,0.13,0.95,0.32,1.33,0.57l-0.51,1.25c-0.38-0.22-0.78-0.39-1.19-0.51
		c-0.41-0.12-0.81-0.17-1.2-0.17c-0.63,0-1.11,0.11-1.42,0.32c-0.31,0.21-0.46,0.5-0.46,0.85c0,0.25,0.09,0.45,0.27,0.61
		c0.18,0.16,0.4,0.28,0.67,0.37c0.27,0.09,0.64,0.19,1.11,0.31c0.64,0.15,1.17,0.3,1.59,0.46c0.41,0.16,0.77,0.41,1.06,0.74
		c0.29,0.33,0.44,0.78,0.44,1.34c0,0.48-0.13,0.91-0.39,1.3c-0.26,0.39-0.65,0.7-1.18,0.93c-0.53,0.23-1.17,0.35-1.93,0.35
		C659.55,270.31,658.91,270.22,658.28,270.03z"/>
</g>
<g>
	<circle class="st2" cx="450.75" cy="659.17" r="66.13"/>
	<path class="st0" d="M450.75,726.23c-36.97,0-67.05-30.08-67.05-67.06s30.08-67.06,67.05-67.06c36.97,0,67.06,30.08,67.06,67.06
		S487.73,726.23,450.75,726.23z M450.75,593.98c-35.95,0-65.2,29.25-65.2,65.2s29.25,65.2,65.2,65.2c35.95,0,65.2-29.25,65.2-65.2
		S486.7,593.98,450.75,593.98z"/>
</g>
<g>
	<circle class="st2" cx="783.22" cy="659.17" r="66.13"/>
	<path class="st0" d="M783.22,726.23c-36.97,0-67.06-30.08-67.06-67.06s30.08-67.06,67.06-67.06s67.06,30.08,67.06,67.06
		S820.19,726.23,783.22,726.23z M783.22,593.98c-35.95,0-65.2,29.25-65.2,65.2s29.25,65.2,65.2,65.2s65.2-29.25,65.2-65.2
		S819.17,593.98,783.22,593.98z"/>
</g>
<g>
	<path class="st0" d="M449.45,623.49l-2.77,8.67h-3.13l-1.4-4.63l-1.47,4.63h-3.13l-2.77-8.67h3.01l1.51,4.93l1.6-4.93h2.69
		l1.51,4.99l1.6-4.99H449.45z"/>
	<path class="st0" d="M456.36,623.89c0.59,0.26,1.05,0.64,1.37,1.14c0.32,0.49,0.48,1.07,0.48,1.73s-0.16,1.24-0.48,1.73
		c-0.32,0.49-0.78,0.87-1.37,1.14c-0.59,0.26-1.29,0.4-2.09,0.4h-1.25v2.13h-2.92v-8.67h4.17
		C455.07,623.49,455.77,623.63,456.36,623.89z M454.97,627.51c0.2-0.18,0.3-0.43,0.3-0.75s-0.1-0.57-0.3-0.75
		c-0.2-0.18-0.49-0.27-0.89-0.27h-1.07v2.03h1.07C454.48,627.78,454.78,627.69,454.97,627.51z"/>
	<path class="st0" d="M466.25,628.44c0.2,0.33,0.3,0.72,0.3,1.15c0,0.55-0.16,1.04-0.49,1.46c-0.33,0.42-0.78,0.74-1.37,0.97
		c-0.59,0.23-1.27,0.34-2.03,0.34c-0.76,0-1.43-0.11-2.02-0.34c-0.59-0.23-1.05-0.55-1.37-0.97c-0.33-0.42-0.49-0.91-0.49-1.46
		c0-0.43,0.1-0.81,0.3-1.15c0.2-0.33,0.49-0.62,0.86-0.85c-0.57-0.45-0.85-1.02-0.85-1.71c0-0.52,0.15-0.97,0.45-1.36
		c0.3-0.39,0.72-0.69,1.26-0.9c0.54-0.21,1.16-0.32,1.86-0.32c0.7,0,1.32,0.11,1.86,0.32c0.54,0.22,0.96,0.52,1.26,0.9
		c0.3,0.39,0.45,0.84,0.45,1.36c0,0.69-0.29,1.26-0.85,1.71C465.76,627.82,466.05,628.11,466.25,628.44z M463.35,630.14
		c0.18-0.17,0.27-0.38,0.27-0.66c0-0.27-0.09-0.49-0.27-0.66c-0.18-0.16-0.41-0.25-0.69-0.25s-0.51,0.08-0.69,0.25
		c-0.18,0.17-0.27,0.38-0.27,0.66c0,0.27,0.09,0.49,0.27,0.66c0.18,0.16,0.41,0.25,0.69,0.25S463.17,630.31,463.35,630.14z
		 M462.16,625.46c-0.13,0.13-0.19,0.31-0.19,0.54c0,0.23,0.06,0.41,0.19,0.55c0.13,0.13,0.3,0.2,0.5,0.2c0.21,0,0.37-0.07,0.5-0.2
		c0.13-0.13,0.19-0.31,0.19-0.55c0-0.23-0.06-0.41-0.19-0.54c-0.13-0.13-0.3-0.2-0.5-0.2C462.46,625.27,462.29,625.33,462.16,625.46
		z"/>
	<path class="st0" d="M406.59,653.21h3.65c0.92,0,1.73,0.18,2.44,0.54c0.71,0.36,1.26,0.87,1.65,1.53c0.39,0.66,0.59,1.41,0.59,2.26
		c0,0.85-0.2,1.6-0.59,2.26c-0.39,0.66-0.94,1.17-1.65,1.53c-0.71,0.36-1.52,0.55-2.44,0.55h-3.65V653.21z M410.17,660.8
		c0.7,0,1.32-0.14,1.85-0.41c0.53-0.27,0.94-0.65,1.23-1.15c0.29-0.49,0.43-1.06,0.43-1.7c0-0.64-0.15-1.21-0.43-1.7
		c-0.29-0.49-0.7-0.87-1.23-1.15c-0.53-0.27-1.15-0.41-1.85-0.41h-2.34v6.51H410.17z"/>
	<path class="st0" d="M416.67,653.83c-0.15-0.15-0.23-0.33-0.23-0.55c0-0.21,0.08-0.4,0.23-0.55c0.15-0.15,0.34-0.23,0.58-0.23
		c0.23,0,0.42,0.07,0.58,0.22c0.15,0.15,0.23,0.32,0.23,0.54c0,0.22-0.08,0.41-0.23,0.56c-0.15,0.15-0.35,0.23-0.58,0.23
		C417.01,654.05,416.82,653.98,416.67,653.83z M416.65,655.32h1.19v6.56h-1.19V655.32z"/>
	<path class="st0" d="M420.44,661.74c-0.49-0.14-0.88-0.33-1.16-0.55l0.49-0.94c0.29,0.21,0.64,0.37,1.05,0.5
		c0.41,0.12,0.83,0.18,1.25,0.18c1.04,0,1.56-0.3,1.56-0.89c0-0.2-0.07-0.35-0.21-0.47c-0.14-0.12-0.32-0.2-0.53-0.25
		c-0.21-0.05-0.51-0.11-0.9-0.18c-0.53-0.08-0.96-0.18-1.3-0.28c-0.33-0.11-0.62-0.29-0.86-0.55c-0.24-0.26-0.36-0.61-0.36-1.08
		c0-0.59,0.25-1.07,0.74-1.43c0.5-0.36,1.16-0.54,1.99-0.54c0.44,0,0.87,0.05,1.31,0.16c0.44,0.11,0.8,0.25,1.08,0.43l-0.51,0.94
		c-0.54-0.35-1.17-0.52-1.89-0.52c-0.5,0-0.89,0.08-1.15,0.25c-0.26,0.16-0.4,0.38-0.4,0.66c0,0.21,0.07,0.38,0.22,0.51
		c0.15,0.12,0.33,0.22,0.55,0.27c0.22,0.06,0.53,0.12,0.92,0.2c0.53,0.09,0.96,0.19,1.28,0.29c0.33,0.1,0.6,0.28,0.84,0.53
		c0.23,0.25,0.35,0.59,0.35,1.04c0,0.59-0.25,1.07-0.76,1.42c-0.51,0.35-1.2,0.53-2.07,0.53
		C421.45,661.95,420.93,661.88,420.44,661.74z"/>
	<path class="st0" d="M426.64,661.74c-0.49-0.14-0.88-0.33-1.16-0.55l0.49-0.94c0.29,0.21,0.64,0.37,1.05,0.5
		c0.41,0.12,0.83,0.18,1.25,0.18c1.04,0,1.56-0.3,1.56-0.89c0-0.2-0.07-0.35-0.21-0.47c-0.14-0.12-0.32-0.2-0.53-0.25
		c-0.21-0.05-0.51-0.11-0.9-0.18c-0.53-0.08-0.96-0.18-1.3-0.28c-0.33-0.11-0.62-0.29-0.86-0.55c-0.24-0.26-0.36-0.61-0.36-1.08
		c0-0.59,0.25-1.07,0.74-1.43c0.5-0.36,1.16-0.54,1.99-0.54c0.44,0,0.87,0.05,1.31,0.16c0.44,0.11,0.8,0.25,1.08,0.43l-0.51,0.94
		c-0.54-0.35-1.17-0.52-1.89-0.52c-0.5,0-0.89,0.08-1.15,0.25c-0.26,0.16-0.4,0.38-0.4,0.66c0,0.21,0.07,0.38,0.22,0.51
		c0.15,0.12,0.33,0.22,0.55,0.27c0.22,0.06,0.53,0.12,0.92,0.2c0.53,0.09,0.96,0.19,1.28,0.29c0.33,0.1,0.6,0.28,0.84,0.53
		c0.23,0.25,0.35,0.59,0.35,1.04c0,0.59-0.25,1.07-0.76,1.42c-0.51,0.35-1.2,0.53-2.08,0.53
		C427.65,661.95,427.14,661.88,426.64,661.74z"/>
	<path class="st0" d="M438.41,658.99h-5.32c0.07,0.58,0.33,1.04,0.76,1.39c0.43,0.35,0.97,0.53,1.62,0.53
		c0.78,0,1.42-0.26,1.89-0.79l0.66,0.77c-0.3,0.35-0.67,0.61-1.11,0.79c-0.44,0.18-0.93,0.27-1.48,0.27c-0.69,0-1.31-0.14-1.84-0.43
		c-0.54-0.29-0.95-0.68-1.24-1.19c-0.29-0.51-0.44-1.09-0.44-1.73c0-0.63,0.14-1.21,0.43-1.72c0.29-0.51,0.68-0.91,1.18-1.19
		c0.5-0.29,1.06-0.43,1.69-0.43c0.63,0,1.19,0.14,1.68,0.43c0.49,0.28,0.88,0.68,1.15,1.19c0.28,0.51,0.41,1.1,0.41,1.76
		C438.44,658.73,438.43,658.85,438.41,658.99z M433.77,656.78c-0.38,0.35-0.61,0.8-0.67,1.36h4.21c-0.07-0.55-0.29-1-0.67-1.36
		c-0.38-0.35-0.86-0.53-1.43-0.53C434.63,656.26,434.15,656.43,433.77,656.78z"/>
	<path class="st0" d="M450.26,655.97c0.48,0.48,0.72,1.19,0.72,2.13v3.78h-1.19v-3.64c0-0.63-0.15-1.11-0.44-1.44
		c-0.29-0.32-0.71-0.48-1.26-0.48c-0.6,0-1.08,0.19-1.44,0.56c-0.35,0.38-0.53,0.91-0.53,1.62v3.38h-1.19v-3.64
		c0-0.63-0.15-1.11-0.44-1.44c-0.29-0.32-0.71-0.48-1.26-0.48c-0.6,0-1.08,0.19-1.44,0.56c-0.35,0.38-0.53,0.91-0.53,1.62v3.38
		h-1.19v-6.56h1.14v0.98c0.24-0.34,0.55-0.6,0.94-0.77c0.39-0.18,0.83-0.27,1.33-0.27c0.51,0,0.97,0.1,1.36,0.31
		c0.4,0.21,0.7,0.51,0.92,0.9c0.25-0.38,0.59-0.68,1.03-0.89c0.44-0.22,0.94-0.32,1.49-0.32
		C449.12,655.25,449.78,655.49,450.26,655.97z"/>
	<path class="st0" d="M453.19,653.83c-0.15-0.15-0.23-0.33-0.23-0.55c0-0.21,0.08-0.4,0.23-0.55c0.15-0.15,0.34-0.23,0.58-0.23
		s0.42,0.07,0.58,0.22c0.15,0.15,0.23,0.32,0.23,0.54c0,0.22-0.08,0.41-0.23,0.56c-0.15,0.15-0.35,0.23-0.58,0.23
		S453.35,653.98,453.19,653.83z M453.18,655.32h1.19v6.56h-1.19V655.32z"/>
	<path class="st0" d="M462.12,655.98c0.49,0.48,0.74,1.19,0.74,2.12v3.78h-1.19v-3.64c0-0.63-0.15-1.11-0.46-1.44
		c-0.31-0.32-0.74-0.48-1.31-0.48c-0.64,0-1.15,0.19-1.52,0.56c-0.37,0.38-0.56,0.91-0.56,1.62v3.38h-1.19v-6.56h1.14v0.99
		c0.24-0.34,0.56-0.6,0.97-0.78c0.41-0.18,0.87-0.27,1.39-0.27C460.97,655.25,461.63,655.5,462.12,655.98z"/>
	<path class="st0" d="M469.54,655.92c0.48,0.45,0.72,1.11,0.72,1.99v3.96h-1.13v-0.87c-0.2,0.31-0.48,0.54-0.85,0.7
		c-0.37,0.16-0.8,0.24-1.31,0.24c-0.74,0-1.32-0.18-1.76-0.53c-0.44-0.36-0.66-0.82-0.66-1.4s0.21-1.04,0.63-1.39
		s1.09-0.53,2.01-0.53h1.88v-0.24c0-0.51-0.15-0.9-0.45-1.18c-0.3-0.27-0.74-0.41-1.31-0.41c-0.39,0-0.77,0.06-1.14,0.19
		c-0.37,0.13-0.68,0.3-0.94,0.51l-0.49-0.89c0.34-0.27,0.74-0.48,1.21-0.63c0.47-0.15,0.97-0.22,1.5-0.22
		C468.36,655.25,469.05,655.48,469.54,655.92z M468.36,660.74c0.33-0.2,0.57-0.49,0.72-0.86v-0.92h-1.83
		c-1.01,0-1.51,0.34-1.51,1.02c0,0.33,0.13,0.59,0.38,0.78c0.26,0.19,0.61,0.28,1.07,0.28
		C467.63,661.04,468.03,660.94,468.36,660.74z"/>
	<path class="st0" d="M476.16,661.5c-0.17,0.15-0.39,0.26-0.64,0.34c-0.26,0.08-0.52,0.12-0.79,0.12c-0.66,0-1.17-0.18-1.54-0.53
		c-0.36-0.36-0.55-0.86-0.55-1.52v-3.6h-1.11v-0.98h1.11v-1.44h1.19v1.44h1.88v0.98h-1.88v3.55c0,0.36,0.09,0.63,0.27,0.82
		c0.18,0.19,0.43,0.29,0.76,0.29c0.36,0,0.67-0.1,0.93-0.31L476.16,661.5z"/>
	<path class="st0" d="M477.61,653.83c-0.15-0.15-0.23-0.33-0.23-0.55c0-0.21,0.08-0.4,0.23-0.55c0.15-0.15,0.34-0.23,0.58-0.23
		c0.23,0,0.42,0.07,0.58,0.22c0.15,0.15,0.23,0.32,0.23,0.54c0,0.22-0.08,0.41-0.23,0.56c-0.15,0.15-0.35,0.23-0.58,0.23
		C477.95,654.05,477.76,653.98,477.61,653.83z M477.59,655.32h1.19v6.56h-1.19V655.32z"/>
	<path class="st0" d="M482.1,661.52c-0.52-0.29-0.93-0.69-1.22-1.19c-0.29-0.51-0.44-1.08-0.44-1.73c0-0.64,0.15-1.22,0.44-1.73
		c0.29-0.51,0.7-0.9,1.22-1.19c0.52-0.29,1.11-0.43,1.76-0.43c0.65,0,1.24,0.14,1.75,0.43c0.52,0.28,0.92,0.68,1.21,1.19
		c0.29,0.51,0.44,1.08,0.44,1.73c0,0.64-0.15,1.22-0.44,1.73c-0.29,0.51-0.7,0.91-1.21,1.19c-0.52,0.29-1.1,0.43-1.75,0.43
		C483.2,661.95,482.62,661.81,482.1,661.52z M484.99,660.62c0.33-0.19,0.6-0.47,0.79-0.82c0.19-0.35,0.28-0.75,0.28-1.21
		c0-0.45-0.1-0.86-0.28-1.21c-0.19-0.35-0.45-0.62-0.79-0.81c-0.33-0.19-0.71-0.28-1.13-0.28s-0.8,0.09-1.13,0.28
		c-0.33,0.19-0.6,0.46-0.79,0.81c-0.19,0.35-0.29,0.75-0.29,1.21c0,0.45,0.1,0.86,0.29,1.21c0.19,0.35,0.46,0.62,0.79,0.82
		c0.33,0.19,0.71,0.29,1.13,0.29S484.66,660.82,484.99,660.62z"/>
	<path class="st0" d="M494.4,655.98c0.49,0.48,0.74,1.19,0.74,2.12v3.78h-1.19v-3.64c0-0.63-0.15-1.11-0.46-1.44
		c-0.31-0.32-0.74-0.48-1.31-0.48c-0.64,0-1.15,0.19-1.52,0.56c-0.37,0.38-0.56,0.91-0.56,1.62v3.38h-1.19v-6.56h1.14v0.99
		c0.24-0.34,0.56-0.6,0.97-0.78c0.41-0.18,0.87-0.27,1.39-0.27C493.25,655.25,493.91,655.5,494.4,655.98z"/>
	<path class="st0" d="M402.41,676.26c-0.7-0.38-1.24-0.91-1.64-1.59c-0.4-0.67-0.59-1.43-0.59-2.27c0-0.84,0.2-1.6,0.59-2.27
		c0.4-0.67,0.95-1.2,1.65-1.59c0.7-0.38,1.49-0.58,2.35-0.58c0.68,0,1.3,0.11,1.86,0.34c0.56,0.23,1.04,0.56,1.44,1.01l-0.8,0.78
		c-0.65-0.68-1.47-1.03-2.44-1.03c-0.64,0-1.23,0.15-1.75,0.43s-0.93,0.69-1.22,1.19c-0.29,0.51-0.44,1.08-0.44,1.7
		s0.15,1.19,0.44,1.7c0.29,0.51,0.7,0.91,1.22,1.19s1.1,0.43,1.75,0.43c0.96,0,1.78-0.35,2.44-1.04l0.8,0.78
		c-0.4,0.45-0.88,0.78-1.44,1.02c-0.56,0.23-1.19,0.35-1.86,0.35C403.89,676.84,403.11,676.65,402.41,676.26z"/>
	<path class="st0" d="M410.44,676.38c-0.52-0.29-0.93-0.69-1.22-1.19c-0.29-0.51-0.44-1.08-0.44-1.73c0-0.64,0.15-1.22,0.44-1.73
		c0.29-0.51,0.7-0.9,1.22-1.19c0.52-0.29,1.11-0.43,1.76-0.43c0.65,0,1.24,0.14,1.75,0.43c0.52,0.28,0.92,0.68,1.21,1.19
		c0.29,0.51,0.44,1.08,0.44,1.73c0,0.64-0.15,1.22-0.44,1.73c-0.29,0.51-0.7,0.91-1.21,1.19c-0.52,0.29-1.1,0.43-1.75,0.43
		C411.55,676.81,410.96,676.67,410.44,676.38z M413.33,675.48c0.33-0.19,0.6-0.47,0.79-0.82c0.19-0.35,0.28-0.75,0.28-1.21
		c0-0.45-0.1-0.86-0.28-1.21c-0.19-0.35-0.45-0.62-0.79-0.81c-0.33-0.19-0.71-0.28-1.13-0.28s-0.8,0.09-1.13,0.28
		c-0.33,0.19-0.6,0.46-0.79,0.81c-0.19,0.35-0.29,0.75-0.29,1.21c0,0.45,0.1,0.86,0.29,1.21c0.19,0.35,0.46,0.62,0.79,0.82
		c0.33,0.19,0.71,0.29,1.13,0.29S413,675.68,413.33,675.48z"/>
	<path class="st0" d="M427.43,670.83c0.48,0.48,0.72,1.19,0.72,2.13v3.78h-1.19v-3.64c0-0.63-0.15-1.11-0.44-1.44
		c-0.29-0.32-0.71-0.48-1.26-0.48c-0.6,0-1.08,0.19-1.44,0.56c-0.35,0.38-0.53,0.91-0.53,1.62v3.38h-1.19v-3.64
		c0-0.63-0.15-1.11-0.44-1.44c-0.29-0.32-0.71-0.48-1.26-0.48c-0.6,0-1.08,0.19-1.44,0.56c-0.35,0.38-0.53,0.91-0.53,1.62v3.38
		h-1.19v-6.56h1.14v0.98c0.24-0.34,0.55-0.6,0.94-0.77c0.39-0.18,0.83-0.27,1.33-0.27c0.51,0,0.97,0.1,1.36,0.31
		c0.4,0.21,0.7,0.51,0.92,0.9c0.25-0.38,0.59-0.68,1.03-0.89c0.44-0.22,0.94-0.32,1.49-0.32
		C426.29,670.11,426.94,670.35,427.43,670.83z"/>
	<path class="st0" d="M440.51,670.83c0.48,0.48,0.72,1.19,0.72,2.13v3.78h-1.19v-3.64c0-0.63-0.15-1.11-0.44-1.44
		c-0.29-0.32-0.71-0.48-1.26-0.48c-0.6,0-1.08,0.19-1.44,0.56c-0.35,0.38-0.53,0.91-0.53,1.62v3.38h-1.19v-3.64
		c0-0.63-0.15-1.11-0.44-1.44c-0.29-0.32-0.71-0.48-1.26-0.48c-0.6,0-1.08,0.19-1.44,0.56c-0.35,0.38-0.53,0.91-0.53,1.62v3.38
		h-1.19v-6.56h1.14v0.98c0.24-0.34,0.55-0.6,0.94-0.77c0.39-0.18,0.83-0.27,1.33-0.27c0.51,0,0.97,0.1,1.36,0.31
		c0.4,0.21,0.7,0.51,0.92,0.9c0.25-0.38,0.59-0.68,1.03-0.89c0.44-0.22,0.94-0.32,1.49-0.32
		C439.38,670.11,440.03,670.35,440.51,670.83z"/>
	<path class="st0" d="M449.55,670.18v6.56h-1.13v-0.99c-0.24,0.34-0.56,0.6-0.95,0.79c-0.39,0.18-0.82,0.28-1.28,0.28
		c-0.87,0-1.56-0.24-2.07-0.72c-0.5-0.48-0.75-1.19-0.75-2.14v-3.78h1.19v3.64c0,0.64,0.15,1.12,0.46,1.44
		c0.3,0.33,0.74,0.49,1.31,0.49c0.63,0,1.12-0.19,1.49-0.57c0.36-0.38,0.54-0.92,0.54-1.61v-3.39H449.55z"/>
	<path class="st0" d="M457.3,670.84c0.49,0.48,0.74,1.19,0.74,2.12v3.78h-1.19v-3.64c0-0.63-0.15-1.11-0.46-1.44
		c-0.31-0.32-0.74-0.48-1.31-0.48c-0.64,0-1.15,0.19-1.52,0.56c-0.37,0.38-0.56,0.91-0.56,1.62v3.38h-1.19v-6.56h1.14v0.99
		c0.24-0.34,0.56-0.6,0.97-0.78c0.41-0.18,0.87-0.27,1.39-0.27C456.15,670.11,456.81,670.36,457.3,670.84z"/>
	<path class="st0" d="M460.26,668.69c-0.15-0.15-0.23-0.33-0.23-0.55c0-0.21,0.08-0.4,0.23-0.55c0.15-0.15,0.34-0.23,0.58-0.23
		s0.42,0.07,0.58,0.22c0.15,0.15,0.23,0.32,0.23,0.54c0,0.22-0.08,0.41-0.23,0.56c-0.15,0.15-0.35,0.23-0.58,0.23
		S460.41,668.84,460.26,668.69z M460.24,670.18h1.19v6.56h-1.19V670.18z"/>
	<path class="st0" d="M464.77,676.38c-0.52-0.29-0.94-0.69-1.23-1.19c-0.3-0.51-0.45-1.08-0.45-1.73c0-0.64,0.15-1.22,0.45-1.73
		c0.3-0.51,0.71-0.9,1.23-1.19c0.52-0.29,1.12-0.43,1.79-0.43c0.59,0,1.12,0.12,1.59,0.36c0.47,0.24,0.83,0.59,1.08,1.04l-0.9,0.58
		c-0.21-0.31-0.46-0.55-0.77-0.71c-0.31-0.16-0.64-0.23-1.02-0.23c-0.43,0-0.82,0.09-1.16,0.28c-0.34,0.19-0.61,0.46-0.81,0.81
		c-0.19,0.35-0.29,0.75-0.29,1.21c0,0.46,0.1,0.87,0.29,1.22c0.19,0.35,0.46,0.62,0.81,0.81c0.34,0.19,0.73,0.28,1.16,0.28
		c0.37,0,0.71-0.08,1.02-0.24c0.3-0.16,0.56-0.39,0.77-0.7l0.9,0.57c-0.26,0.45-0.62,0.8-1.08,1.05c-0.47,0.24-1,0.37-1.59,0.37
		C465.89,676.81,465.29,676.67,464.77,676.38z"/>
	<path class="st0" d="M475.25,670.78c0.48,0.45,0.72,1.11,0.72,1.99v3.96h-1.13v-0.87c-0.2,0.31-0.48,0.54-0.85,0.7
		c-0.37,0.16-0.8,0.24-1.31,0.24c-0.74,0-1.32-0.18-1.76-0.53c-0.44-0.36-0.66-0.82-0.66-1.4s0.21-1.04,0.63-1.39
		c0.42-0.35,1.09-0.53,2.01-0.53h1.88v-0.24c0-0.51-0.15-0.9-0.45-1.18c-0.3-0.27-0.74-0.41-1.31-0.41c-0.39,0-0.77,0.06-1.14,0.19
		c-0.37,0.13-0.68,0.3-0.94,0.51l-0.49-0.89c0.34-0.27,0.74-0.48,1.21-0.63c0.47-0.15,0.97-0.22,1.5-0.22
		C474.07,670.11,474.76,670.34,475.25,670.78z M474.06,675.59c0.33-0.2,0.57-0.49,0.72-0.86v-0.92h-1.83
		c-1.01,0-1.51,0.34-1.51,1.02c0,0.33,0.13,0.59,0.38,0.78c0.26,0.19,0.61,0.28,1.07,0.28C473.34,675.9,473.73,675.8,474.06,675.59z
		"/>
	<path class="st0" d="M481.86,676.35c-0.17,0.15-0.39,0.26-0.64,0.34c-0.26,0.08-0.52,0.12-0.79,0.12c-0.66,0-1.17-0.18-1.54-0.53
		c-0.36-0.36-0.55-0.86-0.55-1.52v-3.6h-1.11v-0.98h1.11v-1.44h1.19v1.44h1.88v0.98h-1.88v3.55c0,0.36,0.09,0.63,0.27,0.82
		c0.18,0.19,0.43,0.29,0.76,0.29c0.36,0,0.67-0.1,0.93-0.31L481.86,676.35z"/>
	<path class="st0" d="M483.32,668.69c-0.15-0.15-0.23-0.33-0.23-0.55c0-0.21,0.08-0.4,0.23-0.55c0.15-0.15,0.34-0.23,0.58-0.23
		s0.42,0.07,0.58,0.22c0.15,0.15,0.23,0.32,0.23,0.54c0,0.22-0.08,0.41-0.23,0.56c-0.15,0.15-0.35,0.23-0.58,0.23
		S483.47,668.84,483.32,668.69z M483.3,670.18h1.19v6.56h-1.19V670.18z"/>
	<path class="st0" d="M487.81,676.38c-0.52-0.29-0.93-0.69-1.22-1.19c-0.29-0.51-0.44-1.08-0.44-1.73c0-0.64,0.15-1.22,0.44-1.73
		c0.29-0.51,0.7-0.9,1.22-1.19c0.52-0.29,1.11-0.43,1.76-0.43c0.65,0,1.24,0.14,1.75,0.43c0.52,0.28,0.92,0.68,1.21,1.19
		c0.29,0.51,0.44,1.08,0.44,1.73c0,0.64-0.15,1.22-0.44,1.73c-0.29,0.51-0.7,0.91-1.21,1.19c-0.52,0.29-1.1,0.43-1.75,0.43
		C488.91,676.81,488.33,676.67,487.81,676.38z M490.7,675.48c0.33-0.19,0.6-0.47,0.79-0.82c0.19-0.35,0.28-0.75,0.28-1.21
		c0-0.45-0.1-0.86-0.28-1.21c-0.19-0.35-0.45-0.62-0.79-0.81c-0.33-0.19-0.71-0.28-1.13-0.28s-0.8,0.09-1.13,0.28
		c-0.33,0.19-0.6,0.46-0.79,0.81c-0.19,0.35-0.29,0.75-0.29,1.21c0,0.45,0.1,0.86,0.29,1.21c0.19,0.35,0.46,0.62,0.79,0.82
		c0.33,0.19,0.71,0.29,1.13,0.29S490.36,675.68,490.7,675.48z"/>
	<path class="st0" d="M500.11,670.84c0.49,0.48,0.74,1.19,0.74,2.12v3.78h-1.19v-3.64c0-0.63-0.15-1.11-0.46-1.44
		c-0.31-0.32-0.74-0.48-1.31-0.48c-0.64,0-1.15,0.19-1.52,0.56c-0.37,0.38-0.56,0.91-0.56,1.62v3.38h-1.19v-6.56h1.14v0.99
		c0.24-0.34,0.56-0.6,0.97-0.78c0.41-0.18,0.87-0.27,1.39-0.27C498.95,670.11,499.62,670.36,500.11,670.84z"/>
	<path class="st0" d="M420.54,690.52v1.08h-6.29v-8.67h6.12v1.08h-4.88v2.66h4.35v1.05h-4.35v2.8H420.54z"/>
	<path class="st0" d="M426.41,691.6l-1.89-2.51l-1.92,2.51h-1.33l2.59-3.36l-2.46-3.21h1.32l1.81,2.36l1.8-2.36h1.3l-2.48,3.21
		l2.61,3.36H426.41z"/>
	<path class="st0" d="M434.25,685.39c0.5,0.28,0.9,0.67,1.18,1.18c0.29,0.5,0.43,1.09,0.43,1.75c0,0.66-0.14,1.24-0.43,1.75
		c-0.28,0.51-0.68,0.9-1.18,1.18c-0.5,0.28-1.07,0.42-1.71,0.42c-0.47,0-0.9-0.09-1.29-0.27c-0.39-0.18-0.72-0.45-1-0.79V694h-1.19
		v-8.96h1.14v1.04c0.26-0.36,0.6-0.64,1-0.82c0.41-0.19,0.85-0.28,1.34-0.28C433.18,684.97,433.74,685.11,434.25,685.39z
		 M433.57,690.34c0.33-0.19,0.6-0.47,0.79-0.82c0.19-0.35,0.29-0.75,0.29-1.21c0-0.45-0.1-0.86-0.29-1.21
		c-0.19-0.35-0.46-0.62-0.79-0.81c-0.33-0.19-0.71-0.28-1.13-0.28c-0.41,0-0.79,0.1-1.12,0.29c-0.33,0.19-0.6,0.46-0.79,0.81
		c-0.19,0.35-0.29,0.75-0.29,1.2c0,0.45,0.09,0.86,0.28,1.21c0.19,0.35,0.45,0.62,0.79,0.82c0.34,0.19,0.71,0.29,1.13,0.29
		C432.86,690.63,433.24,690.53,433.57,690.34z"/>
	<path class="st0" d="M437.51,682.41h1.19v9.19h-1.19V682.41z"/>
	<path class="st0" d="M442.01,691.24c-0.52-0.29-0.93-0.69-1.22-1.19c-0.29-0.51-0.44-1.08-0.44-1.73c0-0.64,0.15-1.22,0.44-1.73
		c0.29-0.51,0.7-0.9,1.22-1.19c0.52-0.29,1.11-0.43,1.76-0.43c0.65,0,1.24,0.14,1.75,0.43c0.52,0.28,0.92,0.68,1.21,1.19
		c0.29,0.51,0.44,1.08,0.44,1.73c0,0.64-0.15,1.22-0.44,1.73c-0.29,0.51-0.7,0.91-1.21,1.19c-0.52,0.29-1.1,0.43-1.75,0.43
		C443.12,691.67,442.53,691.53,442.01,691.24z M444.9,690.34c0.33-0.19,0.6-0.47,0.79-0.82c0.19-0.35,0.28-0.75,0.28-1.21
		c0-0.45-0.1-0.86-0.28-1.21c-0.19-0.35-0.45-0.62-0.79-0.81c-0.33-0.19-0.71-0.28-1.13-0.28s-0.8,0.09-1.13,0.28
		c-0.33,0.19-0.6,0.46-0.79,0.81c-0.19,0.35-0.29,0.75-0.29,1.21c0,0.45,0.1,0.86,0.29,1.21c0.19,0.35,0.46,0.62,0.79,0.82
		c0.33,0.19,0.71,0.29,1.13,0.29S444.57,690.53,444.9,690.34z"/>
	<path class="st0" d="M448.84,683.55c-0.15-0.15-0.23-0.33-0.23-0.55c0-0.21,0.08-0.4,0.23-0.55c0.15-0.15,0.34-0.23,0.58-0.23
		s0.42,0.07,0.58,0.22c0.15,0.15,0.23,0.32,0.23,0.54c0,0.22-0.08,0.41-0.23,0.56c-0.15,0.15-0.35,0.23-0.58,0.23
		S448.99,683.7,448.84,683.55z M448.82,685.04h1.19v6.56h-1.19V685.04z"/>
	<path class="st0" d="M455.97,691.21c-0.17,0.15-0.39,0.26-0.64,0.34c-0.26,0.08-0.52,0.12-0.79,0.12c-0.66,0-1.17-0.18-1.54-0.53
		c-0.36-0.36-0.55-0.86-0.55-1.52v-3.6h-1.11v-0.98h1.11v-1.44h1.19v1.44h1.88v0.98h-1.88v3.55c0,0.36,0.09,0.63,0.27,0.82
		c0.18,0.19,0.43,0.29,0.76,0.29c0.36,0,0.67-0.1,0.93-0.31L455.97,691.21z"/>
	<path class="st0" d="M461.88,685.64c0.48,0.45,0.72,1.11,0.72,1.99v3.96h-1.13v-0.87c-0.2,0.31-0.48,0.54-0.85,0.7
		c-0.37,0.16-0.8,0.24-1.31,0.24c-0.74,0-1.32-0.18-1.76-0.53c-0.44-0.36-0.66-0.82-0.66-1.4s0.21-1.04,0.63-1.39
		c0.42-0.35,1.09-0.53,2.01-0.53h1.88v-0.24c0-0.51-0.15-0.9-0.45-1.18c-0.3-0.27-0.74-0.41-1.31-0.41c-0.39,0-0.77,0.06-1.14,0.19
		c-0.37,0.13-0.68,0.3-0.94,0.51l-0.49-0.89c0.34-0.27,0.74-0.48,1.21-0.63c0.47-0.15,0.97-0.22,1.5-0.22
		C460.7,684.97,461.4,685.2,461.88,685.64z M460.7,690.45c0.33-0.2,0.57-0.49,0.72-0.86v-0.92h-1.83c-1.01,0-1.51,0.34-1.51,1.02
		c0,0.33,0.13,0.59,0.38,0.78c0.26,0.19,0.61,0.28,1.07,0.28C459.97,690.75,460.37,690.65,460.7,690.45z"/>
	<path class="st0" d="M468.5,691.21c-0.17,0.15-0.39,0.26-0.64,0.34c-0.26,0.08-0.52,0.12-0.79,0.12c-0.66,0-1.17-0.18-1.54-0.53
		c-0.36-0.36-0.55-0.86-0.55-1.52v-3.6h-1.11v-0.98h1.11v-1.44h1.19v1.44h1.88v0.98h-1.88v3.55c0,0.36,0.09,0.63,0.27,0.82
		c0.18,0.19,0.43,0.29,0.76,0.29c0.36,0,0.67-0.1,0.93-0.31L468.5,691.21z"/>
	<path class="st0" d="M469.95,683.55c-0.15-0.15-0.23-0.33-0.23-0.55c0-0.21,0.08-0.4,0.23-0.55c0.15-0.15,0.34-0.23,0.58-0.23
		s0.42,0.07,0.58,0.22c0.15,0.15,0.23,0.32,0.23,0.54c0,0.22-0.08,0.41-0.23,0.56c-0.15,0.15-0.35,0.23-0.58,0.23
		S470.1,683.7,469.95,683.55z M469.93,685.04h1.19v6.56h-1.19V685.04z"/>
	<path class="st0" d="M474.44,691.24c-0.52-0.29-0.93-0.69-1.22-1.19c-0.29-0.51-0.44-1.08-0.44-1.73c0-0.64,0.15-1.22,0.44-1.73
		c0.29-0.51,0.7-0.9,1.22-1.19c0.52-0.29,1.11-0.43,1.76-0.43c0.65,0,1.24,0.14,1.75,0.43c0.52,0.28,0.92,0.68,1.21,1.19
		c0.29,0.51,0.44,1.08,0.44,1.73c0,0.64-0.15,1.22-0.44,1.73c-0.29,0.51-0.7,0.91-1.21,1.19c-0.52,0.29-1.1,0.43-1.75,0.43
		C475.55,691.67,474.96,691.53,474.44,691.24z M477.33,690.34c0.33-0.19,0.6-0.47,0.79-0.82c0.19-0.35,0.28-0.75,0.28-1.21
		c0-0.45-0.1-0.86-0.28-1.21c-0.19-0.35-0.45-0.62-0.79-0.81c-0.33-0.19-0.71-0.28-1.13-0.28c-0.42,0-0.8,0.09-1.13,0.28
		c-0.33,0.19-0.6,0.46-0.79,0.81c-0.19,0.35-0.29,0.75-0.29,1.21c0,0.45,0.1,0.86,0.29,1.21c0.19,0.35,0.46,0.62,0.79,0.82
		c0.33,0.19,0.71,0.29,1.13,0.29C476.62,690.63,477,690.53,477.33,690.34z"/>
	<path class="st0" d="M486.74,685.7c0.49,0.48,0.74,1.19,0.74,2.12v3.78h-1.19v-3.64c0-0.63-0.15-1.11-0.46-1.44
		c-0.31-0.32-0.74-0.48-1.31-0.48c-0.64,0-1.15,0.19-1.52,0.56c-0.37,0.38-0.56,0.91-0.56,1.62v3.38h-1.19v-6.56h1.14v0.99
		c0.24-0.34,0.56-0.6,0.97-0.78c0.41-0.18,0.87-0.27,1.39-0.27C485.59,684.97,486.25,685.21,486.74,685.7z"/>
</g>
<g>
	<circle class="st2" cx="618.12" cy="659.17" r="66.13"/>
	<path class="st0" d="M618.12,726.23c-36.97,0-67.06-30.08-67.06-67.06s30.08-67.06,67.06-67.06s67.05,30.08,67.05,67.06
		S655.1,726.23,618.12,726.23z M618.12,593.98c-35.95,0-65.2,29.25-65.2,65.2s29.25,65.2,65.2,65.2s65.2-29.25,65.2-65.2
		S654.07,593.98,618.12,593.98z"/>
</g>
<g>
	<path class="st0" d="M616.37,638.02l-2.77,8.67h-3.13l-1.4-4.63l-1.47,4.63h-3.13l-2.77-8.67h3.01l1.51,4.93l1.6-4.93h2.69
		l1.51,4.99l1.6-4.99H616.37z"/>
	<path class="st0" d="M623.28,638.42c0.59,0.26,1.05,0.64,1.37,1.14c0.32,0.49,0.48,1.07,0.48,1.73c0,0.66-0.16,1.24-0.48,1.73
		c-0.32,0.49-0.78,0.87-1.37,1.14c-0.59,0.26-1.29,0.4-2.09,0.4h-1.25v2.13h-2.92v-8.67h4.17
		C621.99,638.02,622.69,638.16,623.28,638.42z M621.89,642.04c0.2-0.18,0.3-0.43,0.3-0.75s-0.1-0.57-0.3-0.75
		c-0.2-0.18-0.49-0.27-0.89-0.27h-1.07v2.03H621C621.4,642.31,621.7,642.22,621.89,642.04z"/>
	<path class="st0" d="M631.36,638.31c0.62,0.32,1.11,0.8,1.46,1.44c0.35,0.64,0.52,1.42,0.52,2.34c0,0.99-0.2,1.85-0.6,2.58
		c-0.4,0.73-0.96,1.28-1.68,1.66c-0.72,0.38-1.56,0.57-2.52,0.57c-0.52,0-1.02-0.06-1.49-0.18s-0.87-0.29-1.2-0.5l1.05-2.04
		c0.43,0.3,0.95,0.46,1.57,0.46c0.5,0,0.92-0.13,1.24-0.38c0.33-0.25,0.54-0.62,0.64-1.1c-0.45,0.32-1.03,0.48-1.72,0.48
		c-0.53,0-1.02-0.11-1.47-0.35c-0.45-0.23-0.82-0.56-1.09-0.98c-0.27-0.42-0.41-0.9-0.41-1.45c0-0.6,0.15-1.14,0.46-1.6
		c0.31-0.46,0.73-0.82,1.27-1.07c0.54-0.25,1.13-0.37,1.78-0.37C630.01,637.83,630.74,637.99,631.36,638.31z M630.02,641.37
		c0.17-0.16,0.25-0.38,0.25-0.65s-0.08-0.49-0.25-0.64c-0.16-0.16-0.38-0.24-0.64-0.24c-0.26,0-0.48,0.08-0.64,0.24
		c-0.16,0.16-0.25,0.37-0.25,0.64s0.08,0.49,0.25,0.65c0.17,0.16,0.38,0.24,0.64,0.24C629.64,641.61,629.85,641.54,630.02,641.37z"
		/>
	<path class="st0" d="M584.22,676.41l-0.01-6.32l-3.13,5.26h-0.57l-3.13-5.22v6.28h-1.19v-8.67h1.02l3.62,6.09l3.57-6.09h1.02
		l0.01,8.67H584.22z"/>
	<path class="st0" d="M592.31,670.45c0.48,0.45,0.72,1.11,0.72,1.99v3.96h-1.13v-0.87c-0.2,0.31-0.48,0.54-0.85,0.7
		c-0.37,0.16-0.8,0.24-1.31,0.24c-0.74,0-1.32-0.18-1.76-0.53c-0.44-0.36-0.66-0.82-0.66-1.4s0.21-1.04,0.63-1.39
		c0.42-0.35,1.09-0.53,2.01-0.53h1.88v-0.24c0-0.51-0.15-0.9-0.45-1.18c-0.3-0.27-0.74-0.41-1.31-0.41c-0.39,0-0.77,0.06-1.14,0.19
		c-0.37,0.13-0.68,0.3-0.94,0.51l-0.49-0.89c0.34-0.27,0.74-0.48,1.21-0.63c0.47-0.15,0.97-0.22,1.5-0.22
		C591.14,669.78,591.83,670.01,592.31,670.45z M591.13,675.26c0.33-0.2,0.57-0.49,0.72-0.86v-0.92h-1.83
		c-1.01,0-1.51,0.34-1.51,1.02c0,0.33,0.13,0.59,0.38,0.78c0.26,0.19,0.61,0.28,1.07,0.28C590.41,675.57,590.8,675.47,591.13,675.26
		z"/>
	<path class="st0" d="M600.73,670.51c0.49,0.48,0.74,1.19,0.74,2.12v3.78h-1.19v-3.64c0-0.63-0.15-1.11-0.46-1.44
		c-0.31-0.32-0.74-0.48-1.31-0.48c-0.64,0-1.15,0.19-1.52,0.56c-0.37,0.38-0.56,0.91-0.56,1.62v3.38h-1.19v-6.56h1.14v0.99
		c0.24-0.34,0.56-0.6,0.97-0.78c0.41-0.18,0.87-0.27,1.39-0.27C599.58,669.78,600.24,670.03,600.73,670.51z"/>
	<path class="st0" d="M608.15,670.45c0.48,0.45,0.72,1.11,0.72,1.99v3.96h-1.13v-0.87c-0.2,0.31-0.48,0.54-0.85,0.7
		c-0.37,0.16-0.8,0.24-1.31,0.24c-0.74,0-1.32-0.18-1.76-0.53c-0.44-0.36-0.66-0.82-0.66-1.4s0.21-1.04,0.63-1.39
		c0.42-0.35,1.09-0.53,2.01-0.53h1.88v-0.24c0-0.51-0.15-0.9-0.45-1.18c-0.3-0.27-0.74-0.41-1.31-0.41c-0.39,0-0.77,0.06-1.14,0.19
		c-0.37,0.13-0.68,0.3-0.94,0.51l-0.49-0.89c0.34-0.27,0.74-0.48,1.21-0.63c0.47-0.15,0.97-0.22,1.5-0.22
		C606.97,669.78,607.67,670.01,608.15,670.45z M606.97,675.26c0.33-0.2,0.57-0.49,0.72-0.86v-0.92h-1.83
		c-1.01,0-1.51,0.34-1.51,1.02c0,0.33,0.13,0.59,0.38,0.78c0.26,0.19,0.61,0.28,1.07,0.28
		C606.24,675.57,606.64,675.47,606.97,675.26z"/>
	<path class="st0" d="M617.39,669.85v5.67c0,1.15-0.29,2-0.85,2.55c-0.57,0.55-1.42,0.82-2.55,0.82c-0.62,0-1.21-0.08-1.77-0.25
		c-0.56-0.17-1.01-0.41-1.36-0.72l0.57-0.92c0.3,0.26,0.68,0.47,1.13,0.63c0.45,0.15,0.91,0.23,1.39,0.23c0.77,0,1.33-0.18,1.7-0.55
		c0.37-0.36,0.55-0.92,0.55-1.66v-0.52c-0.28,0.34-0.63,0.59-1.03,0.76c-0.41,0.17-0.85,0.25-1.33,0.25c-0.63,0-1.2-0.13-1.7-0.4
		c-0.51-0.27-0.91-0.64-1.2-1.13c-0.29-0.48-0.43-1.03-0.43-1.65c0-0.62,0.14-1.17,0.43-1.65c0.29-0.48,0.69-0.86,1.2-1.12
		c0.51-0.26,1.08-0.4,1.7-0.4c0.49,0,0.96,0.09,1.38,0.27c0.43,0.18,0.77,0.45,1.05,0.8v-1.01H617.39z M615.13,674.82
		c0.34-0.18,0.61-0.44,0.8-0.76c0.19-0.33,0.29-0.7,0.29-1.11c0-0.64-0.21-1.15-0.63-1.54c-0.42-0.39-0.96-0.59-1.62-0.59
		c-0.67,0-1.21,0.2-1.63,0.59c-0.42,0.39-0.63,0.91-0.63,1.54c0,0.41,0.1,0.78,0.29,1.11c0.19,0.33,0.46,0.58,0.81,0.76
		c0.34,0.18,0.73,0.27,1.17,0.27C614.4,675.1,614.79,675.01,615.13,674.82z"/>
	<path class="st0" d="M625.56,673.52h-5.32c0.07,0.58,0.33,1.04,0.76,1.39c0.43,0.35,0.97,0.53,1.62,0.53
		c0.78,0,1.42-0.26,1.89-0.79l0.66,0.77c-0.3,0.35-0.67,0.61-1.11,0.79c-0.44,0.18-0.93,0.27-1.48,0.27c-0.69,0-1.31-0.14-1.84-0.43
		c-0.54-0.29-0.95-0.68-1.24-1.19c-0.29-0.51-0.44-1.09-0.44-1.73c0-0.63,0.14-1.21,0.43-1.72c0.29-0.51,0.68-0.91,1.18-1.19
		c0.5-0.29,1.06-0.43,1.69-0.43s1.19,0.14,1.68,0.43c0.49,0.28,0.88,0.68,1.15,1.19c0.28,0.51,0.41,1.1,0.41,1.76
		C625.59,673.26,625.58,673.38,625.56,673.52z M620.91,671.31c-0.38,0.35-0.61,0.8-0.67,1.36h4.21c-0.07-0.55-0.29-1-0.67-1.36
		c-0.38-0.35-0.86-0.53-1.43-0.53S621.3,670.96,620.91,671.31z"/>
	<path class="st0" d="M637.41,670.5c0.48,0.48,0.72,1.19,0.72,2.13v3.78h-1.19v-3.64c0-0.63-0.15-1.11-0.44-1.44
		c-0.29-0.32-0.71-0.48-1.26-0.48c-0.6,0-1.08,0.19-1.44,0.56c-0.35,0.38-0.53,0.91-0.53,1.62v3.38h-1.19v-3.64
		c0-0.63-0.15-1.11-0.44-1.44c-0.29-0.32-0.71-0.48-1.26-0.48c-0.6,0-1.08,0.19-1.44,0.56c-0.35,0.38-0.53,0.91-0.53,1.62v3.38
		h-1.19v-6.56h1.14v0.98c0.24-0.34,0.55-0.6,0.94-0.77c0.39-0.18,0.83-0.27,1.33-0.27c0.51,0,0.97,0.1,1.36,0.31
		c0.4,0.21,0.7,0.51,0.92,0.9c0.25-0.38,0.59-0.68,1.03-0.89c0.44-0.22,0.94-0.32,1.49-0.32
		C636.27,669.78,636.93,670.02,637.41,670.5z"/>
	<path class="st0" d="M646.27,673.52h-5.32c0.07,0.58,0.33,1.04,0.76,1.39c0.43,0.35,0.97,0.53,1.62,0.53
		c0.78,0,1.42-0.26,1.89-0.79l0.66,0.77c-0.3,0.35-0.67,0.61-1.11,0.79c-0.44,0.18-0.93,0.27-1.48,0.27c-0.69,0-1.31-0.14-1.84-0.43
		c-0.54-0.29-0.95-0.68-1.24-1.19c-0.29-0.51-0.44-1.09-0.44-1.73c0-0.63,0.14-1.21,0.43-1.72c0.29-0.51,0.68-0.91,1.18-1.19
		c0.5-0.29,1.06-0.43,1.69-0.43c0.63,0,1.19,0.14,1.68,0.43c0.49,0.28,0.88,0.68,1.15,1.19c0.28,0.51,0.41,1.1,0.41,1.76
		C646.29,673.26,646.28,673.38,646.27,673.52z M641.62,671.31c-0.38,0.35-0.61,0.8-0.67,1.36h4.21c-0.07-0.55-0.29-1-0.67-1.36
		c-0.38-0.35-0.86-0.53-1.43-0.53C642.48,670.79,642,670.96,641.62,671.31z"/>
	<path class="st0" d="M653.43,670.51c0.49,0.48,0.74,1.19,0.74,2.12v3.78h-1.19v-3.64c0-0.63-0.15-1.11-0.46-1.44
		c-0.31-0.32-0.74-0.48-1.31-0.48c-0.64,0-1.15,0.19-1.52,0.56c-0.37,0.38-0.56,0.91-0.56,1.62v3.38h-1.19v-6.56h1.14v0.99
		c0.24-0.34,0.56-0.6,0.97-0.78c0.41-0.18,0.87-0.27,1.39-0.27C652.28,669.78,652.94,670.03,653.43,670.51z"/>
	<path class="st0" d="M660.06,676.03c-0.17,0.15-0.39,0.26-0.64,0.34c-0.26,0.08-0.52,0.12-0.79,0.12c-0.66,0-1.17-0.18-1.54-0.53
		c-0.36-0.36-0.55-0.86-0.55-1.52v-3.6h-1.11v-0.98h1.11v-1.44h1.19v1.44h1.88v0.98h-1.88v3.55c0,0.36,0.09,0.63,0.27,0.82
		c0.18,0.19,0.43,0.29,0.76,0.29c0.36,0,0.67-0.1,0.93-0.31L660.06,676.03z"/>
</g>
<g>
	<path class="st0" d="M779.18,638.02l-2.77,8.67h-3.13l-1.4-4.63l-1.47,4.63h-3.13l-2.77-8.67h3.01l1.51,4.93l1.6-4.93h2.69
		l1.51,4.99l1.6-4.99H779.18z"/>
	<path class="st0" d="M786.09,638.42c0.59,0.26,1.05,0.64,1.37,1.14c0.32,0.49,0.48,1.07,0.48,1.73c0,0.66-0.16,1.24-0.48,1.73
		c-0.32,0.49-0.78,0.87-1.37,1.14c-0.59,0.26-1.29,0.4-2.09,0.4h-1.25v2.13h-2.92v-8.67H784
		C784.8,638.02,785.49,638.16,786.09,638.42z M784.7,642.04c0.2-0.18,0.3-0.43,0.3-0.75s-0.1-0.57-0.3-0.75
		c-0.2-0.18-0.49-0.27-0.89-0.27h-1.07v2.03h1.07C784.21,642.31,784.5,642.22,784.7,642.04z"/>
	<path class="st0" d="M792.79,638.02v8.67h-2.92v-6.46h-1.49v-2.2H792.79z"/>
	<path class="st0" d="M795.74,646.35c-0.59-0.36-1.05-0.88-1.39-1.56c-0.33-0.68-0.5-1.49-0.5-2.43c0-0.94,0.17-1.75,0.5-2.43
		c0.33-0.68,0.8-1.2,1.39-1.56c0.59-0.36,1.27-0.54,2.04-0.54c0.77,0,1.45,0.18,2.04,0.54c0.59,0.36,1.05,0.88,1.39,1.56
		c0.33,0.68,0.5,1.49,0.5,2.43c0,0.94-0.17,1.75-0.5,2.43c-0.33,0.68-0.8,1.2-1.39,1.56c-0.59,0.36-1.27,0.54-2.04,0.54
		C797.01,646.89,796.33,646.71,795.74,646.35z M798.77,642.36c0-1.46-0.33-2.19-0.99-2.19s-0.99,0.73-0.99,2.19
		c0,1.46,0.33,2.19,0.99,2.19S798.77,643.82,798.77,642.36z"/>
	<path class="st0" d="M771.59,675.33v1.08h-6.29v-8.67h6.12v1.08h-4.88v2.66h4.35v1.05h-4.35v2.8H771.59z"/>
	<path class="st0" d="M776.96,676.03c-0.17,0.15-0.39,0.26-0.64,0.34c-0.26,0.08-0.52,0.12-0.79,0.12c-0.66,0-1.17-0.18-1.54-0.53
		c-0.36-0.36-0.55-0.86-0.55-1.52v-3.6h-1.11v-0.98h1.11v-1.44h1.19v1.44h1.88v0.98h-1.88v3.55c0,0.36,0.09,0.63,0.27,0.82
		c0.18,0.19,0.43,0.29,0.76,0.29c0.36,0,0.67-0.1,0.93-0.31L776.96,676.03z"/>
	<path class="st0" d="M783.89,670.51c0.49,0.48,0.74,1.19,0.74,2.12v3.78h-1.19v-3.64c0-0.63-0.15-1.11-0.46-1.44
		c-0.31-0.32-0.74-0.48-1.31-0.48c-0.64,0-1.15,0.19-1.52,0.56c-0.37,0.38-0.56,0.91-0.56,1.62v3.38h-1.19v-9.19h1.19v3.55
		c0.25-0.31,0.57-0.56,0.97-0.73c0.4-0.17,0.85-0.26,1.34-0.26C782.74,669.78,783.4,670.03,783.89,670.51z"/>
	<path class="st0" d="M786.85,668.36c-0.15-0.15-0.23-0.33-0.23-0.55c0-0.21,0.08-0.4,0.23-0.55c0.15-0.15,0.34-0.23,0.58-0.23
		s0.42,0.07,0.58,0.22c0.15,0.15,0.23,0.32,0.23,0.54c0,0.22-0.08,0.41-0.23,0.56c-0.15,0.15-0.35,0.23-0.58,0.23
		S787,668.51,786.85,668.36z M786.83,669.85h1.19v6.56h-1.19V669.85z"/>
	<path class="st0" d="M791.36,676.05c-0.52-0.29-0.94-0.69-1.23-1.19c-0.3-0.51-0.45-1.08-0.45-1.73c0-0.64,0.15-1.22,0.45-1.73
		c0.3-0.51,0.71-0.9,1.23-1.19c0.52-0.29,1.12-0.43,1.79-0.43c0.59,0,1.12,0.12,1.59,0.36s0.83,0.59,1.08,1.04l-0.9,0.58
		c-0.21-0.31-0.46-0.55-0.77-0.71c-0.31-0.16-0.64-0.23-1.02-0.23c-0.43,0-0.82,0.09-1.16,0.28c-0.34,0.19-0.61,0.46-0.81,0.81
		c-0.19,0.35-0.29,0.75-0.29,1.21c0,0.46,0.1,0.87,0.29,1.22c0.19,0.35,0.46,0.62,0.81,0.81c0.34,0.19,0.73,0.28,1.16,0.28
		c0.37,0,0.71-0.08,1.02-0.24c0.3-0.16,0.56-0.39,0.77-0.71l0.9,0.57c-0.26,0.45-0.62,0.8-1.08,1.05c-0.47,0.24-1,0.37-1.59,0.37
		C792.48,676.48,791.88,676.34,791.36,676.05z"/>
	<path class="st0" d="M797.69,676.27c-0.49-0.14-0.88-0.33-1.16-0.55l0.49-0.94c0.29,0.21,0.64,0.37,1.05,0.5
		c0.41,0.12,0.83,0.18,1.25,0.18c1.04,0,1.56-0.3,1.56-0.89c0-0.2-0.07-0.35-0.21-0.47c-0.14-0.12-0.32-0.2-0.53-0.25
		c-0.21-0.05-0.51-0.11-0.9-0.18c-0.53-0.08-0.96-0.18-1.3-0.28c-0.33-0.11-0.62-0.29-0.86-0.55c-0.24-0.26-0.36-0.61-0.36-1.08
		c0-0.59,0.25-1.07,0.74-1.43c0.5-0.36,1.16-0.54,1.99-0.54c0.44,0,0.87,0.05,1.31,0.16c0.44,0.11,0.8,0.25,1.08,0.43l-0.51,0.94
		c-0.54-0.35-1.17-0.52-1.89-0.52c-0.5,0-0.89,0.08-1.15,0.25c-0.26,0.16-0.4,0.38-0.4,0.66c0,0.21,0.07,0.38,0.22,0.51
		c0.15,0.12,0.33,0.22,0.55,0.27c0.22,0.06,0.53,0.12,0.92,0.2c0.53,0.09,0.96,0.19,1.28,0.29c0.33,0.1,0.6,0.28,0.84,0.53
		c0.23,0.25,0.35,0.59,0.35,1.04c0,0.59-0.25,1.07-0.76,1.42c-0.51,0.35-1.2,0.53-2.08,0.53
		C798.7,676.48,798.19,676.41,797.69,676.27z"/>
</g>
<g>
	<g>
		<circle class="st2" cx="1059.02" cy="347.64" r="82.86"/>
		<path class="st0" d="M1059.02,431.43c-46.2,0-83.79-37.59-83.79-83.79s37.59-83.79,83.79-83.79s83.79,37.59,83.79,83.79
			S1105.22,431.43,1059.02,431.43z M1059.02,265.7c-45.18,0-81.94,36.76-81.94,81.94s36.76,81.94,81.94,81.94
			c45.18,0,81.94-36.76,81.94-81.94S1104.2,265.7,1059.02,265.7z"/>
	</g>
	<g>
		<path class="st0" d="M1057.86,318.04l-2.77,8.67h-3.13l-1.4-4.63l-1.47,4.63h-3.13l-2.77-8.67h3.01l1.51,4.93l1.6-4.93h2.69
			l1.51,4.99l1.6-4.99H1057.86z"/>
		<path class="st0" d="M1064.77,318.43c0.59,0.26,1.05,0.64,1.37,1.14c0.32,0.5,0.48,1.07,0.48,1.73c0,0.66-0.16,1.24-0.48,1.73
			s-0.78,0.87-1.37,1.14c-0.59,0.26-1.29,0.4-2.09,0.4h-1.25v2.13h-2.92v-8.67h4.17C1063.47,318.04,1064.17,318.17,1064.77,318.43z
			 M1063.38,322.06c0.2-0.18,0.3-0.43,0.3-0.75c0-0.32-0.1-0.57-0.3-0.75c-0.2-0.18-0.49-0.27-0.89-0.27h-1.07v2.03h1.07
			C1062.88,322.32,1063.18,322.23,1063.38,322.06z"/>
		<path class="st0" d="M1074.67,318.04v1.8l-2.89,6.87h-3.19l2.75-6.4h-1.67v1.26h-2.41v-3.53H1074.67z"/>
		<path class="st0" d="M1002.35,348.83v3.02h4.35v1.06h-4.35v3.5h-1.24v-8.67h6.12v1.08H1002.35z"/>
		<path class="st0" d="M1014.77,356.42l-1.87-2.66c-0.23,0.02-0.41,0.02-0.54,0.02h-2.14v2.64h-1.24v-8.67h3.38
			c1.12,0,2.01,0.27,2.65,0.8c0.64,0.54,0.97,1.28,0.97,2.22c0,0.67-0.17,1.24-0.5,1.71c-0.33,0.47-0.8,0.81-1.41,1.03l2.06,2.91
			H1014.77z M1014.12,352.23c0.41-0.34,0.62-0.82,0.62-1.45c0-0.63-0.21-1.11-0.62-1.44c-0.41-0.33-1.01-0.5-1.8-0.5h-2.11v3.9h2.11
			C1013.1,352.73,1013.7,352.56,1014.12,352.23z"/>
		<path class="st0" d="M1023.5,354.26h-4.61l-0.95,2.17h-1.27l3.93-8.67h1.23l3.94,8.67h-1.3L1023.5,354.26z M1023.07,353.27
			l-1.87-4.25l-1.87,4.25H1023.07z"/>
		<path class="st0" d="M1035.08,356.42l-0.01-6.32l-3.13,5.26h-0.57l-3.13-5.23v6.28h-1.19v-8.67h1.02l3.62,6.09l3.57-6.09h1.02
			l0.01,8.67H1035.08z"/>
		<path class="st0" d="M1045.16,355.35v1.08h-6.29v-8.67h6.12v1.08h-4.88v2.66h4.35v1.05h-4.35v2.8H1045.16z"/>
		<path class="st0" d="M1059.29,347.76l-2.9,8.67h-1.3l-2.37-6.92l-2.36,6.92h-1.33l-2.9-8.67h1.27l2.34,7.05l2.44-7.05h1.14
			l2.39,7.08l2.39-7.08H1059.29z"/>
		<path class="st0" d="M1062.26,355.95c-0.7-0.38-1.25-0.91-1.65-1.59s-0.6-1.43-0.6-2.27c0-0.83,0.2-1.59,0.6-2.27
			c0.4-0.68,0.95-1.21,1.65-1.59c0.7-0.38,1.49-0.58,2.37-0.58c0.87,0,1.65,0.19,2.35,0.58c0.7,0.38,1.25,0.91,1.65,1.59
			c0.4,0.67,0.59,1.43,0.59,2.27c0,0.84-0.2,1.6-0.59,2.27c-0.4,0.67-0.95,1.2-1.65,1.59c-0.7,0.38-1.49,0.58-2.35,0.58
			C1063.75,356.52,1062.96,356.33,1062.26,355.95z M1066.34,354.99c0.51-0.29,0.91-0.69,1.2-1.19c0.29-0.51,0.44-1.07,0.44-1.7
			c0-0.63-0.15-1.19-0.44-1.7c-0.29-0.51-0.69-0.91-1.2-1.19c-0.51-0.29-1.08-0.43-1.71-0.43c-0.64,0-1.21,0.14-1.73,0.43
			c-0.52,0.29-0.92,0.69-1.21,1.19s-0.44,1.08-0.44,1.7c0,0.63,0.15,1.19,0.44,1.7c0.29,0.51,0.7,0.91,1.21,1.19
			c0.52,0.29,1.09,0.43,1.73,0.43C1065.26,355.42,1065.83,355.28,1066.34,354.99z"/>
		<path class="st0" d="M1076.91,356.42l-1.87-2.66c-0.23,0.02-0.41,0.02-0.54,0.02h-2.14v2.64h-1.24v-8.67h3.38
			c1.12,0,2.01,0.27,2.65,0.8c0.64,0.54,0.97,1.28,0.97,2.22c0,0.67-0.17,1.24-0.5,1.71c-0.33,0.47-0.8,0.81-1.41,1.03l2.06,2.91
			H1076.91z M1076.25,352.23c0.41-0.34,0.62-0.82,0.62-1.45c0-0.63-0.21-1.11-0.62-1.44c-0.41-0.33-1.01-0.5-1.8-0.5h-2.11v3.9h2.11
			C1075.24,352.73,1075.84,352.56,1076.25,352.23z"/>
		<path class="st0" d="M1082.94,352.57l-1.59,1.61v2.24h-1.24v-8.67h1.24v4.84l4.7-4.84h1.41l-3.7,3.9l3.94,4.77h-1.45
			L1082.94,352.57z"/>
		<path class="st0" d="M1093.59,348.83v3.02h4.35v1.06h-4.35v3.5h-1.24v-8.67h6.12v1.08H1093.59z"/>
		<path class="st0" d="M1101.66,355.95c-0.7-0.38-1.25-0.91-1.65-1.59c-0.4-0.68-0.6-1.43-0.6-2.27c0-0.83,0.2-1.59,0.6-2.27
			c0.4-0.68,0.95-1.21,1.65-1.59c0.7-0.38,1.49-0.58,2.37-0.58c0.87,0,1.65,0.19,2.35,0.58c0.7,0.38,1.25,0.91,1.65,1.59
			c0.4,0.67,0.59,1.43,0.59,2.27c0,0.84-0.2,1.6-0.59,2.27c-0.4,0.67-0.95,1.2-1.65,1.59c-0.7,0.38-1.49,0.58-2.35,0.58
			C1103.15,356.52,1102.36,356.33,1101.66,355.95z M1105.74,354.99c0.51-0.29,0.91-0.69,1.2-1.19c0.29-0.51,0.44-1.07,0.44-1.7
			c0-0.63-0.15-1.19-0.44-1.7c-0.29-0.51-0.69-0.91-1.2-1.19c-0.51-0.29-1.08-0.43-1.71-0.43c-0.64,0-1.21,0.14-1.73,0.43
			c-0.52,0.29-0.92,0.69-1.21,1.19c-0.29,0.51-0.44,1.08-0.44,1.7c0,0.63,0.15,1.19,0.44,1.7c0.29,0.51,0.7,0.91,1.21,1.19
			c0.52,0.29,1.09,0.43,1.73,0.43C1104.66,355.42,1105.23,355.28,1105.74,354.99z"/>
		<path class="st0" d="M1116.31,356.42l-1.87-2.66c-0.23,0.02-0.41,0.02-0.54,0.02h-2.14v2.64h-1.24v-8.67h3.38
			c1.12,0,2.01,0.27,2.65,0.8c0.64,0.54,0.97,1.28,0.97,2.22c0,0.67-0.17,1.24-0.5,1.71c-0.33,0.47-0.8,0.81-1.41,1.03l2.06,2.91
			H1116.31z M1115.65,352.23c0.41-0.34,0.62-0.82,0.62-1.45c0-0.63-0.21-1.11-0.62-1.44c-0.41-0.33-1.01-0.5-1.8-0.5h-2.11v3.9h2.11
			C1114.64,352.73,1115.24,352.56,1115.65,352.23z"/>
		<path class="st0" d="M1008.43,371.28l-1.87-2.66c-0.23,0.02-0.41,0.02-0.54,0.02h-2.14v2.64h-1.24v-8.67h3.38
			c1.12,0,2.01,0.27,2.65,0.8c0.64,0.54,0.97,1.28,0.97,2.22c0,0.67-0.17,1.24-0.5,1.71c-0.33,0.47-0.8,0.81-1.41,1.03l2.06,2.91
			H1008.43z M1007.77,367.08c0.41-0.34,0.62-0.82,0.62-1.45c0-0.63-0.21-1.11-0.62-1.44c-0.41-0.33-1.01-0.5-1.8-0.5h-2.11v3.9h2.11
			C1006.76,367.59,1007.36,367.42,1007.77,367.08z"/>
		<path class="st0" d="M1011.63,362.61h1.24v8.67h-1.24V362.61z"/>
		<path class="st0" d="M1016.11,371.08c-0.61-0.2-1.08-0.46-1.43-0.79l0.46-0.97c0.33,0.3,0.75,0.54,1.27,0.72
			c0.52,0.19,1.05,0.28,1.59,0.28c0.72,0,1.26-0.12,1.61-0.37c0.36-0.24,0.53-0.57,0.53-0.97c0-0.3-0.1-0.54-0.29-0.72
			c-0.19-0.19-0.43-0.33-0.72-0.43c-0.28-0.1-0.69-0.21-1.21-0.33c-0.65-0.16-1.18-0.31-1.58-0.47c-0.4-0.16-0.74-0.4-1.03-0.72
			c-0.28-0.33-0.43-0.77-0.43-1.32c0-0.46,0.12-0.88,0.37-1.25c0.24-0.37,0.61-0.67,1.11-0.89c0.5-0.22,1.11-0.33,1.85-0.33
			c0.51,0,1.02,0.07,1.51,0.2c0.49,0.13,0.92,0.32,1.27,0.57l-0.41,0.99c-0.36-0.23-0.75-0.41-1.16-0.53
			c-0.41-0.12-0.82-0.18-1.21-0.18c-0.7,0-1.23,0.13-1.58,0.38c-0.35,0.26-0.53,0.59-0.53,0.99c0,0.3,0.1,0.54,0.3,0.72
			c0.2,0.19,0.44,0.33,0.74,0.43c0.29,0.1,0.69,0.21,1.2,0.33c0.65,0.16,1.18,0.31,1.57,0.47c0.4,0.16,0.74,0.4,1.02,0.72
			c0.28,0.32,0.43,0.76,0.43,1.3c0,0.45-0.12,0.87-0.37,1.24c-0.25,0.38-0.62,0.67-1.13,0.89c-0.5,0.22-1.12,0.33-1.86,0.33
			C1017.34,371.38,1016.71,371.28,1016.11,371.08z"/>
		<path class="st0" d="M1025.98,367.43l-1.59,1.61v2.24h-1.24v-8.67h1.24v4.84l4.71-4.84h1.41l-3.7,3.9l3.94,4.77h-1.45
			L1025.98,367.43z"/>
		<path class="st0" d="M1041.68,370.21v1.08h-6.29v-8.67h6.12v1.08h-4.88v2.66h4.35v1.05h-4.35v2.8H1041.68z"/>
		<path class="st0" d="M1051.1,362.61l-3.8,8.67h-1.22l-3.81-8.67h1.34l3.12,7.12l3.15-7.12H1051.1z"/>
		<path class="st0" d="M1057.45,369.12h-4.61l-0.95,2.17h-1.27l3.93-8.67h1.23l3.94,8.67h-1.3L1057.45,369.12z M1057.01,368.13
			l-1.87-4.25l-1.87,4.25H1057.01z"/>
		<path class="st0" d="M1060.99,362.61h1.24v7.59h4.69v1.08h-5.93V362.61z"/>
		<path class="st0" d="M1069.09,370.39c-0.64-0.66-0.96-1.61-0.96-2.85v-4.93h1.24v4.88c0,1.86,0.81,2.79,2.44,2.79
			c0.79,0,1.4-0.23,1.82-0.69c0.42-0.46,0.63-1.16,0.63-2.1v-4.88h1.2v4.93c0,1.25-0.32,2.2-0.97,2.85
			c-0.64,0.66-1.54,0.98-2.7,0.98C1070.63,371.38,1069.73,371.05,1069.09,370.39z"/>
		<path class="st0" d="M1083.33,369.12h-4.61l-0.95,2.17h-1.27l3.93-8.67h1.23l3.94,8.67h-1.3L1083.33,369.12z M1082.89,368.13
			l-1.87-4.25l-1.87,4.25H1082.89z"/>
		<path class="st0" d="M1088.16,363.69h-2.97v-1.08h7.17v1.08h-2.97v7.59h-1.22V363.69z"/>
		<path class="st0" d="M1093.7,362.61h1.24v8.67h-1.24V362.61z"/>
		<path class="st0" d="M1099.09,370.81c-0.7-0.38-1.25-0.91-1.65-1.59c-0.4-0.68-0.6-1.43-0.6-2.27c0-0.83,0.2-1.59,0.6-2.27
			c0.4-0.68,0.95-1.21,1.65-1.59c0.7-0.38,1.49-0.58,2.37-0.58c0.87,0,1.65,0.19,2.35,0.58c0.7,0.38,1.25,0.91,1.65,1.59
			c0.4,0.67,0.59,1.43,0.59,2.27c0,0.84-0.2,1.6-0.59,2.27c-0.4,0.67-0.95,1.2-1.65,1.59c-0.7,0.38-1.49,0.58-2.35,0.58
			C1100.58,371.38,1099.79,371.19,1099.09,370.81z M1103.17,369.85c0.51-0.29,0.91-0.69,1.2-1.19c0.29-0.51,0.44-1.07,0.44-1.7
			c0-0.63-0.15-1.19-0.44-1.7c-0.29-0.51-0.69-0.91-1.2-1.19c-0.51-0.29-1.08-0.43-1.71-0.43c-0.64,0-1.21,0.14-1.73,0.43
			c-0.52,0.29-0.92,0.69-1.21,1.19c-0.29,0.51-0.44,1.08-0.44,1.7c0,0.63,0.15,1.19,0.44,1.7c0.29,0.51,0.7,0.91,1.21,1.19
			c0.52,0.29,1.09,0.43,1.73,0.43C1102.09,370.28,1102.66,370.14,1103.17,369.85z"/>
		<path class="st0" d="M1115.4,362.61v8.67h-1.02l-5.2-6.46v6.46h-1.24v-8.67h1.02l5.2,6.46v-6.46H1115.4z"/>
	</g>
</g>
<g>
	<path class="st0" d="M311.76,348.26h-2.48v-1.24h2.48V348.26z M306.8,348.26h-2.48v-1.24h2.48V348.26z M301.85,348.26h-2.48v-1.24
		h2.48V348.26z M296.9,348.26h-2.48v-1.24h2.48V348.26z M291.94,348.26h-2.48v-1.24h2.48V348.26z M286.99,348.26h-2.48v-1.24h2.48
		V348.26z M282.04,348.26h-2.48v-1.24h2.48V348.26z M277.08,348.26h-2.48v-1.24h2.48V348.26z M272.13,348.26h-2.48v-1.24h2.48
		V348.26z M267.18,348.26h-2.48v-1.24h2.48V348.26z M262.23,348.26h-2.48v-1.24h2.48V348.26z M257.27,348.26h-1.92v-1.24h1.92
		V348.26z"/>
</g>
<g>
	<g>
		<rect x="537.22" y="243.55" class="st0" width="1.24" height="1.24"/>
	</g>
	<g>
		<path class="st0" d="M534.71,457.76h-2.47v-1.24h2.47V457.76z M529.77,457.76h-2.47v-1.24h2.47V457.76z M524.81,457.75
			c-0.85-0.03-1.7-0.1-2.53-0.22l0.18-1.23c0.78,0.11,1.58,0.18,2.39,0.21L524.81,457.75z M519.79,457.02
			c-0.82-0.22-1.63-0.49-2.41-0.81l0.46-1.15c0.73,0.3,1.5,0.55,2.27,0.76L519.79,457.02z M515.08,455.11
			c-0.74-0.41-1.47-0.88-2.14-1.37l0.73-1c0.64,0.47,1.31,0.9,2.01,1.29L515.08,455.11z M510.98,452.1
			c-0.62-0.59-1.2-1.22-1.72-1.88l0.97-0.77c0.49,0.61,1.03,1.21,1.61,1.76L510.98,452.1z M507.81,448.12
			c-0.44-0.74-0.82-1.51-1.14-2.29l1.15-0.47c0.3,0.73,0.65,1.44,1.06,2.13L507.81,448.12z M505.88,443.39
			c-0.2-0.83-0.33-1.68-0.4-2.53l1.23-0.1c0.06,0.79,0.19,1.58,0.37,2.35L505.88,443.39z M506.66,438.34h-1.24v-2.47h1.24V438.34z
			 M506.66,433.4h-1.24v-2.47h1.24V433.4z M506.66,428.46h-1.24v-2.47h1.24V428.46z M506.66,423.52h-1.24v-2.47h1.24V423.52z
			 M506.66,418.58h-1.24v-2.47h1.24V418.58z M506.66,413.64h-1.24v-2.47h1.24V413.64z M506.66,408.7h-1.24v-2.47h1.24V408.7z
			 M506.66,403.75h-1.24v-2.47h1.24V403.75z M506.66,398.81h-1.24v-2.47h1.24V398.81z M506.66,393.87h-1.24v-2.47h1.24V393.87z
			 M506.66,388.93h-1.24v-2.47h1.24V388.93z M506.66,383.99h-1.24v-2.47h1.24V383.99z M506.66,379.05h-1.24v-2.47h1.24V379.05z
			 M506.66,374.11h-1.24v-2.47h1.24V374.11z M506.66,369.17h-1.24v-2.47h1.24V369.17z M506.66,364.23h-1.24v-2.47h1.24V364.23z
			 M506.66,359.28h-1.24v-2.47h1.24V359.28z M506.66,354.34h-1.24v-2.47h1.24V354.34z M506.66,349.4h-1.24v-2.47h1.24V349.4z
			 M506.66,344.46h-1.24v-2.47h1.24V344.46z M506.66,339.52h-1.24v-2.47h1.24V339.52z M506.66,334.58h-1.24v-2.47h1.24V334.58z
			 M506.66,329.64h-1.24v-2.47h1.24V329.64z M506.66,324.7h-1.24v-2.47h1.24V324.7z M506.66,319.76h-1.24v-2.47h1.24V319.76z
			 M506.66,314.81h-1.24v-2.47h1.24V314.81z M506.66,309.87h-1.24v-2.47h1.24V309.87z M506.66,304.93h-1.24v-2.47h1.24V304.93z
			 M506.66,299.99h-1.24v-2.47h1.24V299.99z M506.66,295.05h-1.24v-2.47h1.24V295.05z M506.66,290.11h-1.24v-2.47h1.24V290.11z
			 M506.66,285.17h-1.24v-2.47h1.24V285.17z M506.66,280.23h-1.24v-2.47h1.24V280.23z M506.66,275.29h-1.24v-2.47h1.24V275.29z
			 M506.66,270.34h-1.24v-2.47h1.24V270.34z M506.66,265.4h-1.24v-2.47h1.24V265.4z M506.72,260.52l-1.23-0.1
			c0.07-0.85,0.21-1.7,0.41-2.53l1.2,0.29C506.91,258.94,506.78,259.73,506.72,260.52z M507.83,255.92l-1.15-0.47
			c0.32-0.78,0.7-1.55,1.14-2.29l1.07,0.63C508.48,254.48,508.12,255.2,507.83,255.92z M510.24,251.84l-0.96-0.78
			c0.53-0.66,1.11-1.29,1.73-1.88l0.85,0.9C511.28,250.63,510.74,251.22,510.24,251.84z M513.7,248.55l-0.73-1
			c0.68-0.5,1.4-0.96,2.15-1.37l0.6,1.08C515.02,247.65,514.34,248.08,513.7,248.55z M517.87,246.24l-0.46-1.15
			c0.79-0.32,1.6-0.59,2.41-0.8l0.32,1.2C519.38,245.69,518.61,245.94,517.87,246.24z M522.49,245l-0.18-1.22
			c0.83-0.12,1.68-0.19,2.53-0.22l0.03,1.24C524.08,244.82,523.27,244.89,522.49,245z M534.75,244.79h-2.47v-1.24h2.47V244.79z
			 M529.8,244.79h-2.47v-1.24h2.47V244.79z"/>
	</g>
	<g>
		<rect x="537.22" y="456.52" class="st0" width="1.24" height="1.24"/>
	</g>
</g>
<g>
	<g>
		<path class="st0" d="M788.42,566.26h-2.47v-1.24h2.47V566.26z M783.48,566.26h-2.47v-1.24h2.47V566.26z M778.54,566.26h-2.47
			v-1.24h2.47V566.26z M773.6,566.26h-2.47v-1.24h2.47V566.26z M768.66,566.26h-2.47v-1.24h2.47V566.26z M763.71,566.26h-2.47v-1.24
			h2.47V566.26z M758.77,566.26h-2.47v-1.24h2.47V566.26z M753.83,566.26h-2.47v-1.24h2.47V566.26z M748.89,566.26h-2.47v-1.24h2.47
			V566.26z M743.95,566.26h-2.47v-1.24h2.47V566.26z M739.01,566.26h-2.47v-1.24h2.47V566.26z M734.07,566.26h-2.47v-1.24h2.47
			V566.26z M729.13,566.26h-2.47v-1.24h2.47V566.26z M724.19,566.26h-2.47v-1.24h2.47V566.26z M719.25,566.26h-2.47v-1.24h2.47
			V566.26z M714.3,566.26h-2.47v-1.24h2.47V566.26z M709.36,566.26h-2.47v-1.24h2.47V566.26z M704.42,566.26h-2.47v-1.24h2.47
			V566.26z M699.48,566.26h-2.47v-1.24h2.47V566.26z M694.54,566.26h-2.47v-1.24h2.47V566.26z M689.6,566.26h-2.47v-1.24h2.47
			V566.26z M684.66,566.26h-2.47v-1.24h2.47V566.26z M679.72,566.26h-2.47v-1.24h2.47V566.26z M674.78,566.26h-2.47v-1.24h2.47
			V566.26z M669.83,566.26h-2.47v-1.24h2.47V566.26z M664.89,566.26h-2.47v-1.24h2.47V566.26z M659.95,566.26h-2.47v-1.24h2.47
			V566.26z M655.01,566.26h-2.47v-1.24h2.47V566.26z M650.07,566.26h-2.47v-1.24h2.47V566.26z M645.13,566.26h-2.47v-1.24h2.47
			V566.26z M640.19,566.26h-2.47v-1.24h2.47V566.26z M635.25,566.26h-2.47v-1.24h2.47V566.26z M630.31,566.26h-2.47v-1.24h2.47
			V566.26z M625.36,566.26h-2.47v-1.24h2.47V566.26z M620.42,566.26h-2.47v-1.24h2.47V566.26z M615.48,566.26h-2.47v-1.24h2.47
			V566.26z M610.54,566.26h-2.47v-1.24h2.47V566.26z M605.6,566.26h-2.47v-1.24h2.47V566.26z M600.66,566.26h-2.47v-1.24h2.47
			V566.26z M595.72,566.26h-2.47v-1.24h2.47V566.26z M590.78,566.26h-2.47v-1.24h2.47V566.26z M585.84,566.26h-2.47v-1.24h2.47
			V566.26z M580.89,566.26h-2.47v-1.24h2.47V566.26z M575.95,566.26h-2.47v-1.24h2.47V566.26z M571.01,566.26h-2.47v-1.24h2.47
			V566.26z M566.07,566.26h-2.47v-1.24h2.47V566.26z M561.13,566.26h-2.47v-1.24h2.47V566.26z M556.19,566.26h-2.47v-1.24h2.47
			V566.26z M551.25,566.26h-2.47v-1.24h2.47V566.26z M546.31,566.26h-2.47v-1.24h2.47V566.26z M541.37,566.26h-2.47v-1.24h2.47
			V566.26z M536.42,566.26h-2.47v-1.24h2.47V566.26z M531.48,566.26h-2.47v-1.24h2.47V566.26z M526.54,566.26h-2.47v-1.24h2.47
			V566.26z M521.6,566.26h-2.47v-1.24h2.47V566.26z M516.66,566.26h-2.47v-1.24h2.47V566.26z M511.72,566.26h-2.47v-1.24h2.47
			V566.26z M506.78,566.26h-2.47v-1.24h2.47V566.26z M501.84,566.26h-2.47v-1.24h2.47V566.26z M496.9,566.26h-2.47v-1.24h2.47
			V566.26z M491.95,566.26h-2.47v-1.24h2.47V566.26z M487.01,566.26h-2.47v-1.24h2.47V566.26z M482.07,566.26h-2.47v-1.24h2.47
			V566.26z M477.13,566.26h-2.47v-1.24h2.47V566.26z M472.19,566.26h-2.47v-1.24h2.47V566.26z M467.25,566.26h-2.47v-1.24h2.47
			V566.26z M462.31,566.26h-2.47v-1.24h2.47V566.26z M457.37,566.26h-2.47v-1.24h2.47V566.26z M452.43,566.26h-2.47v-1.24h2.47
			V566.26z M447.48,566.26h-2.47v-1.24h2.47V566.26z M442.54,566.26h-2.47v-1.24h2.47V566.26z M437.6,566.26h-2.47v-1.24h2.47
			V566.26z M432.66,566.26h-2.47v-1.24h2.47V566.26z M427.72,566.26h-2.47v-1.24h2.47V566.26z M422.78,566.26h-2.47v-1.24h2.47
			V566.26z M790.89,566.25l-0.01-1.24c0.83,0,1.65-0.02,2.46-0.04l0.03,1.24C792.56,566.24,791.73,566.25,790.89,566.25z
			 M417.83,566.25c-0.83-0.01-1.66-0.03-2.48-0.05l0.04-1.24c0.81,0.03,1.63,0.04,2.46,0.05L417.83,566.25z M795.86,566.13
			l-0.05-1.24c0.83-0.03,1.65-0.08,2.45-0.13l0.08,1.24C797.52,566.05,796.69,566.1,795.86,566.13z M412.87,566.09
			c-0.84-0.04-1.66-0.09-2.48-0.15l0.09-1.24c0.81,0.06,1.63,0.11,2.45,0.15L412.87,566.09z M800.82,565.82l-0.11-1.23
			c0.83-0.07,1.64-0.15,2.45-0.23l0.13,1.23C802.48,565.67,801.65,565.75,800.82,565.82z M407.91,565.74
			c-0.84-0.08-1.66-0.16-2.47-0.26l0.14-1.23c0.8,0.09,1.62,0.18,2.45,0.25L407.91,565.74z M805.76,565.29l-0.16-1.23
			c0.83-0.11,1.64-0.22,2.43-0.35l0.19,1.22C807.42,565.06,806.6,565.18,805.76,565.29z M402.97,565.17
			c-0.84-0.12-1.66-0.24-2.46-0.38l0.21-1.22c0.79,0.13,1.6,0.26,2.43,0.37L402.97,565.17z M810.68,564.51l-0.23-1.22
			c0.82-0.15,1.63-0.32,2.4-0.49l0.27,1.21C812.33,564.19,811.51,564.35,810.68,564.51z M398.06,564.34
			c-0.84-0.17-1.65-0.34-2.44-0.53l0.28-1.2c0.77,0.18,1.57,0.35,2.39,0.52L398.06,564.34z M815.54,563.43l-0.31-1.2
			c0.82-0.22,1.6-0.44,2.35-0.68l0.37,1.18C817.19,562.98,816.38,563.21,815.54,563.43z M393.2,563.2
			c-0.84-0.24-1.64-0.48-2.39-0.74l0.4-1.17c0.74,0.25,1.51,0.49,2.33,0.72L393.2,563.2z M820.32,561.91l-0.45-1.15
			c0.8-0.31,1.55-0.64,2.21-0.97l0.56,1.11C821.94,561.24,821.16,561.58,820.32,561.91z M388.46,561.57
			c-0.84-0.35-1.61-0.73-2.28-1.11l0.61-1.08c0.64,0.36,1.37,0.71,2.16,1.05L388.46,561.57z M824.83,559.57l-0.72-1.01
			c0.71-0.51,1.26-1.03,1.62-1.55l1.01,0.71C826.3,558.36,825.66,558.98,824.83,559.57z M384.04,559c-0.8-0.69-1.36-1.41-1.67-2.15
			l1.14-0.48c0.24,0.56,0.69,1.13,1.34,1.69L384.04,559z M827.54,555.06h-1.24v-2.47h1.24V555.06z M383.31,554.18h-1.24v-2.47h1.24
			V554.18z M827.54,550.12h-1.24v-2.47h1.24V550.12z M383.31,549.24h-1.24v-2.47h1.24V549.24z M827.54,545.18h-1.24v-2.47h1.24
			V545.18z M383.31,544.3h-1.24v-2.47h1.24V544.3z M827.54,540.24h-1.24v-2.47h1.24V540.24z M383.31,539.36h-1.24v-2.47h1.24V539.36
			z M827.54,535.3h-1.24v-2.47h1.24V535.3z M383.31,534.42h-1.24v-2.47h1.24V534.42z M827.54,530.36h-1.24v-2.47h1.24V530.36z
			 M383.31,529.47h-1.24V527h1.24V529.47z M383.31,524.53h-1.24v-2.47h1.24V524.53z M383.31,519.59h-1.24v-2.47h1.24V519.59z
			 M383.31,514.65h-1.24v-2.47h1.24V514.65z M383.31,509.71h-1.24v-2.47h1.24V509.71z M383.31,504.77h-1.24v-2.47h1.24V504.77z
			 M383.31,499.83h-1.24v-2.47h1.24V499.83z M383.31,494.89h-1.24v-2.47h1.24V494.89z M383.31,489.95h-1.24v-2.47h1.24V489.95z
			 M383.31,485.01h-1.24v-2.47h1.24V485.01z M383.31,480.06h-1.24v-2.47h1.24V480.06z M383.31,475.12h-1.24v-2.47h1.24V475.12z
			 M383.31,470.18h-1.24v-2.47h1.24V470.18z M383.31,465.24h-1.24v-2.47h1.24V465.24z M383.31,460.3h-1.24v-2.47h1.24V460.3z
			 M383.31,455.36h-1.24v-2.47h1.24V455.36z M383.31,450.42h-1.24v-2.47h1.24V450.42z M383.31,445.48h-1.24v-2.47h1.24V445.48z
			 M383.31,440.54h-1.24v-2.47h1.24V440.54z M383.31,435.59h-1.24v-2.47h1.24V435.59z M383.31,430.65h-1.24v-0.15h1.24V430.65z"/>
	</g>
</g>
<g>
	<g>
		<rect x="463.35" y="347.02" class="st0" width="1.24" height="1.24"/>
	</g>
	<g>
		<path class="st0" d="M502.94,348.26h-2.4v-1.24h2.4V348.26z M498.14,348.26h-2.4v-1.24h2.4V348.26z M493.35,348.26h-2.4v-1.24h2.4
			V348.26z M488.56,348.26h-2.4v-1.24h2.4V348.26z M483.76,348.26h-2.4v-1.24h2.4V348.26z M478.97,348.26h-2.4v-1.24h2.4V348.26z
			 M474.18,348.26h-2.4v-1.24h2.4V348.26z M469.38,348.26h-2.4v-1.24h2.4V348.26z"/>
	</g>
	<g>
		<rect x="505.34" y="347.02" class="st0" width="1.24" height="1.24"/>
	</g>
	<g>
		<g>
			<path class="st0" d="M506.34,352.29c2.57,0,4.66-2.08,4.66-4.66s-2.08-4.66-4.66-4.66c-2.57,0-4.66,2.08-4.66,4.66
				S503.77,352.29,506.34,352.29z"/>
		</g>
	</g>
</g>
<g>
	<path class="st0" d="M511,346.4l0-1.24h0V346.4z M508.5,346.3l-2.47-0.09l0.05-1.24l2.47,0.09L508.5,346.3z"/>
</g>
<g>
	<g>
		<rect x="901.05" y="456.52" class="st0" width="1.24" height="1.24"/>
	</g>
	<g>
		<path class="st0" d="M912.17,457.76h-2.47v-1.24h2.47V457.76z M907.23,457.76h-2.47v-1.24h2.47V457.76z M914.66,457.75l-0.03-1.24
			c0.8-0.02,1.6-0.09,2.39-0.2l0.18,1.23C916.36,457.66,915.51,457.73,914.66,457.75z M919.68,457.02l-0.32-1.2
			c0.78-0.21,1.54-0.46,2.27-0.76l0.46,1.15C921.31,456.53,920.5,456.8,919.68,457.02z M924.39,455.13l-0.6-1.08
			c0.7-0.39,1.38-0.82,2.02-1.29l0.73,1C925.86,454.26,925.13,454.72,924.39,455.13z M928.49,452.13l-0.85-0.9
			c0.58-0.55,1.12-1.14,1.61-1.76l0.97,0.77C929.7,450.9,929.11,451.54,928.49,452.13z M931.68,448.15l-1.06-0.63
			c0.41-0.68,0.76-1.4,1.06-2.13l1.15,0.47C932.5,446.64,932.12,447.41,931.68,448.15z M933.61,443.42l-1.2-0.29
			c0.19-0.77,0.31-1.56,0.38-2.34l1.23,0.1C933.95,441.74,933.81,442.59,933.61,443.42z M934.08,438.37h-1.24v-2.47h1.24V438.37z
			 M934.08,433.43h-1.24v-2.47h1.24V433.43z M934.08,428.49h-1.24v-2.47h1.24V428.49z M934.08,423.55h-1.24v-2.47h1.24V423.55z
			 M934.08,418.61h-1.24v-2.47h1.24V418.61z M934.08,413.67h-1.24v-2.47h1.24V413.67z M934.08,408.73h-1.24v-2.47h1.24V408.73z
			 M934.08,403.79h-1.24v-2.47h1.24V403.79z M934.08,398.85h-1.24v-2.47h1.24V398.85z M934.08,393.91h-1.24v-2.47h1.24V393.91z
			 M934.08,388.96h-1.24v-2.47h1.24V388.96z M934.08,384.02h-1.24v-2.47h1.24V384.02z M934.08,379.08h-1.24v-2.47h1.24V379.08z
			 M934.08,374.14h-1.24v-2.47h1.24V374.14z M934.08,369.2h-1.24v-2.47h1.24V369.2z M934.08,364.26h-1.24v-2.47h1.24V364.26z
			 M934.08,359.32h-1.24v-2.47h1.24V359.32z M934.08,354.38h-1.24v-2.47h1.24V354.38z M934.08,349.44h-1.24v-2.47h1.24V349.44z
			 M934.08,344.49h-1.24v-2.47h1.24V344.49z M934.08,339.55h-1.24v-2.47h1.24V339.55z M934.08,334.61h-1.24v-2.47h1.24V334.61z
			 M934.08,329.67h-1.24v-2.47h1.24V329.67z M934.08,324.73h-1.24v-2.47h1.24V324.73z M934.08,319.79h-1.24v-2.47h1.24V319.79z
			 M934.08,314.85h-1.24v-2.47h1.24V314.85z M934.08,309.91h-1.24v-2.47h1.24V309.91z M934.08,304.97h-1.24v-2.47h1.24V304.97z
			 M934.08,300.02h-1.24v-2.47h1.24V300.02z M934.08,295.08h-1.24v-2.47h1.24V295.08z M934.08,290.14h-1.24v-2.47h1.24V290.14z
			 M934.08,285.2h-1.24v-2.47h1.24V285.2z M934.08,280.26h-1.24v-2.47h1.24V280.26z M934.08,275.32h-1.24v-2.47h1.24V275.32z
			 M934.08,270.38h-1.24v-2.47h1.24V270.38z M934.08,265.44h-1.24v-2.47h1.24V265.44z M932.79,260.55
			c-0.06-0.78-0.19-1.57-0.37-2.34l1.2-0.29c0.2,0.83,0.33,1.68,0.4,2.53L932.79,260.55z M931.69,255.94
			c-0.3-0.72-0.65-1.44-1.06-2.13l1.07-0.63c0.44,0.74,0.82,1.51,1.14,2.29L931.69,255.94z M929.28,251.86
			c-0.49-0.61-1.03-1.21-1.61-1.76l0.86-0.89c0.62,0.59,1.2,1.22,1.72,1.88L929.28,251.86z M925.83,248.57
			c-0.64-0.47-1.32-0.9-2.01-1.29l0.6-1.08c0.74,0.41,1.46,0.87,2.15,1.37L925.83,248.57z M921.66,246.25
			c-0.74-0.3-1.5-0.55-2.27-0.76l0.32-1.2c0.82,0.22,1.63,0.49,2.41,0.81L921.66,246.25z M917.04,245
			c-0.79-0.11-1.59-0.18-2.39-0.21l0.03-1.24c0.85,0.02,1.7,0.1,2.53,0.22L917.04,245z M912.2,244.79h-2.47v-1.24h2.47V244.79z
			 M907.26,244.79h-2.47v-1.24h2.47V244.79z"/>
	</g>
	<g>
		<rect x="901.05" y="243.55" class="st0" width="1.24" height="1.24"/>
	</g>
</g>
<g>
	<g>
		<rect x="974.91" y="347.02" class="st0" width="1.24" height="1.24"/>
	</g>
	<g>
		<path class="st0" d="M972.52,348.26h-2.4v-1.24h2.4V348.26z M967.72,348.26h-2.4v-1.24h2.4V348.26z M962.93,348.26h-2.4v-1.24h2.4
			V348.26z M958.14,348.26h-2.4v-1.24h2.4V348.26z M953.34,348.26h-2.4v-1.24h2.4V348.26z M948.55,348.26h-2.4v-1.24h2.4V348.26z
			 M943.75,348.26h-2.4v-1.24h2.4V348.26z M938.96,348.26h-2.4v-1.24h2.4V348.26z"/>
	</g>
	<g>
		<rect x="932.93" y="347.02" class="st0" width="1.24" height="1.24"/>
	</g>
	<g>
		<g>
			<path class="st0" d="M933.16,342.98c-2.57,0-4.66,2.08-4.66,4.66s2.08,4.66,4.66,4.66c2.57,0,4.66-2.08,4.66-4.66
				S935.73,342.98,933.16,342.98z"/>
		</g>
	</g>
</g>
<g>
	<path class="st0" d="M756.98,457.76h-2.48v-1.24h2.48V457.76z M752.02,457.76h-2.48v-1.24h2.48V457.76z M747.07,457.76h-2.48v-1.24
		h2.48V457.76z M742.12,457.76h-2.48v-1.24h2.48V457.76z M737.16,457.76h-2.48v-1.24h2.48V457.76z M732.21,457.76h-2.48v-1.24h2.48
		V457.76z M727.26,457.76h-2.48v-1.24h2.48V457.76z M722.31,457.76h-2.48v-1.24h2.48V457.76z M717.35,457.76h-2.48v-1.24h2.48
		V457.76z M712.4,457.76h-2.48v-1.24h2.48V457.76z M707.45,457.76h-2.48v-1.24h2.48V457.76z M702.49,457.76h-2.48v-1.24h2.48V457.76
		z"/>
</g>
<g>
	<path class="st0" d="M756.98,244.79h-2.48v-1.24h2.48V244.79z M752.02,244.79h-2.48v-1.24h2.48V244.79z M747.07,244.79h-2.48v-1.24
		h2.48V244.79z M742.12,244.79h-2.48v-1.24h2.48V244.79z M737.16,244.79h-2.48v-1.24h2.48V244.79z M732.21,244.79h-2.48v-1.24h2.48
		V244.79z M727.26,244.79h-2.48v-1.24h2.48V244.79z M722.31,244.79h-2.48v-1.24h2.48V244.79z M717.35,244.79h-2.48v-1.24h2.48
		V244.79z M712.4,244.79h-2.48v-1.24h2.48V244.79z M707.45,244.79h-2.48v-1.24h2.48V244.79z M702.49,244.79h-2.48v-1.24h2.48V244.79
		z"/>
</g>
</svg>
